<mxfile host="app.diagrams.net" modified="2023-11-01T09:45:57.910Z" agent="Mozilla/5.0 (Windows NT 10.0; Win64; x64) AppleWebKit/537.36 (KHTML, like Gecko) Chrome/117.0.0.0 Safari/537.36 OPR/103.0.0.0" etag="-CbF15GRToKOJqsTKu1g" version="22.0.8" type="google">
  <diagram name="Page-1" id="zHfiMGKVO5kkVuLSR2fB">
    <mxGraphModel grid="1" page="1" gridSize="10" guides="1" tooltips="1" connect="1" arrows="1" fold="1" pageScale="1" pageWidth="850" pageHeight="1100" math="0" shadow="0">
      <root>
        <mxCell id="0" />
        <mxCell id="1" parent="0" />
        <mxCell id="U1zBWMsSg_qtkmrrzLIc-1" value="" style="shape=image;verticalLabelPosition=bottom;labelBackgroundColor=default;verticalAlign=top;aspect=fixed;imageAspect=0;image=data:image/png,iVBORw0KGgoAAAANSUhEUgAAA/wAAAJnCAYAAAAqd1jPAAAAAXNSR0IArs4c6QAAAARnQU1BAACxjwv8YQUAAAAJcEhZcwAADsMAAA7DAcdvqGQAAP+lSURBVHhe7N0HYBTV1gfw/6aHEhJ67yC9F0E6IkgVkCIdBQXEgk/0U4rUZwOUZ8FC70URkK6AFOm9dwIkoSWB9L77nTM7IZvd2WR308P5vTeyMzszO9mdufeeuWV0BgIhhBBCCCGEEELkKk7qv0IIIYQQQgghhMhFJOAXQgghhBBCCCFyIQn4hRBCCCGEEEKIXEgCfiGEEEIIIYQQIheSgF8IIYQQQgghhMiFJOAXQgghhBBCCCFyIQn4hRBCCCGEEEKIXEgCfiGEEEIIIYQQIheSgF8IIYQQQgghhMiFJOAXQgghhBBCCCFyIQn4hRBCCCGEEEKIXEgCfiGEEEIIIYQQIheSgF8IIYQQQgghhMiFJOAXQgghhBBCCCFyIQn4hdDw5MkTuLm5Zfr0559/qkcgcrqXXnrJ4vfdt2+f+q5Iyd27d/Hdd9+hf//+aNSoEQoWLAgPDw9l8vHxUZYNGjQI8+bNw6NHj9Stsrd169ZZnA88ff311+oaGefx48fInz+/xWf/73//U9cw6ty5s8U6u3fvVt+1zblz53Dt2jV17tkwceJEi+9t9uzZ6rsZr0SJEhafz3mYEFmtS5cuFufmrl271HeFEJlFAn4hrIiLi8v0yWAwqJ8ucrr4+Hj5fe104sQJdOjQAWXLlsW7776LNWvWKMs4YI2JiVEmDmR42YoVKzBmzBgl2OnTpw98fX3VvWRP3bp1Q758+SzOiaVLl2b4ebF69WqEh4cn+1w2YMAA5d9EaTlnQ0ND8cEHH6B+/fq4ffu2uvTZkJCQYPG96fV69d2MZ/7ZPAmRHUg+KET2IAG/EEKILBUbG4uxY8cqNfd///23utQ2HGz99ttvqF69Or799ttsW5jk1gkDBw5U55KcP38eZ8+eVecyxuLFi9VXSV555RUULlxYnXMcf9+rVq1CtWrV8M033yi/hxBCCCGyDwn4hRBCZJnIyEh07doVP/zwg7rEMdHR0Rg3bhw++uijbBv0v/766+qr5JYvX66+Sn+XLl3C0aNH1bkkI0aMUF+lzTvvvKO0FLh37566RAghhBDZiY4KRtK2Rggz3GyY+wqbGzx4MGrVqqXOpb9evXqhcuXK6pzIydq1a4c9e/aoc0b//PMPWrdurc4JxoHnggUL1DlLjRs3Rtu2beHl5aU0kw4MDMTmzZtx8+ZNdQ1L3P+fWwxkRw0aNMCpU6fUOaOSJUvizp07cHZ2Vpekn//7v//Dl19+qc4ZlStXTvn+nJyS3/PncSf++usvdc6IW1y0b99enbPUvXt3i7FHeB8vvviiOpf7ffLJJ/jiiy/UOaOvvvoK48ePV+cyFrfUCAoKUueMuBuMt7e3OidE1ujYsSN27typzhk9a+mDENmBBPxCaLAW8P/xxx9KU1ghUsMDEz18+FCdM+LAqWjRouqc4Kb43P/eHAeiXFv/xhtvKE31zXG2deTIEWXAu/Xr16tLk3Dzee7nX6NGDXVJ9sEtGbRuRqQWWDuCm9fzeAgBAQHqEqOpU6di8uTJ6lwSvkF1//59dc6Ib7YUL15cnbMkAX/WB/y///670i3GVO/evZUB0oTIShLwC5E9SMAvhAYJ+IXIWFxbX6dOHVy4cEFdYsRBCgcw3Mw/NZx9TZ8+HZ999pm6JEm/fv2UweqyG6555YEGeQBCU8OGDcOiRYvUufSxfft2vPzyy+qckU6nUwY45BsB6UEC/qwP+IXIriTgFyJ7kD78QgghMh0XAs2Dffbrr7/aFOwzDl65pvrNN99UlyTh1gP+/v7qXPbBNxK56445vsnB4xmkJ63B+rgAnl7BvhBCCCGyPwn4hRBCZLpNmzapr5JUqlRJGSfDXp9++qlFf3Ruzm4+hkJ2wV0VzIWFhWl+J47ilgQbNmxQ55Kk12B9QgghhMgZJOAXQqTZgwcPlIHIeDTw06dPKwOrZZZHjx7h2LFjyqPNIiIi1KWOCQkJUWqdeX9nzpzB9evXldHfsxo3Xffz83t6bCdPnsSNGzcy7VnfPAK76e8bHBysvuM4rWB8yJAhSq29vXgQOq1ac+7Hnx1xv/jy5curc0nSc7T+tWvXWnQbKFKkCLp166bO5Qx8jvO5zr8ln3/8GMOoqCj13YzF1x2nAXzNXb58OV2uN/5Nzp07p/wtnMaEh4er7+QO3Erl2rVrSjqRmI5yF7nMwOMY8FMp+HOPHz+OK1euKM+Bzwx8rnA6yX8vf37i324+mGJG4TSZ/2b+TL55mBbm+SBff5mRD/J3ePv2beVa57+Ff0t+br8QIu2kD78QGrJTH37ub8uZn7l8+fKhU6dO6pztOFjUGuGcR0PnwMkWnAnzYGkrVqxQMmfzQcFY6dKlleeqDx8+HF26dLF7BHIuYPBo7KZ4hPOKFSsqr7nf8LRp05J9NzxYG38n3H+7b9++FrW+5jj5+/fff5W+zjxoGhdwzAv1np6eymBq/DfwfrXOCy179+5VbkaY4hH6OeiyBRde+bg4cNu9e7fmY8/y5MmDmjVrolmzZkrNOH/f6YGDknXr1inPV+fzxXwgN8bNwvmc4UfN8Xee2ndtim/M8Plr7urVq6hSpYo6Z5+ZM2di4sSJ6pwRD1zGTfut4VpwHlzRHH+nWoMFpic+d83HHuBrhH9nW8+RlPA5cfjwYXXO6D//+Q9mzZqlzlnat2+fxUCTrVq1SjbQJD9NwPQxf9x33fzGyqRJk5TxGUy1aNEixcH/TPENw/nz52Pr1q3KjSbzoJjPNX7uPx/b6NGjLT7LFpwG8rltiruScBrC1x4PCPnTTz8pN9oS8fFz+s/nPJ/7iVLrw89pCl9PvD/+TUyDJ/5bateurdwEeuutt5S/y17cMsR80D4eWyGzBu3jIG3lypXYsmWLcm5oBWllypRRfif+jvv3759uTxDgYHTevHnKE1D4Ror59+Du7q58v9yVZdSoUUq+lB74RgLnGdyKhs8jvrkQGhqqvpsc5xnPPfec8hQMTqfteRIPf455Sx3+HqtWraq85v7w3K2JBzFNLM7z38x95Dm/eu211+Di4qIst4a3O3DgwNN8kPNU83yQ8xrOBzt37mxXPphaH37+bE6Df/zxRyUvNk9/+HOff/55ZX2+PgoWLKi+I4SwC11sQggzFAhwzmkxUcCvrpF5qBBhKF++vObxUOasrmUbCswNVNCy2A8F0YawsDB1LeuoEGD4+eefDSVLlrTYR0oTHz8FXupebEOBj8V+fvnlF+W9GTNmWLxnPvXq1UtZ15qDBw8aXnjhBc1trU383VHAZKBCmLoX66gAb7E9FUrVd1PG31WJEiUstk9toiDPQIVPdS/249/3f//7n6FYsWKa+7c2VapUyfDnn3+qe0ndo0ePDBSMG6gQbKCA5+l+YmJi1DXsRwFWsmPiqWfPnuq72qhga7ENT3x+ZTQKkgw6nc7is7/77jt1DcddunTJYr88Xbx4UV1DW4cOHSy2MU9jVqxYYbGOLRMFE+oerOO0bsyYMQYKujX3YW3ia+3y5cvqXmzDaYn5fjjNiYqKMrRu3driPfNpwYIF6p4Mhv/7v/+zeJ/PR8bHVb9+fYv3tSY+HyhAU64PexQqVMhiX5yHZbSgoCDDsGHDLD47tSlv3ryGjz/+2BAdHa3uyX58/fTo0UPzGrI2OTs7GwYNGmQIDAxU92K/hIQEw9y5cx1KnxMn/o3v37+v7jFlnC+bbz9nzhzlvW+++cbiPfOJr+mUUJBtaN68uea21iYK9g2zZ8+2KR986aWXLLangF9578KFC4YmTZpYvG9t8vLyUr57zqeEEPaRgF8IDdkp4GccKGoVbKpUqaIUUG3BmSQXkMz3wfs9cOCAupZ1XLjjAMp8e3umN954wxAeHq7uMWXWAv758+dbLNeapk6dqu4pOS6kvP/++3YVFM2nl19+OdW/w5GAn3+jDz74wGI7eyY3NzfDvHnz1D3a7sGDB4bOnTtr7tPWiYM1W8/HRLw+36RYvny5usQx48aNszie4cOHq+9qy8qAn3Xs2NHis5s2baq+6zitAJRvbqUmKwN+/i04PdPa1pYpT548hl9//VXdW+q0An4/Pz/lRqH5cq3J9MaatYCfbyoWLFjQ4r3UJr5Bevr0aXXvqcuKgP/atWtWb0TbOjVu3Nhw69YtdY+2+/3335WgU2uftkx8w3rXrl3q3mx3/fp1u28SW5v4vDhx4oS6Z+usBfyrVq2yWK41jR8/Xt1TcnFxcYZ33303Tfkg5xcRERHqHrVZC/jXrVun3Pgxf8+WifNICfqFsI8E/EJoyG4BP9MKaHiyFtiaW7lypeb2XNOSmocPHxpq1Kihub29U5s2bVItJDCtgP+dd94xuLq6WizXmqwVJHkfWuvbO7Vo0cIQGRmp7tWSIwE/tx4w38bRiQMzW3HLj8qVK2vux96Jg9i01Nw5gguvpUqVsjiW1GrLszrgX7NmjebnX716VV3DfnxDS6sFzsKFC9U1rMuqgH/37t121+pbm2z97bQC/g8//NBimdZUu3btZAGHVsD/+uuvG/Lnz2+x3NaJgyFbg/7MDviDg4MNVatWtfhMRyZu5WNL67JE33//veZ+7J1cXFwMGzduVPeaOr4ZVLp0ac19OTrx/rhVS0q0Av7Ro0cbPD09LZZrTefPn1f3lITPXb45q7W+vVPLli1TvMmrFfCPGDHCYpm905dffql+ghDCFhLwC6EhOwb8HFxWr17d4pjc3d1TDRC49larUMgF19SCM/7clJrd1apVy/D1118rBfr9+/cr//7444+GOnXqaK7PE9eicdPIlGgF/KbNv3nimnauGd63b59hyZIlyrHwcm6Sq4WbA5pubzpxc8G3335b+Y337NmjTD/88IPh+eef11yfp8Rmu1rsDfi5GTY3OTXfhgt23bt3Vwo4id/x3r17DatXrzYMGTLEak0XL7el6SoXKOvWrau5D564OTI3Hd2xY4fy2du2bVMC6ZRuAA0cODBTa2A2bNigeRxHjhxR19CW1QE/X3ta1+Vnn32mrmE//p3M98eBpy1BVVYE/OfOnTPky5dPcxu+3rkWka9trpHl8567jkycONFQuHBhzW14Mm1ub41WwG9a28nX3ahRowxbt25V0oLp06c/ra3nG3OmtAJ+rYmvGW6FwN8p3+Tg75JvHGqty1OFChUMISEh6qdYl9kB/8iRIy0+jye+CcCBJKfJ/J1xyzGuzeW0i7sbaW3Dk7VaaHPc1Ulre5749xo8eLBSc5yYfnNa/uabb1q9mcTLDx8+rO7dOk7LWrVqpbkPzn87depkmDZtmmHz5s1KXsTp5M6dOw3ffvutEvByqyutbXnitDUlWgG/eT7Yvn175Rrhz+ZzqkGDBsryhg0bqntJLqWuAJwPjh071q580Px6MKUV8JtP/Dtw60HuLsh5JE+cv73yyivKjRlr2/CNaiGEbSTgF0JDdgz42bFjxzSDQi6opxRg9enTx2Ibrim3pQbJWssC7vfHAZO1z+XlXEi3VlBKrcZRK+BPnPg7WLp0qbpmEr6JwH0LFy9erC5JwsGCVvNFXsYBVkoBEf8dWoVq7tPPXR202Bvwc2HVfH0OxG/cuKGuoY1riKw1Q+basNS89dZbmttyS4yUzg/+fTmIs1YQ5AJbZuDfnGuZzD+fmxundlMpqwN+9t5771l8Po+JkNL1nBLuH2y+Pw56bGFLwM+tc+7evft0evHFFy224dZEpuvwpFULGBsba6hWrZrF9jxxSxx/f391TUt8I5KDZ62WHRwMcB/vlGgF/IlTmTJllP7F5jj45sCE0yZTqQX8ZcuWVYJgrT7P/DtzcGjtBil3P0pNZgb8d+7c0cyD+JpJrU83p6NaNyg5HU3txjPXsGs1Aed8jJu4p3RjhMdE4OPTqhXnlk2pjR2idRONJ84Db968qa5lHR8bd2fT2gef/ynRCvgTJ867fvrpJ4u0gue5WxcH6uY4D9LKB/kmwpQpU1LsqsZpgVYXFf5NudWHltQC/ldffVVJH6zh351vXGhtO3PmTHUtIURqJOAXQkN2DfjZ5MmTNY+N+/RpsVYr8vnnn6trWMctB7TusPMNBFubbXNhimuozfdRvHjxFJszphTwcwE7JVrBEgew5vvhv23Tpk3qGik7c+aMZoGTmwFrsSfg58DUvCDFtUK+vr7qGinjJu1aA41xgTQlXLtqXlvEE9984GDMFhx4aRXqOMhJqctDeuHCvvln88Q3fnICPq+0jp/7f9uL0y2t2syjR4+qa6TMloDfXLdu3Sy2SRyUKzXWmmdzMG4rviHGAbr5PvjGR0pSCvi5htYarbQlpYCfm23bch1zwJTYQsl04t/T/AaDucwM+Pkmi/lncUsjW/Egcebb88StdFLC43GYb8PpMddq24pvOGgF/SnVUDNuSWa+Dadvto5Hw/i8sdYywtpNY5ZSwM8t0lKida5q3YDnfJBbJ9iCbwLzeBnm+/joo4/UNZJLKeC3lnea4xs2Wt0p+EavEMI2EvALocFawP/f//5XaaaY3pM9AzRxIJbYZM904pHVzQt53KS7aNGiFutyIGjLCLtaLQM4k7V3NHUO/LRqsPj7tMZawM+1QfYGktZqcnlEentwU2LzfXCTTq0xCewJ+K9cuWKxbt++fdV3bcPnkfk+eEqpMNmlSxeL9bmAxjcQ7MGFUu6La74vbtKakbjVhtaYDvzUCXsK41mtUaNGFn8DN422FzeJNd+PeX/zlGRmwM83+7Sa5TtSa8fpJ1+H5vs6e/asuoYlawE/1zjay1rAz8G6PWk73xgoUKCAxX5Sa/KemQG/Vk01p6/20LoBzP26reHfUatWmmve7cUtLcz3w9+5tTyFR9M3X58nR27+c396rX2l9P1ZC/j5xsWTJ0/UtWzDN/609mVLSzBTn376qcU++FzX+g6tBfxdu3ZNtQWWKe4WYr4PLtsIIWwjAb8QGqwF/Bk12TsyNxcctAq4XIOQiAv5XHg1X4fvzvMIy6nhGiet2n3ue+qItWvXWuyLm6xbYy3g58cq2UtrgCJuSmnLTQ9TXMDSatKoFcjbE/BzP1LzdQcMGKC+a7t69eo93Z7PD24KyTcTtPD3q1WITq3fuzXcjcJ8X9xvN6Pw4860Ah3+m+yp9csOuPmt+d/Bf5u9N9a0Hq/F41bYKjMDfq1BRPkGgKOtQrS6xPANOmusBfw8kKK9rAX81mo9U8KDsJrvhx8Bl1JwlJkBv1b3IXtuajDuwmC6PQ8yyV3HrPnPf/6TbH2erI3TkhrOF7XGH7EWwHOQzDerTW8s8va23kQzp/UkipTyVGsBPz9xx148JoX5fnhcIHvzQT63tLpmaKW71gJ+rcEEU8Kt0bT2k1HnuRC5jRNdMEKIHKZmzZqYMWOGOpfk119/xY4dO5TX3333HX777TfltalZs2ahcuXK6px1mzdvBhUE1Dmj+vXro02bNuqcfbp27QovLy91zujMmTO4fv26OmcbCqTVV7bbtGmT+ioJFSLh7OysztmmQIECoAKvOgcULVoUFCSBCuPqEsd4eHior5Js27YN9+/fV+dsQwEOVq1ahQsXLiA8PBzHjx9H1apV1XeT27hxI9/wVeeMWrRogSZNmqhz9unZs6fF33Ho0CH4+fmpc+nn1KlTaNmyJYKCgtQlST744APlvZzktddes/ju+G9LvJZtcfXqVRw8eFCdM3J3d8egQYPUueyFAiz1VZIxY8bA09NTnbOP1t+plf6lxpH0RQt/9x9++KE6Z7t33nkHbm5u6pzRvXv3QIGnOpe1tNKqRYsWqa9s07hxY8yePRt///03Hj16BH9/f8yZM0d9NzlOo7TOFU6/HaHT6TBw4EB1Lom1c4WPlfMpTk/536VLl+KLL75Q9uOIkiVLqq+SmOeztmjXrp36ynZa+SCfo/bmg97e3kp6nygxH7T172jYsKFShrEHr1+6dGl1LsmtW7fUV0KIFClhvxAimexew8/4rrzWYGVcG8Qj9mr1zeZHptlaM6FVk8Oj76cF11rbuk9rNfz29m3mbg1a+0ltUC9ruGaCB6vj40uJPTX8PB6CVr9IrrHnmo2MwCNLm3+e1mCH9uBRldN7n+a4fzWPJG3+OTzxiO72dkfILrjlivnfY0+3Dq1mtv3791fftU1m1fBzywWt8TBSGrwrNfy7c3cfW/epVcPPNeWO0Krh5+vfUVoj96c0kGRm1vBbGzODn2LgaOuMlHBzfvPP4u5r9jQHN8dj05jvM7Oah1OgbvHZ/CQIa6zV8HMrCXvwo3W19sODMDqC8yXuUpFaPqhVw88DxTpC62lBjox1IsSzSGr4hcih+K48BVOggrO6xIhrg4YOHQoK7NUlRnxXfsGCBTbXTFBBS32V5LnnnlNfOaZ69erqqyRcM2mPSpUqqa9so/V3lC1bVpkcwTUNHTt2RPHixdUlace1ga1bt1bnkpw+fRq1a9fGiy++iB9//BE3b95U30m7jPh9q1Wrpr5Kcu3aNfVV2m3fvh1UgERoaKi6JAl/f+vWrYOLi4u6JGd544031FdJuEYuJCREnbOOW5hwzaO5ESNGqK+yFz6PIyIi1DmjPHnyoFSpUuqc/fh312rNYs/5Z2/akpK0tBR44YUX1FdJLl68qL7KWlyTq2XSpEkoV64c3n77baV1EgX/6jtpo5VO8e/s5OR48bVixYpwdXVV54woINZMV9IDlbWVc37u3Lk4f/68ujQJv28v/hvsofU9li9fHmXKlFHn7FOrVi0lLXYkH7TW6iw1Wq1/YmNj1VdCiJToOOpXXwshVE+ePIGPj486l+Srr75yuEl7Sjhor1Gjhjpnn59//hmjRo1S56xbuXKl0nTYFnFxcUoB3LyJHh8jL3cUF6ru3Lmjzhl16dJF6T5gjpuzlyhRQp0z4s/mppX2NKf89ttvMW7cOHXOaMCAAVixYoU6lzG4yeWePXvUOaN//vlHM7Bn3LzVWmHaFHfH4BsOnTt3Vs5FR34PDrby5cunziXhQpxWk11b8W9m3oS/b9++WLNmjTrnuLVr1yrNtvncNMddETjI0PqbcgrOiqtUqYIbN26oS4z4Jt3rr7+uzmn766+/lMK3qQoVKijdZewJjHgfvC9TfF62b99enbPUvXt3/Pnnn+qcEe+Db1JZw9d7t27d1DkjDsDq1q2rzjmGbx6aB22cPr755pvqXBLu/mS+3NFz9ZNPPlGaeZvat2+fw11LtL4fblpurVl/4cKFLbq3PH78WLnJmxG0zhNzfBOT//6XX35ZSav4ZqIjzeCnTp2KKVOmqHNG3LWKr5W04G5B5l2xuAsUNzdPi+joaPj6+uLKlSvK/hKnwMBAdQ1LW7ZsUb4jLZzf5c+fX50z4u8xJibG4qZFSrjLhHk3CE5Ply1bps5lDM6rdu7cqc4ZrV+/PlmXAFvZm6cKIUxwwC+ESM5ak/7s8Fg+c9xEX6t5tunETYPtGWSIAgXN/WTEVLNmTfVTk9Nq0s9NOe2l9Zx5RwbTspc9TfoTDRs2zGKblCYKzpXfnp82YE8XhbMazWQzauJmmGnB563WQGaJEw8MmNIzuHMSbrZt/vfZ0jR84MCBFtul1ATcmsxq0v/NN99YbJNREwXj6qcmp9WkP6WR4lOi1aTf0S5DjIJRi/3xYKHWZGaTfsZN4q11q7E2lS9fXhk8dfPmzXYNRqnV1SWjJn6Era24CwkPtsqP/+Tzhh/7yo+Oo2Bcc98pTRTwq3u1pNWkP0+ePOq7ttN6JCCftxntJY0m/dwlzhGO5KlCCCNp0i9EDsd3++fPn2+1Noeb3HFzcHtqVx48eKC+ynhcI2IrewcXYuZNh5mjA4NlNK51tKcZNn933Mz93XffVZpnUvCP33//PdXBk7Lr72uOf7t+/frhs88+U5ck9+qrryo10OaDQeZUw4YNs6iR5xqsu3fvqnOWuMk/15iZ4n3wvrKr3JS+WJOWllBa6RPX9GYXXLvOLRjsac7Ntd6cD/HgrdyM/KOPPrJpwNbsdq5w0/yxY8cqg+89//zzSq055798nXLrJipXq2tmnJyeD6bndSaEsI0E/ELkAlz44BH0tfAIuuZNAlOTmf3i7Bmh2JEmoVp/S1qarWck7of8yy+/YPny5Xb3c+SCJo/qzkEwjzNw7Ngx9R1L2fX3NcVdP7ipPvfL18LNqLn5dVoCq+yG+7DzTRtT/Lvykxes4e8nKipKnTPiZtRp6Q+f0XJT+mINN2l3lFb6lNYngaQ37n5x8uRJjBw50u6/lbt2ff3110ozf+7zz83Trcku5wqPicPHzN2efvjhB+XpAvbi78l8zB1H5PZ8UAiR/qQPvxAarPXh58cDvfLKK+pc9qHVH9XU5MmTlb6QtuLaCvNBp/hRURxMprdixYppPpJJqw8/BzH2PuaNa4i5/7cpfqThhAkT1LmMkdb+hlzA3LVrl1Irxv3TUyoUa+HCHI9TYPoYwURbt25Vxk4wxYFzRpzbPDji559/rs7Zhh8vx308OTAwx/1W+aZIdq7BTgtuoWF+nfHAjVqDbjG+KfLvv/+qc0aOplOZ1Yefa0XNr3kehIxrTNMb3/zQemSfVprJY6HMmzdPnbOdVh/+tPSh53EczB+dytez+Y2dRJndh98c909fuHChMt6EvYOwMj6H+RzSOl4ep2Tv3r3qnFGjRo0cHvgtJfxYSK0BEzkt5nMopRtvWjgw55uvvE/+GznN5euSW0eYsrcPP7dosmUwT1N9+vSxePTgf//7X+XczUhaffhTSx+skT78QqQBB/xCiORyUh9+7m+v9Ygr08nZ2dlw7NgxdYvUUQBhsQ8KtOwaByCttPrwU8Cvvms7rT6gEydOVN/NOOnZ3zAiIsJAQb/h/fffN1SrVs1iv9YmChIMFy5cUPeShPtYm69LhW313ay1ceNGg5ubm8Xx8eTj45Pr+2xy/+YiRYpY/O1nzpxR10ii9XgxHuciNjZWXcM+mdWHX6vPe+/evdV3M4dWH34K+NV37aP19zx48EB9135aY2xQUK++aymz+/Cn5MaNG8qjVnv06GHIly+fxXFZmyggVfeQnNY5SYGq+m7mmDx5ssUxmE983VFAqoxT8N133ynXgNZvoPUoXXv78PP4CfbSeiQu/10ZTasPf2rpgzXSh18Ix0mTfiFyMG7myY/g0+qfZ4rXGzJkiM39WbX6ZvLo6FxrlNOYtxJg2ak/rC249p2ben/zzTe4dOmS0h+Wayi51karJUoi/r0//vhjdS6J1u/LrVrS0t8+PaxevVppkaDV/JQf6cijlOf22hxuSTN48GB1Lgl38zCn9Sg+Tg/sGb07K2idf9yiJzfRap1iK63aW3sfw5ZV+DhHjx6NDRs2KK0OuAaWW1NxrXxKTdG5a8r+/fvVuSRZfa7w4xC5RZgWrrnnVg08zgAfE7fI4ub+3Mefa7C1WixoPWWEyuLqq4zD3f7M5bR8UAjhOAn4hcjBZs2aZdGcl2k1d+RAkZ+VbAtuhq0VNGg9Qzi703q2Nj/fPifj513z4H7cVYH7knKTSfMuGIn4PfNnYlt73nhW/r7cJJgfl6jVV5mbZR86dMiimXNupfUYPu6eYfrdcDNjrYBf63n+2Y3WI9U4sHJ0vIfsyFoXDFscPnxYfZXE2jWbnfHNK75BxwEzjynCgTG/LliwoLpGchs3blRfJdG65s+dO6e+ynhffvmlcq2Z4y4cfIOCr1UeJ8dW5l0vWGYE/LkxHxRC2E4CfiFyqDNnzmgG8A0aNFAGU9IaxG/27Nk4cOCAOmcdDx6nVaPEtTY5jVZBh2uKtWpabMG1z1zb/uGHHyoBF/8O9vavT0884jE/v59rl8aPH68uTcLHy33iTfHozDxStrms+n25bywHqloF3w8++EDp38vP3n5WcL/fpk2bqnNGAQEByWpA+TUPbGiqVatWGdK3Ob1pBfzcekirhjen4nTBUeZ91lluuNlVpEgRpbafA3atlle7d+9WXyXROle4D7xW4JzeOD3ip6CY45ZV3HLK3sHzOJ/g8RnMad1QSG9a+eCRI0ccvsnGf0tiPsjP8ufzXatllhAie5CAX4gciDNbbvZrHrTyKMAchPJIwCtXrrR47A4XYLjJry1N+Ro3bqy+SsKDgaWlNiIzajLM1atXz+JRZ1zj7WiB/MKFC8po+HzzhL9L3j83N3cUfyf8qCcOtqdNm6YM2MY3a+wtBHLhc8qUKUqh2ty9e/fUV0ms/b5p4cjvy7WZ1gbg+/7775Xv+Vl8jJNWTT13eUjEhWxz9jzSMStVqFBBs5Y3K86/jOJo+sIBmNaNj5QGTsws3HWMg0TuTvTOO+8otfdaA66mhpuXT5w4UZ1LYms6xS1dNm/erM45xpZzhdNlra4Z48aNU1/Zh/MOrXQ9MwJ+zlPM80H+PR1ticKtwRLzQe4uyPlgjRo11HeFENmNBPxC5EA86r5Ws0ZuLsm1g6xatWrKKLzmuBCj1a/bnNbo7tx33HzEXXvwPrmw361bN2V0YG6mfO3aNfXdjMEjWLds2VKdS2LviMuJTIOuRNYeiWgLLnhyqwwelZ6fN8+jtHNTSy4c2ov7+vOjrmyh9ftys+q01LJyjQ/XJPXo0UOpyePvmM83a7gwzTc4zGuGuGDKN674kV3PKn66hPkjB3mUbb7Jxzf8zB9XyCN39+7dW53L3rgFEZ8j5vh8sXf08UShoaFKf+86deooXUP4yRDcMiQ4OFhdI3NxLb0jfc05fTH/DvjmiNbo8ZmNx5HgJynw0w34ZhzXtPOI646wNc3klg38m5r76aefHL7Bwy3g+HrhVjR8Y43HRuG/w3wME2vjMJQuXVp9ZZ9Fixapr5LLjICf80F+UoC57JIPCiEyGCWYQggz2XmUfipkGXQ6ncWx8ei/8fHx6lpGPE8FRYt1eaLAXV1LW2RkpObo/zVq1FBGEreX1sj/PE2bNk1dI7n0GqWfUYHOYl/8tz169EhdwzZPnjxRRkg239eyZcvUNZLYM6Kw1kjGQ4YMUd+1HRUcDRUrVrTY165du9Q1kvDfojUafoMGDQwUVKpr2Y4/w3xfPM2aNUtdw9LAgQM1t1m4cKG6xrNt6NChFt/Nnj17lCc2mC8fPXq0upXjHBmln0djN99mx44d6rvW8cjk5tvx9MEHH6hr2OfTTz/V3N+pU6fUNZLL6FH6ebL3N6GA0/Dcc89Z7GfYsGHqGtoya5T+06dPW3wOT/xUAXutW7fOYj8NGzZU302O8wjzdXlasWKFuobtEhISDJ06dbLYF+cH/DQUU8ePH7dYjydH/t7z588rT7rR2h9/F9ak1yj9bM6cORb74icpBAYGqmvYhs+t/PnzW+xL6/eQUfqFyB6khl+IHIQyf6UZOV276hIjbsK/ePFii6bPPM+1CuZN+xkPNpRSbRpv89Zbb6lzSbgWmEdhtqdWgvtb9u/fX51LjmsyMxo/Q5lrdExxc8bhw4fb1YeRm69yTaIproU1f6a9vbhm3BzXpl25ckWdsw0PemVeo04FOs2aHe4TrzU4HNd+vf/++3bVnnFNJteqmuNuBn379lXnkuNxBbiFhzkKnpTfRWg36+emzObPvWdZ1Zxfa3BPW8bH4HEntLrCcG2r+fPCU8O1s1yjb45bu9StW1edy3xcC83PWLcFX2/cTN78mufWLh999JE6l7W49VipUqXUuSTcMsme9ILX5abg5qw9i56vA87jzHE+ZG+TdB7oVqtfPrc4MW9RY21wQc5r7XHr1i1Q4Gv1ujAfVDWjcD5o/kx/7t7H+YDWYKnW8G/HZRFT6ZEPCiEyECW8Qggz2bWGnwr1msdFBUt1DW1aNdw8pVZzxN+DVu0RT3wsXCOVGn4etdazh3l688031bUspWcNP+NnN5vvjyeuRbXl7/jhhx80t//kk0/UNZKzpzaCa3G0vucKFSoYrl27pq6VsuvXrxvKli1rsQ9rz7dmDx8+1GyxwBMFHzY9z93f39/QpEkTzX2MGzdOXSs5bonQqFEji/VdXFyUZ0PPmDEjXSatlhemAgICNLfbv3+/ukbW4u+pSpUqyb6jqlWrWvzO9erVU7dIG0dq+LlW3HybuXPnqu+mTKulAk98HqxcuVL5+1PDLYf4GfVa+/nzzz/VtSxlRg0/Tx4eHql+h9yihoJ6ze05nU1NZj6Hn39b88/iiY+fa89Tw7/pzJkzNfdx7NgxdS1LfF1qbcN/+9GjR9W1UrZ06VKDs7OzxT4oWNVMZ/lY69SpY7E+twZI6VhN7d2711CuXDmLfZhOX331lbq2pfSs4WfWvkcuC6TWco+/j++++05z+wkTJqhrJSc1/EJkDxLwC6HBWsDPmddbb72VodOVK1fUo0hu06ZNmsfUsWPHVAvGKTXt37hxo7qWtkWLFmlux1OxYsUM06dP12wSePPmTaUJobUbBtz0nAsz1qR3wM/NNStVqmSxT55KliypFLpCQkLUtY24IM7Nk3v37q25XYkSJQzBwcHq2snZWzixVhDjppNTp041nDlzRvN35oIqf88FChSw2NbJyUlphpsSazcyeOLv+4svvtD8G/kGA39n3t7emttWr15d6Raihb8HrW3Se2rTpo36idqsNdnl3yK7+PzzzzWP0XT6/vvv1bXTxpGAX6u5Nd+U4Jspifi8tXbzqFevXhbbJ058U4gDf/NtOT3jII+bzPM5rrVtaoFyZgX8PHEXrDFjxhhu376tbmHEfwfflKpcubLmdpy+mn6P1mRmwM/XdNGiRS0+j6dWrVoZVq1apfnZUVFRSjeynj17am778ssvq2tq48/V6u6QOHXp0kXpVmSeRvLn8jnctWtXze14mjdvnrq2pR9//FFzGw76+UY63/A0Fxoaati6dWuK57bp9J///Efd0lJ6B/ycD2p1++KJ88Gvv/5aMx/cvn271b+Ht7N2vknAL0T2IAG/EBqsBfyZMWllYFwTq1XI4mDLz89PXStlV69eNXh6elrsgwuVqfVl53615tuZTrzfxo0bG1588UVD+/btrQbWiRMX0g8cOKDuXVt6B/zswoULVgNUnrgg1bRpU6WQ0rp1a6sFW564P+bBgwfVPVuyt3DCBbtatWpZbGM6cc0uHxff5OFgllsAaK2XOFmrdTHFBWStWlrTiQu3XIvPAWG7du1S/VyuoeVg2hoOxrS2S+8pNwT8HPBp1UomTlyDbO2mk70cCfh5vAXzbXjiWlP+/vl84RtjixcvVrdIjoMjHjdCax+JE6dRzZs3V857Pv99fHw010uc+Pzk/aYkowN+rbENeOKgldMXbvVUpkwZzXV44t+VWy/YIjMDfrZ27VqLzzOd+PpPzA/4nGrWrJlm3pM48c1KX19fde/W8c3NIkWKaO4jceJglr9bPlf4nOHvUWu9xIlvNKR0w5yDX+7nrrVt4sStAPjv5InPZWvXK+d7Wjc8+GaENekd8DMeT0DrBnHiZG8+eOjQIXXPliTgFyJ7kIBfCA3ZKeDnwoi1O+vLly9X17KNtab9ffv2VdfQxsfAzbO1trV34gJYak2tWUYE/Ozw4cNWWx3YOrm7uxt+//13dY/aHCmccK05Bzfm2zkyjR071ubB97gpbmpBv60TB3opDULF5xIHgFrbpveUGwJ+1q1bN83j5GnQoEHqWmnnSMDPNxw5wDPfznziJt/WcAsha91C7J34ZiPf2EtNRgf8HJy2aNHCYrktEweY3N3BVpkd8LPPPvvM4jMdmTiYTClgNHfu3DlD6dKlNfdl78RptC0Dt3JXPmstSWyduBacW4vxjXfz9/gmhrWbDhkR8DO+WV2wYEGLfdszcT64fv16dY/aJOAXInuQQfuEyOZ48DbKVNW5JPwILq2B0lLy7rvvag7gtnbtWqxZs0ads8SDr/GAdTxYGBXQ1KX2q127Nv79919l8KCswo9i4oGeHH2uNT8mih+5pfVYu7TiR9rxc+m1nj1tKzc3N/zvf//Dd999pzz+zBZUmMW8efOUwdIoeFCX2q9hw4bKc7r5UXvW8KCH9zSety2s0xq8L1FK72WGUqVKYdKkSeqcdTzYpzV8zh04cEB53Kj5wKP2eO2113Ds2LFs8TxwHmSOgna0atVKXWIbHsiQ/watgTyzkylTpihpBgV96hL78YCKnF7wo/5sVatWLeWRtAMHDlSX2I8HmuTHhvIjZvlxdal55ZVXsGzZMiVtdQQ/xpDPfwp+UbFiRZQoUUJ9x+jRo0dKnpKZmjVrpuSDFESrS+xTpUoV5bGM/DhZIUT2p+OoX30thFBxUNKkSRN1LnMtXbr06Wc/efIEHTt2tBhNnwuTPNJwkSJF1CW2u3btmlKAMR+VlwvdvE/zUXzN8Yj7CxYswC+//IIbN26oS63jwhXfZOAbFFzw0RrVWwsXgsyfn1+sWLF0Kxjp9XolwOXnSdvy7HkO9EeNGqWMpG1LwY+fpsCFWVOmv21K+LfhY+MRpY8fP64uTZmXlxcGDx6sjOhdtmxZdan9+Hv/9ddflcnX11ddah1/FxzU9OnTRwk+UwvYAgMDNW86ZQT+rvk7t+b8+fOaNyf4KQX8W2cXPLo3P4ed0yVT/Nz5PXv2KDfk0gP/fnxDzhQ/5YODg5RwMWLGjBmYPn261ZHIOdCxJb24cOECfvzxRyXACjMbCVyLj4+PMuL/yJEj8eKLL6pLU8c3OfkGgyl+kggHsvbim6GcHpriYIhvjvL3wYExj2TP6bk1JUuWxIcffqikkZy+24MDZvN9Hz161OLJJBnB398fX331lXJjOjg4WF2aMr4x+N577yk3rNNyg+eff/5Rvlu+IW7L01bKlCmj5Kfjxo1z6KYQn7+cvm7atCnVz+MbIZzPfvDBBxZpvtb5wjcD+EatOX6aDH9fpvjJK7bmC6lJzGs4H+SbbqnhQJ/TxrFjx9qUD2qlKQsXLkTz5s3VOdulJU8V4lknAb8QwiEcMHOh48yZM0pNAQeHMTExSiGAH9HDBVgugLdp00YpoGRnly9fVgrIp06dUgp10dHR8PDwUG5+cI0b12JwATG9Ait78A0WDh74Rgc//o4f4cTHxwVKvknDhcFGjRqhXr16mo9fdBQXBLmmMfH3vXPnjvL78ufy78s1uxxotW7d2uJxVuLZdPfuXaVWm6+lgIAAJY3gc6N06dJK6x4Oym3Fjws7dOiQcu7xxDeKOHjmc5z3ydcjB298/qclaMwsfNOWb87wxI/OjI2NVQL7+vXrKzdU+OZmWmrLsxr/1nwDjYPwEydOKIEqT1zE5LSUH5HI6RRPFSpUULdKHw8fPlRaRvF5wsfAN8Y4/eLzhPMe/kw+V/gY0iMN59+SWwf8/fffSvrM5yq3kuKbT3ye16lTR7lBx48+zUk4H+SA+vTp0xb5IF9vnA9yfpgV+aAQIm0k4BdCCCGEEEIIIXIh6cMvhBBCCCGEEELkQhLwCyGEEEIIIYQQuZAE/EIIIYQQQgghRC4kAb8QQgghhBBCCJELScAvhBBCCCGEEELkQhLwCyGEEEIIIYQQuZAE/EIIIYQQQgghRC4kAb8QQgghhBBCCJELScAvhBBCCCGEEELkQhLwCyGEEEIIIYQQuZAE/EIIIYQQQgghRC4kAb8QQgghhBBCCJELScAvhBBCCCGEEELkQhLwCyGEEEIIIYQQuZAE/EIIIYQQQgghRC4kAb8QQgghhBBCCJELScAvhBBCCCGEEELkQhLwCyGEEEIIIYQQuZAE/EIIIYQQQgghRC4kAb8QQgghhBBCCJELScAvhBBCCCGEEELkQhLwCyGEEEIIIYQQuZAE/EIIIYQQQgghRC4kAb8QQgghhBBCCJELScAvhBBCCCGEEELkQhLwCyGEEEIIIYQQuZAE/EIIIYQQQgghRC4kAb8QQgghhBBCCJELScAvhBBCCCGEEELkQhLwCyGEEEIIIYQQuZAE/EIIIYQQQgghRC4kAb8QQgghhBBCCJELScAvhBBCCCGEEELkQhLwCyGEEEIIIYQQuZAE/EIIIYQQQgghRC4kAb8QQgghhBBCCJELScAvhBBCCCGEEELkQhLwCyGEEEIIIYQQuZAE/EIIIYQQQgghRC4kAb8QQgghhBBCCJELScAvhBBCCCGEEELkQhLwCyGEEEIIIYQQuZAE/EIIIYQQQgghRC4kAb8QQgghhBBCCJELScAvhBBCCCGEEELkQhLwCyGEEEIIIYQQuZAE/EIIIYQQQgghRC4kAb8QQgghhBBCCJELScAvhBBCCCGEEELkQhLwCyGEEEIIIYQQuZAE/EIIIYQQQgghRC4kAb8QQgghhBBCCJELScAvhBBCCCGEEELkQhLwCyGEEEIIIYQQuZAE/EIIIYQQQgghRC4kAb8QQgghhBBCCJELScAvhBBCCCGEEELkQhLwCyGEEEIIIYQQuZAE/EIIIYQQQgghRC4kAb8QQgghhBBCCJELScAvhBBCCCGEEELkQhLwCyGEEEIIIYQQuZAE/EIIIYQQQgghRC4kAb8QQgghhBBCCJELScAvhBBCCCGEEELkQjoDUV8LIdJJzGOg1hHgujrPnD2Bv1sAbZzVBUKIZ46kDUKITEcl/V+OA28FqfNW6Ghypv94ugCF3IDnvIDOJYDXiwD5+E0hRI4kNfxCZIDdfsBN9XWihChgfqA6I4R4JknaIITIrrgGMJ7+ExYH+EYAO+4B750EatJ0LN64jhAi55GAX4h0ZogFFj0A9Oq8qU13gXvSpkaIZ5KkDUKInOjOI6D7OeCupFFC5EgS8AuRzgKoQL/Vyp3w8CBgRaQ6I4R4pkjaIITIqe5T+jVNWiIJkSNJwC9EejIAK/2AxHK7Tgf0Lgokds3lETMW+QNx6rwQ4hkhaYMQIhtxKwj4daS0p5Nx0tPr+JeAqBeBey2AhWUBb3XdRBvvA9HqayFEziEBvxDpKD4UWEJTYqs31wLA9ApAZZPBbq4EAHsT1BkhxDNB0gYhRHbGNyGdKSrwcAGK5wOGVwcmUsRvkkQhNAoITkzEhBA5hgT8QqSjA/7AZZPMsGExoCoV7HvmUReQhGjg14dJBX8hRO4naYMQIkehSL9m3uQBv5MzkMd0gRAiR5CAX4j0Eg8suk+FdnWW75b35Ca7dJW9SoV7F3U52+IH+EupXohng6QNQoicRg8cDU0+yGgtHyC/+loIkXNIwC9EOnn4ANgYq84QVy/gFbX2ri4V6p8zuSseGQwsi1BnhBC5mqQNQoicgMcSiYkHbocAX58FvghT3yBOrsC7JZPGHRFC5BwS8AuRHiiTXOsPhKqzrD4V5CuqBXmX/ECvvMbXjDPVxX6ASQwghMiNJG0QQmRDscFA6R2AbnvS5ETzHn8D5Q8BH90HotR1dRQtDK8FDPBQFwghchQJ+IVIBwkRVEh/rJTtFdxktxcV6p/eCddounv9HvC3lUd0CSFyB0kbhBA5mRMlTh83BH6hdEqCBiFyJrl2hUgHx/yBM4klemLaZDdRzeJALZOmu/oYYL4M0CVEriZpgxAiJ9PHA1+fAvrfBO6bdugXQuQYEvALkVYJwOIAZVyup+oVAyqZFOCZcz6gN02mtvsBt6VUL0TuJGmDECIXSKBEbN1VoNUF4J6kS0LkODoDUV8LIRzw+D5Q5TQQpM7bg5v3TmkOTJZhb4XIdSRtEEJkC1TS/+U48JZJYuRWELjZGChl2rqI1otNAEJigauhwLzrwOrw5K2NhjUAFhalNEqdF0Jkf1LDb7cEBJ1YjA/6TcU/GTGqkv4xTi37FK+1ro6SPnngkbcgStduj6HTfsOlcLk3k+3QT7LeDwhWZ+3Ft9uW0PbR6rzIbjL4ek8mFkc/qQFXivR0OheUf2+fulzkSJI25D4JQTix+AP0m/pPhgyqqA8+g7UzR6JLkyooXsAT7h75UbhsHbQb8AkWHrqPOHU9ITKKE0XxHi5AsTxAy+LA8kZAN9MBRsjvZoOQipwvIegEFn/QD1MzpKATjTt7fsL/DWqH2mWLIL+HB/IXLo/6HV/H9N8uIERCm0whAb8dYu7uwpyhjfFc09cxd48fYtTl6SbuJlYOaYznh36O1fsu496TKMREPob/+d1Y+llfNGr2Nv4MSHySs8gO9JHAoqDkd7/t5XsP2CEDdGU7GX69m4m/MR8Tf7qSrPm3yLkkbchNYnB31xwMbfwcmr4+F3v80js1MCDk0Bd4uXZj9J84H1uPXceD0GjExoQj6O457Fn1BUa0rIeOMw7gsRSORSZycgdamXU3iqa07Y6ch7lDzF3smjMUjZ9ritfn7kH6J20PsXN8S9R5cTS+XLEH5+8GIjwmBuFBt3F65yJM7tsYTYaswHW5m5nhJOC3WQx2TuiND5eeQlBCRqR0cTg/ZxDeXHkDsZq7NyDy/M8YOnw+bsmgKdnGuQDgSBpPB30sMP9+2gIDkd4y+npPzhC4B5/2+wh/P5GLO7eQtCEXidmJCb0/xNJTQciI5MAQuAnv9p2InQFxVn9rQ8ID7PmsL0avvS/ng8g0hnjgNAX4yegAV/WlyNlidk5A7w+X4lRQQgakKwY8/O09DJlzHCHWijaGKFxdMQJ9ph+T1mwZTAL+7CJkK76acwQRyhWng3u117HifBDCHp7Ez33KwkXpLKXH411f4pv9cllkC5SAmQ/Ilbcw4N+R0rBO1id9O6CnWRO5v/2AG1KKewYZEHLqFwxp3Q2zTkRIQT63kLRB2CwB1xd/iTX+aus9nQeqDZ6PI/7hiIm4hxNLR6J2HrW3tP4+1n/xC85LQz+Rgbg7UVQccDkY+PAksMqslXdhL6C8dOAXqdHfxPK5f+ChEuzr4FqhF+bsuo7HURG4d/Qn9KvgYhwHwhCNs/P+hx3hPCMyigT82UTYrrXYEqjeAtN5o9uUr/FazYLIV6Q+RnzzKdp6qqlrwh38sfZghjcvFqkLCwRWR6kzqhdLACVSyQh1bsDwoskvvugQYIl0inumxD04iqX/1xUNXhiF5Rcl2M9NJG0QNqMg/u/tJ5+27HMuORjfznsDTUrmhVue4mgweC6+GVoazsq7BsRd2ocDDyS1EGkXSwF96R2U7mxPPjnRsjy7gOpHgTmP+ZZUEh5MdEApwEOdF8KquCfwrN4VL71QF5VKlEafL+bj/XaV4O2RB8Ubj8C0UQ2ReH9bH3IFl/zkTmZGkoDfBrE7RqKoswe6Lwt5WijXP5qPTu48uJYHuiwOhiF2N8aUcqZ5Xmbj5N4W39/lID8OZ/YfSmry4tYA7Vr6PB0B1anEi+hYN7EBVQIeHPoX1+S6yFp0IvzpDzxQZ5kT/UQDbRy5tgNlmGXV1wra3zI/wCxGEFnApusdsdg9phScta5rq5M72n5/V91jLPZM6o7hX27FzSjjpzjlL4D8PGKSyNkkbchFYrFjZFE4e3THsqcjS+nxaH4nuPM17dEFi4MpNdg9BqWcza/3lCf3tt8bd2cIh2fFdmjVpDaqlC4Mn+Zt0Syv8S0jd1SqWk4N+Ik+BE+sto8VImOVLwn8n7c6I3Ku2B0YWdQZHt2XJQ2ap3+E+Z3clfTJo8tiBBvSWM5xb4jRv/6G7QdO43rAHazomxTXcCzzOOjJ0zKWzqUQihSUkDQjybebHRhCcOVywNO7qE75y6FCYZOioVNJVCjn9vRCib9xCdcyYiBNYTN9NLDokVIWf6pIEaCTjR3bPHyAAckKdcDd+8AWGbjkmeTk0wyf/vY1KK8VOZykDcIuzs9h2C9b8c+Rs7h69xEerX0NXupbRrG4ee320/KBzokKxoWk6CYyX7USlA7VAEyLp0LYx4DYJ7dwYP7beOvHq2q3NycU7T4c3YrIiZWRJNfIDvT3EXA/6Y69zrsgvJOd984o4J3/acBviL6HgCC5w5+Vrt4D9pn9BK+UBGx+ZDZdeYNLAW7qLNNTgZ4H6BLPEifkrzkEv+77C9NbF7SpBlhkb5I2iPSkD1iH79b6Pw34Xaq/gOcLSUoh0h+fVRwUuNGLvM4U2FMiVJkSru6UHv3aBDhVF6j+tKmJEPbSw/fb1sjvUxEtR87HGX7UuM4JBZv9H1Z+3wdFJVnLUBLw28Ct4694mBCNTYMLPC2QOxUZge0xBhgM0dgyLI0FdX0oQsJMAn5PT3gk26EO7h4eSZ9hCKP1TeuPRGarVhGIMRtw66fC6ps20trH9jLqmyLLZPj1rnIr1hiDv9yCs8eX4PVaZlW6IseStCE3cUPHXx8iIXoTBhd4mhqgyIjtiDFQehC9BcMKpkdqYEXEacwZ/D42PR3fJy9avDEQNSToEvai0/TNxsnTFPNJT1MCTTEdgfAOwKN2wLUXgI21gREFpd9+ruLWEb8+TED0psFIStqKYMT2GCrnGBC9ZRjSP2lLgN9tv6c3L/mkdCv3CqbM/QCtpdlIhpOAP724tcOP/gnKhWLzFLMHY8vwTxCPOJPhnHVOLnA2O/ednE1+KgOtL807hchCbmj3oz8StK5rq1MM9oxNjNrc0Gb6n1j8USeUl1KUEDmaW7sf4Z+gdc1bn2L2jFW3tiLyPH7s3xn/tyeYH/pAdHCv9Q7++3pFKbgJITJBWss55mLgf/eBmp4xA2J91+O9ZtXR9rO9CJZ6zAwl+Ua24AIXk0cxGfQJ0Jud+PoEk1H6dC5wtbE/qBBCCCFykPBT+LZ3B7y75d7T5/7r8jfFhIWT8Hwe47wQQuQsbmj79QU8ioxE8LWd+KpbObjqKOZJeIT9M/ph1Jr7yca+EelLAv70kpZR+p3ywSufSZV+TDSSP2nfgOio6KQLQZcfBfJL8xchsk5aR+kXQuQWaRql34wh9Ci+6P4S/rP9flKw71kDb61YjwmNJNoXQmSW9C7nuKFohfIo5OkJn8odMH7lzxheWu2fpH+Ijd+vxM2k6n+RziTgzw6ciqJE0aROefqQx0mP6FPE43Fw2NOAX+dRAiVllF4hhBAi9wg/gVk9u2DCnsCnzV51eWrizVU78H23ElJgE0LkHvleQNvGiU8gMyDu/ClckO7KGUbyj+xAVxCVqxR++mPon9zG7ScmDVsS/HDrTuzTgN+lUg1UMR3CWQghhBA5V9x1LBjUDZ+YBvv56uHd3/7Gjz1KJz2HXwghcoD480vw7qBX8GKz2qhYsiEmHjMZrEwRj9g4Q1LrZR4DQH0p0p8E/HbQ6Uy+Ln2CyUiTaeWKes0aIU9iK/3Yo9ixK/jpiW94uA97zideKM4o3vwFVMkFuX/MpXXY3b855hbJi+me3phVoy3+mLkBgRHqChbC8WjdJKxrXhlf5XXHDO+S+L7tMOzbcBWx6hpalp2gb3g/cMy8qRDNT/2XftcdwCch6jJb0c+x7hrQfC+Ql7b33gO0PQtssHrsKvpRN9J6HnQ8B62dQHRc/6H96rbTcR8AzpgftwkD/eGv7QYa0LFEqstE+si46/0ZEX4JFyb1x/zKRTDT3ROfl6yBxcNm4tLVFC4SB7YJ8Qc8rVzDZ6/TNUTXUbUryiVrl/BwYNJpoPIuwH0nUJKu2WE3gKup7OjRA6AcHc9Hj9UFGv69DLjQcXHaMyVUXWjFo/tACfr8SU/UBSIL6PjpUU8lG1MnXYTj0JS+eHeTSZ/9vHXx7u87MOfl4lJQywwOpD32l2EyLr26ROlE/8NAEUorPP8GahwFZlJalFqRxCK9ovLGwL+M5Q/zyZnW86LyRqPjwOda+6Zzdx2lmXmpXHVUMsycQaczSV/0SM+kTYe7OLB2I3YdPo9b985iw/pTiFHfY4agv7H9SFLp3aVKdVQxGc9MpC/JR2ymg5t7YtMTOlHDLuP01XBEPryEywF0wqZplH4dfF7qjRe91L0bQvDnlA+x8kIwIgJPY+F//ou/I9VSgHNZ9OzTDO7GuRwr5sh0LG/eH/vWHMLjwEgkRIdQfvsPzkzsjfkdZ8KPCtvJhcNvekcs6D8DFw7dQGRkLOJD7iHwnyXY3bspls08mjwhoZ/kL8rA+OmF/CxZZ5r4GZ/3qXC9N7UcMDWUE0+nDK8/Ff4PRVGgTZ8RQh/+TwDQ+xBlsikUzAMfAmPvAb2qAM2s3LSJCqZMk/bL4ul7WJTC/nT0d02rSEHILeC/EhCko1Su93QfvTaXCT+CvR2b47cZa+B3IxBxsdGIuXcJvksmYm3Tjth31OICt28buuZOBgI36Vr0oGuAH2pYnP6NoetwO10/pmmBI8LpWupIhecZVIi+EQfEUiH4HqUbS64BTenaP2qlNM7pzocX6fOLUwHaW11ojgpUy2m/SrmK/o5lFAAkH7MluSLFgI8LALMuSCE6y1BC684PJ1cYEHb5NK6GR+LhpcswZv9pG6U/5tgXeGvWaSUvUTgVQqfZv2PWS0WlkJYZHEiv7CrDZHB6deQ60JwC7TWUbvETHKPpcy7RfieeonSMyikaqa3CpvTKBA8mHUbbnKC/5VPad3tKD8PU9xR0iXDZpmEk8CZ9rlqMEdmYzs0dSUlbGC6fvorwyIe4dDkAsWks5zhX74nedRLLUfG4+O0gDPtxP26HRCHk+nbMHPAu1j5Sa7R0HmjY71U8J02ZMozkJTZzRonSxZ82qzPEHsKE2vmRt1hdDF95J821f7qiffDJ2DpwV64MA2KvLsagWoWQr0h9jFh1C/FKQcAJPu0/xvstc/hzvKIOYu/w6bgb4owCPb7C4GvBmBDxEKPXT0SFYjpEH5yGzbNOJbvDHXdwKjZMP4Ro53J47qudeCc4Ep8+PId+E9shry4Ed6e9hYOnOBAz8qXgu9sRoOQ+4BsK8ikNwuh/gbIHgX6UEaXFQcpcp1PG6kw/w1eNgOAOwMMXKHMtSL8jHfQ0Kpif0qqVp/dmXKEM2QuYVFTJGzX9TcdOMQCa+wD8MIY1fmaZqpkqpYHh7sC3lymT1/pc4YCMvd5ztyjcmTocew+FQFeuBzrsvIaPIyMw/tx6tGpH0WsIXf9vzcK9pMuV2LeNnkqS75+gc38P8JKvcdkfdN2V+gfoQgXfv0wTD3vRjzv1HHCI9lGOrtOdLYFIusbP1QfaUSE9hK79t27xcEaW9lHasjIOGFcJsPZY4bAgYD1F+N5UwK5L6/jeS+V4aZ2RlSkto1L7B3fsr/kT6cC5BEoXf5oaIPbQBNTOnxfF6g7HyjtpTA0Mj/Db5z/gfGxitE/0Qdg2qjJcLQbEosmtAWaclxQo/TiQXtlZhsnI9CrqMeX/lO6EUDrRoypwrT0Q0Y7SGEqD6OiV8sosK62IUkyvaP6TZnR6mjynP+4l4EErYG1F476P3qQykFlLBee8lH6WAi7cBn6wdqdBZBvOJUojKWmLxaEJtZE/bzHUHb4SaU3a4FwDb38+ApV5KH5iiL6K1W+3QnnvPPCu8jIm7Uxs0aRDnnofYM6Y556WuUT6k4DfZs6o1rU7qj+9FZZIj4C7AdwKKo080GTy75g/oBI8zD9CQRdEzZFYvGgEKuToX82AyI3f4OSVODhVfhu9Vo5Hpco+cM1TBMV6Tke/FaPg4xSLB/Pm4kZiZmEIwuVvFiAozhkF316G3uM7oJCPJ9yK1EL16X+g96iK0MWexfG5O57eKS9LQfD+BsBnlCvxfmIjgUf5KeCuBWylTNFRfEf8GwrA4+g3ersOML4w4EMpVBHa93T6vFGe9FkUnc8NVDcwcYO2+5WOo3t5oJqV35D3v+wh/Uvv06mAmvQ5D2h+o1Z0kcgFeK8sBQIUiMzkbdXFIi0y+nrPvQxBG3F4wRXonSujybKVeKFDZXh65kHeWj3R7o8VaFTRCQln5+HwjqTSoL3bONF1tux5YAEFwnnpmuLn956ja2REFWBTQ6B9GkoNQXQNLYigMyAPfUZdoAMVYD1pf7UoLfmD5qmsi7N3gR1mhXQ9HcdntLxAUQrQuQpPCx3n1gCAk4dGJYCe+Wg7Ou6FqVy3eQtSelMAOHSL/r6U0gKRMZyroWv36kk1YYn0AbgbkLbUwPBoM1buCJF0O4vYn17ZX4bJsPSK9rPRF7hC/1amMsBKSpwquwJ53ChtoX2voGVO9N48WicptTWyKb0y40LlkqKULvahfX9RhBbQvtfdt7wJ2boc0JQui1k3jH+ryL6cq3VF9+pJrRkT6QPuIo1JG9HBu8NsbPz5NVR92mfZnBN8mryPtZumoZmN56FwjAT8dnBtMAF/rJ2Evs9XREFPN3h4FUWFBi+hc8OkAffSxK0SBi07gSMrJmFgmxoo6U1Brac3StZoi0GfrcaxQ/PQvWQ2vP+VEISA5Z/hj5fq45vCeTHNxRUzvEvh+zYDsXvVOUQnS/AjcHvzbkTrXVFsyAiUMXvKkEeb0ahXxxWGwO24fEBtEBaxH1d3P4HBtQ7qjmgOystMeKH86GEo5qpH5PaNuKNu4kxBcGPKkOpQgnWPXtenDPdWDPAyFbIbaDWQoGM85w90OgDk30mZ2j7gtavAGbMRQyMeA7spd3OlAH+Ej7owEX3O6FLGWvntD7jewEQC8L/bQLQ7MIyOy1rS95AK/tt5/150LFTI54DAQPML71ECrK6jpSL9XW3o1PidMvZrksGmiwy/3nMQfdAJnPlsKJbWL48v87phqqsnPi9VA4sGTsK5c6HJgpXY/Ztx64keTnWGoEFzswvcqw0aD6sDJ30grm88gMTLy+5t6AIqRwFwN7oOfem6rkP/htMFV5yurS603FPjAgsLA94/Tuv8Rdf4LqDFaSoQc+sf9f1E++kafEL/1ikJNDdLbr3omhxGn8VB+kazPvr76fo+QBfpK5QGFLRygfMNveWP6F96vxMda69ixvRihx9wJ6XrltbvT/v1pO1nUTol9buZzRUNJvyBtZP64vmKBeHp5gGvohXQ4KXOaFg4balB3KmDOJ48kxRpkoDIE8uxZ+hL+Kl8Ycx0c8E0KkfNrtEGv09ahQehyb9r+9MrB8owGZVeUUKwOZjSI9p+SGkK9NXFidqUoc+i9wIDKW0ySzRsSa+sovXrUhmFk8eH9PeYp0dOdCBDC9F7VA5aGKkuFNmTawNM+GMtJvV9HhULUszh4YWiFRrgpc4NkcakTeWB6sOX4/iJ9fh85MtoQNdkXjdXeHqXRPWWffCfeXtwbt8cdEl8PJ/IMBLw28UdFXtMxZpDNxAUGYOokAe4eWIr5g2pkX7NUHQFUOe1aVi+5wL8H0ciJvIx/C/sxrIpfVEjOz57P+EWzgxoiAVDpuHMX6cREhQJfUI84kMCELh3JfYNbIEVX59NugMcfwP3z1Ku5VQEpZpVsTwBnaugdONC0OmDce/4DSXITbhxSsmkdUWaoozGaIVOVZqiVCEnGIJPIuBGUtZzO4AynTtAjXLAlucAN8oY+17RuONM8+coUG59jgre4ZQR04c+okxq9U0q8B8BdprUqN2gQ+fWcUUok66i8XNU8QYon0MwrXTD5HNCKcNdTRl8kcKUCVsblITW/52Ome/ENygKlKcvpx8F8nyD4wAV8i+ZH7cJJ3cKHuizY0KAxXyAIh1kwvVuyr031kTq1X5w8fCd20p9I2vpby3D7w2b449pS3Hz9G1ERcbBEB+NmIBLuL1yBn5v0Rn/nk28SOLx+NRZxBickLdpMxS0+KKcUbBpY+Rx0iPq5HEEK5erI9tQukDX04izwM18wJKGQB+6Xj7m5rEm12uiaLqoutO1zC1vHtD24VRy//c+MPgwFapp2dNLi679U1TQ5vmmPsYCbTJ0zTela5/TrZN0rT1NbSiBW3CPtqOLtXdBdZmGu1QA3kUb8Q29bp6UNhWna532Gf0YWG5eBWemBAUHL9AHH/Oz0mVIZCz3iugxdQ0O3QhCZEwUQh7cxImt8zCkRtpSA7eOv9I5ad4PNoUp9iQm1sqQFCgXSMDjZQPwc/Mh2Lv0L9y/HYS4uAToo0MQdmkvzs0YiIWdv8b9p2mEA2mPA2UYlhHpVTyVU85S2uNE6Y5W7Sg3r2/sSskabX/cNPC2Mb2yig7gEh0jfx1V6e+xKNJQmta1GF0y9McvpLLL0/KfyJbcK/bA1DWHcIPK7zFRIXhw8wS2zhuCNCZtJnTIX+0V/N8vW3Hi1iOEx8Qi8rE/Lu5bi1mjWqFUTh+ULIewSKuEsJ0BEWvHY/tvd6Av0QltN53BB6ExmBwfhY/vnET/aZ2Q3ykUfnPm4lZiZqP3Q4g/ZRPOZeFTVis1cYZXuVKUPCQg7I6x6bTB7w7CaBNd2QoooLlJaRQoRW8k+CMkgLMgI5/8wIsUYH9dngrLlPn8t6Sx1jyvRqC+hTLTQrQO99eN6kCZqNpfN4oytbeuGYN85hdtzOTKUmFd81A8gFK0/4QYIMAkQN9LBX3Kp9GCjoc21ZRA39FyrjWkq3IoBfq8/yr0byuaj6MgZDFXO1pDn9mmEGW89Jkb6bMkgxXpwvAIF8aPw8U7CcjfaTpeO+OPT2LiMTnqMcad3IC2nUpCF3oIh+buUvu06xF6x5/+64wCFcpqZjBOpcshP53cBn/jde3YNrSMCrKd6Jx/9zmgLl13/60CtKfrq5LGDbXbjyhQput5tjrmxgN1zA0qx+OHC8n70N6ha5evpwpWhkoprV77/mpawCKCge30BeTzsT4YJxeS1wZQYZ5etioFVKbP4AL5UC5w03tLqGCsUfZ/SkeFovaUpnEhfwOlB0KI5AyP1mLnuN8QklACladvwij/UEyMj8eEx3fw1oZpqFzSCTGH5uDIrqcFEvvTHgfKMCwj0is9JSb+lHZwuaOsRrmG07FynI7ROkq6prIpvdJgoM8Ppq9uLZWJ/kPlDB40+D0qV2ntoigdL7cuuEbrnU38EoQQWUYrfRPCNoYgXFu1HVHwxnNfLUWrbnXgld8NTpT7eJapj2r/NxE1yznDEHwRDzmDZLEhiOahiJ284OGldfrp4OaVn/5rQEyIsalwQsgTxNELnZc33DU3yQd3bv1gCENMaFLO4uUFLKMMsy1nqPT2sDrAN8W53tYSN9XdovbX9aDcqzYF/xvrAVVpO24p8IeaWYbEKXknvCjz1jwU2pbK5Eoz/KctB+mQ9lAgz83umtIxWXPxHnCctilAhYBX1WDDif4dzl0AaPkqCghSesBAhQLGgXSu02f5JX62EGlgCNqGczyMtHd3dFg6Ac/VKQl3N2c6L71RoH4PtJjYD97OekRdPK8G4rGIfsKFaSe4e3vxZWcpn5cyOKkhLAQxyuXqyDZ0TdB1/RZds19xkxrC43ZsrQ5U1Lgw+br8qiHwAV1bPOZGUbpIecyNd+h655q376lQqlwytO8nalLlrVEQZ/loOR9jGF3jianN6SAqCNO/1eka5OtfS0I4sIIHuKLth1E6pBwm7agPBf+0GW7Q9c/dhayidRtz6wI60H2cnqiLhRDMgMhtq3CdLkSP7l+h54RuKF4yP1ycneHqXQYlevwfWvUrp9S8PzrPQT5zIO1xoAyjLM2A9CqW0gvl6Gnf1ooWXmo6FmKSttiSXvEHfH6IjsXksXxOO4FC+4B+N2l/nsAsOqb+alnFnDO939jNeINyH9/lFEJkKa3USgjb6Aqj3qZwTEkIRv+BRWCIeICgk3txZdVP2P/xG1jZvD9O+HIOGYW4xAQ/Lk55tAvfGnY2PpLAjI6WUy7BuU18vJKp6eOM//LjQ5w1N3GDC4+mZDBAH6+W1u3UszwF92ZXA9/95v66BtrlDq55J3zjgbnRupqHQsvVo1efrECvY4Gz9PdzJv6clcyRSx8rqcDPfQS7UwDwdMRc+rcbzXMgf48y+c0pVAFybSF3M+DWAOfVzxYiLXSFh2BAuB6fBa9HnSJ6xD64joC9m3Hupy/w1xvdsaD/z3iiXOJRaqsSur6VE5+vY3ftayTxOjbEQ69cro5sYx9+tN3rdH0kQwXhUXRtudLLfYHGgrOS7BgPRfvmIkm89im5Mdbw07/n6Jrj11XoM+gy13QiwHhdFi1K1zgnEqrCNP8KzetjgIXcv19droX3z+X386HGtEIIkUiHvEM2YQIlEP+3fiDy6iMQfv0kfDevwrEvPsbG7s3x28++yvUVF/W0QGJ/2uNAGcZetqZXXB5RDoXSJM1DIYnLE8sjvIEt6VVq+Ls4Hgw8sPYH0udW57+B3j+dSnclIUTGs1KkEcJW8QjbNxeb2lTEF94l8F3DNlg1YDR2fbUQV4/7IY5zRoOe/q/mCq6ucFIyzzgkmD6G6CkDEmI4qtVBx+vSKydXFyUjNsTFqo/wMEMRdTzvi3I9XtdutPNGFNhboOV1aTkfww0lGqDD5wMhcRTkaB4KLTcePa2rXl3cvN+P/nV2B4qr25uLeQKs4ZHBPYHhhdWFqvyFgH60nPvhLbiv3BvQxE0Gi9Nn8g2KOyncGBDCLvH34Tt3JBZV9MEXJarglzbd8PvoT/Dvwj8R4BepBL5c+lP+peKokwuf5HQdx8ZqXyOxMcbrmE5YHlzTsW3sU6OA5YBWrAJd31y7HknXNzeN5QtXPRTl2ftaeLlyKLwuL6AZHoiLt7XaF5G2WaGOZs01+smSG9rJcLULz1ZKKJTjsKKwh7GFUgTFK4EprCfEsyrh/j4cHtkG3/p4Y1aVhljcbQC2fPIVTv15HKGRfFEbKI+kMomytgNpjwNlGHvZml5xeUQ5FHqteSgkRl2eWHbhPzLV9IrR++aP5dO/BDxpA+yrA7SnP2zVVfr3Mi3T+mzaviTtnz/2rtTwC5HlHEmLhFAZELFlLBa9NA4n995CbIIbPMrXRdmug9Bkyg/ou3c1Glcyu3/s5g2PPByVhiEmTCuXMCA2NIz+q4O7N2dtVBD29jYGz2Gh2pmaIdy4L50XPAok5mp2oE0Sm72ZS2y+m9iM2Fttys/NeTUPhYJt7l7LzfeMR0+ZJK2rHB59FfmsHN6eAOA2/cvN9dr+ReuaNKPT0fxcWs72+qcwCj//HerXHWqsbhUibQyBuDq2FZaNm4/bt8Khd/OBd92WqDroHbT54TcMWz1GaXKahNIA7zx0KiZexxrCQ5VCqNJFR7keHNnGPvnpetTK7PiaVCqh6PpWBkqnlbwTryGuAtMQrl773K0n8VASrzdr6UhEEPCbeg1/f4y2M72+aWpNFz9/XGQwsCKFfjtOicfLaYpxkRBCZQjcgq2tXsL2+XvxJDwBzj7lUaxlV9R5Zwo6/7YXr46p9PSaNXIg7XGgDGMvW9MrN0qD+MZASulBYtpk2kUptfTKGm5JUMADaFkS+L0+UJu+j0t3gJ+spFmm3Z+EEFlLK00RwjZxx3HowwUIjnWGd6+5GH4nGB/fOo3X/1yGzp+NQY3ni6ilaBNOpVGgNJ12CX544qdVok5A6G1/yiydkb9sKeUE1ZUuB+4qp/fz1S6E076Mg+iUMg7eZy86xAgrhXvOGPkv4AyYlabMjo/JjwrvmocSnTSIDg/elyjxpdm3YRQHLH+gVAKmKjYUWJLCKPyJ+zD5aCEclnB8NnYuuI4E5/KoPncvxgUH4f3T+zBg2f/QZkxvlKZL/GlTUYUTvMqVpvOPrmNfP83zXe932zgIZ6my6g0qR7axD1/fmvul65tbm3IgnfgQlHJc60Ur+1qplUq89kvRNZ54KInXW2JDJnM7A4D76uuUcE3dElo3peb6ykfQB8o1LoSpOATM/hCnrsfCqXwvdNp7Bx8H3cLofX+i1/8+Q5Pez1NwbH5RO5D2OFCGsZet6RWP8VOa/uVyh+a4PbTsNv/JtE5ZWjdRYtphLb2yhUd+oGseY5q1z8qAwsZWX5JWCZEdOJIWCaHQ394L35uUA7m1xgvfvYNypflOeRJD0HUEBXGKb1DuSCtcKqNEHS/Koe4h4KivZZCbcBV+x4JgcPJGsXrllRPUuXJ9FPPSwXDvGPx9LTNY/dUj8A/SQ+ddB8XLOxAN0CFe1LpDTctPUHDNx8h93VhlOnQeHOdeCAUEamZm6iplfEH0rzdlhuXVL4MH1FHGFOTMWmObwEfAZirh802CPR1oPZMmdE+nl4DJ+Whl2n6Fn9kz/hPRe8aB04ACdt65F8KSHk/27sVjiuidW3+Ml99piQJ5kl3hiLp+DVF8TlPJznhqu6Bg/Tpw1yUg7NjRpwPgJUlA0JFjiNQ7waNOPbU23ZFt7HONSslaQfRVur75/pkXXd8l+E+jBKc+Xbv88hhdyxaHQn/kEbr2OU3gZCzxUBKvt8TrzxSP4bGMrnHeZmxjmte6vmk6VcnYReAqBfz7NPbDEigN4aSKC/zWBukS4pmkvw3fvTcpiHVDuY+/Q9OWpcFD+zxlCELwNSpbKK+fFkjsT3scKMPYy9b0yoUC7jqUaHC3waMahYIESiyO0Y64DFLPU11IUkqv7JG4ubXuT4mtoRIrTIQQWUcCfuG4hMR+u8Q0Y1VE4d7Pv+KO0oEsDglPcy9PlH25DTx08QhY9DP8zALt6L0/4czZOOgKdkDVF9QcyrMFKrcpAMSfwKmfD5s9uioUvj8twYM4J3h26Ko8Ls8R6ymINh98JjgQWBRGF4kr0MnbuMzTx/gc/XjKdX82v6tNmdtPau1chyJJj9/jQL4c/Wv+qD4Fzf9B23AmXqE40NxaMENX6qBSxv67fveBrRqlAT19MQGU8XLmXt5kUDAhHMN9XekaV+csL/GTOP7rfmMNP4+vYVwK1xYvo3wBHfQnFuH4YbMLPHQvji85C71TQVTq+oIyABVzZBt7+D8ANnK/VRMciP/P33i9titsvLZYC7p2uSHuCXrvMF3TpkKDgSVqmtBVTRP4i6nIFzt9D3fNPoPxYJs7aT/OVDh/jdIPa2qXBBrTvri2boGVwfse0nuc/nnR5xWy+EGEeIYZKK16OsiP5cURd/JnnNxvvEATYpMyUPvTHgfKMHayOb2icsHLBemvpT970V3jzUBTe2nZWXqvIK3/QmLZIpX0ylbRlA5uVcc2qs6VEeZo/360f/5Fyjv2NQgh0pEE/MJhTuUaoHgROoVi9+LAmLnw9Q1FfGwYwi7+jePvdcSKGSeMwYA+ArER/ILpkKfHWNSp6Az95blY9+oMXL0cjLioQDzcOBlrBv6EYL0biox8D1USu7/pCqHa2MHwcY5H4Nx+WDtjCx4FRyMu8CIuT+6F9T/dgMGtBhq81xkmrdbscv8e0P0ScJQK1DFUOOcRtbucBXzpvRpl6D01yuDnzo7l587SnzP3NDDjIRBMkU5gODD5JAX8lAG6Ueb3HgUNiXS0bV3K8LhS4YKaQSbSRwHLKYgwUCbcrwT3KLSuEj+TnzJtHrxvIRUIEr/RRHGU21+hha75gVoSDIg0c0aBBvWRly7xhL2fY8vcvXgcGov4sPt4+PfP2NaxC/ad4PaidC5GhD99goWuUA80GVwRTvGXcaTfq9i75TIio6MQcXEjdvcaiOM39HCuMRJNOyf1b3VkG7tQwfMtuj6XPgHC6ToMCAE+OEHXEV1/fL1+UJSOQV21EL0eTNdrPF1P/ega30LXdjRd4xfpmut1BrhB63Ca0DnxzgNtWJuuOa7EukKF4GSVZvSdrKO0hC/754oDTVLIcfmGAD+Tn49jsx+lSeYXOLlCx8L3IGrR1yCVZkKYcC6HEvWL0PUTi9ufj8Hhvb6Ijo1FzP2LuPHze1jWZQYClC6GesSFJ4XG9qc9DpRh7GVrekX/6VGWAnj69/Jt4NXr9G8sEEXTxmvAwDv019J7I8sZb2IqaN5qemWDOEqATlNaOIDSRn7qiDvt6/XEm5+m6L3z9DXr6PMa0DpCiKylMxD1tV1i/Pdj+Q+/Ys2Of3Hmmj+CIxPgkrcQSlWug2Yv9cHIt4egVenEOpPkDKHnsfrL6fh+3T84dycUOp9yqNvuNbw/+UP0ei6vupbI/igA/74TFry3C1HmTbp0HvDp8yXqx3+G3X9Eo8qCuxgwvLAxk6KcIGrvBCzr9gUCLAa9cYJHi+kYvP1TlDI9FQyP4TvhJaz84rjlwH1OPig7fQcGfdo4xYDZAh3z1EPAFCpEj6YC/FLKHM3vkJekwH1HPSpgm9S8GyjgnnAM+CJUydOS4dr16Y2BT80y+m3ngK7+FCTUBjaVUvJcxeWbQN2rtB/KEE82TyVQpw9bSZnsIMps3SiDvdAUqGSy/nnK7BvQVLMycJwma40FhLBZ/BUc6dQc23cFW5zr8KiEml++Dv1nE3Ep+mX0uLsZ9dXnSRoe78Wul7rhwHEqUZrR+bRA2x3b0apx8rTekW1Sc5auh4Y0taTrO5QC7xNmpVsXyqLmNgLGmBVIHwcDL1EB+7hGadiHrr0dtE1jk4g76hFQgdYPp/TCt0HSYzX52fvN/gUoucA0ur4npVLwDaRjrHIWCKHtZ7Wkgj2PyJWIfoDpB4HJtM+ptK/JUogWIpmEK99jefP3cCvYokACl0p98OLr8fhn4h+If3kBxm0ejrzqdWp/2uNAGcYGDqVX9PF7KbjvRmUJy6MHWlQBtlcyDvaXyFp6paCvbuAuKmvYcCeAWzp9TsfzkcaNjQQ6mMaUXp3PR38HpVc8wJ8QIus4TyHqaxsZ8HDHeHRoNwo//30GN+49RkRsAvQGPeJjIvD43k2cPfAnli7agbD6PdChct6nwQ0zBP+D/3vxRfxn7SncDY5AbEI8YsKDcOfcP/htxT44t+lj9UaByG6ckKfxK6hcIRZhd/wQERwF5CuGQs17oslXy9BzcmcUvL8Nx3f4IjJ/czTuVU2tldLBtXw71OxWDbqgAIQ9eIy4OBd4VmiCqmNno9dPb6G4eUap84R3u/6oWs0ZUQEBiHgcgQQXH3g36YYms5eh61t17Qv2GWeUfsA/scDYhsB7dNpdpYj/EWV4hbn5LWWSK6oBlc0iZx4pt10JgN5CQDQFB5QxulDG16QoMLsO8JZG59qSTsDCe5S50rZjiqvN8ehz/ncR2EOf37g88HFB/kZTQBdSed7PfQoIYgBv+ry2iZcK/S2rqaCwlZaPqQ60kUtIpAenwij1Sid4xwYgxO8BP24fbsWqokzPseiwbDFad66M8G0/4rpvINybj0b1asYTT+dZHhX6d0Nh5yCEBdB2EXFw8qmAUt3G4qVlP6FxXcuSsCPbpOYBBe6/0FSjHLCOpkd0ffMjK/l6bUXX8M91gb4au/X0BPrT9eUcR9c4XVPcQMmHlnWjfSyrCdQ1q153pT/7sj8F9vT9PF8WqK5eyGdvU6BPn+9CBeIfKqbeDD8PfcYlSpPOUJpyjz5jZKGkNEFPac1nVLAPoAL0t5Q2FZUCtBDJOBVujGqdKiAh4A5C6eKPQz7krdoc1cZ+hZ6LJ6NK5fu49uMOPAnMjzKje6Gwmk/an/Y4UIaxgUPpFZcLqOzQjdKFIEqrHlCaFUfLKlCaM5YKKT9RemS+ibX0SkFp3fpbwDn61xwnOe5UhilLn9W5FJVfagMD6bWWu1Te+SyQ/hba/wSTdEwIkTXsruE33F+BPnWG4HeOilLhVKgbFpzagGFlEi/1COx5pw5e+uGm2cjOiSgRrfkx9h//HE0dbZstRHZEBfj//EsFdcqM17UGepkFDGmlj6Tgfz9w3Ac435gy+1weDDx48ABnz56Fgw2UhAN0Oh2aNm0KLy8ZLk7Lv5eB1r5Av3rAiuLqwnTkS/uuRp/RrDqwi4IBKUAb6fV6HDlyBGFhWvWb4llTuHBhNGjQQJ0T1mRoekXZ8tyjwLgQ+rcF8I5pS6Vn0IkTJxAUxMM5C5F+vL290aRJE3XOBhzw2y7BcPu7NgZ3fmgpbepUsLnhvSX7DdcCIw1x8TGGkLsnDL9NaGso6mR8H3A11J92zhCvbq0PXGno7c3Di9B7unyGxuO3G26HhhhubHjbUNtDXe5U1DBkU6i6hRC5x7VbBkPebQZD17t0LajL0svZawaDK+17yP3033d2s3HjRoOLi4uaxsiUmVOBAgUM27bRiSYsJIQbDK12Ggxexw2Ge+l9ESYYDNMOGAxOuw2GDbHqMmGgYN9AwZ3muSrTszu1bdtWOTeEdRmZXsVREb7+doOhxBmDIfgZ/xm6deumeY7KJFN6TI0aNTLExtpWKLCzkiABd27cVmvndcjb4QPMHNIClQt5wsXZDV6lG6D3tKWY0tZTafrDfbwvHTv1tF9R1L/bsCdU2RhOhV7Bp5M6omx+L1TsPhUfv+xl3EYfiL+3HTMbiV2InK9yaWC4J7DzDnAh9QYytosHfvADXL2BTxIH88nFvv32W8TH89BlIrOFhITgp59+UueEKae8wJRSQEQgsCBcXZhOwoOB+ZSRPl8e6Jo4WKDA7t27cfLkSXVOCKM9e/bg6NGj6pzQkpHp1W4q45ylgsgHFQGf3F4gScHly5fx559/qnNCpL/jx49j165d6lzK7Az4nVC0RFF1IwPCN36MgVPX4IhfpHKrQeFUGqP/joSen8ts0CNq02AYB/BMwM0z5xCmBjoutZqiYWLHIp03mjSrrvbv1iPw7Bn4pWdAJER2QCf4pOeAQlRw/+Kh8fZcerhBwf7yGOAd2ne1ZyBzffTokfpKZIXHjx+rr4S5NpWAvm7A9zeBoPS6wGk/C28A9/MBs8rKYJymJC0Q1kg6lbqMSK+4e+F/A6gsUg4YY6V//7MiMDBQfSVExrE1rbO7D3/C9bloX28c9j59zBrtxCkPitdqjjZt26J9h07o3K4+SniaRx6x2D6iNLoseEQhvQ55+61D4OreTx+jFrK8B4oP3gR+yJNz+few5+q3aJmsJuMcTX/QFKXMicxCJUwMocl82BfhELpsfj8LDAwF9jQHmqWx9M7P5h30L3ChJHCAAv5nIX+tXbs2zp8/r84BX3/9tfpKZJTx48err4BWrVph79696pwwd/8+0OQM8FoT4MsUnrtvq0e0v7qUZgxtDHyeDvvLTVavXo3XXntNnQNq1KiB4cOHq3PiWfLNN98gIIAiTdW2bdvQqVMndU5Yk67pFZVvfuO0Khz4qynQPJ3HKsppDhw4gJYtW6pzUMa/mTRpkjonhGMWL16MCxcuqHPAypUrk+WDVikN++0SY7j86yuG0q5qn3uLSWdw8a5m6DxuoeF4UIK6DYswrOntyY8bp3WcDIVf30Z7ShL9e39DXnVsAJ3PUMOf0eobigc0edCkjNElU6ZPtWkSInuoVavW0/SmRIkS6lKRkdzd3Z9+5xTwq0uFyFqrVq16el7ytHDhQvUd8ayZM2dOsnNBxhoRWW3//v3Jzslp06ap7wjhuEWLFiU7ryjgV99JmQMD/brhuRHrcGzXdxjdriLyO5nX5BsQ/+Qytn7zBlo8/wZ+u5v4MM8ExMVT9KjOObuYVW06Oyf1L4iLRZz60mg9TVz3L7IGt664bXwphBBCCCGEECJHcCDgZy4o3vJt/LjrGu7dOowNP0/HO/3aomZRD+iexv8GRF9bilHvr8Z9Jcp3hquL7umAYvqExBsBqoR4fnKZkasbko9LFKP+K7KODKMohBBCCCGEEDmJgwF/IifkLdsEPd6ciP+t3o3z9wJxa+98jGnio+5Yj+BtK7D1EUf8LshfIK8a8BsQFRn1tLafRYXzQH/G104FvFEgxSObTtMJmTJ0akaTEEIIIYQQQoicyq6A3xAwD+3dddDpaHKtjk+Pmz0ayykvyrV8A3N/eQc11cE6DHG3cO021907oWTpEuoHGhD38IHJqKAJeHjvwdMafudS5VAqxcHMGsiUKZMQQgghhBBCiJzKroBfV7QBGpVXI/n4a1gxbzuCTavpVZF+fghOfKyezgN5lBH7XVCpdg3kUdv0x507iOOJz/40hOD4kcv8OHHihMJ16qC0XUcmhBBCCCGEEEIIU/aF1S4N0LfPc3BVgvYE3Fk8DF3eXYB914IQnZCAmMe+OLL6U/QauRQBasDvXLwZmlc2VtfnfeFFNFcjfv2j9ZgxfQfuhofh1uYp+HJ7mLGJv1MhtO/YBG7KWkIIIYQQQgghhHCEnfXormjw3gwMKO1s7IuvD8Lh70egddXC8HRxgUfBCnj+tc+x6168MXjXFUDLD99HG/Vh+7rir+LtvqWghP+GCBz7uhPK5vdCxe7f4WwUb6GD63PDMbpjfl5DCCGEEEIIIYQQDrK74byuyCv4fsMsdCrl+nTEfU1OBdBg7DIsf7uqMcBnOm90+XoJPmiYX3NbJ+/nMWHBBDyv3iAQQgghhBBCCCGEYxzqKZ+vwfvYfO441vx3FLo3q4aS3h5wcXKCq6c3SlRtjE5DJ2DB3gs4+L9uFoPv6Qq1w5f/HMGaSf3xQpUiyOfujnxFq+CF1yZj9cGdmNzMK+UbCUIIIYQQQgghhEiVw0PjOfnUQZ9P5mHjwUvwfxyFuIQExEY+RsCVo9i2eAZeb1EK7uq65nT5qqPPtFU4cPUhwqKjEfbgKg6snIo+1fNJsC+EEEIIIYQQQqQDhwN+IYQQQgghhBBCZF8S8AshRIrCcWndJPRvXhlF8rrD07skarQdhpkbriJCXcNxETj8aT14OLmj+ewbSHyaaXJ6BB5dgP/0bIpKRfLB3T0filR+Hr0/WoyTWs9FFUI8E2J8d2L2qM5oWKGw0j0yb8EyqN1uECatOJX0aGQhhMi2YuC7czZGdW6ICoW5fJMXBcvURrtBk7DiVLCVMpFwhAT8QghhVTiOTO+I5v1nYM2hGwiMjEV0yD1c+mcJJvZuio4zj9Iajgs/MBUj55xFjNW4XY97G9/CC61HYs6Go7gZGIHY2AgE3jiC9V+/jhYtx2DzAwn6hXjWhB/7Ah0bvYzxP2/DSd8gRMTGIvKxH87vWYEZg5ujyaCluB6nriyEENlOOI590RGNXh6Pn7edhG8Ql28i8djvPPasmIHBzZtg0NLrkGQsfUjAnyZ6+C/tiSKuFTDugGOnZPildZjUvzkqF8kLd09vlKzRFsNmbsDVtFcdCiHSKOrgVAyffgghzuXQ46uduBYciYiH57B+YjsU04Xg4LS3MOtUrLq2nUL3YvKbc3HBerQPQ8gWfDpmIa7GuKLSq3Pw97XHiI55gut/z0avCq6IvvgL3vr4TzyWmF+IZ0fUQUwdOhn7goCCzd7DkoO+eBIdgzC/41jz6Yso6RyDG6vHYPh3V5CgbiKEENkJl6+GTt6HIBREs/eW4KDvEyrfhMHv+Bp8+mJJOMfcwOoxw/HdFUnF0oME/GkQcWo2Bo/bhEAHC9vhR6ajY/P+mLHmEG4ERiI2OgT3Lv2DJRN7o2nHmTialqrDnCr8Ei5M6o/5lYtgprsnPi9ZA4uHzcQlh+6AGBB9bhV2D2yN70t6Ywbt74uy9bF8zHfwvRevrmMmDui+E6h+BbCyhvLGumtA871A3h2A9x6g7Vlgg2OHiKN+QM9DQJG/AHeaKtPrj2iZtNbOYoYgbPxmAa7EOaPy28uwcnwHVPbxRJ4itdBz+h9YMaoinGLPYt7cHfbX8htCsGvim/j+igeKl8hvNSGOOfA7/ryvh0vVd7B02Ti0r+wNd7cCqNT+AyxfNhZVXLgFwBr8E6lukJvE+OL67FFY3rACvsznjul5C2JO7Xb4fdIK3JP2yuIZFrrjRyy+EgenMkOxePM3GNKsHAq4uyFfqYboO3MTNn1aH+7cXWjJKpy3mpGJtInB452z8Wfnhvi2cD5Md8+LL8rUxuJBk3BWmiILkYpQ7PhxMZWvnFBm6GJs/mYImpUrQOWbfCjVsC9mbtqET+u7U6B1GEtWnbdeHhc2k4DfIXoE/ftfvPLyJ/jH0YIn36EfPh2HQpxRrsdX2HktGJERD3Fu/US0K6ZDyMFpeGvWKThYd5gzhR/B3o7N8duMNfC7EYi42GjE3LsE3yUTsbZpR+yz6w5IPEJ+H4FfmwzEvpX7EHgvBPG0v+i7p3F93ntY+vxAnPVNumv4KAQ4QEGT3hkoTFMRSmd09NOeegRcNf2JKdWZfhzofwM4FAVEUlAeEgP8EwD0pkB95hN1PVvQthsvAK3PAxvo8wPpcGJpukGvv6ZlLS8C0lo7C0Xsx+bdT6B3rYMhI5ojj7rYyAttRg9DHVc9ArdvxAE6F2xnwOO/PsGoedfh1elzfNG7kJWnkxgQ/uAhwun8c6nZCPU81MUqz4bNUd9dB0NkAAIe57LiZfgx7O/YCCvG/4zrJ30RFRGLhMjHCD2/B+dmDMaCJoNwWtori2dSHM7uO4jHlFlV6DsSHQuapx6eqNevN2q5AAl+t+EnlWMZIBz+X3TELy+Px4ltJ/EkKAIJsZGI9jsP3xUzsL55E6xfel1aVwhhTdxZ7Dv4mMrcFdB3ZEdYJmP10K93LbjQVeR320+upXQgAb+9om5h67TuaPTiROx65AoPD0ceJGhA0MZvsOBKHJwrv41lK8ejQ2UfeOYpglo9p+OPFaNQ0SkWZ+fNxY5nppY/CnemDsfeQyHQleuBDjuv4ePICIw/tx6t2hWjqPog9r41C/dsvAOiv/I91r++CEExeVF08FwMuRKECdEheP/gIjRq6AXDnd+w/ZM/lICdA++Vl4FW+4DKx4DTtOj+A6D+HqDhCeC/gcouFQevU8BPQb0zBV9fNQKCOwAPXwAmFgR08cA0CuBP2Rh7hTwCxvgBMXQKvVoNuNaeXtP093NABVp28S7w8UPl8EQWiL9xCmdDDXAq0hTNqjirS5M4V2mKxoWcoA8+ieM3bM+ODEHb8PHoX3HTpytmzXsdFalgrk0Hr3LlUZhS6bhzx3AyWl2sir1wUukO4JS/LMoWzE1JOacFQ7HH2F4ZTZccxPtPojExzA9vrvkUFUs602+zGluGf6fcJBPi2eKKFnNuIt4Qj2uzmtGcpdh7/nhE+ZBz8VIoYZl0iTSKOzgVf0zeRylVQZR+bwne8H2CiTFh+OD4GrR8sSScYm7g/JjhOCJNkYXQ5toCc27GwxB/DbOaaaZiuOf/CHo4o3ipEvRfkVYS8Nsj4Rq+7VgbXT/bijse9TBy0Tp8Ul/rRE1NBPZv3o0nelfUGTICzZNXHcKrzWgMq+MKfeB2bLSv6jDHMgRtxOEFV6B3rowmy1bihQ6V4emZB3lr9US7P1agUUUnJJydh8M23QEJx41ZX+NOqBPy91uAQYvfRcWqBeHq7gXvZsPQec0UlPE0IHLrb7jFu6Pg+vU6wJ+1gJ6UqlyIA27Q8tqlgfkNKOAvZNyrIRb4hgL0OFr/bVp/fGHAh1sD5Aem03qjPCmJCgPmmtwgSMmB+wD9H1XLAcvKA5XpVHKjqX0FmqdlHAdupBVyY2vtnEDvdwf+VF5zLlsBZbVyG+fSKFeK3kjwx50AGwt2hkBsHj8GC30L4ZU5P2CI5o6TuLV8C283yQf99R8wfNh3+OdWCOLiwnD7wM8YMfgbXEjwQK03R+NFszQkRwvdgWOLKS1wKoO6izej05Bm8C7gDpd8pVCy70y8tulTlHCn6/DwEpyT9spCJGMI3oPJ4xfjrt4T9Qf1Rx2rNxSFY0Jx/cfFCIpzgtfQxRjwzRCUKVcALm754NWwL9pv2oSWalPkM6vOS82kEHYzIHjPZIxffBd6z/oY1L+OUh4WaSMBvz0MUQiJ9EKDIbPx17nD+HlQdbNmvjaKv4FTZ0NhcCqCps2qWN65cq6Cpo0LwUkfjJPHbzwTGUbs/s249UQPpzpD0MDyDggaD6tD30cgrm88kPqInZH7cGHTfRjcm6H5jFfhZXaWO1V6H69H6jElZDVqUrDO8lOw3rkoHUcUkI+WlaM44gHl2QNoWUn1B4p4DOym5a70/ggf47KnKDUaXYrrXoDtD7iOMhUG2n8sdw4BahYAzFpro6E3QB+PyBjIgGxZJDbkidICxMnL2+IcUuiogJdfR79lGEJCbWnWYcDDDR/g7aV3UfTVb/HdgNKpJ8BudfHxxi34sk9lPFr3HtpW9IabmxfKtxyF5XdKocvkDdgy7XnQ6ZtrJJzdh7uP9dBV6IuGHQtadHdwrdcP1Y3tlREi7ZWFeEr/YCc+6tQTc05Fw6fNdMwfx01iRbqKO4vbBx/D4FwBNUd2RB7zBMqzHmr2rkVpewJCb/tJCz0h7KLHg50foVPPOTgV7YM20+djHOf3Is0k4LeHSxW8s+M6ji0Zh3al3dSFDtD74Y6x6hAVtKsOUbpcKfpvAvzvBDwDAX88Hp/iR5M5IW/TZihoeQcEBZs2Rh4nPaJOHkdwKl9IwuWD8A/Ww6luN1Qpb+MpTrny0vPAvEhgXG3g6+LAP1eA8YHKW4oboXxvHyhCAXoV80yeVKEgnRsDBNNKN1LL5Wn7chSl8dGdCwHMWmvjAu2DYn3k94Bl3yaRKeLi4pXfXufmDnet30DnBnc3esNgQHx86lep4f5veP+dlQgo3g9z5/ZDSZtOzWjc+ncb9py6i3D6nGSiHuDK8QM47Ze7RvpwbjEH78cb8Nm1WSij2dLvHsKM7ZWRX9orC6EwPNqBcR16YvaxMBRoPhEbfv8AdczvJIu0c22BTjfjMSX+GjpaaYoc7v+I8g5n5CtVwsr4LEIISwY82jEOHXrOxrGwAmg+cQN+/6CORYWYcIwE/HbxRMFCedKegMeG4Imx6hDe2lWHyOeVn/5rQFhI6DMw2qseoXf8lb46BSqU1TwpnUqXQ34q2xv87yAstYD/+lU8SdDBtWo1FIi5gkvTBmNRteL4r2cefFG+MVaPX4J7GtXmdQsDHcsD73oBPasCAyh6b5tHic0VfhSV80eXpUBd8zYNpUqlaOUEitQDUgv4ScsyQBPa0fXbwDCabsVRkBkPHLgDDPal/dAX8WZZONaKRKSZq6uL8tsb4mIRq/V7GmIRw2/onJR1U6QPwOp338Oa+yUx8Ptv8WpxW1IRyvw2jsGLfb/E9tsF8fLU9TjlH4aYmFD4nfwD07sXxd2tM9HrxbHY4uijQnIaQzBuTR6P03f1cKk/CLWkvbIQdF08xG/vDsP356Lh02oatm2dgpY+aS6pCLsZELlnMnYuvguDZ33U6V9Hs6wghLBkePgb3h32Pc5F+6DVtG3YOqUlJBlLPxLwZ4W4OMRz+ZxrCLWrDuHm7qYE/Ib4+Geghj8W0U+4p7oT3L29ngbYyeTzUmpZDWEhiEnxDogeUQ8fQW9wgofzOexp0wRrPluO21ceIDY6CtG3j+PyrOFY2GIULgeY7Ij2XY+C6y3P8fjrdCQU1C9tBPQyibZDKCDnn83LVfvC0VHOzj0EDBS0h9oQf7nRB21sCPTJC6y7BFTcRcv+No7Of8cDmFwfmOatriwynZu3N/LQD20IC0WY1u9pCEcov6HzgneBlHIlPfxWjMW43x+i7NAfMbtHUe1z3FzCZcyfQeduQl60/O9W/D6pJ+qVzAc3t/woVf8VTFi3E3NeKoCEm4sx8cdnoK+o/gGuf9QJq+ecQrxPG7SbPw7FJN4XAvrbq/D9Hw+Agl0xZ9UnaJpieiQyhh7hOz/C8p5zcJ8ClvLT5+N5aYoshI30uL3qexiTsTlY9UlTSDKWviTgzwqurnDhE9kQh1jtqkPExsTSf3Vw4nXVpblXHPTGOyBwdnfXDIa4WbWz8p3FQ59iZGNAXGQU/VePsBVTcOhiKdT6ZjvefhiJiRH3MGrDVFQp64K4i/Oxccxy2NT1WhWn/lRudNVoHiMt544evJry56SG/o5/HwGnoozbmIqKAY4/Afxyf/OObItblZSm3zTBz1f70VYJfritdM0phbI8eJ9Vodi9bhse0Inru7AbijjpoNMlTm5o+a0vnQqxOPRhZTrHdfDsudL4XP/IUzh6IR4Gt+cxYEA15dxKxqUiBg5tCw+6fi79exhBtpxzOZXhEa6P64A1s48htkBztNrwO5pJe2UhFHHnTuBMLODeog962NZXSKQrAyJ2jMPSnrMREFYAZSZuQL8P6mg+QUEIoSUO506coZKQO1r06WFjl0dhD/lKs4KbN7yNVYfGGkILBoSHhtF/dfDyLqAZXOYurnAy3gFBQizf6LBkiI1BAr/h5ArnVO6AcCDF+9LrvVH1hx3o9X5HFCniCZc8xVG8x2T03TgRJd0NiNr2I85et71e1FX9IeIoCNc8RlrOval5NdfUrizawcaLQN9bwG2K5KbWB/xfBGJoOkmvu9OyrTeAF2mdZ6W1dnbjUrk+6njpkHDvGI76Wp4nCVeP4FiQHk7edVCvfAY03NQnQM+/PZ1Yyr8anJydlUTcareDXIHSw9/exYbvzyHepxXabtuKNi19noF0UQjbRIeEIMZA5YViRaULWBbgpsjbhn2Ph9E+KDdtGwZOaQlPSaCEsEM0QkJiYNB5oVhRScUyggT8WcGpNMoZqw7hq111CL/b/vRfZ5Qqy4P35XZu8PDmsREMiFVudGgID6UCDQXTXt7aA6g95QQ3r3xKMKAr1BUN+5axOMld6wxBnSauFLmfR8Bp8+HyrPNWm/KHxSvxugUD/ZRh9K/OBShgXGRVQgQwI4D+pR/3vw2BScWAkrSdG0316fW6xsBL9PqmP/CjLU8iFOnPswVeblMAuvgTWPTzYdBPZiIUe39agrNxTijYoSteSHGYfG8M2RQFg8GgMcVi//vl6Rp3Q7NZ15FAy6L+GIB8vFneWqhTmU6QuMNYsfKy5dMp9H74feU/iDQ4o3itWiiaW1Nz/W2c//4PhKMgqs5ZhRZNn4WboELYrsCgjYiiDOj+Ly9ZtgQSGUyPJ6u+x6UHlGV0nYPenzSFhyRQQtipAAZtpHJSwn388pKkYhlBAv6s4FIZ9et4QZdwD8eOcnNeMwlXceRYEPRO3qhTj4OB3M4JXuVKUyE+AaG+2o+x0fvdVgbr05UqC68UvxAdPEuXAg+ervMpijxabeqciiBvETr1DfGIDU/1AXpPlfYwXjB+tInmbZpowJ8OPnHwvpREhgIXaF03b2BAXnWhCZc8wNCC9ILW+feJcZnIZLpC6DF2MCo6x+Py3H54dcYWXA6ORlTgRWyc3AsDf7oBvVsNjHyvc6o3eBziUhfDR7ehfUfi4MQu6D1tHY7eDkFMXCQeXtyOb4d0xNhNgTB4NsSokS/k3oJ+3DkEGNsro0aPkpJpCSGykTg8PHGGygTuKNunh/YjXIUQIotJ0pQlPNHiZSrI6+JxYtHPOJy86hChe3/CkrNxcCrYAV1TrjrMJVxQsH4duOsSEHbsKJ5Y3gFB0JFjiNQ7waNOPXincgfEqXZDFHXVQe9/EYFaD7FPCEAo9712yod8xZS6VJtU9jIO6HcvBPDV2O1VCsyD6F/v/ED5VAJ+bqLNuzCo/2pRxiwg3IUg5/mEpjk03VXmcqq8baZiwfiGyJfgj+2TuqJ6IU/kKVITr0zfhfsGb7zw2UJMaGLalzwOe98tBxedDh4vL8Ajaz+uTZxQ8a2FWDiiJvLG3sKfn/VF0/Le8HDLi2I1X8a4FRcR4V4J/eYtx39qp9LPJSeLDkFMjAE6r2LIKy39hDCTgHPT6sON0hy3hjNxUetutMhA0ZRExYAHb80rTZGFcEzCOUyr76aMa9Rw5kXNSjWRNhLwZwkdCvUYi8EVnRF/eS76vToDWy4HIzoqEBc3TkavgT/hht4NNUa+h84ZUnWY/bi2eBnlC1CQfmIRjlveAcHxJWehdyqISl1fSHUgHKdSnVC1oRsQ+TeO/njKoil07LEFOHMyHsjXAhWauKtLU+fpA7ShuCo+FPjZvNaddvdTAId7QIcifEsnZXnzA5UpoI+j/aw0+3OZPpqWBxtvBtTiof9znJM0/YemcjQ1o+kbmnJg8K/zQeuZu3Bw5QT0bVYJhfO6wdWzMCo174dJaw5i+6eNodFAI/04l0Gvnw/h6G8zMLxDXZTx8YSrqye8S9VEm4GTsOzQUawYWiV3N+MtMAivRRnw2f1fUFla+gkhspUCqLsxClMS7qO7NEUWQmRTEvBnqBRq+/K2wdQF49EwXwL8t09C1+qF4JmnCGq+Mh277hvg/cJnWDihCZ6Vcah1hXqgyeCKcIq/jCP9XsXeLZcRGR2FiIsbsbvXQBy/oYdzjZFoassdEOfKqP9RP+R3ikbAjO5Y9ekq+N0NQ3zUQzzYMAVrXp2Nh/HOKDj0PVQrkkpVvAkd5eVjS9Lu6XecexqY8RAITgACw4HJFN/+FAm45QPeo4A/NS4UxI/mJvt6YOIJYNp94DY/h5/2d/ERMOQYsInmPenPHZmjH83HJ/1hmj6giYP/5jTlsOBf54Va/WdgzcHreBQeg9jIR7j+72pMe7WaRrDvitb/u414gwHR295A6qeXK1p8c4vWj8HB/1TSTpB1+VG91wQs3Hkad4IjERsbicd+57Fn+TQMrFdQEnGRI/39998YOHAgNmzYgJiYGHWpsJ8zak8+hVhKc2JPTECN3N8HUAiR2zjXxuRTscq4Ricm1HgGujJnPikrZhkdfFrPxK6DKzGhbzNUKpwXbq6eKFypOfpNWoOD2z9F4wytOsxu8qL81AVo3jAf9P7bsadrdXzlmQdf13wF+3ZRNOz9AlovnKD0o38qbi+2lnPBFJ0Hli94ZNI0Xoc8Peaiz5RW8NT74+bnAzC/rBdm5CmGeT2n4oa/Hh7NJuKVGW1ge/2+UZsqwHgvIIHKp5MoyC/0F1DkADCda+NdgM9qA03MUqq9FynA3w54HEfSTR8KBN+qBYzIB8RG0XangfL8HH7aX80TwIoIwN0TmFcHqJ1rrlL+4w/RZB78+9EkhDb9uWn4yU2HKW4NsU/aK+caERERWLlyJXr27IkiRYoowf/GjRsl+Bc5S8I5/FPfjcohbvh55kW+hy9ymc2bN+PNN9/Ezp07ER8fry4VImeRgD8tnCrhPwdjYIi/hW9aaDU0T622TwevWv0xY81BXH8UjpjYSDy6/i9WT3sV1Z6pYN9I59Ma7XcdRO8JfVG6UmG4urnCpXAllOk3Ca8e3I5W9twB0Xmj7MS/MGrnN2jUuT4KFMwD5zwF4VW7Axp8tQkj//oMZb1sr91PpKOfeWYTYGVFoBkF5HlpF560rHlxYM3zwKd2dMFwpu1/pm1+qwJ0yA/40NXIj/MrlQ8YWIlC42bA0Fx7HpgG/2VpkuBfiGdVWFiYEvy/8sorKFq0KAYNGiTBvxAiW3j8+DF+/fVXdOzYEcWKFcPrr7+Obdu2IS7O4tk5QmRbEvCLbEXnVQu1Z6zBiOuPMCEmFhMfXccbq6ehptYdENfW6Hw7HlMM0Rj0RhGuNDfjhgLt30fXLScxLigCkyKC8MHZneg+vgsKpWFsHX7sXv+qwMHWQHhHILI98G894FUr4/+1rgHEdwKiG8Hipg/vqxcF9ztfAIJfAmJp8msBLK8C1HtmugNqBf/f0iTBv6BMqvZkjIo1YErsCbSS9sq5XmhoKFasWCHBv8gZnGujzalYKofE4q0JNaRQncsFBwdj0aJF6Ny5s5I+DR06FH/++aekTyLb0xn4YdDZ3lya3je+VGyhqbPxpcggY2n6wfhSMY2mYsaXQqSKr9mLxpcO47sjPOBfH5pepak0TUDt2rVx/vx55XWJEiUQEBCgvBYZx8PD42mBplWrVti7d6/yWghHcRDPQb2tvLy80K1bN/Tp0wedOnWCu7s7Vq9ejddee01dA1i4cCGGDx+uzolnyTfffIMPPuCbxkZcA8vniRBptWzZMgwZMkSd08bpU9euXfHqq6/i5ZdfVvLMAwcOoGXLluoaVIqeNg2TJk1S54RwzOLFi5Plc9w6zjQftEYCfmGFecAvRFZKCv5ffPEn7Np1RVkqAX/mMA34mzZtivXr1yuvhXDUjh07lKaxjkgM/osXL47Zs2erSyXgf5ZJwC8yii0Bv6l8+fIpLQBq1aqFyZMnq0sl4BfpQwJ+kc4k4BfZE6dYlN5h3DggTx4J+DODacAvRHYlAf+zyzzgd3Nzg7OzdAESaccD9aVHf30J+EV6kIBfpDMJ+EV28xxNfdC792qsX39dWSI1/JnDNOBv0KCB0odRiLTYs2cP3n/fNF+3naurK9q3b4+yZcvil19+UZdKwP8sMw/4//jjD7z00kvqnBCO44Bq5MiR6lzqdDodXnjhBTRs2BBz53L8YiQBv0gPEvCLdGYM+B9TGX/pVWDYc2NQwK2U8S0hUsUBoTEoTxtjkG+c6vAC6cOfBaQPv0hv9vbhTwzyuQ8/P8rPx8dH+vCLp6RJv8gotjTp5yC/WbNm6Nu3r9KPv1SpUtKHX2QIRwN+cMCf/X1LEx9q4rSFJpGx3qYJhtlnYMDPMORd4Gl4c++bhjOBZ4xvC5Gil2gyvWbtmarSNJEm7XOtVq1afJNSmSjgV5eKjOTu7v70O6cCjLpUCMdt2LDh6TllbaIg30BBm2HBggWGoKAgdcskq1atSrY+BfzqO+JZM2fOnGTnAgX86jtCpM3SpUuTnVumU9OmTZVz7+7du+raSfbv359sXQr41XeEcNyiRYuSnVcU8KvvpEyeICKsouAL89SB1iPio/DL5V9Q9/e6aLmpJVZdX4U4vTyDVKSXqjRNoOkMTTwg33SajDX6Ins5duwYZs2apTyeSIj05uLiojzvmoJ83L9/X6mp5cH9ChYsqK4hhKXw8HD1lZGkTyKjNG7cGF9//TV8fX1x+PBhjBs3DqVLG58iJER2JQG/sOpvf+B6qDpj4sD9AxiwewDKrCiDSccmwS9cnpcuHJEY5J+miYP8GTRJkJ/d8bOHOeDnAg4HYidOnFDfEcIxpkH+gwcPsH37dgnyhV14ZHRTgwcPVppXS/cjkVbcXJ/743/55Ze4desWjh49ig8//BDlypVT1xAi+5OAX1jVpiSwuj3Qsri6wMyDqAeYcWoGyq8qj947e2O3/271HSGs0Qry69Ikcory5cvjzp07SnB29epVNGrUSHlU39KlS2Ukf2Ez7pPPQf78+fMlyBfpjvtKh4aGom3btsq4L/PmzbNoBSCELbh/9PHjx/HRRx8p+Z8QOVEOHbTPgyYZtC9jJX/O9tmgTfjx4hYsv7YcEfER6lJL1byrYUyNMRhadSi83LzUpeLZ05GmncaXqEJTX5p44L20B/emg/axXr16qa9ERjF97r75oH1nzpzBjz/+iBUrVsDT0xNvvPEGRo8eLbUfIsOZD9rHJD14NpmmUSxx0L5r164pwT4PdJWQkKAMvjZmzBhUr15dXVOIjGE+aB+T9EmklXlal8tH6ReZ7ypNVRASG4IlV5fgxws/4koI19Bqy+eSD4OqDMLbNd9GrYK11KXi2fE2Td40caCfvjX45gG/yFzWRukPCQlRCtUc/F+/fh1dunTB22+/rTwai5tECpHetAJ+IZj5KP2RkZFYtWoVfvjhB5w6dUqp+ef0qUePHkqXEiHSm1bAL0R6szXgzyFN+qUJTdbimvoSyqsCbgXwbq13canvJfzV+S/0LN8Tzjpn5T1T4fHh+OnST6j9W2203tQaa2+slUH+nik/0DSTpvRvri9N6rLWc8/xoxItFShQAO+99x4uX76sNM92cnJSgv6qVatizpw5ePz4sbqmEOlD0gKhhdOeKlW4ZVmSPHnyKK2PTp48iYMHD6JkyZIYMGCAcg5Nnz5dGSBSiPRUtmxZudktMpy1Mpk55ylEfZ2NVaLpDk08ZLyeF4hMw7W03M+6hTKXiBOxil4V0a9SPwx/bjjyuOTBlSdXNJv73w6/jd9u/Yb5l+cjLDYMVQtURX63/Oq7QtincuXKSqHt3r176hKRWbh1xbfffotChQqpSyxx2lCpUiX0798fw4YNQ3R0NL777jt88cUXyoBHZcqUQYkSxhuIQqQFDxzJN5LOnj2L+Ph4dal4lnG3Ih41nQfss4bTIG5a/dZbb8HZ2Rm//vqrEvRfuHABxYoVk+5IIl3wTXA+v7i8IuPbiPTm5uaGESNGYOTIkeqSlOWQJv2JommSWuLM5UmTbc3dYhNilcD+hws/4OCDg+pSSy46F/Ss0FPp69+mZBt1qRD24QGYclTylcNxIG8+EratYmNjsW7dOqU57aFDh9CsWTOlOW2fPn2UTEuItODzSwrUgrm7u9udpnDf/s2bNyvp099//63c2OR+/oMGDULevHnVtYRwTFxcnHLjW4j0xOkcp3e2ymEBv8gpTgeexo8Xf8SK6ysQGR+pLrVU06emEvgPqToE+VwdCyaEEDkH95/lgjX3O+MbCHyHetSoUUrzRyGEyEr85BEeh4THI2FDhw5Vgn9bm80KIUR2JAG/yFBPYp5g8dXFyiB/10KvqUst5XfNjyFVhiiD/FX3kdFzhcjtuCl24iB/3NS/a9euSq3/iy++KP0ehRBZKiIiQnnyCKdP3GWkXbt2SvrUvXt3pZm2EELkJBLwi0zBp9lf/n8pzf03394MfQpjMbQt2RZv13gbPcr3gIuTjJ4rRG7GacPOnTuVWv8tW7YoYzRwjRr3/+c+kEIIkZX+/fdfJX367bffULx4caXvP/ebLVq0qLqGEEJkbxLwi0x3O+y2MoI/D+IXGB2oLrVUKk8pvFWDMtZqI1E8T3F1qRAit7p9m9KGnyhtmD9feYzWwIEDlVq1unXT/2kPQghhjwcPHigD/P388894+PAhXn31VeXm5AsvvKCuIYQQ2ZME/CLLxCTEKI/r++HiDzjy8Ii61JKrkyt6le+lNPdvWUKeaSpEbscDsK1dS2nDD5Q2HDmiFKg58OcCtqurq7qWEEJkPh7kb9OmTUr6tGvXLtSrV08J/PkGJT/+TwghshsJ+EW2cDLwpNLcf9X1VYhKiFKXWqpTsI4yyN+gKoOQ11VGzxUitztx4oRSsF69ejW8vLyUprTcpJYfySaEEFnp8uXLSj//JUuWwMnJSemKxMF/lSpV1DWEECLrScAvspXg6GAsuroI8y7Ow43QG+pSSwXcCmBo1aFK8P+ct4yeK0RuFxxMacMiShvmzYOvr68yeBbX+rdv315dQwghsgY/Jnb58uXKzUl+nn+HDh2UwJ8HI5VB/oQQWU0CfpEt8Wm5/e52pbn/tjvbrA7yp6P/tS/VXmnu361sNzg7ScYqRG6mpA3bKW2ggvW2bdtQtWpVpWDNj8/iFgBCCJGV9u/fr6RP69evR8mSJZUWSfz40SJFiqhrCCFE5pKAX2R7t0JvKTX+C68sRFBMkLrUUpm8ZTCqxiiMqDYCRT1l9Fwhcjt+nB/X+C9cuBDR0dEYNGiQUutfu3ZtdQ0hhMga9+7dezrIX1BQEPr06aOkT88//7y6hhBCZA4J+EWOER0fjdU3VuPHiz/i2KNj6lJLbk5ueLXiq8qj/ZoXb64uFULkVhzsr1mzRqlVO3bsGFq2bKkUrHv16iWD/AkhslR8fDw2bNigpE///PMPGjRooLRKGjBgADw9PdW1hBAi40jAL3KkYw+PKc3919xYg+iEaHWppfqF6mNMTcpYKw9AHhcZPVeI3I4Dfi5Y8w0AHx8fZZC/N998E6VKlVLXEEKIrHHx4kVlkL+lS5fCxcUFw4cPx+jRo1G5cmV1DSGESH8S8IscLSg6CAsuL1Ca/PuG+6pLLXm7eWP4c8OVQf4qF5CMVYjcjpvQLlhAacO8efDz80OPHj2UWv+2bduqawghRNYICwvDsmXLlJuTly5dQseOHZX0qXPnzspo/0IIkZ4k4Be5gt6gx9Y7W5VH++3w2wED/U8LD/L3UumXlEH+upTtAiedZKxC5GZ6vV4Z3I8L1jzYX/Xq1ZXmtEOGDEH+/PnVtYQQImtwM3+u9f/jjz+Ux42OGjUKb7zxBgoXLqyuIYQQaSMBv8h1rodcV2r8F11ZhMexj9WllsrnK68M8vdGNcpYPSRjFSK3u3HjxtNB/rhf7eDBg5Xgv2bNmuoaQgiRNQICAvDLL78o0+PHj9G3b1+l1r9JkybqGkII4RgJ+EWuFRUfhVXXVyl9/U8GnlSXWnJ3ckffSpSx1nwbTYs2VZcKIXKrqChKG1ZR2vADpQ0nT6J169ZKwbpnz55Kv1ohhMgqcXFxSm0/p0/79u1Do0aNlBuTr732Gjw8PNS1hBDCdtKeOZuLubQOu/s3x9wieTHd0xuzarTFHzM3IDBCXSEVev+lWF3EFd+OO4AEdZmWZScA1/3AMfPH3dP81H8B3Q7gkxB1mYP8/YEitJ9x1ivdjQzAxrOABx3PQWsHTcf1n710XNvpuA8AZzQe0+/p4onXq72OEz1PYEadGDiX+wOuzu7qu0li9DFYdm0Znt/wPBqtb6S0DOAnAmRb4ZdwYVJ/zK9cBDPdPfF5yRpYPGwmLl218aRIScRh/F3PA1Pcm+PgDY0vVWX1fDFx6T7Q/zD95jvpt/gbqHEUmPmAPkJ932Z0PpwLAF6jfRX/i84LmiodBN6/DdxN4fNzvbSeB3p/nO5ZBNMqjMPtOHWZhhC6bj2tXP9nr9N5QNdgtStAvLrMETanDeQRnUPlaN2PUlj338uACx0Xp1tTQtWFJnhk7Ndfp7Th+AnM/DsGB94ch4FvDEa5cuUwdepU5XFaOUMMHu+cjT87N8S3hfNhuntefFGmNhYPmoSzp4I5mRQiw0j5xLgohtIkL05vNCZX2mcxKqt0PgdsCDeunwztb91pIC/9HUfV/fGTRbh2f+/evTh37hwaN26Md999Vxl4dPz48bh586ZxxWwvBr6UPo2i9KkCpU/ulD4VpPSpHaVPKyR9EiJTScCfjcUcmY7lzftj35pDeBwYiYToECrj/4MzE3tjfseZ8NPKPExFnMKhweNwJVC7EYchFviLMrcweruwG+BMU1EdcJ8KyHvTIXY0FUH7HEyFcCuHkkzgQ2Aslbd7VQGaOasLzUQFUyYZZXwdT9/DoifG15rob/q/2m5o7vQKqja7h6mN/4uy+cqqbyZ3IvAEXt/7OkqtoIz1MGWsodksYw0/gr0dm+O3GWvgdyMQcbHRiLl3Cb5LJmJt047YdzS1kyIl4bg9dSQOnY1R55Oz53w5QoFgcyrErKHfJZBy9WiKBi/RbzbxFNDxBn+Sjeiztl0CnqcC1mra1wMqEMXQdJM+cy4tb3gcOJVSSTG3SvN5EIF7swdjx6ZA/oot0cKTgfQ90+/mQb9zXlpUnP6NoVNjO/2O2meIY+xJG/gc/PAifX5xCvi91YXm6HxYfl/5R/k7llFB3urtOzp/P36e0oYiPVB13z2MeucdLFq0SAn8+/XrpxS4s69w+H/REb+8PB4ntp3Ek6AIJMRGItrvPHxXzMD65k2wfun1FAMpIRwl5RPr5RNT8bTPh1RW2UbpUO9DwGfmNxTob+J9NYwE3qS8US3WPFWrVi2lf7+/v79yM3LLli2oUqUKunTpgq1btypjlGRP4ThG6VMjSp9+pvTJl9KnWEqfHlP6tIfSp8GUPg2i9CmFe81CiHQkAX92FXUQe4dPx90QZxTo8RUGXwvGhIiHGL1+IioU0yH64DRsnnXKaq2aPuhf7HvlZfz9T7B2gZ74BgDdjgAl9wHfUIZnoFL86H+BsgeBfpTxpJcgyuBeocDsH1tSdvqDZlyhTNULmFRUyQs1/U3HTvknmvsA/JTtNX5UMFDe0eZMEcvUUsAVfx/kqfIJbva/iQ0vbUCHUh3oMyw/JTgmGLPOzkKV1ZSxbqOM9Q5lrIaszlijcGfqcOw9FAJduR7osPMaPo6MwPhz69GqXTEghM6Zt2bhHhWUHBG9dzL+nHsBCVZOGFvPlyj6vYfTfAh9rT2qAtfaU4GqHbC+EkBHiYPXgVm0vS2ePAJG3KFjox95XG06BtpXXAfgbH2gPRUAAyn4HOmbttrlnCeN54E+CHf++wqWf/IPoqyc0noqdb5/AqiyB3hJffjFHxeAUv8AXU5TQTydvnC70gayj86rlbTuODqXCltJHMKC6FyjCN/bG6hL6/hS4Tyl432aNjzygefY/1Nqz3777TeEhIQoI/rXrl1b6fcfHp6Wm2npL+7gVPwxeR+dDQVR+r0leMP3CSbGhOGD42vQ8sWScIq5gfNjhuPIFQn5RTqT8olm+cSF0pJjL9GxdlKnjpR3vQjceB6YUJBWoEvxc0pHT5qlu4lp0IXbwA9WkhkvLy+MHTtWeazfX3/9pTTt5yePcPD/9ddfIziYMsNsJIrSp6GUPgVR+tSM0qeDlD5FU/rkR+nTp5Q+OVP6tJrSp+8kfRIiU0jAny0ZELnxG5y8Egenym+j18rxqFTZB655iqBYz+not2IUfJxi8WDeXNywyByi8HjrNKxq9CJ273oE5xT6e5UtDexvAHxGMQLvJzYSeJSfMrRawFYK1NKM0vGtFNw1OgbsouDDw4az7QYF7r/ScXQvD1Szsj7f+V/2kP6l9wdQwb8m5boPaH5jKoFu63JAU8poZynBqDN6lO+BnV124nLfy3iv1nvKo/vM6el/W+9uRZftXZTg/+szlLFGZ03GagjaiMMLrkDvXBlNlq3ECx0qw9MzD/LW6ol2f6xAo4pOSDg7D4d32B+YGEJ2Yfeb3yPIozjy5df+4m06X6j0tpECxCv0b+WyFJxVpH8pWM9DwXnPKsAKWuZE782jdVI9SlpvC50P3Li683PAbCoQlaN9uTgDtekYVlcDfOi9M/eBi9m1kiMDpOU8iLu1Ff90b4SlE3ch0tUDLlaCZidPusaokLqgMpCXfudg+i3O0fU1gn7DTQ2B9jbUbKXIgbRBT8fx2V2gABW0R3KTAy10nFspUAikl41K0DmXj7aj/S/k9MK4hibTtOGJzgndu3dXRvS/cuUKOnTogE8//VRpTvvOO+8oj9DKeqG4/uNiBMU5wWvoYgz4ZgjKlCsAF7d88GrYF+03bULL+u7gLjpnVp2XWn6RjqR8klL5JBlKX91dgIpUtJhel/IxSjfjIoC1Gje8TdMgTm9T0q5dO/z+++/w9fXFwIEDMWfOHCV94mf6Hz9+XF0rK4ViB6VPVyh9KkPp02ZKn5pR+uRO6VMpSp9mUvr0qZo+LaH06dm6YS9E1rAlyRLpISEIAcs/wx8v1cc3hfNimosrZniXwvdtBmL3qnOITpbAR+D25t2I1rui2JARKJNHXazyaDMa9eq4whC4HZcPmDYAS0DQtx3xY9fPcO2OB4qPXIQ+n9SHtbK5M2VEjYsAdSiTuUev61Mh/1YM8DIVlBto5cNc6PcHOh0A8u8Eiu4DXrtKAZfWnXFa91vKd7pShnqHzrKRtYFPvNT3rKEM+H+3gWjKB4bRcVmJRfCQCu/bKYdwpf11Kmgs1BtofiFFhinFfU70PQ4tRNs/oHUp005U1bsqvm3+LfwH+eOXlr+gbkHKmTXcDLuJj458pDT3H/4PZayPMjdjjd2/Gbee6OFUZwgaNDc7KbzaoPGwOnDSB+L6xgP2NZMzPMaNT0bh+HUvVP78C9QopP3N23S+0G+4OZh+B9rFECqwmR0l2pSh7em9QIrIDqQWhdB6A6nAp+8E/En7Mj8qbyr8laGFHNAFqctypgREnliOPUNfwk/lC2OmmwumeXpjdo02+H3SKjwITV76c/Q80F/7Fstqd8U/W+/Apd5I9Fj3CYpz8xgt9L1S+Qzd6Dv2pd+4Dv0bTklNcfr9u9ByT/Mfg4SFAe/TJcHjLOTfBbQ4Dazgmjn1/accSRvIfkobDtC590opoKDG5zO+Gbj8Ef1L73eiY+1FwQL/iTuooH7H4kCSWEsbuPaMC9PcnHb27Nk4cOAAatSogfbt2ysFbh7pP0vEncXtg49hcK6AmiM7Io/59+FZDzV716IMPgGht/0sfwMhkrEnDZLySUrlE2t0lBDx38CffZ/SKXPW0qCUcJA/bdo03LlzR+mKdP36daW/f9OmTbF06VLEcB+srEDp0z5Kn/SUPvWl9Mkivab0qR+lTy70pfpR+pRaUUAIkXYS8GeGhFs4M6AhFgyZhjN/nUZIUCT0CfGIDwlA4N6V2DewBVZ8fTbpLmf8Ddw/SyVlpyIo1ayK5Y/kXAWlGxeCTh+Me8dvmAS5BsSFRMK9wRB0/OscRvw8CEXMIy4ztwMok7kD1CgHbHkOcKNgre8VjTvMnJn6Aq3PUeE5nAr/9KGPKFNafRNofgTYaZ6B0fohlIo3KAn81QL4mf5N5VAQSkHgaiofFClMgSFl8Jpov7/TMXPFQYOiQHn6cvpRAcCN5g9QZn/J/LhNUabTlQIAdzr2hbSueVE9j0sejKw+EqdfPY0D3Q/gtUqvwdXJMiKKTojG4quL0fgPylj/oIz1KmWsCRmdscbj8amziDE4IW/TZihoUUpyRsGmjZHHSY+ok8cRbHMOakDkto+x5deb8Og6C11er5hiopDa+RJP58RZ+mKd6AdpplELy00XG9NXqqdC2HEbCzXW3HsC3KTP9cgHVLW39JVtJODxsgH4ufkQ7F36F+7fDkJcXAL00SEIu7QX52YMxMLOX5sUEB0/DwxRIYjzaoC6s//C6MM/o071lK/IBLoWR5yl75i+3yUNgT50YnzMzfk1CqvRdEF2p3RgLl3DPM5COP2+/94HBh8G3qdlyS5LmrE3beCLdcE92pTOq97cNNaKu1RY3kX75puB3ahwXaM4fQ6dG9GPgeUWtY0mUksb8uTBiBEjcOrUKfz7778oUaIEBgwYgPLly2P69Om4f5/+2Mzk2gKdbsZjSvw1dGymddcmFuH+j+irdka+UiXsDk7Es8TONEjKJ9bLJyngSokL0ZTU0MVYQ6uFUippUEp4kL/+/ftj//79OHPmDOrVq6eM6s/P9P/444+VlgCZitKnOZQ+GSh9mmUlfbpH6ZOe0qfilD5Zu+kjhEg/KZXtRbowIGLteGz/7Q70JTqh7aYz+CA0BpPjo/DxnZPoP60T8juFwm/OXNxKDID0fgjxp9zIuSx8ymolhc7wKleK8ocEhN0JMMlQXVDonR1499gSNGtXmuZS55MfeJEysK/LAyUos/kvZXxca55Xo4S4hcq0hWidnS2BKLUfdTsqgEdRBvvWNW7EZYLOrHcaAcfq0DrWW+0ls5cK65SnogUdD98I15JA39FyKrzz/odSoM/fThX6txXNx4UBi1MavI8Upb+Na5iv0Wed/X/2zgMwiuJt48+lB0JI6D303kGQXlR6kaIgUlUsKCr6Rz8UBCl2FFRUFKQ3RQWkIyVI7wLSO6HXBELq3X3zbG7wOC4hnUvy/mCyt7Ozu7O7s7PvM/W/G3cfDQo0wOzHZuNsj7MYVXsUimQvYttyL9uubEOfdX1QZFYR/N/W/8OpW2n1YbUg7Mw54wOZs0Qxpy+uW5Eg5FA3xHruDG6p5JMYrFcXY+WAn3Ez95NoOaE3Ah7w5X1QerEog+acMqbc1TMv5iQN0agJYnpQYc4kp4xE7XdDGV2/HQdaH1KGnboRr5YCCjs7VwbAeuUXrBw0XxmfBVF61CK8fC4MQ2Nj8f6NM3hpwUiULuSGqM1fYuvqu5lDstOBe5mB6HVsOzoNao6cLCF7ACzrapUbeF0Z2tXUM/uoDPCYevalnGQsp6+od10dc6x656+rvOFSA2CoShdu6h2b8K9DH3oV6aTmDeHK0F+ujHa/wAQGylJp4xclEDhAX+PCQGmVJljA1IcFBGrbNGVEOymruEti84b69etj5syZOHv2rGFU//TTTyhWrJgxZRYN7oePFXfWfoCVU8/C6lsDVbtXFYNaiJck50Fin8RrnzgjVt2qU6HAsD3AQpUP5ldx7BVP6UJi86CEqFq1KiZOnGi0Sho2bBgWLlyIUqVKoX379kY3pYc/E7cV11X+NFjlTxaVP/VU+VMyyk8EQUgizuxFITWxXsPROcsRgQCU+2w6GrevCv8cXnBTisi3aA2U/7+hqBTkDuv1A7jMjyiJDkXkHZUpu/nDx9/ZIzLByz+H+mtFVGgYbdm7eObKDa8kiB9/f2CG+vA1Y46r9uurPoBfFQDun7xOhVUfoyXVgCeUEe2jvvPsR72welztKkvi/3AQcLnUxzbRUVEft7VKyLMpeN0EmtYduADsUBecU310u9o+1G5q2Y9N7JT/HGXUJzSAr7v6Uj+i4sWa6PXxDt39H/mz5cfQmkNx6plT+O2J39C8UHPblnu5GnkVn/7zKUrNKYUOyztgxdkVqfxhjUbkTRpcbvAO8Hd+X/384a02WG+FIioxxoL1Mg699Sr+OZsPFcd9gypFHpwdPCi9RCuDxoil2h7fY/S3fd1Dk1KFQdQ1DVZ6KnewevbKgGNP6kHKqPuYgi5DwtYVc3BMiVmfDp+h0/vtUaBQDni4u8MzoCgKdvw/NO4WZNSUXdlPkU9SkA58cyHbfW2/48ekntNL6n3/TIl+wj61SysAJZ0kE5PKDz6rBbyl3stA9TufMtRH1VRGtcor2FLgW2XA2r8NScobFHuuAeo2oUJOQB3aKWZl2M/i1Fwq3n1VmjSiqU7ylBL/ajccV3nHmgTSXFLzhnz58hl9+0+ePIlffvkFV69eNebzr1atmmFwh4en8lDiicKC2yvfwcxOX+JiZCCKj5qERyvbXjhBuI9k5EFin8RLrHrlH1mpjms/Ld8qoMRmYIy6x0H5VJwqAQXjOXFS86CEyJkzpzGVH8ccWbFiBTw8PNCuXTuULVvW6KZ04wZrTtIbCy6p/KmVyp92q/ypqcqfBkn+JAjpwoMtfCFlmPKg+qLbGGG+ju7P5oU1/BKu7QrG4Tk/4O93n8fs+t2x8xQ/oxGI0Rl8TAws/EqavOBOy/0+TMpffRX4KY2NveeDmpZ0Kq4+ng4phjVufZUFbjUDK1Lw/WDf273q+ikcysVX4q5u02xltLNLXgdlxN8dpVst26t19X3HBSUsFidUjafCVmBzOnXT9iTUxNcBdzd3dC7RGavbrcbBpw9iYKWB8Ge7YQc4yN+fZ/5Eq2WtUHae+rDuVR/WqNT4sKo0wfl9jGfv7dRQMXl5w50brLGw2NXsOseKW/PfxNLZ5+HXbTxadSuUKplBjIqiEUt1MKdJV6H9jctJCio8R/6vpm57kLIRmOa+2Qe8rZ55UssOXAMTsvdehPfVw/q/359Fdks4bh/bhVOL52D7J+9iYYf6mD/xlHE/YyLuZg6pnA5Sh7zq5XuO75U96hm9rN5LNuhcfzWuIChZqMvdd4sNj4Ey6hwqi3DKTmXU71dhlQ5HB2aPNvKo9SfVukUZ/D+zf7/N/z7UPUtW3qDE0ZNPPmmMnE3jmiP7sxkt+9e+8cYbxsB/6YMV4SsGYXqnsTh/KyeKDl2Abm9VNe6/IDgnGXmQ2CfJJlwdIzgsLi9zSjLzoIQwmUx4/PHH8ccffxgzkHB+/08//dTIn55//nns2rXLFjKtseKKyp+eUPnTdpU/1Vf5028qf0rB7RQEIQmI4E8XYnFr/XgsaloSnwQUxDe1mmJOj1ew+rOfcWRHCGL49bRa1H/bp9HTE26GwR4Dc7Szz6UV5iiqWhNMDBvnmbao+NR2VrWm/Kspf8bheLItevUBVMZ4iFq6ewMFnNkQiqibwLzwuFLwfnlsnjZy5Aa6KX/2DZ980SgbcI46diF1Dp7irNZQSaR8QHl83eBrY5C/7xt+j8qBlW1b7uVY2DG8veVto7n/C8EvYPfV3bYtyUE9Z2NIdfXso6OdGlHW6Ki4KfXcPI0BjxLCcn4ulr0xD7cLPYs247oiRzz3PKl4quMYsVTxcJp0FVE2f4ZNEsrY+rERsLs+cKo5sLwUEKBeg6//AT5NaE5GF8d8cT229G+KcYEB+KJMLUxt3wNLhnyG3X/uQNgdpmSrMlhV/mCETt10kFpUzOm8D2wJlTewdv2OyhvY1SNZqP04cCATVmFnVXtE3aZZ6r1nwQ9r9O/JqtQ96Gfr/rNUZTLxxkMdP6V5Q7ly5TBu3DijOe1nn32GdevWoUKFCsZI/zS4zea0K4GxXp6PZX2/xeXIQASNXIZnRzRyOriiIDiSpDxI7JN4uW9aPuU4jez5hip/Ut8rH/Wdencn8L9rvEtOUMdOaR6UEOx6NGbMGKM70qRJk3Do0CHUqlUL9erVM7oppeUgf8yfXlf50z6VPzVW+dNSlT8FJnAvBUFIXUTwpzlWhC95DVNaDMKu4JOINnvBp3g1FGvXE3VGTMDTwXPxSCmHOiuvAPhkU4/GegtRt5x/UKPDbqm/JngH0JxOB1TGrJtiO+Kn/JlvJ6oZeTxYlKXOS2UJul88H4G154HTaskmws1WqbB2zeZMan288ifB54CjTr+mcej43kphtbCfpx9ervgy9j21D8Htg/F0yaedDvJ3J/YOJh+ejJq/10T9BfUx8+hMlQ4SaobgDJVuArKpeOtn74TbYYaYNvkHxFu7bmAJwb7XBuHg5WKo/t1YlM+XUOCk4aUun8KPAxTFp8HDbPc9ICViVL0eLUoDY/Op61Xp7idljTkbjNnVsV5dgqWNW2D5pGDcvG2Ge2Bx5G/UDlUHjkCb+cHoOqCUkVb/IxXTQSqSQz1LZx8Tvs9GhZV6RvfORJI0dJqJLw8KVwb0fNv7/+12dV77vEG5JirjoNS+c10Z3gm0tE+tvCF79ux48cUXjQG01q9fjzx58qBbt24oUaKEYXBf5lQjqYoFN+d8i4OXAN92X6LLkLrwSadnL2RskpwHiX2SJDiNbEE/oEcZlUeVUOsqHt8dBg7Fkx+mVh6UEF5eXsagoxyAlAORVq5cGS+99BKKFi2KIUOG4PRpWlqpiQWnVf70h8qfcqn8aY7Kn3Im8T4KgpAyRPCnNTE7sPl/k3E92h0Bncej35nrePfkHjz35wy0GT4AFR/Ne78l7FYEOdmf2hyCmyHOaoQ41dI59UF1R45ihdPnIaoohsdTOUVjnFdAoz8l6Pzf6XdQqbmZ6mORmG92dBgw7Z4Reu5Fd61Pze9N44KNMe/xeTjd4zRG1BqBQtkK2bbcy+bLm9FrbS+j1v+9be/hzO0zti0Pwg3+QUVUnNWzP+V8mi1LyGljkDZT4WLwdyhDuoewNfh32SVYzaewu31efGgyYYR2Xo2w5ZQ6SPRmrCztrvx8MXd24tsWcjyFIurGmiOBEGeRVH6nWXOhwhRLaVs+dYxmuY0KXFxUIu6m04TjysTg/Nj/YfexaLgV74xWwWfw7rWTeGX9n+j89XDU6fIoshlD0NmTiukgFWHe4DQuKm9g6nFT8UhJKxK9q24E5cjK8yoN2H4nBN/9aSpsfIVDaZE3NGzYEHPmzDFq1VgI8MMPPxiGNefP3rRpky1USonB5Z3/qFThjWJPdYTTrtWCcB/JyIPEPkk21fPHDSbKAYY3x5MJpUUelBAc0Z8Dj7JVEsU+pxvlIH8dO3bEypUrVXxScsWaGOxT+VO0yp8aqvypkORPgpDuyGuXxlhOB+PUCfXF8WqCBt8MRFAR1s79h/XaMVy7xgzVatSCGXiURsGq/uq7eQHnt526X+SajyBk+zVY3QKQv3rxdPugHnBWM6b8dypxzTiyf21y4SBvFASsGb7t5Pty9QqwWH0gOfr72idUOLsmc3ddC+ADPxVY7T8rhKMiOOd2KhkAziiYrSCG1xpuCP9fHv8FTQo2sW25lyuRV/Dxno9Rck5JPLniSawKWfWAD6sHctWoCm+TGbe2b8PN+4wbM65t3Y47Fjf4VK3+wNH20wqPbEBVdV/ZBHKbkwdgVmlou3qOfN7VfW2e8aES1QurleGzAvg8nlrZm+pYvGtu6iVIymBQLoHlNE4Fn1Ai1gtB736Duo2K3HsN1mu4flS958bvu5mDS6aDo0rVO7Nfj6i8gWVv/ipviG+gqsSQ0/auOpt9gv1rZ6j8gXfotUfUurO8QbndpeIKh44owb8+HnGQlnlD/vz5MXToUGOKLBYAcCq/Bg0aoEaNGobBfYf9HpJNJCJD1Utn8kf2fM46VwiCE5KTB4l9kiIYFx4ivhYHaZkHJURAQAAGDRpkjDmydOlSw69169YoX7680U3p5s0HTIGUIJEIVfmTVeVP+SV/EoSHggj+tMZsvltie3+RbQQuTPwJZ4xOzTEw37WYfVGsdVP4mGJxfspEhDh8yCKDf8A/e2NgyvUEyjZ4kGpKPX5XIvqSw8fu+lVgyi2VkDyBVgE2z2RAIR+klhSK5x3Owa/fH8pIp3AoUQCoH5+IUam5Z+G4EXxDLgJLnSkQdawQdQ6eonga3joPZSE8VfIprGu/Dvu77seAigPg58HSiHsxW81YeHohWixtgfK/lMf4feMRGs2hxu/Hs2FrFM9pgmXnFOzY4pAowoKxY9peWNxyoVS7BgkP1BXQGz0irBihEuZ9LvpvPFpc3WCvemhxzKz8ItC9x/3xjhf1DFrnUkld3eApZ3HfjAnBym+v2pYrD9DgQWJUvS+NA/87lqMcsqrn+71KF8o+QlWV9pIQS9dAPXur0dme3K+GY3ZNxK6/4/pUmqP/S8yplg5SkXOXgIVxUb0LhfjX5+IKApqr5x1f9/sHom5NSb6r6laddTgH4UCdK1UicFd25DMqvcRHlULAI+pYbH0y2dngfcojPfIGDvLXuXNnrF692hjkr1GjRvjf//5nDKJFg/vo0aO2kEkhJ6otjMAI80V0aGE3YqEgJESy8iCxT5LLHpVXnVD7cyyAis5eU7UtPfKghOAgfy1atDCm8+Mgf8yr2A2J+VP//v2xZ88eW8ikkBM9Vf5kVfnTj5I/CcJDQQR/GuMWVBMF8qrbHB2MDQPG49SpMMRG38KtA39hxxstMWv0zrjRyi3hiA7XXxITsnV8DVVLusNyaDx+7ToaRw5dR0zEVVxe+AHmPfsDrlu8kLf/GyiTTl3kyMULQIeDwDZlMEcpA5ujYrfdC3Dm+YpF1bYUqAuT2rea+sCxEuFfB2VniQBmXlfblD3SraDSojZ/Z5TinPxKSHLwvp/Vx1Xf0bsoj/3KQFHfNNR0NshPGlApVyVMaDgB53uex7cNvkWFgAq2LfdyJPQI3tz8JgrPLIyX1r+EvdfUzbXDlLsj6vQqCbfYQ9jarSuClxzCncgIhB9YiDWdn8WO4xa4V+yPum3SMVE4ou5rx2JKoKnlodNA12NqqYRfhHILlY559ox6Nmpbf2U9PTCWKlxnFa6U7Vhd1LH2KmMoVqWR4yo9vLoD+EGlFTdlPL1TRBlRtt0yDO5BKFgjr7rMaJz+eAC2BJ9CZHQ0oi4ewPGJb2BG29E4b3T3sSDm9n9WtUumA/VcXtoFTL8J3FbP53wo8NZO9Q6qd9fLT/3mWAu2oElG7VhFvaus8DqsjPd7KufV7flV5UPMMsoVAOok8EVjgQDn5Gc8FitxcNExc3gIeQNrz77++mujOe3HH3+Mv/76yxj4r2XLlli0aBEslniqAQUhNUhWHiT2SZJQt++WitOiE0D3k3EFoFUKA/Wd5VUPIQ9KiKCgICNfCgkJMboi7d+/32iRxJZJs2fPRrRKK4IgZAxE8Kc1Ps1Qb0gz+JpiEbpgEKaWyInR3v4YW+kJLP5mO7y6jEPzzgEqo7+Km6dCmd/Hkb0pmk0ejEJ+ZtxaPgyzK+TGmGx58d2To3BSWao+DYaj4/t10m/KJfUBekkJuX+VYKu7Tl3WX0Bt9THdor5ehfICczgCrS1oslApsWmgWqgbsDXM+O7d5chFdR71ofVUwqF7AnPgEoq/vnmM6GK1MupZmm4Pm5TvUHFmZXujZFc5Jo8cXjnwaqVXceDpA1jTbg26lOgCD0527kB4bDh+PPQjqv1WDY0WNcKcY3MQwxIMZEfxDyejfi0/WM4tx9p2FfCZbzZ8XulJrF+tblJAAzT5+X0UuedBxODU60FGP/1RrSfjbplSGpJdiarJJQA/da7lSqRXWANkU+7J43H9rBuUBt53qG0JPqCeyXKVhpSIv2IXR7/cwOwyQB7bsaqtVelgJVB6G/C9EpVuXsCo6kCnDFlp4IPig4ageC4TLGcWYEXTEvjE2xsfF6yEGS9/g/N+XdBqTGf4mKy4c1IZ4nfvS3LSQdrSRBnUJW8rQb1FpXP1fApvBsbx+ah37KtqKs9IYWlMVZWmVFLAYXXMG3bpg+/zrJsqv1AvfPeCcYUC8aLCdFGGNjXI7Wsqz3LocvIw8wY/Pz+8/PLL2LdvnzGyP5vXdu3aFSVLljQM7itXrthCxoNZ7VfDCyNMXpg45sD9zawFwSnJzIPEPnGKs3n42SXNX8Wp4xHguNoxj8rLJqnvo7N78zDzoITwVmmiV69e2Lx5M3bu3GkUVL7wwgvGqP/spsTxSRJE5U8jVf5kUvlTLZU/xdOjShCENEQEf5rjgTyv/o4+U95CuZpF4ePtCY+cBZG3WS80/WUnXp77Gqo0rgJ3ROPcmo3qr8YE3yZj0HvTbDR6uh4C82SHu6cvspWqj0rD5uH55e+hcAr6pCWHukqorSgPNPQFfFXKKaDO31+tb6sBVE6F6tXGBeLm0t90VRnkcV6sWMDs8zDuS01l0Fegkk8Itb19ISCf+hmlxMF0h6HiQ5Shf0B9dCupE1V80LHSkGaFmmH+E/NxqscpDKs5DAV81cU7YcPFDeixpgeKziqKYduH4ZxnKTy2ehO6vP80ipTKA08vlZ7ylELRbsPQddNyNH4knROFM9R9baJE+iYl9J5Wwj6PShueKr2UUr+HKXHO6fSSEstHSgLbawMvKsVXRCk6TufHboCdiwNr6wND2OzfFjaj4V7uVXRbMwX1OtSEf4A33Hxywq9iM1T98Be8uHsu6vRojHzKMjRvW4OzdmMnmgKbuFQ6yK6e7TL1jPqqZS71rHN4AY8XUflFPWBAKtRU+apn3E4ZwBFK3P9tZy3uuwDsVu+zlz/QTRnJD4Jz8nOOfqvaZ+q5uO4gGlfJGxo3box58+YZI2U/99xz+Pbbb41B/mhwb9myxRZKEFKH5OVBYp8kFmYlzA+rK6H/TkWVX6l8slY8JZOukgclRM2aNTF58mSj1n/w4MGYO3euMftIp06djBZKgiC4JiZr6gzBKQgpRxnyb28ExsUAvzZRgi7B6rpkoFL6+G3AoFC1bAgMdKGxY1iD/9uJ3/Ddge/w98W/bb73wxYBHYI6GC0FmhdubvMVhMzPxkNAk1NK2FcHZjkvH0s+Lpw3xMbGYsGCBZgwYYJR+0+D+9VXX8UzzzwDX9+H1NFXELIaWdg+SQhKiOXLl+O7774zBvsrU6YMBgwYgD59+iBnzofYvVAQhHsQwS+4FMeUQV9dGfbNKgOLisSVjqcWsbeAOpuAiwWBf6sAgS5ags6++xT+nK+fzfvjg2MBcDDA3mV7w59VnIKQibGoV6GZen/35AIO1wQKpOL7m1Hyhn///dcwrGfMmAFPT0/07dvXMK45jZYgCGmL2CcJc/LkSaOvP1sAREZGomfPnkbhZJUq6oIEQXioSJN+waUorT6i/XyBlWfURy+VO6KuUcfcqz6ib5V07Y9p1dxV8UOjH3Cu5zmMrz8e5XKWs225l4M3D2LgpoHGIH8DNgzAv9f/tW0RhMyHW3ZgRGEg/CowOSltahNBRskbKlWqZNT0c5C/UaNGGTVrrFHj9FmLFy+WQf4EIQ0R+yRh2LT/008/NZr7M5/avXs3qlatasxEwqb/MTExtpCCIKQ3UsMvuByXLwLV/wGaVwNmFEidUnTLHXW8jcDVYsA2pZ8zSGs5A76iq8+txoQDE/Dn6T+Nqfzio3GBxkZz/84lOhtTAwpCZsIaBTy7CVibC9hfFcidCplDRs4bCJv507hms3/29efgf88//zxy5+Ywh4IgpCZinySNHTt2GPkTBT8HI+XUfi+99JIxzZ8gCOmHCH7B9VAp8re9yrAPixuUrV5KB9xRx5uvjtfnNrCqLlA/A+vgM7fPYOKBiZh0aBIuR162+d5PwWwF8WL5F/FihRdRKHshm68gZHwuKoO7jjK4n6kDfJrAvPuJIhPlDaz1//HHH/HTTz/hxo0bePrpp43mtHXqqBslCELqIPZJsrh27Rp+/vlnfP/998ao/h07djS6IzVvLmMRCUJ6IIJfEDIg0eZo/HriV6Ov/6ZLm2y+98NB/jqV6IRXK76KJoWa2HwFQcissNnsH3/8YdSqrV+/HrVr1zaEf/fu3eHjk45zNQqCIDjAbkfLli0zxiJhl6Ry5crdHeQvR45UmNJFEASniOAXhAzO7qu7DeE/+9hs3Im9Y/O9n8qBlTGg0gD0KtMLfp6JmMNMEIQMzf79+w3hP3PmTGMu7X79+uGVV14x5vcXBEF4mJw4ccKo8WfNf3R0tDH1KAsnOVaJIAipiwh+Qcgk3Iy6iSmHpxji/1jYMZvv/fh7+hsj+3OE/wqBFWy+giBkVsLCwjB9+nRD/B85cgStWrUyDGsu3dxk7F5BEB4eERERRh9/5k87d+5E48aNjfypc+fO8PCQsYgEITUQwS8ImQy+0itDVmLCvxOw5MwSWNS/+GhWqJnR3L9j8Y4yyJ8gZAHWrFljGNYLFy5EUFCQUeP/3HPPIVeuXLYQgiAID4etW7cazf3nzZtn5Ekvvvii4QoVkrGIBCEliOAXhEzMqVun8MOBHzD58GRcjbxq872fwtkK46WKL6F/+f4okK2AzVcQhMwKp86aOHGiMcgfWwB069bNqFVjn39BEISHydWrV435/DmvP/OqTp06GX39mzZtagshCEJSEMEvCFmAKHMUfjn+izG139bLW22+9+Pp5okuJboYU/s1LNDQ5isIQmaFg/z99ttvRq3/hg0bjFH9KfxZAMB+/4IgCA8LDvK3ZMkSI39auXIlKlasaAj/3r17w89PxiIShMQigl8Qshg7r+w0mvvPOT4HkeZIm+/9VM1V1RD+z5Z+Ftk9s9t8BUHIrPzzzz9Gc9pZs2bB19fXmM+f8/oXL17cFkIQBOHhcOzYMWOQvylTpiA2NtYQ/SycrFBBxiIShAchgl8QsijXI6/j58M/4/sD3+PErRM23/vJ6ZUTfcr2MQb5KxdQzuabdNadX4emhaQ5niC4OqGhoZg6daphXB89ehRt2rQxDOuWLVvCZDLZQgmCIKQ/HORv9uzZRq3/7t270axZM6PW/8knn5RB/gQhHpI9PG/Uub8x+b3eaFGrFPL7+8DTwxO+OQugdK0W6DXkJ6wPibKFTAgLTn7bHH5uJmVE+KDt1Os2f0EQ0ppcPrnwv2r/w9HuR7Gk1RK0KdpGZQj3Zwmh0aH4ev/XqPBLBTyx5AksOLUAZovZtjVx8BjtlrdDrzW9EG2OtvkKguCK5MyZE2+88QYOHjyIFStWGEZ0u3btULZsWXz55Ze4ceOGLaQgCEL6olsf7dq1C5s2bTIG9Hv22WeNlkgjR47ExYsXbSEFQdAko4bfissrBqNd96+w46ZFrTnHLeARDJq7GJ+3zIf46gMiD3yDjk3exMqrHEXcG22mnMeSvjJSsCA8LE6EnTBq/Fnzfz0q/gK4Yn7F8FKFl/BC+ReQzzefzTd+WGDwxqY3jN+cGeD3J35HgHeAsS4Igutz5swZY5C/SZMm4datW+jRo4dR61+jRg1bCEEQhIfDlStXjLyJg/xduHDBmNKP+VOjRo1sIQQha5NkwW+9OAtPVe2N367EP9WXxi13e0zevQB9izrWGsbg3OqP0a/XKPx1IdZWaCCCXxBchcjYSMw9Ptfo67/j6g6b7/14uXnhqZJPGX396+WvZ/O9H7YOOHTzkG0NqBhQEUtbL0VQjiCbjyAIGYHo6Gj8+uuvRl9/1q49+uijhmH91FNPySB/giA8VMxmMxYvXmw09//rr79QpUoVY+rRXr16IXt2GYtIyLoksUm/BWfnT8Jio0Ze7ZyrPt6Y9jeOXr2DmNgohJ7difnvN0M+21Et15bj66kH8F/jXwtCDy3G2H71ULXlCKy6K/YFQXAlfDx80LdcX2zvvB1bn9yK3mV6w9vtfmM+2hKNWcdmof7C+qj5W01MPjQZEbERtq1xrD63+h6xTw7cPIBHFzxqDCAoCELGwcvLy2g+u3HjRqNJbeXKlfHSSy+haNGieO+994yWAMmBx+OMAYIgCMnF3d0dHTt2NEb0P3ToEJo3b44hQ4YYzf5ff/11wy85bN++HeHh4bY1Qch4JLGGPwYbBpVD03EnlYg3IUe3X3FhbhfcU2ZmCcH3Lcri1dURSsyb4NN+Gi4s6gWj8W7sTrxf7VF8dCDWCOqWsxRK+pzCsUssEpAafkFwZTiPPwU95/U/dfuUzfd+Ar0CjcICDvJXOmdpdF7ZGX+c+sO29V6ye2THvMfnoW2xtjYfQRAyGjdv3jRGzuYgfydOnDD6+7PW//HHH0/UIH+ceqtUqVIoXbo05s+fb4whIAiCkBrcuXPHmHmEtf6cieSxxx4z8qcOHToYBQSJoUGDBoiMjDRaDxQsWNDmKwgZhyTW8LshX8F8tp2suL3wXTz74TxsDbnzX029WxG88tcdWKxWWK0WRGixfw9u8K/aFz+t/R0DyiTuZRME4eGSxycP3q3+Lo4/cxyLWi5CyyItYXIyQseN6Bv4at9XKDuvLJouaoqFpxbattxPeGw4Oq7oaIwbIAhCxiQgIACDBg3C4cOHsXTpUvXtt6JVq1YoX748xo0bZxQIJMTy5ctx6tQpowluw4YNk91KQBAEwZFs2bKhf//+2LNnDzZs2IB8+fKhe/fuKFGiBEaPHo1Lly7ZQjpn7969RvcltmhiF6b9+/fbtghCxiGJgt8dpTo/g/rZ44x8a+RxLBzRHfWC8qJwtSfQ482PMHnJLlyIiK/RgDtylm2JgRPW4sD2KXiuWo54B/QTBME1cTO5oX1QeyxvsxxHuh3BW1XeMmr1HbGqf8EXg2FR/xLCbDVjwIYBeGfLO4ZQEAQhY8La/BYtWmDhwoVGTT8HzhozZgwKFy6MF1980ahdcwYH2tLQmKZRTeNaEAQhNWFNPaf0Y6EiuyL9+OOPKFasmDEIKbsVOcM+f+J+LJRcvXq1zUcQMgbJGKU/GocndcPjAxYiJMbZriZ4BJRDi37vYOTQPqiVK4EyBctJjGtSHoM2cJouadIvCBmVO7F3MOfYHGOQv93Xdtt8k87TJZ/G9GbT4e0ug38JQmYgKioKv/zyi9GcduvWrahfv77RnLZr167GeABnz541ato42JY9HGBr3rx5aNtWuvsIgpA2MN9ZtGiRkT9RxFerVs3InzhOCVsG3L592+j/z5lJ7PH09DRmLenXr5/NRxBcm2QIfhKLi39PxMgRX2LmupO4ZXEu/H3K9MGM1ZPQtWg8zfZF8AtCpmPzpc2G8Oco/6y9TyoNCzTEwhYLkctH8gJByEyw1p6G9Zw5c+Dv748XXngBYWFh+Oabb2wh7oX9a7mNo2wLgiCkJRzQj7OPTJs2zWit1LdvX+TKlQvDhw+3hbifoUOHYtSoUbY1QXBdkin4NRaEn9mBv5avxOo1a7Bm7WYcuBKJ/47ohtydp2P//GdRwFnbfRH8gpBpqftHXWy7ss22ljTK5iyLZa2XoaR/SZuPIAiZhevXrxuD/NG4Pnny5AO78rz99tv4/PPPEzUAoCAIQkrgaPwzZ840Cif37dtn842fnj17YvLkyUaLJUFwVVIo+B2whOP0xrn47H+D8cO2G0bPXZNva0w6tQTP5XPyoRbBLwiZkn3X96Hq/Kq2teSR1ycv/mz1J+rmq2vzEQQhM8H5/J9++mnbWsJ06dIFM2bMgK+vr81HEAQh7diyZQvq1atnW0uYJk2a4I8//kBg4P3jGQmCK5AkwW89/z0eLzEAa6jPPcpjyOZ9+Ki2R9xGO2L/GY6atUdiH2ffU+H+b9M+fPzI/eGSIvjZxIbNACMi7p3jW0hbgoKCjNoV9msShMTy8t8vY+LBiba15OPr7otZzWfhxO8nsGzZMpmnO52pWLEiBg8ejJIlpaWFkPpw2r6kDH7FwfzYxP+nn35K9nzaQuYmT548GDhwIJo2bWrzEYTk0adPH0yfPt229mA4KwnDcwpAzgiQmvWpguAIZ8dhdzfOiJMYklbDH7sV71ZqiM+OUMm7o9hzC7B7Ujvkcqi8D1vyPCp2+BnnWMXvWR0jd+3AsMpO+vEnUvAfPHgQlSpVkpfnIVGgQAGEhIQker5SIWsTFh2GwjML43bsbZtPyuDUf9Z56t1fY/MQ0pU6deoYg60JQmpy5MgRw0BO6nedA2lxXm1BiA82rT5//jxy585t8xGEpMFuR5xdhHPvJwW2QJKKSSG9YDc3zohTvHhxm0/8JG1aPo+aePqpcvA0BL4ZZ6b2RdvXJ2P90WuINJsRdeMUts59D537T8d520xc7gXqoX7plAnFVatWidh/iFy8eNHoZykIiWHakWmpJvYJp/dDN/WDTrrwpjvbtm27bwR1QUgpHOE6Od91EfvCg4iOjsaOHTtsa4KQdKZOnZpksU9E7AvpCb+h7HqSGJLch996ZQH61eqK6WfNNMMTxpQTTcdtw1+vl4VTyZ/IGv7x48fjzTfftK3FIYNjpC38YNrD2pgyZcrY1gQhfh75/RHsuJpGxtYe5Sap998k739a4vj+syuFh4eTblmCkAxoSLP2jLVoKUVsAYE45lnsApbYpq6CYA9lEVsf0e5NKZI/CamNY143e/ZsPPPMM7a1+EnWoH23d43D0x3ewfJzMfGLfrecqPnqDCz6qj0Kx1fBn0zBv2TJErRp08a2JqQFr732mjFCqUYEv5AUosxRuB51Hdcir8W5qGv3rIeEhmDOwjlAdhWYzs+2TERjoCp+VbC602rk9c1r8xFSG859vnTpUtuaCH4hdWEXMY7ST8FPxy4jhw8ftm1NGmPGjMF7771nWxOyKl999RXeeust25oIfiH53Lx5E99++y1u3Lhh5E///PMPdu/ebduaNF5//XUjbbq5Ja1BtSDEB1uf9OvXz7aWxoKfWG7sxW8/fI+Zf67DjoOncDksGiZvf+QpWgbV6rXAUy+8gmcbFlYyPgFE8LssjoK/evXqMjqykGpQQDptcskMQ4t/x8IAm/MM9ETJgiWxvPdyFM/34H5LQtJxJvhpBHXo0MHmIwipBwsAzp49a1tLGjly5EDnzp0NI0jIujgKftbQyojpQmpw5coVHDt2zLaWNLJnz26M4L9o0SIZB0tIFdJd8KcnIvjTH0fBP3fuXBQtWtS2JggpgyXn7dq1s60ljU8//RQvv/wy/P39bT5CauNM8FssFukXK6QJHNmaffqTSsGCBTF//nxj6iyZoz9r4yj4x44da8zqIAgpZfny5Rg1apRtLfH4+flhwYIFxowRIvaF1EIEv5CqSJN+IS1hiXm+fPlsa/HDEbkLFSp0T+n6gQMHUKFCBduakBZIk34hPfn4448T1Sy/RIkSRmsApkdSv359bNy40fgtZG2kSb+QVsyYMQO9e/e2rcUPCyA5aB9bw5FixYrh9OnTxm9BSC2SK/ilU4kgCC4FS8W7d+9u1NyxYIDiUxCErAkLmocMGYKdO3ca0w/JIFiCILgKbPn6xhtv4O+//8a5c+eQP39+2xZBcC1E8AuC8NDJmTMnevbsaTR/o8ifM2cOunTpYtTwC4KQtWALnmHDhhmDZbF12UcffYSaNWvatgqCIDw8OOf522+/jc2bNxs1+OPGjUPDhg2lW5Hg0ojgFwThocABlfr27YvFixfj8uXLRrO5jh07wsfHxxZCEISsAA3lypUrY8SIEfj333+NbjsjR45E1apVbSEEQRAeHqVLl8a7776L7du34+TJk/jiiy+MMSJE5AsZBRH8giCkO7lz58alS5eMqbnYZF+a6QpC1oVj9Ozbtw/Dhw9HxYoVbb5CvESdwsqxL6NNrRLI4+cN7+y5ULRKc/QcNgu7r1tsgQRBSA2efvppHD16FJ988glq165t8xVSStSplRj7chvUKpEHft7eyJ6rKKo074lhs3ZDsrHURwS/IAjpDuek9fT0tK0JgpCVkVY9SeD2dnzSsjZaD56IZbtO4Vp4NKLv3EDI/rWYNboX6tfpienH4gY1FAQh5XgrMSqkLre3f4KWtVtj8MRl2HXqGsKjo3HnRgj2r52F0b3qo07P6ZBsLHURwS8IgiAIguDyRGDTh33wwfprQK56eGPaJpy6GYmoWyHYMe89PF7IHVHH52JAv29w2GzbRRAEwZWI2IQP+3yAuGzsDUzbdAo3I6NwK2QH5r33OAq5R+H43AHo981hSDaWeojgF1wWy7npmJvXE+MGbUjeS3/7IP4d1h2TSufFGG9ffFyoIqb2HYODR8JtAZwQA3RYCVQ4DMTavO5Dbfj1KFA/GMi+AghYCzTbCyxI4LDxYVXnm3MEaPQ34K+OlWM1UGcXMEFlhFG2MIKQJYk6hWNjX8bMWiXwqZ83RmXPhS+rNMdvw2bhgrT3E7IiYSvw3dTDiHErij5TF+Or3vUQlNMbXn6FUevpMVi06D3U8AbCt0zDnP3xfsGEVCEKN1aOxZ9tamFcHj+M8s6OT4pWwdSew7B393VIDiUIzglb8R2mHo6BW9E+mLr4K/SuF4Sc3l7wK1wLT49ZhEXv1YA3wrFl2hxINpZ6iOBPMrdx8Ndh6F6/NPJm94ZvQCFUbNYXYxYcUckz6dw++CuGda+P0nmzw9s3AIUqNkPfMQuQkCbNEoTvxuZeg3D4qtXmkURub0Vwy/qYP3oeQo5fRUx0JKIuHMSpaUPxS92WWL/tti1gHFdCgQ13AIs7kEe5vMpoMqkv9u4rwBH7L7fKfEbtALofBzZHAHdU9EKVMl93HuiyGRgTN/1qorCq/V7fCjx7Qp1bPe9b6li3Y4Dtl4GB24G2J9XxbWGF9CXN3kvLOUzvlBeeJQZhQwLN1SJPrsCXr7RF7ZJ54efjjWyBhVGpWU8Mn7cfocl8JTIUt7fj75a1MWvwRBzbdQoR4dEw37mBsP1rsW90L0yu0xN7pL2fkMWI2bsem25Y4F7iafRvmQuOw4X5Vu+GLpU9AHMITodI3VjacRvnPmmJH1sPxs5lu3DzWjjM0XcQGbIfp2aNxu/16+D36cekdlIQ7iMGe9dvwg1lbJd4uj9a5rovF0P1bl0Ql42dhmRjqYcI/iRxG1tHtUT97qMxb/NxXL0TjcjQCzi4bhqGdqmLlmO2qRCJ5/bWUWhZvztGz9uM41fvIDoyFBcOrsO0oV1Qt+UYOGjSLIPl2kasf7I1/lp3HcnTNhE482E/BG8OhSmoI55YeRTv3gnH4H2/o3Hz/Eqhb0LwS1/gQrQtuDrJ7ENA4/VAaSW09yivi5eAGmuBWjuBj67GBSObjinBr0S9uw/wWW3g+hPA5QbA0FyAKRYY+S+wOzFF++qci48A36lnnDsAmP4ocLOFEvjNgD9KAflUkDVq+1e34oIL6UfavZfh2D22FwYtuppAurbi1tbRaFG7Df73w1LsPHkV4VHRiLh5HgfWzcLIZx5Fw1f/xIVMXX3E97cP1tqaLdedtglv3ozE0FsheHHeeyhZyB2xx+diSb9vcFWMASEL4dnwS5yItSL26Beo52wIlOgLOHdFZQ7uBVC4oLvNU0htYjZ9iD8+WK9yqlwo8sY0PH/qJoZG3cJbO+ah0eOF4BZ1HPsH9MNW6VchCA54ouGXJxBrjcXRL+qptfuJvnAOcdlYYUg2lnqI4E8CESqT7zdqM0Ldg9Dxs5U4ev0Owi/vw+9DmyO/KRSbRr6EL3ZrFfkA2Iel3yhsDnVHUMfPsPLoddwJv4x9vw9F8/wmpUlH4qUvdiORR8skRODG0pGYU/txrFl9RYnq5A3kZL22EFsmH4bFvTTqzJiNBk+Uhq9vNmSv3AnN/5iF2iXdYN77PbassCk3E/BcVeDPykAnlbn8GwMcV5uqFAEm1VSCP3dcMKt6GF+FqI+9Cv+qCj84DxDI1gA5gFEq3Mu+KqNSAn28XQFBfLAp/88X1VLt/3kNoJcS/TnV2+jrDTxZWp0nv4qWUoW/Xkqga4GQ+qTVe2m5ho0fPYnWQ9YlPPpsxBaM6vchNtxwR5HWw/HbzhCERUXh1rmd+PW9x1DQ7Q72T3web/xyOZmFYRmAsBXYPlW9v25FUW3qYrTqXQ8BOb3h4VcYhZ4eg2cWvYeC6j2J2TIN+6S9nyDEYb2OtR8MxtSzFvjW6InuVT1sG4TUJQzHvpuKazFu8O8zFT2+6o2iQTnh4eUH/1pP47FFi9Aorl8F/pmzX2r5BSEJWK+vxQeDp+KsxRc1enaHZGOphwj+xGK9hoVfTcbhGHeUfnUGZg9+AqUDfZEtb2V0GvUHZr1cEm7Re/H9+BWJqOW34trCrzD5cAzcS7+KGbMH44nSgfDNlheVO43CH7NeRkm3aOz9fjy0Js38mHFtXEt81244jp7xQYH+U/DUkBpITuFe9N+LcfKmBW5Ve6Nm/Ww2Xxv+TfFI36pws1zFsYUb2GXfIIcS623yqX0jAD8l4IOUjrikvtk9lF8hWyTCbwBrlL+n2v5CYJzfXVSm9Ephll0Cy5VIV4dJEJMX8McTSgcq11ed5x5MQCV1Dr6cV6NUmDhfIc1Jm/cy4uRSjOxQG48PXY0rnj7wcWzBZsedtT9h+uFYuFd8C7/+NgKdaxZGDi8v+BWqia5jFmDuwLLwUGl38ZSFuJRJFb9573qcvWGBqcTTqOWk2bJn9W6oYGu2HCrt/QRBfSQuYeU7rdDpy92IDGyKUZMGGU1ihTQgZi9Ob7oBq3sJVOrfEtkcMyjf6qjUpbL6fpsRdjok8xbMCkIqY7m0Eu+06oQvd0cisOkoTBpUmaa1kEqI4E8s4X9j8ZqbsHhWRe8X6uNeGemPpq/0RVVPC64uX4gND1J7CMffi9fgpsUTVXu/gPs16SvoW9UTlqvLsfDBB8skWBETegfeNXuj5ap9eGFiT+R1uC+JIxY3du9FlNUN2evWQ677SgzckavuI8jmZkHErh24rvWC+ipP3w98fwcYVAX4vACw7jAw+KqxyeB4GMv2gbw5gTJORFuZAICNAa6rQMdT8pVX+265wSIQoKIS/pLhpRep/16aj45DyyrtMHzpGfhU748pvw5BjXhnI4zFkS07cM3ijuKtn0RNX5v3XfxQr0trFHG3IvrEEZzKpJXb7g2/xJuxVgw/+gWKxtNs+Zat2XIOae8nZHWsV7Bi0BPoNHY7buWsj6ELfsNbVWWawzTDsyFanYjFiNijaOm8XwVun7uiPuPu8Ctc8L4CS0EQ7sd6ZQUGPdEJY7ffQs76Q7Hgt7cg2VjqIoI/kcQe3429YVa45a2LemXuNzLdy9TFI7ndYLm+CzuOP6DWKfY4du8Ng9UtL+rWK3N/LbZ7GdR9JDfcLNexa8fxLNIkzAO5B67A69unoV7zIikQuRaEnTmn/rojZ4liThO4W5Eg5FA33XruDG7Z3dxqeYCWxYHX/YFOZYEeSr03U6JPf7BDIuNEeDElxJzJDPbrL6wCm6OA88kQ/BZ18NOhwMf/AG9fA3z8gKGF5CVNN9LgvbRGhOKOf030HrsK+7ZMRM8KCZVieaD6yL2IYd+2zx912rfNcucOIlXacvPLgexZMWFYr+PkB4Ox56wFHjV6orK09xOyNFZcnv86+n67D5GBjTFy2VKMaBQoIvOhYcWdtR9g5dSzsPrWQNXuVZ3aCoIg2GG9jPmv98W3+yIR2Hgkli0dgUaBkoulNqIlEokl5AzOKQvfvVgJFHOq9oogqLDaYD6HM+cfIAUsITgTdzCUcH4wFAkqrP6ace7M+Swi+AHPXLnhleJ3PBqRNzm2vRu8A/ydGz5+/vBWG6y3QhGl28ur9erFgCXl2F5D7a1E/fTaQGc7fRYaw8+52q6UmLMXx6QeZQ61VHoNYUkU/DE3gHJ/AcU3A+9dVMdXkfj9EaCx6Jn0Iw3eS48yA7Hi2HZMG9QcRbxsnsnFehOr5i7BFYs7CjZohLLOopiZsVzCsXdaYe6XuxEb2BTNJw1Cfnk/hKyM5TTmfPsHLiEX2n05B0Pq5hSx/9Cw4PbKdzCz05e4GBmI4qMm4VHpVyEID8Ryeg6+/eMSkKsdvpwzBHVzSi6WFojgTyTRoTeNKdjc/APg71Tt+cE/h6EiERr2gF7X0aG4GXcwBDg/mNKkOdRfK26Fhkkf7iQRA0ss1bYJ7t7eTo0fk5c33LlBKXPWqieWGJuI91KPzOlxlT81HYMZUUgCsdFKTmYDavoBAergYWFAn93AHzIvX/qRFu+lby7kvq+TZ3Kw4trK9/D2zPOwZK+H119rDMehHzI11is4NugJzBu7HdE566Pxgt9QT9r7CVmdmH3Y+Y/6eHg3xFMdC4lB99CwInzFIEzvNBbnb+VE0aEL0O2tqk5baQmCcC8x+3YiLht7Ch0LSS6WVsidTSQxMbGGkKNYZO3wfZi84M3qaasVsbEPUJExMXGCkPs4Pxi8vL0MYWGNjc0yNfypgyfcPHhPrTBHRxvPzBFrdBTM3ODmCfckFMB72h5VjFJ6To+r/Dl6O4N5JvHN8s0PHGoE7GwIXGwMfJALuHoTeHYPsFdKfNIHF34vb+/4DE89OxFHzIFo/tFEDCyflar3rbg9/3Us+HYfYgMbo9mypWgqzZYFAYgMRWiUFSb//MiXUG8hIU2xXp6PZX2/xeXIQASNXIZnRzSCr2RQgpAoIkNDEWU1wT9/Pofx0YTURAR/IvH09DAMTGtMNKKdq0hEcYPJzQibIJ6eiNOkMYh2fjBER1GsmpQmVWFtvkJi8IJPQDZDlEWH3VJ/nXA7TGUu6lH5BzgvvImHAFtT/luxfEL3Y1UKkNPmm9QDyxnnlSy8fYER1YAO6jgRYcBkJfyFdMAl30srbmwegw6t38Pa69lR++1fMXdgRaMlSZbBchr7v/0Dt5ELZb+cg4bSbFkQ4sjZEwsjrDBf/BEtslSm4EpYcHPOtzh4CfBt9yW6DKmb4EwsgiDcS86eCxGhDOiLP7bIWrZNOiOCP5F4BQQgm7pb1lthuOVUC9xGGDeY/BHwoP4nXgEIiDtY3D73YVWalGLVBP8AMW6Thhv8g4qoe2ZG2CnnU+JYQk4bg/WZCheDfxIqSov4xL0wIRFxg/c5Yo4EzqkT6sH7UgKn7XucgwkoDofHLYU0xuXey1icXfQGHms5TIn9QDQcthjLP22OPFktQ4jZh/O2ZssVpdmyIAguRQwu7/xH2QTeKPZUR+ddPgVBEB4ykjUlEo7sXkTdLXPIKTid+tkcgtPGgF+FUYyD9yWEWxEExR0Mp5wfDCGnz6m/7ihcjIOECYnHA7lqVIW3yYxb27fh5n2314xrW7fjjsUNPlWrIyAJN7e0EuDU4BdCgVNO9OCRm8A1tQzIARR/gCiLugLkW6405mbgqDNtqbgeE7f0kQSQPrjUe3kb/3z3FBo+9S32RBdH1+/XYvmHjZE7K5b+RYYiytZsObu09xOEu5j3jUQNLxNMXrUw5oCzPEtIeyJVFhVlVPZkl34VgpBEzNg3sga8TCZ41RoDycbSDhH8icSjdA1U9TfBfGE7tp26P0Waj2zF9msWuAVURfXiD5ACHqVRo6o/TOYL2L7tlEruDpiPYOv2a7C4BaBq9eIi+JOIZ8PWKJ7TBMvOKdixxaF6PCwYO6btVfc2F0q1a5CkQXV8A4GmHkBsGDDRsZl9LPDDeZb1A0/kVWHjfOPFKydQTz1YHutHJ032b1wDZtxWNoQSePVtNf1CGuMq76U1FFvGtMNjAxcgJFsdvL1gA+a+WAXZbZuzHDl74pkIK4Zf/BGlpb2fIAguRU5UWxiBEeaL6CD9KgRBcFFE8CcW34Zo3TQnTLE7MWXiFtwrI8MQ/MM07I1xQ64n2qHBg9SekoMNWzdFTlMsdk6ZiPs16Q+YtjcGbrmeQLsHH0xwwJS7I+r0Kgm32EPY2q0rgpccwp3ICIQfWIg1nZ/FjuMWuFfsj7ptktbTns3sXysEuFuB8XuA0ZeB60oVXlXC/INdSvDfUULeD3hDCf4HwWO9WTjuWOPUsT68BFxSx4qKAYLPAq2UH2v+CxUA+mVZpZfeuMJ7GYUDE55Ghw/W42b+1hi7ehU+a1VICv0EQbgP9yofYHe0FdbonXi/ouQSgiBkNNxR5YPdiLZaEb3zfUg2lnaI4E8sptzo+FovlHSPxaHx3dB19BIcuh6JiKsHsPCDznj2h+OweFVE/zfaJGLANhNyd3wNvUq6I/bQeHTrOhpLDl1HZMRVHFj4ATo/+wOOW7xQsf8bSKImzVrEBGNpkAdGmHwwc/IVu/762VH8w8moX8sPlnPLsbZdBXzmmw2fV3oS61dfBAIaoMnP7xt98pNK0zLAYH/AHAUMUyI/9yog7wZg1HXA6gEMrwLUcciwgg8AHssBnx3AFbvm+83KAqNzqf3UsUbsBgqoY/msVuf4F9gWC+RX236tqI6fFZtxPxQe/nsZvecz9HlnFa56V8c78+fhzZqcBjBrY9k3Ej94mTDCqxbWS3s/QRBcCfM+rKvhpewQL0wcc0CmURYEwSURwZ8Esjf9EJMH14Kf+RyWD2uHCrl9kS1vJTw5ajUuWgPQYPjPeL+OvYqMQfDrQfAwmeDTevI9Yk8dDB9OHoxafmacWz4M7Srkhm+2vKj05CisvmhVmnQ4fn6/DmSm6eRhCmyCx1ZvQpf3n0aRUnng6eUJjzylULTbMHTdtByNH0letbnJExhTB5hdEqjnqx6jUmO+yq9+AWDeo8B7SRGCHsC7tYGl5YAWnH9fvY3e7kCZAOAtJfR3q231ktLnQEg5yXkvY4LxepAHTCYftL6n4CmJWG9g4SfjsSvCCmvEbnzcwF8d0+TUeRQbiHW2MR4EQRAEQRAEIT5E8CcFUyCajFmNTbPfx9P1SiFPdi94+uZBqfrdMGzeJix/75Ek9LM1IbDJGKzeNBvvP10PpfJkh5enL/KUqo9uw+Zh0/L3kExNmklwQ663N2GYNRZvftXQeZNmzyZoczoWI6yR6Pl83vtqQk3+lVFl9Dy8cOwK3o+KxtArx/D83JGoVD5lN5bT7nUvC2xqAtxuCdx5DNhYHeiqRLszmijxHtsKiFQC/r7aevUGtigBrGgI3GihwjwBHHkUGFsMKChv50PgIb6XMbuw9u8bUkPkgFuVD/BytBUjoneisbT3EwTBlXCvgqa7o5UdEo2X3q8oRrUgCC6J5E1JxeSPyt1HY96mY7hyOwrRd67g2Ma5GNm1vBOx74kmX59GrNWKyGXPO2mabYJ/5e4YPW8Tjl25jajoO7hybCPmjuyKFGpSQRCSTRLfS88m+Pp0LKzWSCxzUvBkj1upt7EpyorYk1+hoWPrDa/H8N05szqO9YEu9sw3aCqtPwRBEARBEIQHIIJfEARBEARBEARBEDIhIvgFQRAEQRAEQRAEIRNisrJ9qIszfvx4vPnmm7Y1YMmSJWjTpo1tTUgLXnvtNUyYMMG2Bhw5cgRlypSxrQlC+sF3n3mA5sCBA6hQoYJtTUgL2rZti6VLl9rWgJiYGHh4eNjWBOHh4efnh/DwuDkzCxYsiI0bNxq/hazNV199hW+++ca2BixbtgytWrWyrQlC+lC+fHkcPnzYtgacOHHC9ksQUoepU6di5MiRtjVg9uzZeOaZZ2xr8SOCX3CKCH7BVRDBn/6I4BdcFXvBLwjxIYJfeBg4Cn5BSGsSK/ilSb8gCIIgCBkCKXgSEoOnp4xqKqQ/kj8J6U1i8zoR/IIgCIIgZAhatGhh+yUIzilQoAAaNmxoWxOE9EPyJyE98ff3T3Sakyb9glOkSb/gKkiT/vRHmvQLrkpERASmTZuG3bt323wE4T8CAwPRs2dPVK5c2eYjCOlHbGws5s6diw0bNhhT6ApCWpEjRw6jKX+tWrVsPgkjgl9wigh+wVUQwZ/+iOAXBEEQBEHIHEiTfkEQBEEQBEEQBEHIhIjgFwRBEARBEARBEIRMSIZs0k/q169v+yWkBZs2bbL9ikOa9AsPC8cm/YTzbwtpx4ULF2y/4pAm/YIgCIIgCBmTDCv4hfRFBL/wsBg0aBDGjRtnWxMeBhyIyN3d3bYmCIIgCIIgZBQyRJP+cuXK2X4JD4M8efKgSJEitjVBSF9q1qxp+yU8DBo0aCBiXxAEQRAEIYOSIWr4zWYz3n//ffz8888IDw+3+QrpAZtOjxw5Ej169LD5CEL6EhUVZbTy4VQ30dHRNl8hPShVqhRGjBiBGjVq2HwEQRAEQRCEDAUFvyA8bMwh06xP5vGwFn/zb2u0zS9+zNaQaU9a83gUt775d/yhp++wWj3WW63bzDYPjVofscFqxXKr9f9u2vySSUiI1ZpHHefN6zaP+LBYrQv+sVq9VXw2xtr8HFHxemuditcyFe+/rdY9jvG2wxJltXZfbbXWOGK1htv8BMF1SNw7+h8u8k6r93TaTnUO9R7+ncD7Z5DK7zSP98tuqzWbuo6t8R1PEISMgznEOu3JPFaP4m9aE5cNJiK88m+/wmotf8hqjbF5aWLCrNZqKg90mkcmhSTkg7RF+qy1Wiuo+Nyx+f2xx2o1qTyP+Z69o5/3Squ11Ear9fljVushxwtQXL5gtRZQ1zf0hs1DEIRUQUbpFx4+4bsxttcgLLqauMYm4bvHotegRXAW3BoNrLoB3FLb8ngB7srlMwEXw4DgVG4cEq6O2esQnMbDkauXgdcuAJ3LAPXiaR0dcR34NSLud+xtYMrNuN/OMKnrGlkSOHIS+CiBcILwMEjoHXWGq7zTu9X7NEi9q4mJdmq/01DXxGPVugO8eFzta/MWBCEjEo7dY3th0KKricpPHhT+SiiwQeUNFpXX5FEur7fKMiwqz7qi7AC1TE0SnQ+qAIuUDTRLnX9kCcDX5h0fPF6UGTiu8u7JR4E624HNsXHbNHnzA+/mBL74F9imwgqCkDqI4BceKpZrG/HRk60xZN11PPibZcG1jR/hydZDsO6689CnzgPttwKF1gNfqY+KNQp4ZSNQbBPQTRnRqcU1JUCe3AGsi7F5JIT6oI0+rASCPzAsn2HXO+UvFfdzalk/EPBUy3khSuQYW5xTpgjQT330x6kP7sFU/uALQvJ48Dt6Ly7yTitLdKM6VusjgNLoDyaN3mn37MCHhYF/TwMTbts8BUHIWFiuYeNHT6L1kHVIXDb4gPAqf5qtvvONVR5YWonkPcrr4iWgxlqg1k7go6txwVJMEvPB28oOeueCikNxZQ952TztqFASiGmlDmtzlhZAWDNga3XgMRU+LBR46aQKYwtvoDLT/qVVfq/yv7fOGFmtIAipgAh+4SERgZNLR6JD7ccxdPUVePr4xGs0G0ScxNKRHVD78aFYfcUTPj7OQxdTIvjvmsDw/MBx9cGIvgNcyaGM88rA0rK2QCnBrI5zDKitPrqrowGfRLxBx5WR/5OKRwf1USwfT3jWYs5gibra3qMUUEld3iW1vjChLusewBvF1AfxJjAmkbWSgpBmJPIdvYuLvNMR6ngjdwGPH1XHVe+fj80/IdLsnVY0CQLqKqP/C2V4X5eXWhAyFBEnl2Jkh9p4fOhqXPH0wYOzwUSEV37PVQX+VHleJ3fgX6WQmRdWUXnjJJU3fpTbFi4FJDkfVHkTa+mPKTvkLRWPxEzaalLHzeEN1CkAzFJ5t8rGcfAisNuhkCN7LuDVnMDmk8CiB+SXgiAkjnhMFUFIAuZr2DlzOPq0qIHiebLDy8MTvgGFUbHpsxg2Zx/C7jNazTg6riWqtBuOpWd8UL3/FPw6pIZRA+YU81GMa1kF7YYvxRmf6ug/5VcMqeE8tLv66jySF6iqPiAX1O8avsDJKKB1QaCmsy+Yitu+c0CrDerjsxLItx545gjwj7OaexV23A6gnRL8Z9Sb078KMMTfti0+zMDXp4FI9ZHrq+IV37f/shICy2MBT3W8Vupj18lPnU6t/3yBdaDxU1JdV1NlAPx2Cjgq4kBILZL6TifhHTVwkXfaHA603AgMv6IMXGV9Tqmujv8AAz2t32m3bEAfZcBfvqTCKiNcEISHg/naTswc3gctahRHnuxe8PD0RUDhimj67DDM2Rd2XyG7+eg4tKzSDsOXnoFP9f6Y8usQJJwNJj58DpXvtckHREcAfiqvClJ5ySWVB/VQfoWcdCmyqnxq+kGg8hrAdxVQdgvw/nngphM7ITn5YOQNYLxy+dX52zqp3X8QuVW+GKTOYVZ5uTrtvSj/7oVVvJXY/0Ll5dKyXxBSjgh+IWWYT2JGj1qo33skpq/ag9PX7iDGHIvI0PM4GDwbo59tiDaf78W9hbRWRITegX/N3hi7ah+2TOyJCsrIjRdrBELv+KNm77FYtW8LJvasgISCn1YftT5ngIpBwJJygNd14OnDTmrLKAyUUG6yD1hxG7itrPArysCeewKovxVY6ViyrMKHqi9PzULAqobARLVMKB4k7Ko6nvpA582jhHl8ReDquL+pOKsooKb6eBZXb2U3JWb4Dd2gPnYHnXygNW7qg985AIgKBaaG2TwFISUk551O4jvqKu+0VW2/o97L3uXVfvWAnkqUP4i0fqdp7LbLD3iruP2swiq7XhCEdMZ8cgZ61KqP3iOnY9We07h2Jwbm2EiEnj+I4Nmj8WzDNvh8r4NlExGKO/410XvsKuzbMhE9EzRskhhe5RnT9wPfq/xsUBXg8wLAOpUHDlb50X3ZoLJTvtoJ9DsN/KuiGKnWj94EPtoLNHYy7lBy8sEVISpfVsvWKh7Z47ySxE2VOYaoeHiqncs4KVwomBdooPLN7eo8ji0ABEFIOiL4hRRgxZVfBmPQ/DMwF2yFUYv+wbmwKMTGRuDGmV1YMLIVCrmFYfOX47H6npoqD5QZuALHtk/DoOZFDCM4QTzKYOCKY9g+bRCaF3lwUXJgDuBxZYx/Xlx9NJTh/JES5qxhy+7ko7LkIpBbhVnZCIh4AthbA2iuThGhPkYvHVXGvS2cgXpbBtZWH6CqKkxi2v0qgi+pj6taNlTxiW9AG7O6NzNvqB/q+H2UKGBhfRm1bKzWY24pIf+Agb6a5la3SH04F6pziTgQUkYy3+kkvqOu8k57KPt6RWNgmjpukUR+DdP8nVbkU9dWVV3bUXWuvWLsCkL6Yr2CXwYPwvwzZhRsNQqL/jmHsKhYxEbcwJldCzCyVSG4hW3Gl+NX495scCBWHNuOaYOaI3HZYNLCV1N5TkuVV73uD3QqC/RQ3/5mKg9zzAbNkcC8UKBzOeDIY0B4M+D3UoDS5tinVPqwa3HhNEnOB5Wh8fsVdZtUxvZEgM0vMSg7JSJa2VAXgO6HABVFdAwCSjvJx03ewGMq349VN3hBQgOfCIKQKBJp4giCE6zXsGzOclxHADp8Nh3vt6+KQjm84O7ug4CiNdDx/4aiW5A7LNcPYP+5extl+ebKjWxOMnnn+CJX7mzxNp11xF99DGcoYd6MtW9qp75KoH+lvnTq+3Ef/sqwXlJNfbSyAz7q41VFCYWF1YGyaj/WKv4RZQtoI5f6KCc62spQX6uMfovaoa6KU3wcUB+/HepDmFN9zLvaChLc1LIfmwsr/znnOH5v/JTICaho45g6F0vMBSHZJPudTto76jLvtNqem2o8saTTO+3uCzyi8hoau+uV8S4IQvphvbYMc5ZfBwI64LPp76N91ULI4eUOd58AFK3REf83tBuC3C24fmA/7s0GcyF34g2bpIVXwaoXi2vhxKzHTeUR01We2DmeRgHNVLjZJYAynkA2lVF2KgPMU+KaWehsJfov29sKScwHWWi5IUYdyw+oFV8rJ8XBE4DnchV17VaouKwB6vwDrIlVYr888GPBeISIut5HlG3jpuK5nnmuzVsQhOQhgl9IPqY86L3oNizm6/j92bywhF/CsV3BWDznB3zy7vPoUL87Jp5iNh2BCBc1WjsVV0LA4S3wC1SCIof66KsP+QrW0iUTDtq1V123SX1Iy8XXIkDdntlKHLB7cYfCQB797VfL9mqdQv7CJWCxQ1NkeziyN5vE8SO8XwS/kBLknU6Q9HqnGbYC28mq93kP+wUIgpBumPL0xqLbFpiv/45n81oQfukYdgUvxpwfPsG7z3dA/e4TEZcNRsAVs0E3L+DNInEzg9jToGhc3/xbKg/ccG8dTJK4omyNc2qZPRtQVOdvSUXlbWdDVf6WQD5YRuWBLE/YHxaXnwqCkHxE8AspJBYX149H/6YlERhQEGVqNUX7Hq9gyGc/488dIbhjUbm6VX04uXQ11IeqthIB96H8qyl/vhzH7dvrJREORhOilu7eQIF4PopRN4F54XE1ev3y2Dxt5MgNdFP+FvWlm3wx/hJuN/VVL6AiSzFzJiERIQiJQt7p+Eivd5rxLaTOwVOcddGCFUHI1MRexPrx/dG0ZCACCpZBrabt0eOVIfjs5z+xI+QO4rJBs7F0NVjzXt1Jjb27EuhVlIKmrXDMofViUjgXofJCtczvEyfI48NxWj5rSyDiMeBgHWCoygv3XQBabwPWxKPm86jjsxVXuMoDHccdEAQhaYjgF1KAFVeXvIbGLQZhUvBJ3DZ7IbB4NTRq1xMDR0zA/OC5GFAqCe3E0htlTfvH87XyU/40tqPitcgfjCUWuKU+UqwN9ItHHKw9HzfwjVl9QJutUmHtm7+p9fHKnwSfS2AUfl6H7TaHSSd+IUXIO50Q6fZOK3R8b8k7LQjpi/UqlrzWGC0GTULwydswewWieLVGaNdzIEZMmI/guQPgytmgm4pbjnjypxy2eEekIB+kncHddR6VaFRgH0+gfC5gZA1gsJ/Kj8OB/ztr2+4Ar8No6MR8N85LEIRkIoJfSD4xOzD2f5NxLNodxTuPR/CZ67h2cg/W/zkDXw8fgC6P5gUiXbhYVkUtPJ5mbfygMeY54hEPiUV/DJ3ehRhg5qUEavnsiA4DptmPNuaAPkaSPr6C4Ii80w8kvd5pq+0E8k4LQvoSs2Ms/jf5GKLdi6Pz+GCcuX4NJ/esx58zvsbwAV3g6tmgReWBd+KJH2caIrqSIDnczQNTcg/U+TvlMxbYez3OyxnGKdQJJR8UhJQhgl9INpbTwQg+EQurVxO8+81ANCpy7yBc1mvHcPQas2urMe2Ly6GidsDZyFnKf6cyxBll9iFLLm5KWLCUnaXTt518GK9eARYrgeDuA6x9QoWzb/qmXQvgA06Ro/afFcKe005Q227ZPuI5UyhmhKyNvNMJk27vtOJ2KhVQCIKQFCw4HRyME7FWeDV5F98MbIQi9wysZ8W1Y0cRlw1aE1W4l95wlpAjTvInzre/W+UrzMfKsa18MvH3jBMPt5Xd4eQ0ieZud4h4bqJZxZXZOWv6ExgjVRCERCCCX0g2VrMZZp1h238PDSKwa+JP+DuKAWIQHU8frYfN78rgvuTwxbp+FZhyS70c6qPWKilTzjhAoz9ILdnv97zjV1Gt/3E+boqwEgWA+vGVtqs3tGfhuH5sIReBpU7uoyVaHV99MPkRL56IqX0EIT7knU6Y9HqneawQdQ6eorhvnJcgCOmBFWaVD+rX+/5scBcm/vQ34rLBaJccTI7T8v14OS7/uItaWXE6bmDfgNxAvRRY/8VUnsTs7aI6T7Kv3wwsvGIskI8FoE64rI7PYYn81fly3/cgBEFICiL4hWTjHlQTNfKqJBQdjI8HjEfwqTBER9/CxQN/YeIbLdF29M64Zm+WcNwOv+fT4zJcvAB0OAhsUx+WqFhgpzLY2+4FTqltFYuqbUogJBeT2rea+lCxJvRfh4HCLBHAzOtqm/qIdSsIJKTTS3H+bvV15UBfP19y+IgrYsKBw8rTMwdQWT6KQgqQdzph0uudpsd+9V6b1LFqOhuEUBCENMIdQTVrIC4b/BgDxgfjVFg0om9dxIG/JuKNlm0xemek8c5awm/DFbNBmgG/7AdePweEsJZc5YWzDgG9QlSc1caXigOBKbAVcqk8KUjtH6HyqBNJvH7mnefCgE/+Ab7gDCTqOM8VidvmyGG1XUUflXMmPDigIAgPRgS/kHx8mmHQkGbIZYrFmQWD0LRETnh7+6NgpSfw8jfb4ddlHMZ0DoDJehUnT4Xeb9Q+bPjhK6YM9zNA3XXqcv4CaithsEUZ4YXyAnNKKT9b0GSh3q6mgWqhLnyr+sDZX/+Ri+o86sPn6Qd0f0BbNTdvoG+euI/4avXBdvzAHr0JsAtchVxAwRR8xAVB3ukHkE7vNJve7lBx5mjbjVLQ9FYQhKTj02wQhjTLBVPsGSwY1BQlcnrD278gKj3xMr7Z7ocu48agc4AJ1qsncSrU5XJBeClb4JVswIR9QFGVB/qpvLDnaeCGynDaVgCGpaCVE/FQgr+hpxLjtnwqPu6bh185t5VAkU3AkMtxtfdNywCDneWXzGND4woojDzX5i0IQvKQd0hIAR4o9+rvWDPlLXSoWRQB3p7wyVkQFZv1woe/7MTuua+hR+Mq8FTZ+rY1G+GK00nXLQ2sKK8+Xr6Ar3obCmQH+qv1bTWAyvE1yU0CjQvEzbu96Sr+u34lCmafj/vY1SyohPqDRLra3r4QkE/9jFIfwOn2w9Wqj+Kaa+rDq8J0VidKhSgLWRp5px9Emr/TihD1Th9Q73YldaKKDzqWIAipi0c5vPr7Gkx5qwNqFg2At6cPchasiGa9PsQvO3dj7ms90LiKUrzR27BmowvmgiqfG1Eb+KowUEpF00etV8wNjFV+vxdT+aItWLJRx+uaV2VjZmDlDZtfInFX+Vk+FYHHVD75fR1gWcm4kfgdsUQCf6lbywLUzvE0+RcEIfGYrArbb0EQUhv1QXx7IzAuBvi1ifpwpXK7NMsdoNnfwI5AYP8jQAkRB4KQtqTxO81CvPHbgEGhatkQGJjN5i8IguAiRCqhX3UrcF0J9xPVUn9QvVOngPKHgHoVgNVBUjspCClF3iFBSEvcgVdYoq7EwZSL9zYBTg3+PQ9sVgftqj6IxUXsC0Lak8bvdOxtYNpNoEABoGeKq+IEQRBSH58A4NVA4MZl4Pcom2dqYQFmnANivIE3C4lQEYTUQN4jQUhjShcB+inDfeUZJdDVhyzViAUmhACe6sM7JJ/RSlgQhHQgzd5pxRp1zL3qZX6rZMoG1hIEQUgzVN70fGmguBn4VtkhHFwvtbh9HZh0C3i0ONAuBYOsCoLwHyL4BSGt8QCGlQNyqw/YJ45T5aSA4+ojOzMKGKiOXV6EgSCkH2n0TrOLzkfn1fscBAyQfquCILgwfrlU/lcQ+Oc0sIgDmKQGKjP9+ThwUeV/XxQzGlQJgpAKiOAXhHQgX37gmwLA/KPAFk48m0Ks6uP6wUmgdHFgaKDNUxCEdCO132kaur+rY23PBvxYCpCu+4IguDQmoGt5oJtSEsOUPRJh804JVy4Bn4QCb1UC6onaF4RUQwbtEwRBEARBEARBEIRMiNTwC4IgCIIgCIIgCEImRAS/IAiCIAiCIAiCIGRCRPALgiAIgiAIgiAIQiZEBL8gCIIgCIIgCIIgZEJE8AuCIAiCIAiCIAhCJkQEvyAIgiAIgiAIgiBkQkTwC4IgCIIgCIIgCEImRAS/IAiCIAiCIAiCIGRCRPALgiAIgiAIgiAIQiZEBL8gCIIgCIIgCIIgZEJE8AuCIAiCIAiCIAhCJkQEvyAIgiAIgiAIgiBkQkTwC4IgCIIgCIIgCEImxGRV2H67PNu2bcPly5dta4IgCIJwPw0bNkRAQIBtTRAEQRAEIeuSYQR/aGioYcC1bdvW5iMIgiAI97Ju3Tq8/PLL+OKLL2w+giAIgiAIWZcMI/ivXbuGsmXLGktBEARBcMb48eNx4sQJYykIgiAIgpDVkT78giAIgiAIgiAIgpAJEcEvCK3YB9YAAP/0SURBVIIgCIIgCIIgCJkQEfyCIAiCIAiCIAiCkAkRwS8IgiAIgiAIgiAImRAR/IIgCIIgCIIgCIKQCRHBLwiCIAiCIAiCIAiZEBH8giAIgiAIgiAIgpAJEcEvCIIgCIIgCIIgCJkQEfyCIAiCIAiCIAiCkAkRwS8IgiAIgiAIgiAImRAR/IIgCIIgCIIgCIKQCRHBLwiCIAiCIAiCIAiZkAwl+C0Wi+2XIAiCIAiCIAiCIAgJITX8giAIQqbi/Pnztl+CIAiCIAhZGxH8giAIgiAIgiAIgpAJEcEvCIIgCIIgCIIgCJkQEfyCIAiCIAiCIAiCkAkRwS8IgiAIgiAIgiAImRAR/IIgCIIgCIIgCIKQCRHBLwiCIAiCIAiCIAiZEBH8giAIgiAIgiAIgpAJEcEvCIIgCIIgCIIgCJkQEfyCIAiCIAiCIAiCkAkRwS8IgiAIgiAIgiAImRAR/IIgCIIgCIIgCIKQCRHBLwiCIAiCIAiCIAiZEBH8giAIgiAIgiAIgpAJEcEvCIIgCIIgCIIgCJkQEfyCIAiCIAiCIAiCkAkRwS8IgiAIgiAIgiAImRAR/IIgCIIgCIIgCIKQCRHBLwiCIAiCIAiCIAiZEBH8giAIgiAIgiAIgpAJEcEvCIIgCIIgCIIgCJkQEfyCIAiCIAiCIAiCkAkRwS8IgiAIgiAIgiAImRAR/IIgCIIgCIIgCIKQCRHBLwiCIAiCIAiCIAiZEBH8giAIgiAIgiAIgpAJEcEvCIIgCIIgCIIgCJkQEfyCIAiCIAiCIAiCkAkRwS8IgiAIgiAIgiAImRAR/IIgCIIgCIIgCIKQCRHBLwiCIAiCIAiCIAiZEBH8giAIgiAIwsPn9kH8O6w7JpXOizHevvi4UEVM7TsGB4+E2wLcT9TBX7Gme32Mz5sdo3wD8EXFZvhjzAJcjX8XIQtjOTcdc/N6YtygDTDb/BIiqeEFwRURwS8IgiBkWaxW611nNseZc/o3lxaLxVgKgpDG3N6K4Jb1MX/0PIQcv4qY6EhEXTiIU9OG4pe6LbF+221bwP+I2joKM+t3x/p5m3Hj6h2YI0Nx++A6/DO0Cya1HIOQ+3cRsjLhu7G51yAcvprIPD2p4QXBCdrGSOh3WiOCXxAEQciyUNBT3NPFxsYaH1/6RUdHG7+18BcnTlxaujs4M6IvgjfdhKlYBzy+4gjeCb+N/+39DY2a5QNubsS6Fz/H+Si7fe4ov74jcfamG3J2+BQ9j1zDe7cv4ZXf3kdxtUvkxg/x5+e7EHvPecRlVWe5ugHrO7bCX2uvQ/k4DWPvkhpenDhnzt7O4Dp/64oE+zBpjQh+QRAEIcvi5uZmOJPJBHd3d0P0E09PT2Op4XZx4sSljcP1Rdjy8xFYPMqgzsw5aNiiDLJlyw6/Kp3x2ILZqF3KHZZ9P2DrynDbPkDEonHYfSQWbmVeQ+c576B0mVzwyp4P+TuPRvfZryDQPQaXf/gax8PvP5+4rOQicXPZKMx55AmsWXMV7r4+zNGdhNMuqeHFiYvfafuBwp6iX9sbWvTrMGmNSZ0sfYoWUsi1a9dQrFgxhIdLpyxBEATBOePHj8fChQuVobbG5pMw/ABrzp49i59//hlhYWF3S+P5cc4gn0lBcCEsMF0+Cp9/DsHr/BW4h0cpi9MTVv88iClVGRE1y8DsZWfonliJwKVHYMpbF6FPPQLzPdVRFrhv/wU5t16FtUJ73HgsSPlFw3PlNOQ4EgNz3W4IfSR3XFCN5Rp8f5mHbFe9Edm+D8KDPGwbhIxNEtOVCu+25w8EbLigfnvBXKkx7vjtR46tl2Cp1gk3GxWKC3aXpIYXhMRhL+wp9kmRIkXw5ptvwseHhUppS4YS/KVLl8aNGzdsPoIgCIJwLxT8GzZswK+//mrzSRjdjJ/s378f/fv3R5MmTRAQEJBuJe+CkLmwwLrnV5gX7Ee8o5wVawH3fo1gMnS4GdbV38O87jLwSB+4dygFxzfPemwhzNN3AAUeg/vLTZXxegHm73+A9XJ2mPq8BfdSjoI+FpaFY2HZcQd4bADcm+ZX+4TDMuNzWI4mYug1t4JwG/Ay3PJLQ1jXIanpiqi0teZHmA/ng1vLx2EqmQPYMAnmFSFAvefh3ibIIa0lIbykJyGJ2NfsnzhxAkePHsWKFSvg5+dnC5F2iOAXBEEQMg1JFfz8BLI2nx/hw4cPY+DAgZgyZQqKFi1q+LGZP2v5BUFIHNYrc/BrhZ44eLMASo34AU881xR58meD9dZ5XAmeitUDPsTxi3lQffEJdGydTe0RjSP9CmLOtFso/Om/eG5wmfv6m1oOfoRJ1YbiQuAL6Hn2R5TCEiwo2B7/3KqLx//dgAZl3G0hNWZc+agufhi6Gz4vLMNbPyohaL2K3W2LYNHyaFuYBPCojma7tqNxZcfjCg+LpKerOGKuXwMCc8PTUOoWXB/bEBMGb0OON9Zh4FcN4fiEEx1e0pOQBGhP0FH00+4IDg7Gxx9/bLRITA/BL1aMIAiCkKWhoPfw8Lgr/r28vAx/XRBAx23ixIl7kLPgztI5OHYd8OnwKZ58rx3yFfQz3jH3nEVQoMO7aNQtCCbrdVzZFwKzsU8UIm/e4ZsI75w5WApnd7w4h+w5YLTUvhWKSLPyi7qJSGMXf/jkiDOg73WAZw51LFgRHRoKC/2QG9WXROAD9V4/0EXtRKNKcd15xLmCS066inMegbmgcne7Y6lkYWDv959LdHhJT+KS4IiuPLAX/npbWiOCXxAEQciy8KNr33Rf/+aH2dvb2/gY6zDixIl7kHND9j6L8J7FjHd/7wk/6x2EH9+N00vmYuen/4dFHRvgt4mnlFgCYiOjbPvEwhJLHxPcfXzgdt8xlfP2gTtfTWssrBa1Hqv2MXbxgodP3CBY9zo35e9lNL+2xpphvW+7uIzlkpOu4nMqkIGzbc6cLXiiw4sT958j9sKefrQvKPr1enoggl8QBEHIsvAjzA+vrs3XfvrjzJp/QRCShuXiemzp3xTjAwMwtmxtTOvwLJa89zn2LN6JWxF8t9Q7Zo573wBPuHsY0hwWTocZ53kv0VEwc4ObJ9z4SnqqpbFLDMzRzvawwhwVdywTw8Z5ChmcpKUrQXj42At9bVtwFiDaFnpw4PRA8kBBEAQhy8KPLT/EWthr0c8SePrr0nj9OzM4Rxy32Ydx9E8vp9G/7Y0m7ee41Ogw4h6Ow7WlWNqkJVZMXo+b4Ra4BxZH/kbtUHXgCLSZH4yuAzgonwrHsMY+3vAJzG7Uxkffum3zu9ch/BbYU9qUMxA+SumbvAPhm50m7G1EGbs47gPE8FjKzPVR4tDwwzXsbuuLD9X7/EDnXQvr/41rdivONVzS01UCjv+c+cfnnIWX9CQuEY72Ax3hd4zjAmliYmKM2YE4gB/dyZMn7y7PnDmDO3fYbyl1EMEvCIIgZFnsP8b2wj4zQmNDO92qQc9SYO+n17mNfnqbLgxJD3Qc7ONiHzf7eGk/+3XhYRGD82P/h93HouFWvDNaBZ/Bu9dO4pX1f6Lz18NRp8ujyIZIW1iNG/yDiigBZUbYqRCnNfyWkNO4ZVY6rnAx+NNediuCnEXUe2sOwc0QZ6Okq2OdPqeO5Y4cxQqLsZvhSU66EoSHj7YpKPR1xYL+Rt28eRMLFizA/PnzjYGG7Zd//vknLl26ZIRLDSQPFARBEIQsgH1BBo0PbYDYi2WilywA0UKbv3W4tIbn0EaSPh+bQBJdQKGFPeNGdHjhIWM5jVPBJ2CxeiHo3W9Qt1GRuMH2NNZruH70Wpyot+oCJA/kqlEV3iYzbm3fhpv36Xczrm3djjsWN/hUrY4ACn6P0ihY1V9tuoDz207hvqIo8xGEbFfncQtA/urF44xdUx7UXBqJESrdPNBF70ITGVHddUhWukpjJD0JScTxG8XvWEREhFMXGRl59/uWGojgFwRBEIQsghbKWixTQDsaIWxmyHC6xYPeJ70ENeNEx/MyLnTEviWGLqjQNSbaMKKfjq/wELCa1X997+9PLzG7JmLX31HGb3N03HMlng1bo3hOldZ2TsGOLeE2XxthwdgxbS8sbrlQql0DxBX9+KJY66bwMcXi/JSJCHHYJTL4B/yzNwamXE+gbANfm6+QYUlmuhIEIQ4R/FkU66WpaO+vm696osoHuxFr2yYIgiBkPrQIpiAOCwvDhQsXcO7cOYSEhBj9Bc+fP4/Tp0/jypUrCA8PN4Q2WwFQYHOfuO9F2ot+npPniYqKMpo8Mp6MH+Oqf7Pf45EjR4w+joybFvzcV3iIuAehYI28SpJF4/THA7Al+BQio6MRdfEAjk98AzPajsb5SKZDC2Ju/6fSTbk7ok6vknCLPYSt3boieMkh3ImMQPiBhVjT+VnsOG6Be8X+qNsmp94D2Tq+hqol3WE5NB6/dh2NI4euIybiKi4v/ADznv0B1y1eyNv/DZTRuwgZl2SmK0EQ4hDBnyWx4PS8qVh9W5eWxuLgtJ+wLvXGhhAEQRBcDIpiiuMbN25gypQp6NWrF/r162cs+/Tpg549exrrL7/8stF/kOGIFvssMEiPmnN9Hg5eNHHiRLz44otGHLVjHPv27YshQ4Zgx44dxj66UEL/To+CCcEZPig+aAiK5zLBcmYBVjQtgU+8vfFxwUqY8fI3OO/XBa3GdIaPyYo7J5Vou5ucsqP4h5NRv5YfLOeWY227CvjMNxs+r/Qk1q++CAQ0QJOf30cRH1twkr0pmk0ejEJ+ZtxaPgyzK+TGmGx58d2To3DyohU+DYaj4/t1bC0ChIxNctOVIAhEBH9WxHwQM6dtuidDNIfMw49/2vo/CYIgCJkOLYJ10/hSpUrh888/x9ixYzFu3DjD8feYMWPw+OOPIyAgbnRz1pproZ8eQprx4zmDgoLQo0cPIz5ffvklvvrqK8N9+umneOONN5A9e3YjPAsyuI++LrYM0DX+QvrjXu5VdFszBfU61IR/gDfcfHLCr2IzVP3wF7y4ey7q9GiMfEqFm7etwVkOpG/DFNgEj63ehC7vP40ipfLA08sTHnlKoWi3Yei6aTkaPxL3vP/DBN8mY9B702w0eroeAvNkh7unL7KVqo9Kw+bh+eXvobDjLkKGJbnpShAElVuqj3iG0HjXrl1D6dKl79Y4CMkneuu7qNrwMxyO9UT1vn3gM28ytkQA2Zp/iwOrBiBIioEEQcigjB8/Hhs2bDBGuk0K/BTu27cPr776KubOnYtChQrZtqSPyE0PtAhmc/5Zs2YZU/989tlnxrXb14pzPTo62uhH7+XldbefPLenx73g+bXT57OPG2vy2Q1h6NChRm1/o0aNjG0c2I/hdAFAesRVEARBEBILv2Fk3bp1eOWVV/DUU0/dHZOG3y1+37hkgXbHjh0N7ZsaiLTLckRg/dQ5OBarDCivmuj+7hi82S5QJQQrIv7+CdP2S09+QRCEzIg2Jijm+dvb2/uukcGlNkS4TvHM7TRE7MW2DpOW8HyOTsPfrP2n4xgDFPf229MrjoIgCIKQURDBn9UIXY6pv52DMpHgVacbniqbD+1e6IpC7spQitmHKZM2IMIWVBAEQcg8aLHMJUUxhT3XuaQjWixrfxYOcJC8v//+G5MmTcKSJUtw9erVBIU1/VmwoJ0Oy6b2W7duRf/+/dG9e3ejNcbmzZuNgfc0bFWgRbyOk4Z+2hEdRy7tWyE47ufK6PtD9H1KDiz80PvzHtof0xn22+MLkxTsj6N/65kW7P2YBvSsCzoMlxo+e8f4a0d4PN1ShX5Mn1za30chfdHPx5njc9FpgGh//Vs/b8Jw9s/ePv08CH1cva/Gfp3H4vn0MXl8rjtLc7owUR+T++jfdDrd0RG9XRBcFRH8WQorLi+cij+vqszOlB1Nej2F4ioFZG/aD8+UorFkxpm5P2LpjYQyrWgsfS4P3JVR5Vn9Q+yNteLm/vn4qH9bPFI6P3J4e8EnZ36UrNkaz4+Yge1XEmgxEHkG6356D31a10HZgjnh6+kBr2yBKFS2Nlr0HIyvFx9CmF1ULGcnoLkvm2m6wa/dVFxxGs1b+O2ZQLjRKHTzRYuJF5yPS3DrDzybm4avO/I8+4fN046Yi9g89QO80E7FrXBu+Pn4IEfeoqjU+Cm8MfZPHL474KEjUfijRw7j/F51P8VhcwQOzhmEluXzwi97IAqXb4Cub8/BQcPeicW2d8vBk3E1eSDo9WDjCIIgCGmFFsjaONXiWS+1EUuDlgYvB87bvn07FixYYAj+nTt3GnMEJxZtYHPkfx5j1apVKF++PJo2bWqc58cff8SWLVtw69YtQwwyrI4L4W/tHLH3t98eX3hXRMdT33dev7240IKEv3U4Z2F0IQd/E27XYxnwt/1x9P50qXWfnMWLceI5mV50PJn2eE4tmHS8Kbh0QQC363gzjBZm/K2369/cn+H0vkL6w+dh7/hs+EzsnxmXjo4wPGF4/tbpgejfOmxiYFimBV1YoONDZ38uxo3r9k6H43Y6R7iN6db+uDyOLhwQBFfmvzdLyPxYzuCXqatwS+Wdbvk6Y0C3InEJwOsRvND/EfiovNBydRF+/OUcElWmar2NPd92QvXaT+P9SUux4/hl3I6OQVTYZZzcvRw/f9gH9au2xVe77x/+33L+TwysVwWPvfgxpi/fjqMXwxAZqzLOiJu4cHQnVs36Am90qIZKbb/CTtvgK26FW6N9LU+obBZ3Nq3AemeDskRtxar1YXEi3xqFbWs24Jax4V4iNizB6pss+PBH847NbL5xRByajudqlkXD50Zh8hIVt/PXEa4Mp9tXQ3Dg7/n4+n8dUbVCG3yy6YbzwoS7WHB54QC07j0eKw9fRfidmzh/eDOW7rqGbDJzlCAILoY2fIk2kNmPkIPn5cuXz+j7HxkZaWxPCG00Ex6DRvLBgwcNwU8jvmvXrkbf++bNmxtdB5YuXYqjR4/eNaCzkvFsf8+J/Trvh0bfUzpHf3u4rxbVzpze3/549E8p9sfQx9fnJPbbKcb0umPNKv0Zf/t1phku7Y/LNMJ9iYith4d9eqIjfD50RPvZb+dS78dnq4W93ofPlSJah38Q9scm9udm2uC59JLbdGEAt+vzMA46PMPoNMdwDE+n/Qn99fH0UhBcGRH8WQjz4VmYtjFSiVQPlO2jhOjduWndUabv62gXqJKD9Q7W/TQdhxLx/TQfnoCX3l6E01HxZcpWxF5chSEvjMVe+4p+yxn8/EIffLcnDBZTNpRo1hfvfDQeP0yajEk/jMPot3ugQREfmKzRCFn+LnqP2Yoo7ucWhDbtqqnYqyOHBmPl5vsNz9g9q7D2si6usOLWxjXYbuxsTxS2LFkJo6FDjqbo+Nh/k/RGH/oOnZv0w9T9t2CJ91tjRXTIcrzXqhVGbIl/KFhr2F8Y/uYMnI61O5ApO5r16opi8uYJguCi0LjVffeLFCmCGjVqoFatWsiZM2kTmtOAprt+/boh6rls0KABcufObYg6FiS0bNkSe/bswcaNG42m/VqsZhV4f7T40IJCX79e6vtInIXhuhYgjtvo9Dm0n/357LelBH08e7R44sCPPIfeziWfsxbqFF300wNX6evQ18Kw/K236fD6eNzOfZMiEoXURT8LPh/t6KefoXZ6ndv5/Pm87J8Z/QnDkMQ8T8ewPId9PsKl/m0fP6L9ifbn/rqLkD1MX9ymr0Evs1qeJWRMRHZkGWKwa/oM7IlWH2XfenjpxUfgZdtCTHmexOu9Sijpr8Tsnp8xafN9Kvk+rFERiFR5pk9QS7zz8xocuHALUZGhOPfPEnzZqwpyGPmfFVF7Z2LWrv8Uv/n4PEz66wYs6mylX1mIXaun4NMhr+Ol55/D8y+9gfe/mIW/9y7Fa+VVhmuNweFZM7E5mnuq8G3boSIn1bVcxpqVu9VV2WPG0dWrcVKdyuTlDS91fsul9Vj7r0O3gphdWLLivDGOQbZGHfFELltGbT6Mb198FysuK2NIrZpyVMRTo+Zi49HLcTX8l4/g71kj0KlcdrWnitqt7fik/0fYFk+FV+yhNVh7zg+1Xv4Zm06zZiwMV88fw6yeBYz9AQ/U+fQwYowPXixOf93E8BUEQXiYaEOc0JDVxi39taGcENoIZlgayadPn8batWuRI0cOlCxZEn5+fsbxaVSzeX94eLjRl//ChQuGnzNjOyvhKHLsnwWfA+8rC0cuXbqEY8eO4Z9//sGmTZuMrhH//vuv0VqCXSjYGoP7OnNECxa9nlrwmIQFPKvVN5ldQaZNm4Zt27YZ3Qz4fPU5mU7s46Tjox2vlemOjtu45BgSPNZPP/2EOXPmGN1OGE4fQ0g/mIb0c9LPQD8HPi/68f2+ePGikVZ37dpldBFi1yDOinL8+HEjrTIMny2Pp11i06Z9GB0Pwv35DvDcfCfmz59vvCs8jxbpOq/R6YuOv3kMvU7HLkec/YVpefLkydi/f/893VISE09BeJiI4M8qRKzH1NlHEaseea52A9CzpOOj90H9AS+jDtv1m09i9o/LEWrbkhDuxXth9ual+LRfM1Qo4Acvb38UqtoGg6YuwRct/OOEbexpHDj4X8N6y7kzOG/kxyZ4ZssGzzjb4B5Mgc3w9cG40vrYM9+gqa10wr1CW7QtwwzajNOrV93bEsFyAWv/2q+u0R1B3XqjeTZ14NhjWBd89p4uCrH7lmD5KbWjyRcNO7ZEXtv5I4O/xvhNtw2x7xbQCKNWb8G8od1Qv3ReZPPyQva8ZdCwx3D8pq53cM1sKvZWRB/4EV8tjq9pvwn+T3yG3yf0Q71iOeDtnQO5C+RHgH1JiyAIggvBPFeLMC51n1VtRD8I+7DcnwKPgozij1MdarFHI5rb8+TJYxjMFAGnTp0yjO2sZjxrUUF47fbXz3uj7xlFx6FDh7BixQpDdHz77bf46quv8OmnnxqOUyzSffHFF5gwYQJmzJiBv/76yxA7fA6Ez4bH5L1nSw4tslKK/TXwuGfPnsX69euxZs0a49nu2LEDy5YtMwZ/DA0NNeLBOHAfLbp0urG/F/ZLTsusp9xctGgRli9fbhRw0J9h9LSMQvqhnxmX+jefKwukjhw5YrTs4Tgd33zzDcaOHWuk048++shYfv755xg3bhy+//57/Pzzz8bzPHfuHG7fvn1fWkgIPnst2LX45jrjwAFHWZj4ww8/4P333zdaEukWIo7pi/Gm0/tzyXhwWnCmWxaqsTUSBx79888/ceDAAaOgguldH0MQXBUR/FmEsJXTMD9EiVz3IPQY0BF5nOSh7mX6YGBbTtFnweUFP+K3Cw/IwExeePT14ehY0EkyciuMth1qg5XxKjvF7Vv/NX13DyqFIHdGIBaHvmyDR9q9htETf0Pw/gsIj8vj48ejKtq1Ka4kvdr7wCqsPvPfDtabwVi1PRpWt0A06fwKmlaiERGDPWvX4/rdSzHjyLLlOMJWAN6PokPr/Lba9hjs+HMZzrEAweSJaoMm4J1Hcti23YspsDGGjXoGxmVbbmDVn/HMbGDKhiY9uqCovGWCIGQAaLTS0ejVIlMbsjSk6RJrgBOGpXHNmnv+ZvcAijJu5zp/s7k3f588eRKXL182DO2sBK9dO32/tQDnb94PCv3Dhw8bgnnixIkYNWoURowYYQioKVOm4Pfff0dwcLBRmz5v3jxMnTrVEFMffPABRo8ebexDMcVxFFjjqUWRFvz8nRro41CAM648Z+PGjY34vvvuuyhatKgxjgNrebWg0+i0pZ+/jqM+JguMWIBAYUjRVqZMGbz33nuGq169upFeU/NahMSh77cWyjdv3jQKYRYvXmyIbD57pkMWTDFdLly40Egb3M4adxZcsYCK6ZkFAQzDgT1Z+EfBnpjnyXTD82t02mHewzTOdeYvfI/0Np3++Jt+2p/wN4/H47LAc+/evYbgZzobOXKkkeY4tgmvhYWZuqZfEFwZkSJZAesVLJyyCFeYv5lP4ptm2e4aGPc4t3zo8dt1ozbcens1fpxxRMnjBHALQv16ReNJRG7IUzC/0ayexMb+dyS34t0xsFMBYz+rJRQHl0zAsJe7ommVwsiVrzyadn8Tn85Yg8M3HJriG3iiVrvWKGJMI7gLK9dcuVu7fmfjSmy4wy4L9fFYo0po0KCI0UUhYvMabNaK3HIKy5fuQ6yS8l51OqBNIVvs1T3at4/N/BXupdGqTQVbYYVz/Bq1QH22IFB3K2zvHpxwdqPcS6JGtZxOCw0EQRBcDX4HtOGuDWIfHx/Dj+uJMWq1saz3p9HNJrvcl0YyhZn+5jCMr6+vIfp1WBroWQn7e6rvC6F4peBhM+g//vgDY8aMweDBg41afTZn5wCKvF+sueeSYSnmeU+5L/0oklkr+fXXX+N///ufIf5ZM0mRwu18tloopxZ8frt37zYKIXht9evXNwZ8ZGFPmzZtjOb4bN6v0wTR4opph9jfE/5m1wUKxNmzZxtxHjhwIPr06WOMK8HuIVqscanvn5A+6GfGmm6Kaj53Cvy33nrLSKtsus+0yXRKYazTqy5soh9/s9UHa84pqJlWv/zySyOtsjsQwySE/Xuj0w7TdUBAAKpUqYK2bdsag4SywInnZpx1wSPfF/3OcJ1Op0X6hYSEGMKefo0aNULevHmNlkrt27fHunXrjEIoxl/nm4LgqjjXakKmwnL2V0xdaRu5PrFYo7Bz8mRsTyifdc+D/HkTGG6e/ehtP9UBbUuFqQCe+vFPjH+6HPzu+TZbEX3tMILnjcf/9X4MFQoFocELE7Dl2r0x96rbHq3yq6RrjcCmlesRZvhGY8eqdbhhMcGzZnM0CvRCzeaNwXEILTf+xtpdcb39LedXYIn6bTV5omb7tv8Nnme+gktXbEZP7EF8/Ehc08B4nX83zLdNzWe+fAGXndlLbnmRP4+8YoIgZBxotNJ4tRdP9oawI3qbdjSedVgueRwKfb20h36E+zC8Nr4zE7wHGvvfGvt7puE6xTr7CbMGnzWfbBp9/vx5IxwLSDiAYrFixQxBw5pHDqxIV6lSJZQtW/buzApaTLOpNJvB61YB7MtMkcZn4ChW9G/H5YNgOMabTfhZ08sBGjluA89PR7FOscQafhY6UPzp5074W8eXx2LcGIbNqCm6uP7KK68YQp/7cJ2iTKcj7iekLnwO9u+kfVrlkmKXTfBZCMXaehYusWUH0wFhWmW3nRIlShjjddin18qVKxstNVgY5O/vf7fwiSKbhUIs5GK3FDadj6+2X8ePS8f0Yx/e29vbSCeMrw7P8zE8HX9zOx2303E6SXahYUEE46kLCRiW18N3jAVyvFaeU6dDQXBFJHVmesw4MnsqNkQm7oNtT+yxmfhxlbNJ7TSeKgO0/UwiJv9aeG3ePpzcsxDf/l9vPFE5P3wcPtbWyPPYNHkgHm85HFvtZ/bzqY/2LfKoxGvFreAVcbX3sfvx1xrW0LujXLOmKKJStm/9x9GAtfDmEASvY2sFK66uXIItnFXAoyratyth9wIwg7f9TCox0XBaLmLi4FNigAiCkDFwNJL1bxq/NGa5ro1hDX/TiNb7cp1GO5d6nQY1lzTatTHOJcNRdLLWTYfT58kM6Hti7/R9sXe8D3T6NwcZY9P3QYMGGX2cKY4pqiiYWUtJIT1gwACjXzTDsTCANfns387fbCrNZtIUx3Xr1jUKBii8KJ4p9LltyJAhd2dOYJx0vByfHZeJgfsR9plmk+5s2bIZBQ7cn8+ax6LoonDib9b8sok1f2sRRqdrfwnXKbhmzpxp1PJ36dIFNWvWNK7FPp3o/YTUh/dYN1nXv3Ua4ZLddVgTzy4bFPvsesIwfNYUxI8//jhef/11o58+x15gc312yWATeRYMsNUGWwL06tXLSKsFCxY0nq8W2x9//DGGDh1qjFuhu/zouOg4cGkvtvmbjumOaDHOsI55jA6j17nU+zMOHP+C6ZHx4r66hQBFP2cbYeEV31e9vyC4KiL4MzsxuzFj+m5Eq7zIFNAVc6/fb2zc6yy4NK0D/JkHWi7i9x//wKU0y8c8kadqB7z68TSs3HcB18/vxZpfJ+KTwc+hXe3C8DXyYSvCd32JD+dcNPaIIzsad3gcASr1Wq6uxcpdylg8vQ5rjiojwb0QmjavYEzdZwpojMeMeftj8e+69bhovonVSzYgQl2PZ6X2aFfGrnWCWyBysTmAwuTbHtMeeJ/+c+bLk9BKBuITBCGDQ+NXizOiDWN7w5mGrs77NAyn4XZdW8bj0EimAc/wbIZO41mfg0stIFh7xlprHTYzwOvjfeDS/p7p31qo8Np5X3gvKGzZhJ8DnbHvsA4TGBho1Gy/9tprRi39m2++afSPL1y48N37RpHFJselS5dGixYt8PLLLxthKcZq165tNHHms2F8OIgem02z1p997gnFjDPhzPAPgsclLEBgc33GhS069L5MB7xmFlrweXM8AQoq+un0QnQtKsPwfrBggGFZUMDr4rE5ICBrgdmKgDDO3I/3ivsKqQefH58l7yud/fPhs6ZgZ6EUn5F+15lWGzZsiHfeeccYRPLFF180msPzGebKlcvoxsN0wN+s5W/SpIkh6nmc5557zijU4TF4Xp6H41PolgNMq/Tjs9bPW6edlMBj8R3k8fQ7wCXzLMaVBVi8FzoMHePPrghMk+xOIwiuTMrfEsGlidwwDbM4Qp161IGtuqFl4IM+3Cbkbd8TrQ3xqwy0lT9i1vHU698XPyb4FqiMZl1fxLufTcaf249j77etjCb5bLq/Z/v+uGA2/Jq2R3PO+2c+i7WrD+LKxnX4R+XRbjkboXktm/p2K4wmzSoY/fijd6zFhovrsDSYo/B7oGy79qhg3xvBrSAqlueAhep0UZuwZOV1FU4QBCHrYW9Q2//W6zSw9W8awVzXRrC9P4UcRR+bv9J4p0DgNqLD0Y/7sYlv/vz5DdFAl5ng9RHeJ+30fbO/p2yyz372HMGcteSskac4ogB64403jBr9l156CRUqVDAEEfuv8x7z3vJ4+hy8f9yPNezct3fv3sYgfi+88ILxLLgPW1awdnL8+PHGQHgciVw/My1qCEWP/p0YKH5Y60vhx2fPfbXT6YG/WSvKY9s/b56f59Z+bC3AVgu8D5zOkS0deG+6d++Ovn37GlOkUfxzPx5T31chdWDaZKEL7y1/897S8T6ziwib3XNqRHY90d0zKlasaKRVCv2ePXuiXLlyRiEU04P9s+bxeBwWIDD9UjyzuT/773/33XdGIQG7pnA7j80pJ1kgwCb+ejYPfTydp6QEfV10TKc8Jq+bSzq+b9ym3zX+5vvHNMz4MawguDIi+DM1YVg59VecZV7olgtturVAQNyGBDEFtkbPDnnjxG/kVkz62XG++5QQjTWvFoUHPxyelfF/97TVt8cb+YMKwsf4rYwQz7jaA40p4HG0b8z58GNx4K+l+G3NVkRYTfCp9xga3O0m6o4KzZvGDfB3ayOWjVuA1TcsgEcptGtfxWgF8B/eeLTNE8jNi7Zcx+/vDcKvp+MbPMqMs/N6IMiDxoUbAp+aazcLgCAIQsaFxqw2yrWIYk0sDW9du6eNW4YlOhzX9Tb7mnvW7FGwcVAvCk178cAaNBrYrL0uUKDA3f0zC87ulz16O8U++9avXLnSEN+8dxQX9erVuztIHftA65pGCg2KY4bTv7WIoiNc57Ok+K9atarRtJq1/XXq1DGOze2cOo0j+7NVAVsXMLx+zvqZ8hyJgeEZDwogfRx9DO14Th6Pz1yj7wEd92M4Hoe1p3QUViy8oHhkNwe2WqhWrZoxBz9FIAcC1MfmMYTUgfdUPw+dpvheM32yZp/3n2mGz5NjNXCARg7Wx4KlUqVKGSKf+9qnH64TPn86PjMNz8X0TaHPLitsIcCWKQzHNM60ysIpDgyoW4cQHbeUwHjpuBHGmY7pkDBuPB/D6DgznXM73yVuFwRXJuVvieCyWK/+iakLLxuj7rvlaYtuj/vHbXggfnisZ2cUNvKvWByZ/iPWhBsbUgEv1H2yXdyxYw9gbMeWeG3Cn9h+/DJuR6uPtTkKoef2Y/Xkt9D+hem4aEQ+J+o3rmbsfRdTbjzRvgF8TVbEbJuAT1dcU9fpierNmyC3nU3lWesxNDZG7ruAeRN+MY7nHtQW7WvcK/eJf+vX0b+i+kDBitgTM/FsnUbo/+Xv2HLsCsJjlJEScR2ndy/DxLdaon7vuThjVh8b95LoNaAdct1vxwmCIGRItOFLg5fGNI1wGtx0NHZp5DKMvZjTxjGNYPY3529up+hjs3M2MWetIAdg04KQfbjZtJw1gNxevHhx47z2IiAzoO8RoWiwF6b0p4hibSn7OLOpOu8PRUTXrl3x4YcfGiOCsw8x7yefAffhfeU9pONviiJ9HvtzcMl9uJ0FKh06dMD//d//oWXLlkZBAOGgaKwtZ99/Nk3mfjwX9+V+/J0YeG7Gh/sQ7q/TCGEa0XOs63CMm+M9IdyPYz5Q2HGgP7ZUoIjUv3v06GG0CuFUhCwkYTh9HiH10PeUSz4jFq788ssvxgB9FOBMu3yWnTt3vpuuOEifrgmn47PU6YDPm/sQna70OQjPwXU+59atWxvpn3kDm9VzP44R8NtvvxldUdinn2nGfv/kwmPQ6bTId4owvrwW3WSfaVjDe8F8jvmjTvOC4KqI4M+0WBDy61SsCOMH1A3523dDM7+4LYnBt1FPPF0irsTSfH4+flz43/R3KSV78/9hyOO5VKyUsL60ARNe64A6pfMjh7c73Dx8EFCkCh5/4SsEX+Qweyb41VHhOwba9taYkL9Ve9T1Vhl0VAjOqLDwKI1mTYvdm6g5RV99X0PER0YoQwbuKNKmA2o7G2zQ+xEM+WkIHmFXAcbt8hZMersL6pXJBz8vZZxky43iNdvg5a9WI8QYFMEL5V78FsObJuHG3kMstr1bDp7Gh8YDQa8H2/wFQRDSHxq7NGi5pDFOQ57rFF40rmlws5k1a/j4m8auNpC1GGAtNQeLoxDTBQMcgbtp06ZGLTNH82ZNP/tfc1orDhzHgb0o4nQcUsOAdxW0kCC8Nn192o+FHqxdp2NTZd5HioennnrKqJGnqNUj3ett/M17q5398eyfnxZZ+lkSPgvWxLKvNAf/43aGp+hnrS2b0FOUE/rzePrYCcGwFEcUP2z+zEIL+2kCdRh9PI4nwHjZCyUdjv4Mq9MXBSQFIEUft1GAcfBCNgFnixH28+e5eNzExFVIPLz/dPo5LlmyxBhEkfkA7znTE99fNt9/9NFHjXUN05zej0vC50en4fPShQZEpwn6s0CKNfys7ecYAPRnmmBaZdN+DgDIuKXWM9fph3HgkumMBW0sTGJLE6Ljz/OyVQ5bnvCa7a9JEFwRSaGZFfNRzJ623higjv3TO3RrinsnRHoAXnXwbPe4we9gvYllP87BqdSqdHEvhRenz8PgRwPhllA+bXJH7kffwtz576Cak0Hx3Aq3RntjUD7beoEmaF7JoZTVFIjGzWsqUW1bdyuA1h3qwtu26ojfo8PVB20M2gR53z2uM0zuufDIwHlYMb7VPS0KBEEQMira2LU3olkjz6a1HDSLNfQcXZvNdlnDx+a8FHk06GmM03A/fvw49u3bZwyuRSOfx2LTXjbr5yByrGXm8SgQKNSefvppdOzY0ajl14Z2ZoLXr+FvfY38TbHKebxZu87pvXgvea9Ys6/76jMsRQ73o9MimAJJO95/+juKKjqi7yn3YxgKZwooLaR4DAp0jhvAAhsOwMZj6v3tryE+eA46CnOOzs60wOvT59ZLiiemFXZPYDz0fvpadDhCIcUCBF4bxSWXOjy3UfTzeCyAIjq+QuqgnwufPwuBmBf88MMPxuj5Oh2xRp/piMJctxjhfvbPgsfguj4enz/35/Mk9l0/uOR7wO0Mx+fPAioOUvnYY48ZYZkWOFUeW8Qwr2H4lMJrtH+HeExeD6e5ZJxOnz5tvCOMI8MwzXH8CI5ZwAIp+ul9BcEVkdwxkxL7zwzM2BkNfqbdi3TE043iMuLE44GqPXqguqGUrYjY+BOm/BNfn/ak45bvcXwS/C82TBmO59s9ivJFciGbpzJQ3H2Qs1A51OvwEkbP3oZDf3+BtnF9C+7HLQht2lWz9cVXBkDDx/DIfUreDUWaNkd52yHc8rVCh/pxIwM4x4Q8jYZg8b/7sWzCYDz7eA2UyJsD3uoj5ZU9EIXL10P7F0dh5uaD2DT+SQQlc1pCQRAEV0Qb3TSA6Sjenn32WYwaNcqoVaPQ55RuzZo1u1uzpcOztos1x5xmi8Y5DXYej7C2jMYxm/7SeKf4Z7NsNlfnfgxLdPjMBq9LXxuFAVtNcHA7CmwWfFBMUOy3adPGGJCOrSEoOLQIpgDnUt9TOt53vdSiik6fw16A8PkwLMMR9ovn6Ojsb01BxW0U6SyAmDp1qtECg/vrczwIhmU4dt9gmqEQ14U+hPGniOJgfTwma+c5gJ8urCD252I8OZAbZyBgKwjWsOp7QXhcij8eg4VJ/M3j8DqF1IH3Ut9TNt/ndI6sXWdBDtNm8+bNjYIpthThur73XOrf+pna+3FdP0cu+Vx5Hjqu6324pKPo5zmYVtmKgOH5/rDwkQUQbBmTWjBdMZ48B9MWu5HwXeSAkXw/mIa5ZNcbpnEWCDCd2qdNQXBFRPBnUjxqjsb+mLgMNvb0BDRPSOPGg3uFIdjOfvXMqGP2YaTR710ZJD9fhZl+UcF4vVj8Sci77RRcszAOUfj7zRI2Xzu8CqJenxGY9OdmHDx7DeHRZphjI3Dz3CFsWvgD3u9eE3kcKuzvxR3l/m8bohkXqwU35nRBDtsWezyqjcA/tnthvjAJrbPZNiSAKXtptBzwGWau2oUTl8MQqT5EUbevI+TgJiyaOBQ9HlEGqi3svXij0+xbsDBOkSvwYv6EPgAeqPPpYcQY8Y/F6a+b2PwFQchIMG/RhqIWMNqP60Yeqpy9INFh9Tbtp50+nnapiT424ZLx0HEhNFy1Ic6ad9YCt2rVyhCj2tHQ1aPEM5w2zOlPIVmkSJG7/vp4FGWslWUTYB6DU3JxLmtdw2cfPiF0nLnkPlzy3mq4rq/lYaLjQcd7ToGg0wQFPpvQs6aS/rzmRx55xBhRnwMY8roYVt8T7RzvKZ3juqPT2/X++hjsKsCuFixgYGEMnwO7bnDO87/++ssYUJHxdHYv9XXobfr4TC+s7eWxON+6fe0rhTu7c7CbAlsvsBBIx0ljnzbZnJr3gut6fneek2FYy8taVhY6cf52nk9fr5B4eG+147119kyZBhYvXmykVT5PbmchEQvs2BWH6YjhdHj9Oz5H9HO3X9eOeYo+BpeEaYX5EAsfmccQFjyw6xDfI77/Ou3QOea1jDevTfvz2Ho792NaYouBkSNHGq0GdFyYntmKge+Fno2AM1HwvHx3ODUm80EdX0FwVUTwC4IgCEIKofGoDU5t+HGpf9PQtP/NsBr6O9uXfo5hUwKPr50WToTnsnca/dvej+h1beRqRxx/axz9tbFPp4+TFKOZ4XhvtCDV+/F3at2vlMI40el7zmtm3HRNup4Dn9s4Aj2nm6N4pYi1F0Nc2t8bfVz92xk6jH04x990rJ2kcGHLCwps3lO2PJg7dy42b95snJcw3nT26Ybwt77//E1hxlpYHpPHoUik0Gf3DxYA8NrYjYPNoHmN3JfP8JdffjFmEGCtLdd5PNYas3CIhRGclo3jP1C4UexTlNEx3hSdjKeOq5A4dLq0h+s6z6GjqN69e7cxMj7H6KAYZzqh8KbYZS24fXqic/Ye62322K/bPz/H/fW+bO1B8d2pUydjnAj6MV1xHBBOMcn3Sl8Pj8H4s6Doo48+woQJEwzRvnDhQmPKwL179xr7Mz3pfITpac2aNcYx9fXr2QfYmoHvwwcffGDMFMBtvAdMm7wnPIbjvRQEV0JyR0EQBEFIAdogpRgi2nDVBrX255LrDEu0UakNRe3Pdfrr49LpMCmFhin743L+ezaT5rpGx9PV4b2hgc6acTY9p9Fuf48cBcPDRj9jimH+ZvNg1kpyvAPGnU35OY7BE088YQhwxl1fQ2o8d2fH4LG1Y5eKtm3bGq04CNMBxTWnXdPCyR4eT+/L39ppOE5Dly5dDJHEEfRHjx5tjAHBftDdunUzamr1O8L0R0dRyUIGCjRdiEPYpJpx49gAf/75J95//32jaTn7k5coUQLPPPMM8ufPb9TwC8lD32s+Tw39mA7YdJ1z7XOMCRa0sBUP0ykLdFhokx7YvwvsMsL0wC5DfJ+YVtjdgLNcMK72MN0yDPdhfDnHPwsLOBsIxx/Q8NgcRJKFCexqxGkB9T3huZm++G6wBQ735fgTLIhiIR0LpTR6H0FwRTKU4Hf86AiCIAjCw4aGMUWLNky1wLM3oFmbSXQ4DcPpsNzPUXQzLP1T4/vHczg6baRmNGOV95M1fhTLhNei7ztxteth/PhsWUjB5sCs+WbtKZ8vm8BTULAbBNcZ99SOf3zHY7xYQ0nxQjFEMcN1FqSwtp01p6yhZ7y0I7wWHpP7E318fTw22We3DS5ZC8waWdaUUnixG4eu3Wd4Ovpzdgf2l9bPlPBY7O//5JNPGktuo1hjdxCO/8DxAnRrCL5bqX3fMjO8Z7xffG/sf+tnzLQaHBxsFNqwYIr3mS1Q2KqChTo6XHrAuPF8jAMFOePA9MD4sj//2rVrjdp5pgH66XyU6YNdVij2Bw4ciDfeeAP9+vVD6dKl71430xjTKMcJYAESRb2+NobhdqZZjlvy6quvGi1UeG7djUSnOf4WBFcl/d7WVCA9MxdBEARBSAw0+LRBqo0+bQTSj47rNFYJjUjiaCAyDLdxqQ1J7Zca8DiMC/uc0oClYKbRqs+n4+fq8BpY08jxAHgdFIH294vOVdBxYZxZG3n06FGjKT9bWPB+8xo4YwEFLIWFDq+XjmkkJSR0X3g/q1evbghrpg8KJjbhZu0up2Bj2nEU+VzyujT6Gej0ylp5Ti/IZtCc2aFhw4Z3a+K5H8Pxmvn8KKYGDRpk1KJy3f4+MG4sOGATajbPZtN/1jJTzPE4WtwJqQfTKmflYEsUFv4QPheK5zp16hjP0f7ZpyX2+R9/s8CH3UYo+lmQxDTEwSDZAoRLFk4QnZ/ppU6bOu46Let0S/Q7yHBc0rGrANfpuF2Hsz+OILg6oqAFQRAEIQXQ+KOzFx7aaKThzOmb2AeWg0KxDymXv/32m7GcP3++4bjOadG0cWlvRNJgTQ3jWhuwxN7Q1cas/TldHcaVAsTxvvCa6Mflw0bfb32f2ZWCtZDsK8x0wXiyeTudnvHA8bmkNfp8dIwDa9rZJ56iiXFkLT/7z3NdpxOGtb/vXNfwN98DOqZbXaCkRZfGMb3xeAyj99fbuE6n7we36XgQ7kc/huE7yKWQeHi/eA95f/U9JBywkd06OIMEnz2brnOwPPbbp8hmTTpJj/utnz2X+h1hNxQWErGAiOus5eegekyrbJnAtKT3sb82fX30I/S3/63TmD4Xl3pdpzm9zqVOe3SC4MqI4BcEQRCEFEDjj07/1oYm+7zu2LHDGDCK09X16dPHGNmaNZV0HJGd6xysjX1HOfgURZY+hjZuU9ug1Men43F5Hn2ujADjqcUdr4VL7fS6q6DvLZ8r+6dztHMKf8LafTajZ024fby1oEit69D35kHH4z3lCPpsWs/WHwxP4cdaXo5iznVeC+FSpyN76Mfj6D7S+l2wD6evTdfkUzxyXYs07q+PT6fvh37muuk+fxMdJx1OSBm8hxxngoWQFPvsB8/WFJyCTw+2qO99eqALi3RzfcaPfpyOUb8/jA9r91mIysH5GM7+PaLjbzpuo9PXoI/JdGR/fP2bhR1Me/q6naU3fSxBcFVE8AuCIAhCCqCxR2OQThuANAbPnz9v1DixRpeDj7H5ebVq1Yx+sOwzzQHa2FSZ62yiTLHFWlYeg/vT4CRc18dNCfo4jC8NWDoN/TKS0aqvhc7eYNd+roC+n4wP++uzdp+in8+WgpgDfzE9sP8w/eh0+PS+Bn1O1t4yHdIxXpyCjOMNsPaUffl5TbzfOm0S/VunIX3d2l8LJB7fcT9uo6DSYotL7q+vXwsv3ht9XPt3jf76uQvJg/dO3z/eaxZIcRBFFlbSn/kEm9Czjzt/2z+L9IBxYEsRPnPdskCnG3ZDYVcRtoyi4+j7jDfDcR+dHum4D+PO4/E3HY9JeN10DKdbpTAst3Op06AOR8dwvB/cRx9XEFwVEfyCIAiCkArQCNTGJGtGWdPEJtIc7fz77783ak6XL1+ODRs24JNPPjEGf5oyZQrWrVuHmTNnokWLFsZxaGSy9pNoQ5XHozHLqaE4vRmPYe/oR7dp0yZjyXA8P+Ojnb3IZ82dNp61QZyRYHx5n7TBzutzxetgvHivOdXXH3/8cbc/NGtM2b9d105SPGhBwWdPP66nBzyXFj90LJjq2rWrMTAbt1FIsSvKqVOnjDhpccN9uF2nL0e4XTt9DqY/vS+vlXCdv3VY/Ztx4X463TKcvif0p9NwHx1eSBz2z4z3j/eOS86msGzZMmPKSD4HFkKyJRKn4+M+fBY6rP0x0hqel++JTid83hx8j4M36r78LGSdMWOGMSUk46fjSMc4a5FO9DYeS6cb/ZvHZqEc15n+tR+X3F8fQ1+/jpcguCqSOgVBEAQhBdDoo/FobxRymifWknIwNgprGtG1atUymsdynbWmbNJNI5r70Fik08Ykf+tj0bGJLQsNhg8fjiFDhuC99967u6QbOnSoseS0ZfRnOI6wzrhpIanR5+GSx+aSaOM1o6ANdvtr0EtXQKcL1oyzxpSCmc+ec3tzyjq2+qBQ0M+ZaUMLCZ0O0gMdT/38WXPKvtGcPYD+vKd//fWXMeAgxQ/jxfjqNMXf2jEsneNv+7Ss99dLhuFvHVb7a8d99TtiL9js99P7CInH/pnzNx1r9zmWyPr1641nzQETmY+xJRILovRz1OkiPe65Tgd09ufkkl1POLMDBxJkGmCcDx48aLxv7Mtvvy/R+3Opr0WnH71uD7dR+OtwXOow9n6C4OqI4BcEQRCEFKAFE6G4tjcguaQRTfGtjWaOek6DlNOw6XnXH2Q0chootgpg7RVrihcsWGAsWfOqBwLkOvvdcoBAzmnOpq6MG+NBJ6Q/TAsctJHPgzX9TA+sMW3SpIlRK2mPfRpITJpILXgexpNpWKdf1pz26tXL+M0CALZM4OwCoaGhd+PFwgvuk17xJI7nSs9zZzaYJ/D50vE3nz1rxlm4wy4ohHPQsyUKW32wQIowT3GV+864M47t2rUz4shrYBpdtWqV0UIhNZA0JmQGRPALgiAIQgrQBjOhoKMIorhjDRONzgMHDhiCnbVlHLyNNWic75z9+CmmaEDrmrb44PFZM8wCAjq2IGDtFpcUjvTjkn78zSVrpvSxE3MOIXWhUODz5vPfs2ePkSZY4MP+0Ox7zPTgSjAdM85Mv0yXTLNMR4w30zFFFAdGo9BnOPtCJO4rZDwokPl8CZdsScQuQny+TKuck56zNnCdYZk2mI/w2dPPFeBYE3ynOBYK46xnlzh+/LiRViXvEwQR/IIgCIKQYmhQamOYRiaFPwU3+9FT7NEgZQ0Zm3ezBo1GdOHChY3wWmglhBZd7AvOWjjOkc6R0zmoGv24pKM/1ynMaPjyuIyPNnyF1IP380H3lGMvsPsGC38I57jv0KGDMa0YBZQrPBNdQMUl0yIdhRNrTLt162aMzM54Mr2xuTSviWjRl5j7ILgmfH76mbMVx/bt241+8My/WMDImnN2O9L5E8MRV3rujBPzUk7TR5jvMS/klIKcrk8QBBH8giAIgpAq0AjWjgKbwogjRrPmnQKPNbqs7aUApBHNdfY5TYwY50j/7Jv//PPPo2fPnoYQ43R+HPjvmWeeMfy4Tn+uv/jii0YtF49L492VauSyCnyuLPCh8OBz5rNgWuB85iz8oVBxhWfCODCN6LSrhRwdZ4+g4NdCLzg4+G4tP7frfeiEjAefKx2fZUhIiFG7z4IowpZCfP7MpxjGPg9h4RCdK8C4s5affflZSMV4Mn1yVgy+f0TSp5DVEcEvCIIgCCmABqde0limcczaMtbks399xYoVjRpTwiaz3EZjmbVPnO5Mz3GeEOxT/eqrrxqD840aNQofffTRXTd69Gh8+OGHxlKvc9A+TvnG42qxpuMppD281xy74ciRI8bsCqzhp9hv27atUdiju364wjNhGnFMf4wXB8hj1xMKKcL4cjA3Dj6oBZ+zfYWMAZ8xHZ8j0ycHZdRdTyigOcgoxxnRz1eHZ35CP1cpRGQc2AWlRIkSxtSB/M28lYWkHC+FhW2CkNURwS8IgiAIKYSGsDaCKfQo9qdPn4569erdHayPhjX7lXJALIr2sWPHGjW9bDrLbQmhR6Pm8erXr290EeDI1Pbrekmjl9s4mBXjxLgJqQ/vrTPBo4URC3IooJge+HxZY/rYY48ZgoToWnVXQMeZME664IoDDHJGAcaZ8WV3kUOHDhkCkWld76f3FTIO9nkD0ypbH+nCSE7JyMIpdktiwY9Op/bP2lXSLmFa5HgmjRs3NgrWWGhB0b9t2zbjmgQhqyOCXxAEQRBSCI1fLZTY5JnNuNl0u1OnTkYzU4onGsolS5Y0xBONUtagFStWzFhPqvHM8LqmTa8nhH1YIW3Roog14UuWLDEKeyia+Kw5FR9FFEWVFk6uAuOjC56YXvibIoqFSjr9Ukhxxgn2kSb6WiVtZWzYnJ/99wmfNfMs5l86HRA+Z50OtHMVGBe+Y2xNxfeM8aTgZwsrnVYFISsjgl8QBEEQUoAW39rlzZvX6Fv/0ksvGc1MddNXCr82bdrgyy+/NObLb926tVGDyn0SK5jsw/K3xt5P/+ZSO4020u397MWnNu6JHlSOfrrPtnaEftzmuJ1wqY+rnf2xKRy1P7Ff6t/22PvpMLwG1jrzN4+t45ue6OvXcaDjM2ANOJvzswsHYQsNtrxgLb/9c3MVeC912tH3lessnOBI7WylwoIpPjc26z99+jQiIyNte9+bboSMA9Otbs7PridcZ2EkWwtx3BGdLohe6jRC5wrod49plmmV7xlbTrEpP98/plUO5Ef0O8p9HJ0gZGZE8AuCIAhCCtEGMI1iijo2rS9btqwh9jX8zdonjtJeu3ZtQwRqkZUY9PETi46TIxTGerBAYh+Ghq+9GLc3hLWxTOjP/XgsOv62D6uhn96HaGOb+/C3jgt/87xcJ47Hso+jPheFCvfhunbO4pCW8HzOzsm5wI8dO3b3GjnwGacN45Lx1M+dzhWwj5Ne134UTxwBnema9/vcuXNG32jef26330/IWPC5sYsRnyeb9RMKfrbqYGGkTgM6PRD7366AjgvzM8adU16ycJXx5vvHgjcOoKrzHo1+dx39BSEzIoJfEARBELIA2jCmUGO/VvYtdxTYDGP/m8YwofFMtHHM/bi0N/wdf9vvQ/R27sfCD/tjMAyd/TF0PBxhONYunz171hiFW1/DwxKe+pxc6mthX3cOyKivkeKJA+Axjvq6uIzvGl0NFmCxeb+GNcKcJpJklGsQ7kWnTU7lycIp/mYtOZ8zCyv1QKOuDuOt8xi2SClTpowx6CDfRRYm/vPPP0YBHOH7p/MljX5vBSEzI4JfEARBELIINIzZvFULfq5rg1kvaRBzqQ1h+mvj+d9//8WUKVPw+eefY+nSpbh+/bqxjeGJDq8d13WXBg2PQ6HO/u0//PCDMbghpy+kP9HHIjyGI/RjWNY08/w67jyH/XnSA8dz8reOG+8Va8TZkoN9izm9Hbc7uyZXh2MPBAUFGSKQ17B582ajqTRFo/3zEjIOTId8docPHzYGtyMUyhTMnEnCURi7MkyTzGcYZw44WK5cubvN+jmeCvMb+/fOPs/gPlwKQmZGBL8gCIIgZBFo3NLQpehnE1h7Mc4lt9HP0ThmLeDixYuxbt06YzRvzjbAef7Xrl1riFuGtxd+ep3HpNO1ifTjvnPnzjVEBkd85yBwv/76KzZt2nS31jghA5zXwDiylp/HtRcm+hz28U9LnIkFtqDgwI269QGFfsOGDY2wrEHV98TZvq4Ka305zaOeYYCFGRyUkILKsUBHyBjwubFA6uTJk0aLDb4zHKyPz1nXkGcEGE9ei4ZplGMQMM3yms6fP28MSsg8j+s6b+B+dPZ+gpBZEcEvCIIgCFkAe0PX/reGv7Ug1esUzxStGzduxKRJkwz/d99916iZp1G9atUqo6b/1q1bxjZ7w1n/5lIP6seCg9mzZxu1+5zu7dNPP8Xbb79tiN9Zs2YZI4VThBCe3z5+Gu3HuHE/OmfX87Bg6wl2N9DX7Ofnh5o1axrb7OPH+GcUKKLYN5pjEPCaWNjCgh72/yb6/gsZBz4zplX23dfvGgcc1aPzZ8RnymtgGuUUpkyzfMf4HrJwii2aCK9LXy9/aycImRkR/IIgCIKQBXiQcWu/XdeS01GkU9izmS9rqllzRmOZ/bpz5MiBNWvWGDX19vtzO0UD0cY1a4M5Evjy5cuNkbRZk8g+t2yC27VrV0N4rFixwqiRsxfD9se1Xyc6HNf5W5+Xy7RGx0PHhTAOrNlnjSnjwQIUDiTGEc+dzWduv68rw6b8nHFCD4ZGx+fEvtG69YaQsWBa5JR1bI2iC/r4PvM585nSZQT0e8T4M85Mm4ULFzbW+ZsFiByjgIVTXKe/3kenW/oJQmZGBL8gCIIgZAFo1No7bfza/+aSolUP2MVmsFu3bkVwcLDRL5azDNBIpmFNEctaXwoGiniOhE20Ea2PRdjkloKeTfcpEjlLAQeyIwzHfsMUxuwmsHv3bqNWTu9rD4/NePJ49gKax9Do86c1PDfPpeNExzizifSePXuMOFFAsbaRhSSML7czHLfR6fi7OuwPXbJkSaN7AtMGC2/Y95uDE+prFzIeLJji+8b3mYVv+fPnNxzTqX0zeVeH8Wca1AVSLJzkmBOs7ee1cIwQplVdiGGfXiX9ClkBEfyCIAiCkEXQAlX/pjGs1wnXtdimP4UdBT9FOvv1siZQFwaw5ozigGKQU1+xiTcNZy2+9bn0eS5cuGD00yccyI7HYlgej4K4SJEiRu04a+N4Xr2vNsb5Wy95PMKl/q3Dpyf6nDpOjDdbRLD2m/eRIkoPIMYwFBx06R3PlMJnQPHEa9H9u9ltwX7QRMG10elUw+fGpu58d5lWWeDGwik+X104lRFgWmR8CePMdRa0NWrU6G4XFI4bwndSz8efkQrbBCE1EMEvCIIgCFkAGrg0fmnssn8rjWQtALjUxjJr9igACAfRY/999vWl8cxtDEuxzt88DkUtCwQo/vTxtDHNJR2FMMU8+36zppitA3TBgI6Xjg8Nc4pmokUH/XXtHP24zviwlYCOq46bPndao8+lxQPXOZYBWzKwMETHkSJKCxJdyJHR0NdZpUoVY2A3CifO3c7WDHo+fsG14Xuj3x3Cd5ZN+vlu8vmy9QYLdPge8XkyrWYUeE06ryB833gtzJuYbzDfYUskLol+d/VvQcjsSA4tCIIgCFkAbeSyBo/GPWvZadhrfy3a+FuLbwpYPbo1xT1r47ldi28Kbg5KR4FL4UB0DTYNcP5meK7raQC1MKcjXNKPhQCsmeOxKOIZH3shyeMQ+jF+DMtr0M14iQ6TXuhro+NvXiNFlBYfjCfvtb5me9I7rimBcaVjM2k+b/7mM+L16lpTwfWwF/h8R3Saoz+fnR5sk+mT+QLH09DvkmN6dWUYV16TvkYu2WKIBW56nYWWFPz6HnAf+uvrFYTMjKRyQRAEQcgCaOOfAplCmcKN61q8a7QBzCWFAA1kOsemvvbbtMFNtJ/jtjt37hj7sBsAa954fG6jcGQcdO23Xtf7Ox6TMByNecZJH4fOPkxa4yxObOXAWm/GhdfDe8zr5TZiv4+Oc0aA8eQzKV68uHHfdbzZEoNjN2SU68hq8Lno994+rXKdrXcogvU6C9A42J0mIz1TXpfOB3i9zONYeMF1fR1skWI/m4j2t/8tCJkVEfyCIAiCkAWwN/adQUGnt+k+9BStWpxSiGvxQOOa/mzOTWePvbjVRjgdCwsIj6FbDXC7Ds+m8HokbcLt9kv7+PMYGr2uwz1MKIBPnz5txIfCuGjRondrxPV91Euir8nVYXz5/NmcXxfW0HEgNC0aBddHp0M6Fk4xvep3iYKfY2loMkra1DC+Og/TLRZ4PUyn9OdYBY5p1RXyDEFID0TwZyViruDCb19g2TMtMLFMIXyawwcjPX3wUd4gTGjYEYuGT8bJU/caboIgCELmQIs0Gvg0gLmkkUw/LrUY5Tbdf5fbdH9/Cns2t6cfoQCkH8U7DWwt6HkcLSL0cbmNg4IRigxtmNPpeOkmtxTIPCfRYYg+r44z4TbHdR0+rdHn0o73hgKYYxDw+nLlymX0eddxI/q6ucxI8B7zGeouHPq58lr53LguuB58LtrxednDZ8eBNPnuUuyzCTzfO51e7dOtK6PfP16jbiVEeC2cDYStmfi+cTBQFirqd0+H0/dHEDIzGeNtFlKIFZG7JuKP2mXwY9fB2Dp3FS4cu4CI21GwxEYh+uoZXNm4CLtGvoBpFSpg5qjVuJWxbBFBEAQhkWgDVxu5jkttPHNJgVdBfRdYq0tBay/kKRR0DT+NagpcfQyNNsYpFrmdxzlx4oTRf1ifg7DQgINqscktxQed47GIDk8YF/v4aPcw4HnZZcG+iTvvSalSpe6KfMKldhkJ3mcd77p166JQoUKGuPr333+NFg0Z7XqyCo7vhH5OfJc5ywJn1iB58+Y1psbMKCLfGfo67ZcVK1Y08hLCFg0cqJAFlTqMTtOCkNkRwZ/pUWJ/wzDMaPYK/tkbqtYeQORpHBveDlNfWoCw/1pMCoIgCBkcbdjSqKezN3r5m47ilNvox980ljm9FQUBa68panUNGUUgawm5rFy5sjH3NY+hj0/sz8lj1KxZ0xAb7D/M4zA8w9AY57EpOljAwOa4el8dRq8T+3X9m+GIXqY1PA+dvpcs+KCg4P3gOmsY2QSe16vjpMMSLaIzAowzC3h4TRT77CNN4cQCGl6zHrBRcB30O0Gn0xl/871jWuU7x4I3bmPTd3Y/IVzXLiNgf428Nr5XhEu+f0yrTLtcZ2sUPSuBJiO9h4KQXETwZ3KsoSuxqtcnOBemMzMTPMt3RbO5G/H6lXAMi76DwUfWoeObjZHd3ZYBWiNxbcrz+HPK/7N3FgB6FVcbPuuSjbu7uyckBA3u7h4KBYo7LVBDSv+WtkChuLtDggUSLAlxA+Lubpv1/zwz39m9WTbENstumHczmblzx+fc+5137M6XwPkDAgIC9i3sSKFHGUYJtuWx/fv3l3bt2skPP/zgZrDx4z6E4ccff3SrAPr16+dm8AHpct8GBkiPOJzCf+SRR7pZfpbXMhMOCM/SYgg/6XTt2rVQQS9e1qiiTvkIB6JhfgmQN+XnDAJAOaknhINyWpsaKHeU/FcEUFbKTT9C/KkzpJ96h5P6yyeiz4TJmhF+iC/9iT/9yYqU6HMUjVsRQHntueJZg+jzhQyePxsIYEk/deea8NS9Ij2DAQG7i0D492nky4aX/y6T59v6fFW62v5WzvjqVTng9P2kRq10SUhKk0qtD5Du/xgqZ93RUxLtvZe/Rmb/7WFZkhO7DggICAio0DDlNqrg4kZBNrcRaAPXzNwfccQRsmjRIhk5cqSbJWNWFzdk79BDD5Vu3bq5sCjVkL+vvvpKbr/9dnnnnXdcGBRsZu33228/F/7jjz+WqVOnOuV73rx58uqrr7oTwo8//nhp0qRJIRkuboC5jZxE74GyIiqWPyB/zh+gPlYeiAYrJKJhzMbYgEZFgJWdfmFgxwYxKD+DHPZ984DyBSO6wGSN55SZfYwRXw6YNMJPv1a0wShA2akP5cZQT54/6sI9rnk+WXFj4c1UtLoGBOwqAuHfp7FVFn8xWnJMn4irLK1vv1Na1CzpxZYuDX77G2maXHQvf85ImV84WBAQEBAQsC/AFGJDcXfUoCwzUzZ48GA3O88S/gceeEDuuusuGTdunAwaNEhOOOEEN5Nt5IFZX2b+33jjDfnyyy8dIcQf4sFy8PPPP9/N4g8bNkz+9Kc/yQsvvODun3LKKdKnTx+Xn+UdLUdxmLL+S8PqDIFi1YKVGVJsB9wB8zd3RQJ9CyBNrOigbtb2gfBXDPD8IaeAQTiM9SHPnJFjZLMiDUYZos+UPWsMYqSkpBTWiVVJ0W/xV8R6BgTsDgLh36eRLh1eWi936cvMmfz1cua5tWV7akZcJX0x+kOWPQo2S9am8CIMCAgI+LUABRiY4o+NQszs+9lnny0HH3yw+648ZsCAAW623vb+WngO6IPQX3bZZe6+Lf/GQBQ5uf7iiy92B2qhkDdv3lzOOussl54dsFURYKTBCEOU8AOW9LOqwcixta3B2rgiwMqJzSAGfUydqAMEyj6zGFB+QF8xQAOifYObQRpmu00GIfz0KzA5rSj9STmtrPa+wvDcMTiFH3XC2JdAQLR+UXdAwL6IQPgDYsiVtS89I3O3RF56ldpKnWb+00wBAQEBAb8OmHKMEmwKNNeQfGb0r7zySrnpppvcjD8z+wDSgGEmGEWbJf5XXHGFCwORiKYFCWnatKmcdtppcv3117uBhC5duriBAe4ZSSnvoC4YQN0gEpB+AIFirzs2sHAGuy7uX15Bn1BW+phBGeqFH9cMctjZBQHlC/SPIfpscdgismp9Sn/aQZk86/gh0xUJ0WfKDKDO1AWDrEYJP/XEWNiAgH0VgfAHKDbLiifOk+eu+lAybQIiLlFqnPdbaV0tdh0QEBAQsM/DlF+U/ugybmAKstkGFGnCWDzzYymtXTMjbMCPsPhZPAxxSNfilHdEy0n5ORCMwwcBAyFt27YtrB/1svpZfSsarI9s1QJ1QUaYNQ2Ev/yD/mNJP3LLcn5m+E0OIfw2OEW/YioS7J1iz5iBawYXGXREVufOnVt4WKiFq4j1DQjYVVQowh8++7IXkDVbpl0xSJ649CVZs9UUEFXU+t0hJ/7lQEmJ+QQEBARUFEC8AnYPKM0YI/lGarlGeeYefqYk4zZlG0AEo8TWBg0M+Nk9Swc3cTCWX0UA5QWUH4PcLVu2zPlBMDgh3NrC7JJMRUK03NZ/oCL1268F9In1i/UX4BmF+HN4HXLLwBuDONav0UG4igDKyXsGg9vqAdhWwxYilvZzf/78+T8h/BYnIGBfRoUi/Db6GFA6KFj3rYw8aj95/ZHxkmW/1XHxkn7AXXLW+3+QxpXDCzAgIKDiwZaZB+wejHzbrLwp/0YYig8GoCxDIFCocVtYS8MUca6xAffxJ56lB3BXFOWbclIP6oSbSQn2suOGTBmhsvrgNlNR6miwvga4q1ev7sgU/Us9w4RM+QXyBnj+IPuAlSgrV650bt6XnNGBTFpYUFFklHrBD6xu0eeLdwyDb7YihefTnstoXaPugIB9EWFJ/68VOT/Id6cdJ58PX6EvuphfXIbUvuAZuWjo76VpjYqljAQEBAQElA5M8Y8qzthG2I38cW1hjUyY4mxhQUmrA1DQIYsQRfwwNjBQUUBZrV2M4BuxwI8zCXBbWDN2TZ3turyDvjHQn82aNXOknzosWLBAli9fHrsbUF6A7JkBJm/YCxcuLFyNUq1aNffpTcC9iobizxWDiNF681wiv8itDWICwhIm+q4KCNhXEQj/rxIFsunlW2T4p6vUFUNiA2n1t8/koifOkVppMb+AgICAgH0OKLcowStWrJCxY8duY8aMGSOTJk1yZAAyjjIcJQxc22o7FGtgyjX3LHzUmDKNwk1c88PYfnCMze5jAIeKzZkzR8aPH+/KxmcArZyTJ092h28VJyhlrbhbfe2EftqVdrGvD3DfYHUzU5EAUaIu1t6NGjVydURGZs2a5eSlrNs+YOdgMmr9wzXPju3hZ6WGfR3D5JJ+rkjkn3pYPa0O+PG+sXcOpN9m+O1dZuFxBwTsywgS/qvERpn37nAp3LIflyr1b3tHTru+j6RVLB0kICAgIGAngQJsSj8KL8T+uuuuk2uuucaZa6+91p2+/4c//EE+//xzWb9+vQsHgTUF2RRjCLqRQIyRdWAKtCnTNuttsPvROMDCU0by44Ctp59+Wm644QZXTk70t3L+9a9/dQo86Vj4qF0WsPKaiYJyRP1LCmdtVFFAu1JmQN8Z8C+rNg/YeSBb1jcY+iz6XJrh+YYEc8/6tyLJJuU0ecQdXWWDP4f2MbDIMwnWrl3rBjsMQX4Dfg0IhP/XiLwlsna+/yyJQ2JX6XROdwknJAQEBATsuzDFlqXY5513nrzwwgvy6quvOoP7tddek1deeUUefvhhOeaYYwqXbBuJLq4U7y1CYPm0bt1aLr/8cnnqqadcGV988UV56aWXXDkx//73v6V///6uHMQxhX5vlSsgoCJje89F8ee6oqN4PYsPODJQaO+KgCJMniWSNEyk3Y98qHv3ka/04sTPRJp/L5IT8wv45REI/68SuZIffQrja0p6zSAKAQEBAfsymPFCuY8uOefb+vXq1XPfjK9du7Zzc4AXM2IoxijKNpMPyoIcmHKOok6ZGjduXFjOBg0auLJyAj5+hLVyRusXFPqAgICAMkauyN8ni7wbmH65Q2B5v0YkdJIDJmTLXaoYObP1A+keDukLCAgI2OcBMYZIs9QVcsxS3oK8Arl3XKokfZYgN63MioX0YQlnYbdH9r9fJnLGKJHaH4ukfSrSYYzIX5aL7O6X2cnXCDzG9t5C4rnGpg4YvvWPHyTf4uCPHRAQEBBQNsjPFvnrBJFb16g75hdQfhB+EQMCAgICAn4liBJpM1Ein5DkD7iC5NuJ1hBswhgRj2L0LJH9Joq8sk5klWp5W3NFvleF7w5V/A6fLbIpFm5XQF6WJ4DAc/CWkXjKwP3op+CidShexoCAgICAvYe5K0WO+1bf+6tFkvQ1Hd7A5Q+B8P8akTddRvZMlrtUKfImRZ7614IwIhcQEBCwDwNSbGSaWfOSkJ/vv40PINhG8m1gIEqsM9eKXKikfr1qd8e3EZl5iMjmg0XebClSV+9/M0vkgQ0+7K7CyH20rJY/9zAMSFh5cBOOsmOi5QwICAgI2Hls3ChyzViRep+IVP5MZOBEkRf0XV7SW3XmPJHO40Q+zBTp1kjktRb6Po7dCyg/CIQ/ICAgICDgV4CSSHAhmY9dx8f7JfwAAs2Sf2wLVwiN8I4qej+q3aqJyIuq5LVSLS89WeTE1qocql+83ntEw+zqLD/5YcjPthTYwAN1YGYfwzXhgJUtGj4gICAgYNewVV/Yx40WeXCVyHJ9vW7KEfl6mci5o0SuUb/ivyKZuSJVqoj8vbfIqE4i7Ys+4PETFGSLHPWR/u4M27FJ/joWKaBUEAh/QEBAQEDArwCQYFsqD0HmGtu5Y2G4N3VJnBz5dZxU/SxeGnybKGfPipPxW4udbK2K4Pvs1dSI5zVSoh/zNhzYWKSL3lulCuJXJS8m2C6sTFFY3vhD6FnmT/mN3DOrX1K8gICAgICdx/yVIt8lK4HvJbJmsJL+ASJ31NB3r76CH5om8kmxI/xbNxGZ1V/k2ppK0mN+AeUP4ZcxICAgICDgV4AowcdwjQHx2AUiUxfEywFT4+SjTSKblc2v2hInr86Ll/3HJcgnOUXhc7eITFbFL141vP6VnNc2SFC/3klK1HNExmpYsLOzOwkfx0vqt149sfysrBg7sA+3Ef6S6rS3weAIxrZAkC/X2JRvXwV1ZADG2rks2zxg12D9YrKKMZR0zYoZ7IrUp5TXBgTNtrpRB3MDrvkCSfT5jN4P0DZKELm/p8h1tUSqq7tOZZE/9RC5St/peZki/1mubRYLC9L0NyB9J0UlTsN+eLjGP2LHJntALFJAqSAQ/l8jEjrIoHGRU/oLsuTC3zUJwhAQEBCwj8OIccmIkw+XxUmtuiIf7y+SOVhJfXeRg5PjZOumOLl8drzYlny+tbxYtb6EVJEmJSl76tdU76EZLig6+H+XYIQD28h8ScAf4l/WIF8jChAIO+QQf4gHXxbYV4gE9TAyZfUD9At1/yXaP2D7oL8YiKKfrO+wTWbtmbH3AYYw+Fv/Gvkv76C8wMqKbXVnS9KqVasKD/gkLISfZ9XaxPwDPGrr+/+i4oO4iSKXNfR780euEomN4QZUIASOFxAQEBAQEOBQpYbIB11FBqvCl6ocrrMqf+90E2mj+vD8JSJvxch7dq5X+uJVEazivX6CKrFJtPWxJaD76uwOxCktLU1SU1MLBya2bNkia9asqRCEaWdBXaw+kKjNmze7utarV0+qV68eSFM5ws/1BUQXGOEHEGTi2LWhovQp5bR6IaPmxkZWIf7UjXs2QEUck+eKUs+yQIeqP92iBZpXFtFb+m7zg70BFQuB8AcEBAQEBAQ4nNhMyX0xzSCjusgFquwV5Il8tNb75ajCh84Xp2FTtqMrm3/uPqocRgkGM4Z8OhDgz+z+pk2bCgnFvgAjTMz8zp492xEp/Fq0aCH169ePhQooL4iuvDBCi2zSh3Xr1pUaNWq4vmRgasmSJYUEGIM7uuy9vMPKDKzsyKbJLLAwUWOwMAEilbXbSyKHLPVn4r9AX3tbd7O5wqF9vxwC4Q8ICAgICAhQLUuklxL7n0D9u6o/CsPs2FrOJPVDXUZPzt6O8pcV8yfsvgojDRApmzHFjf/PkQjuVSSSQVmj5HH16tWSmZnpritXruyWSQeUL9BnJotGfO1wy1atWknjxo2d3/Lly2X+/PnOTVgM8SoKKDfG5JOyW30xLOdnYIN6ValSRVJSUpwbmB1QhM152qYxdxT5ueK+uBKvzVw5NFuFQyD8AQEBAQEBAY7B2zL84shQf3S8rBgPSOYTfGoXqBK40Xv9BBtiS/mrxdLc12Z3ipMFyESdOnUc2WAJ8fr16x3R2FdghBBCRb1scKMikcNfE+gvA/1Gf2HTd6xGYQsK18gq2zOsf7ErWp+aXGID6oCB7M+dO9ettqH+zZo1c8+p1RNYuwR4zFRWnxNzRzFjg77T1a5SSaT+bjZXOLTvl0Mg/AEBAQEBAQGqZfnZnZIAeUc9ZrkniE8VaaRKX95WkUUlTQep33y9xyhBEw7v20cByTCixF72Jk2aOAKxdu1amTVrliNXRiyiqGgEw0gRdYE82ZcJ8E9PT3ezpgHlC/SX9ZkReJa627XdZ2YcP1Zs2D0zFQHUAdjgmskq9cJv3rx5rm7484wir9FwFamuZYHFy0XeKXbQKoO1/1rsBwIOriUSnvaKh0D4AwICAgICAhxJn7455o5C/cdtUHKrztaxlduJqjN3UfKfp4rhGL+yexvkaTrfqXbIoX7d0rzfvji7A0HCQByYObTD6zZs2OCIBsTYwhSHEZWKACs/BArCzxkFdhBazZo1JSMjw90PKD+Iyh2E1gafOG+iYcOGUqtWLXeNjNKnGzdudNeERTaNQFcERJ8lqzPlZ4Z/3bp1hc8hdWZlA27iYFekepYJ9J3+m/Eiz64T2aQv/SXrRa4bJ/KkvueT9TG/ro62dyxoQMVBIPwBAQEBAQEBDm8uEllejJuuWSXy1EZVGJJEjqgW81Tt4cgaqvhp2KcWihQfJxihfpP1Xo1aIgP81tp9DhAGOxwMkmTkAXJhs6aQ4pLAvYoEqx8Gt82OUl9s2z8dUH5gfQToH+sj+gzSj7EwyCz+1sfcq0iH9tmzaAMb2JB9tirYNfXivAkIP7C60gaYAI8DGou02CRy/iiRyh+LNPxW5J9K+uNTRP7RVaRveNQrJIKEBwQEBAQEBDgsWypy3PciY7aKZOWKjFsicvRkkXl6r4Mqgsf5T827KZ7jm6hiqPYP80VOmaV2tkimmndmipy9QEmi3hvS1H/K6dcATj5nST+AZGzdutWdgA4gFsCIh5GrigIIlZV32bJlrm7mV7VqVTfDb+QyoPwg2m/IHoD4sxqFPjOCzGck2YYC8TXiXNH6M1o/ys6gBasWrC4YCL8d2mftEnUHiFSqJjK0l8gFatdQllg5WeTQRiIf9Rf5bUmHugZUCATCHxAQEBAQEOBI/G+Ur05Tst73C5HUT0V6KdkflSPSoLbISy3VLxYUVKoh8kRzkQzVlYcp4W8/XCRdzQmzlRTq/QGtRG63FQH7ICAJRpgwzBxyWr2RC2YYWSrNPSMVUaJfkUgGRJDy2mGELOm3elLntLTYvo2AcgOTL/ooCq7Zx46xWX8GcOhXI80mrxUFlJtVCjZTb+Vn7z7+gLpanXkOkWXC4LYwv2Z00fd1zhEi7zUUqV1d5Kl+IqsPE9lwsMgnnUQO3smzWFrqb0KWpjO3vYiNDwf88giEPyAgICAgIMChryp9H7UTGaj8LU01hHqVRIbo9ZjuIp2KL+VUHnFAa5FvuoqcpsS+lt5P0jgt1f37biLDWvrvNu+rMCIFgYBoQHyZ7cafU9AhxXy+DmIRJfrcJ7yRk4oAym7lZdUCM8LUCaIF2Q+H9pU/0GcYk1MjwQBZpc8guvjbahT6OBq+IqF4uakbZ2lg2zNao0YNV3fc+BEWt8l2QMC+iiDhAQEBAQEBe4j1OSJLt1ZQky1yaU+RJQeIHJYv0qKeyKt9RWYPEhnfW+RuvY7XMCXGzRKpWV3kn0rwJ+8vMl/jfKnuy5X0bygpfCmaTb/wpBxkN0qqIPkY/Jndh0SxTNqWEGMgGcDiVRQYuWcQA2JI/YCtamD5dED5hhFhQL8xUIM8YmxwCiCXXFck+aRubEWIztTjXrRokZNVe96i3+GH5Jt/IPwB+zriVNArxBPNi6hVq1buxzMgICAgIKAkPPjgg/LVV1/Ja6+9FvPZOfBTOGXKFLniiivk5ZdflgYNGsTubKsol4T3V4icNEEkp+Lox/sEWIEwc5BIw1/os3/IDETYAMF47rnn5JprrnFkn/38F1xwgfzhD39wYQGyBHE2mcLekXyVB1j5V65cKTfeeKO8+uqrjkj16dNH7rzzTjn88MMrRD1+jYjKHvKKjR/vuXvuuUdmzJjhSPBZZ50ljzzyiJNPC28DVOUZVj9snkEbfGL//u9//3t56aWXZNWqVe6MjUcffVSOPvroQlm1AQIG6so7jh8v8tHK2EVAmSBexeTPrUWuax7zKAWYvH7xxRdy+eWXy6mnnuoGq/Bn4InnD5uB1OOPP95x39JAIPwBAQEBAfsMfgnCf/8ckZtnePeAfXjPennC1+u8/VlvkYNrevcvAeTGSD9yMmzYMLn55psdiWK/8KBBg+SVV14pnPm3WUVsk6sdyVd5gBHFmTNnytVXXy3Dhw93/qeccopcf/310rNnT3e9z2PT9zLtvrvl25c+k+ULN0l8zeZS/7Czpe9t10j7NjuxgSV/sUw8uZu8O/EcOX/GP6RpGSyMiA4wRVX+zz//XO69915HPAhzzDHHyLPPPuuIBuEg+xVl5pvyYqgnhvrAF0477TQZNWqUG5ziWfzrX//qBqmibWJxyjsShmlfqt0g7J4pEyzJ8vah+vvyif7OlBbsGQyEfzsIhD8gICAgYEf4JQn/fzv4Q+8C9j6GTBV5fNEvS/iRGQxkGBulbdy4cfLHP/5RPv30Uzd72LVrV/noo4+kWrVqTo4IZ2QfN6gIZMMI/+jRo+XWW2+Vr7/+2pX/yiuvdM8M+llFqMceYdNoGXH4EfLFN+ukuOIcV22AHPTRMBnUJyPmUxI2y9K/HSvP3vK5bG1yjVxQBoTfZAzgpo8wkIoJEya4Gf63337b3T/kkEPksccek0aNGrmwyHNFQfFniWdv3rx5csIJJ8iPP/7onrmLL75Yrr32WmndurWrP4jKbHmXXwh/kzSRuQfEPAL2KuZsEWk5ct8h/GHTSkBAQEBAQEDALiJKMlDQAIf2MViEHySZU8KZqGCGMUooSiIc5Rk2SMGSfupkda9du7ar876PTFlw94Uy4tv1Etf0eBn88Uy5ectmuXHKmzLo4Loi67+REb95wJ2HUSLyV8uCv54gz9/6hWT6ri8TWD9h28CUoVatWs7gR9/Sr/YZyYoil4DyW71svz7P1/LlywvPIsAgq2xdwE39MAwMYCpSfQMCdgeB8AcEBAQEBJQC8gv8IW4//PCD2+fMUmdmlFgCzb5u7JtuusktK4U4mWJqCiluuzY3pqxg+UZhZdseIBEYK/euwkiI5R11Y1DgR44cKdddd51rP2vLb7/91sX/3+P/k3feecft0Y2mURYwkgAZtr3OkN86deq4e/hxQv+SJUsK6+PrZ/V2UXYAAu2ZKXBy+fMmP99/pszKaP1iNuDeggUL3N5oq3vNmjXdt82Br1tR30WvKzoKVr8jo574UfITWkmf516UAYNbSVpaulTqdKIc/NYL0qtFvORNfkRGfbQpFqMIOXM/lC+O6yXP3vGZbElKlcQy5Jb0kxkbtDF/Tqyn/6yf6Nf58+e7/uL+zvXbT+Vt183PIypTGK7z8vgcJu6i+wbkmPcGsgrht3vs4eewQqsvxtoGd0XB1KlT5d///rf7feFdaL8x9m584IEHZM6cOa7etAM2z3HxZznqtmvssoLlH2173FbWaFnwt3BWXnNH64WNX0l29L75YaZNmyYPPfSQ3HDDDe53xn63WakF5s2fJ4sXL3YDQxbfYGlUBATCHxAQEBAQsAfQn/yYyxM5lOb333/fHdwGAUSpNlO9enVHkFC+URxMsTFFwhQI3KZYRN1lCSsLJgqbFYuWiWuUy52F1duUNXMXryfKOLNyLIm3NoSo4Ac2rN/gFLbNmze7a2BplgWK55ORkeEIP3v2ucfn61hajNvCapUURSeE7xiE2XsGsp+Xx+FlvjzWtzZbGi0jS/kZXKFfWMmAgUQB4mC4Z7C4xfu1PCB/9TiZdOf58mz3ZnJfpWS5OylN7mnYQZ46+/cyZcoG1zqG7C/fl7nr8iW+y3nSY7/0mG8MVQ6U3hd0kfj8VTLrna8kJ+YN8mf+U57rfIx88eECSew2RI5/7VapV4YfNLC+wGYAKnpNvzHrzTuJflq2bJmMHTvWPT87jyI52n3z87Aym2xicFNO3BqicDDDBt6Q3dmzZzvCbwNyDRs2dO9e4ppc4o+x6/IOysnvC+88fl/46oAN3GDznuTrC9TZt40Hz5+1GW57xvGLPpu4o9d7E+RtAzK4Gagxf7OtfFE3wC4upxbO3v8WPiov2AZz0/+ct0Lb0YYYnomq1fzKpTWr18j69esL844iml55RyD8AQEBAQEBe4CSlAiUS/Y333HHHXL77bc7G8MMP/v22J9nCguKqhlAGrhR2kBxRWVvwcpAXmbM364pS1TxsTJa2J2BpWUKWtTYfWCKeq9evVwbYjh1m3bs3r27CzNw/4EujJVxd8qzu7A8LG8AiWImEdKP36ZNm+S7775zii1tZ2HV2gUQeHtmT+DTiIujzYo+U0a/0KYAG4WZsjN4MXnyZLdFgZPQu3Xr5uTc+tFsA9cYgH/03i+N/LnPyRs995O3/viszJk4XzK35EhB7lbJWvK9zH/xz/LGwKPk68k2gJUraydMlqyCeKnUt7/U+MnB9QlSo29vSY/Pl8zxY2VNhIcUZK6XnCo9pOvfP5HLRz0qXdoXGyyIomCVjD8qVe5S4dihSe4hI6buCjH/Kejbpk2bSsuWLZ1cclbW9OnT3dJ+ru1Z2nUUl9EdmR2D8sRcKlNFz502mtreHZU1ZHXSpEluIJB6NmvWTOrVq1c4UEjdLA7hi9Iv/6DsnEMwZMgQ907kTA17N2I4q4BzGKgbe8MJTxtYfxZ/RvG3e7RDWT2n5GPtb9cYyhIl6RYm2ld2Dazv8LP72xs8sGuAmzTYI3/OOecUtuNtt93mfmOuvOJKFw6Zsa84kHY0v+h1ecfuPs0BAQEBAQEBinhHmLwCgIKFAoAiwWwvyospFqawGIkinIXHH5gSYwoYwE2cskC0LLjJG9uurY5WHlPIuMaf6x2B8FY/s4mPIX2bfcJY+uSNbWUz0PaQaguLiZZ5b4KyWPmBtRez3m3atHH1YRaOwyDXrVtX2Da+HrTBziiL3N+R+XmQx/YNyj5tn6hKcq5b1m1L+yH1VmZstiZY31A3SAUzjNYn+FF/rq2v7F5Z9clOoWClTLvxWpm+IE8qH/EnOXPSYrk1K1f+kLlWrh3/thx0RAOJ2/CtfPvgZ+Ipf75sWLBY/0+Qqs2blKg4xzdqKpX1kShYvEA2Rh6BhNZXybmzvpMTrz1YqpazL7/RJwzYNG/e3LkBRDm63WjXUVw2d8b8PJA9L3f+3YMx+UKmuEcYKzPXnEXA1irqQ/j+/ftvc16BhY2mUxFAOSkzz6g9U1YPTLQe9j41f2yA2+JiE8ba0Pz2NqzNbQCGa943VkbrT0A4e7cAygqi9cPG2JkNwOpt6RIfO5o2NukgI4S1tKJtYG1k8QiHbe6Kgr3fqwEBAQEBAb8CoCyYQoFtS6JN0TClBTczwbhNicAP22DXJd3b20CJMWP5m6EOwMpk4cwP83Ow9IhD/VG0AO1gsHuWPm7zL54nYPYlqhASpixg+QErG3VjJrFLly7Oj+sNGza4ZbimeOKfmGjLiHfF7B3Q9itWrHCfL3vjjTfclwYom9WHPkKWv//+e6dQ09bEYTk4hN/60NoAY31LWF/P8oOC1UNlyrA1ItWOk8HP3i5tuzSQlGSVn9RqUrX78TLwjtOlWkK+ZE6fGiPv2bJ13Ra14yWlWpWSKWpGFUnRGwUb10tW9BFIqyHp6TtJCuJqSY8Pt8pd2l47NNnj5YBOezYISL/Ur19fGjduXPj8MSPOUniwc/1G3aJmdxCV8ajxsHIwQLZ1a6YsX77MyeoHH3zg9qrbABXyhxub5426mBx27tzZLefnHiA8sPdZeZPR7YFy2nvH+oz3H3WkThgIMfUknNUT2P1oXUmD8LSbpVeWsHJSpmi5bFuCwepNeAuLidaTa6sH71oLy7W5AW4MKJ633ePawkTvG6L3KgqKWjMgICAgICBgl6HqgLNRHk3hAigfKAT4oXSYcoDblBnz5xqD4oZNWpArFFcOnypLFFd0rNwAN4o0+9JZqo6ZO3eu8yOekb+dATPzCxculG+++cZ9ooi0OByJNjHl1NrFFDrc0TJZGLMpg9l7G+RRPB/KxbkNLJVmxlyLJZmZWTJr1qxt+tpJTQHXKOTUxQzXKN7eFB2sV9QX2xryREHdvtkRWMrNp9n+9re/ue+yv/jii4XEyWSaZd4clMhKBfJljyszwxB+7oPiZaO+gHS4Li+Iq3WenLUpX+5c86Z0qZ0v2ctnyZIR78uU/94rn1x8nDxxxqOyjippnWNPsuTnUn5tj5SUEmltXHKKJHCjQPu87HnTboP9yqzUYKaV/uJk+5kzZ7p7RoZ/HlS6uNlVmOyXZKRw4Ag5473DIZ333Xev3HHH7e7zl/hD8EzGcvX9yx53Bqn8s+a/SGBnTRDO/Ilr8lpRQHvQX9g8W1YHgM1+dPOj3ez5o42MCOPPO5u+ZjUE/mX13ozCyk3e9t7n3bNo0SIZP368fPnll+6QQvvSCaCslJ+4Vl5zs6oOm3SQA+SFz/Ri+H3h/JHo7wvxrAzEw3DNPQPXlC/alhanIiEQ/oCAgICAgD1A9McfN4qYKVcoChgUNFMWuDbbwhhQNFBIUFZYksrpwc8995xbmloWSoblgW1KD+VG2QEQPsg5Zfq///s/+fvf/y7//e9/nR/LwaOK0vYAeYRkvvfee/LCCy/Iv/71L5cW9tNPP+0GALhvbUFZyB/DNeUphDqZ4TI/K3dZtVU0H8pAXzKTyCy/nV6/atVKrdO3rt6JiX6WPzc3uvWANMz8HPZGnTgEbJ7rz+HDP5OFCxfI0KEfypQpk115rVws82ZWFWUccK5C27ZtXdtH2xvZp14mw9yjjmXRH7uE3GUy78Eh8lSL6nJv/dby2IHHyhuX3ypfP/meLFnEs6ZhlLn7Yusz6o7WL5A8Vu3gVQwF2VmSx414JSMV5PP19AskmIEb+pJr+nnMmDHbPaSsZFDx3TFR/Lx/bq6XO8jfo4/+Vz766CO3EmHYsGGyYsXyQhlkZpiBRN5HNjjFmRrs4efcFENxefTPYcUAzyDPltUBN7ABAPM3gsqzaIPPBq4h0//85z/1uR/uyLSFLd42ewvWZxh7TzDIzTkSL7/8svzjH/+Q++67T5544gk3sMPAN+UzuYz+bgLzx0YGkOM//OEP7jv3hx12mJx55pnyn//8xw0G0WbW55YOaUfTj4KwGCtr1K+ioEIR/pI6ISAgICAg4JeE7eEHRnJQqEzJQinAzxQpI0QYQ1R5wW0HpH344YdudoKZ/r39G2jKDLaV1ZQaygoB/Pzzz+WRRx5xivVf/vIX94lBZrRff/11NwNcXLEsDtJCMWX25tlnn3WE8Z577pHHH3/cfRYJJfW1115z902ZIm/SpG1RTF35IsSA+7QZ/tgYi1sWIC/ypu3Im/pxaF+XLp2de+PGTTJx4iTZsMGfNYCheK4eP5nh37btiqpR8v2dQUmz/t74/Bs3biSHHHKQZGRwkKTfx8+nENesWUVsF8aWSNO/AILIqdakYcQCN/3DbBzbGPCnPfa23O4yClbJjCsHyXPXPi7z52qfJFeXal33lzbnXCUHPvS6XPDyb6X6NpPbyZJaLV20hpK9YWPJPbBpg2Tpjbgq1dzS/t1CGR/aR3/x7HDmRPv27V0f8owz62ufIdsxSpLfnTWgJH8M8G7kLymJvfsJ0qZNK+nWrav68xzlugEKCJy9Sykz21NmzJjh3AyoMjjFAFz0nWDPIQOLyGtFAXWwZ4r+49qIPuAe/tjA3o20A2HMMKAD4R86dKh7b/OFBkvD7L0J8oi+G+grrn/88Ud59dVX3X0+M/jwww/L/vvvL6NHj3ZfkIDIUz/rP+qHwY92IA3eO8jwJ5984gaFWMHCwXzcY0CZ1UzUn/CWFvlxjYm+zwwWDpt0uI+pSKhQhJ9GDggICAgIKE+Ikk8UK1PAzJhSY8oIfqZc4IcSYQZwn9kMCD/EiSXzKGccABdFNI7ZpQXKEAUzLyyzfOyxxxxBOOqoo9zp3sycHXvssa7eTz75pCt38TIVLxtKG7P7LVq0kMGDBxeeoM2+96OPPtop7MzcoYjTXhiAzUoJR0RiSSYlJhUu9QSUm/xKuz1Kws/lwd5oFFXKaySYfszO9nvgOSTP5KIkkLQlT53sT6+cPysEsrZmyUYloGvWrJXly1fIsqXLVXFf7t1qm1m5cpWsW7deZWmjbNmSqX2Z7eIbatasJQcccIB0797DpU0YZvxHjBjh8qac7Otn6S9tT705JZxBDWtv5Jh6ckDhW2+95eISnnvEtz4sD8gb+3f5+IlZkpfQTNo/OEKuXbNarpk4Us567l9y4G9Plka1tX236dp4qdK0kbZ8nmyYtyjytBchf9F8t98/rmETqVJ+qvqzsH7j4D4IEX1psgphispncVnf9po3oH/mzH8bd+za4K4x0fsxA/A2NyiKWyDNmjd374nkZLYgFMjSpUvc4JR7RtQwKMUqAAhdlPCzBYVrI8Ckyf5/ZNWvEljh7rlcomWNuMsjqDP1oa/sPci1e0fG3IQB1AVDWIg124z4feFrBjy3+BO2rOpM2XgvUFbcDCZCyDmb4aCDDnL93KRJEznyyCPdoDLni/A7SDmNmFsaXFv/MWhF3fr06eNWgrDagz7m5H0GqvlkLr9l1NPSsLaJ1h1/QJvYs4C7eHtWFAQGHRAQEBAQsAfwREx/UN2J517ZMgUBmFJiQGEwZQJEFQsUCBQfyCFLwk8++WQ3C/XZZ585pdSUDNK32Q3cxfPcHVi5SCeaDzZAsaZczAZC+gHhIbcsm2U2heX4NstvcSmjpYEfgwfMwFEvlFSrN7C2Ik7x1QLEJazNVgHCEcfKDux6byOaB27rY8rJ8mGWStt2A5RQFGvqzn3Iiw9PGiicnshzKz+fFSCQevyQp3zZujVHNm7cojKwSubMnqcK+nT59tvvVHkdJu+887489+yL8sQTT8szTz/vzJNPPKPXzzj3a6++KcOGfiwfDftEifhX8t2Y8fLD9z/KsmUrZN06TuXPlRYtWrnBF4gUssSMH6s2KC99AIGHCNK27BFmkAabe9TPZJZBn7vuustt82CpsMUvP8iXddRFGX3CATfLkVftL1W3OVSvQDJnzZRMiqzl9iVPlBrdu0hKXJ5s/G6MrCsaK4khT1aP/k62aL+ldukm1XaX8JfxoX30JYZzGBhw47kCLIWfMGFCYd8hr5joc0x/u3dPgfrn63soP1dy83PUKKl2fvmSk6fvJA2el6dkNFfDqFufYE2LFUMqMyrXPAl6W02cMAaVh7xrJBcvlrY+Gjxg7hqZa9u+rZo2kpAUL8tXLJNvR/ntMpQRGWXrCYOjlJXnkPcV71IbYOWdw4DGM88847ZMMYjJSir7koaZaJ3LkwxTFnvfWLlw866xdx91tXtWDwNu3kUDBw50g5IMLLO/nTa0tMsKVg/eOXwFhHcGRJ9BKDtzgUFTVhTx+8dqBH43DCbDGOpMevT1McccIwcffLCTbeLze3XiiSdK165d3SGV+NEugDjWbmbsOgr8rE2tnYqHKc8IhD8gICAgIOAXhillmKVLl7pl1Xzn/PDDD3cKEDMSKGnRsFGCacpsaQBlxgxpY3PY0bvvvuuW+jKza/vTUXg4EAulGiUbhQ2lG5jSZOUEpIdi2rt3bzcTxyAC5JL6QCI4NIxZHWacGUQgb+4B0iN+VMkySlYeQFkBfUH7QIr5PB/+tMlLL73o+tHDD3JQH/uuOMQIcs91dnaebFUFfPnylUrup8kXI0YqAX9T7rrzLjn33PPl0ksvk5tvvkUeevhhGaNkk1n9zZu3qNxsljVr1ml+62Xj+k2yaVOmWwEwYcJkefrpZ+WWW26Va665Vi655FK5+uprlKA/JUOHfqRK9Brp0KGT9OvXT1LT0lycEZrnl19+5WZC6SuIEjNkRxxxhFsmSz8C+o19tyy/feWVV5zijmIOoYJMGJEoH1CJUXmy0vxEXc8cL2P/96Wf4c/JdkcngqSBR0qzqkpWxz0lY0dtjvnGsGGEjH1msuTH15CWxwwQT5srBniW6FMIVY8ePRwR4t0DaY6u1uHZ4zk0meWZxmYLCKQcN63pSZFPlwFQZAOZxi87K8etSuE9wTaXTZs2y/p1G9zKk40bNuk7ZrWsX79B5Z4wWRo3V7LV8FwQH1KYrX3SsmUr6dOnr1vdw4AD8SCsDFBQZrYdkS+DA9TJBt4AabBdiG1EEH1muidOnOhmgjkzhRUC9p4hLMCN7JcfGS4ZtDllpJ+oA6BNAP7WdxyUyv2ePXu62XPINTP8fIWDMFbvvQkri5MTLQvvCPoF2eDAU+TQ6sH7lAEpBm8YVOQ3iHiYKOyaOLx/CU8+1vcMIPDbxX5+0rM2+bUgEP6AgICAgIBfGKagAZRQlr1D9FHE+/bt60gUSi2KJ8qsweKVpuJCmpYeij2KFEtkmQGD3HOyN/4oZKa0MTtIPIgtgwOmTFk6ZhOW5ZnMwKCU/fvf/3bLxyGVKNwQxO7duzvCb0q3lQfb6lseQF0wVjdg5UTJZMsCS1O5TkpKUJLjt2fYbCTfwI+LY1YKYgRhUlKlTHPTxkxZuGCJfPLJSPnj3ffLby+/Xu6795/yxRejpUqVenL66efLNVffLFdeeYNc8dvrlaQfpKSmg/ZLI1Vqq0tGRi2pUrmuEnftp/gMjVNf5airnHbaeXLdtbfJb397nZx11oXSpXNfVZ5Xy1NPvSi33PIHefGl17Wc6Vr2dCVS8bJ5S7a8+94H8vY77zsiBHmAHNI/yAF1p39YrfHoo4/Km2++6ZYIU1+WUFN/ZtOIQ7hoO/1ySJCqPbpLJRWjvBH3yAcPjpC1G7Ild+MyWfHpozL08KNl5Di/daZg8ybJiRU5rubx0ufcFhKf+4OMPv0UGfHBD7Jla6Zsnv6ODD/pbBk7W0lwhyHS96iqPkIFAP1h/QIp5j2DXPKOYWCKPdO8a0zGTd4xwPvrMxnHqemsZOGdIErYs91A05YtWfre2CiLFi6TcWOnyOfDv5bhn30jw4aNkGefeVmeePw5efx/z8n/Hn3WuV984Q15752P5NNPRsinH3+hcSbLD9/P1mdhqb5XNkquPiOJmk+d2vWkRfPWKqsp7rlZu3adO6AN2eM9wnuK9xOGASxkkbLy3EFqObiNveu8q/CvWbOmG5xjFhhZNRAfWSYM7ooG+pL3EOU3Eo8fq3Ugw9SZPmc7B6fZs+qBfoZglwUolwGiz6AD+XM2CPcoK8BNeakLAzr8Fu4MSMsGqXh/cdYD8jBo0CA38299+2tBIPwBAQEBAQHlACgfKNvsfWY2AgUUYtWuXTt3OBWz4SxrNEUFJQk7Sr73BChGpuCThy2RhOjZfmzIvi3ltnKQLySe77KjVDNDiD9hMJa2xUFxo05XXXWVU8YhizfddJPbu8kgB6sa8CcsAwmkb4McpFteEK2fgWvrB9oEZZq+pPy23Bh3fHyC5Ltj3f1+fPqPWc7PPx8h99xzr1x7zbXy9FPPSFJiqpx88mly0UWXyoEHHiSVK1fTdNa7pfn//e9j8vf/e1D++c9/y//+95Q888xz8vwLL8rzz78sL7z4srzyyuvy5lvvytNPPycPP/yYPPLIYy7Ohx8Ok2XLVmr/slS2g5x44sly/PEnSLeu3d1SbKV0Wj72xObLW2++Le+++762u1cX6ROIPIM11IP6cJI2y/+RUcD+/iuvvNIZVmnQh8hoeem7pIOulYEH1ZC43AXyw7UHyoNVU+TPVerLw4Mvk9HfZUiHf/5F2ldT+V01V9att/5VgnT3E7JfzwzJXzxMPj+mvdyfli5/63iCjPxsmUi1AXLAk7dLI78KuULAnkfklfcMK4p4NvGjL9n7bLKMfFr/mZtw/iwKJVa5+ZKpBH/J4qUyefJU+fjjT1QuH5QhQy51K1KuveYGlev75LXX3pTRo76TpUtXyPLlq9wKllUrV+v1clmuMjljxiz5bsxY+de/HpKrf3eN/ObSy+T88y/S98Mt8sILL8nYsePcO7Bhw0bSuXNXKqHPwxo3qw+Zh8zyXoTg8p5iJRE27zAGAzj5neX7vKMoP/Xm9PZLLrnEvW9559EuJq+kQxuUJ/ndEXguqQP9BHDbjDkrqCDMrKLifc2zjBvCz7PM/bKoJ3lgTL5oZ1Z6YSODvDMw9j619ud3iMFn/DE/B6sHfc0Az/PPP+/SZkCBvt9R/H0NgfAHBAQEBASUE7B0mtl9ZvZR0iBWLEtlppiZc2bdmK1AMUIhAiizpaWQkg6KEGmZQoQSTH4MRkBiIbCWl4WlrChTXBMWv+LlsfSwqRdLK6+99lr37WS+RPDxxx+75aYoeChk5Et5MKaIm4JYXkCZrF5WZ6s3iiUninfo0MH1FcoqS4dRWCElxMvNyZXVq9fLG6+/K1dddYPceedfZMH85XLgAUfIkUecIM2aMdizVd5662N56OFn5b33PpfZs5criakj/fodIqeecr6cedalGvdWufnmP8nNN/1Zbrzxj3LLzX9W95/khuv/INdc83slXVfIiSecr3J0vCr4HWXDhnwZ+eU4+e9/n5GXX3lPfpyxUOUuX44++lS54oobpXGTlpJeqbqSq/UqkzNdeekHDmtksIaysxqDvfocgsWsKnWE7J9xxhly2mmnuUMd6UcjHuUGiW2lz5vD5fjrjpP6jatJQlKqpNTvIM3OvVtOHTdBTrnyLGnaWZ+t7DEy9+tNsUjav9UPkEM++0ZOvv00adSyliQlJ0lirZbS+PTfyynfDJNBvYs++1YRgJzac8YzDfnjoDP8eAexjx+SzHOPH88efWnyznPOAZCLFy2VTz75XAn+Q/K7390g1117szz7zCuyft1W6d/3YDn9tHPl/HOHyNlnXiSDBg6Wju17SuOGraV2zcZSs3pjqV61oVTJqC/1areQpk06SPv2veSUk86VIZdcI5dcdJUMPuRoqV+vmUybOkf+8ue/y5Ahv1Py9qo+fEkSJ6lajni3zBvSz/PFF06YEe7cubObxUYumd3lqyIMKrISgDpz9sj5558vF154oXPbcxt9hisi7D1s7217H+PHoAhL+Fk2z/NMO/HbQlux+ojVOmX1vFIekyXyROYAvyXIW7QPqAv9aL9D0bjbA2nym8LAI33PoCSfkeUzfwwuIM87SmNfQiD8AQEBAQEB5QAoKChkKCK29xsw8wTphyhCriCORoABiltpKGkoWKRlyiHKFUD5Mn+7B8zmPgcpoXQbipcnqrxZOizPpC5XXHGFXHDBBW4GnO9CMxPDOQYMZEA0Sd8IR3mC1QNYW0T9sFmpAIlCsaZNmF37+uuvC1dCvPXWm0rOb5F33n5f6tVvJOecfZ4MHDjILYUeNuxjefvt92TmzDlSr14jJePHy5lnnqOk+zg1x8rxx5+iyvpgOejAQ6V3737StWtP6datp/Tq1U/69h3o7E6dukunjl3lgEEHywEHHCxHHHGMHHvsCc4+7bQz5cQTT1WC1Unz2yxfjPhSy/OufP/DTBk8+Ag577wLpFXrtlIQUxVpf048Z2aQgSeWRnOYJANQ1B9yddZZZ7mDJiEVJkO0g7VPeUFcla7S7e/vyG8WrJXfZ2fKrUumyQXP/kE6dqgscfHNpN/ILLkrb6WcdLw/q8IQV6WTdP7zK3LJrJVyu5LdO1bOkotf/qN0bLdzZD++5fVySVaB3Dn3H9L0F97sT5/Yc8rzzUzvfvvt5/qLfmOAkbMYIGKEteeQsKwAYOvRfx95RG6++VZ55JFHZe6cedK7Vx+VgXOc/DRu1FSf4VyZo/4jR36lsvyuPP7E0/LYo0/IM08/J8+/+JK8+sob8grm1dflmeeelycff9qtRnn55dfkzTfekTFjxuuzkiOVM6pKq5Zt5WiV+xOOO1H7qZMS2xQtuZYnPsnN+kP2eQ9RdkjjgAED3AAls9f/+te/3H0GpqgfM/vnnnuunHPOOW7bCWSSd6qB+hIOP+pbUUCZAe9O3FYvG6zhlHvqywAH9eJex44d3UAdAzz2Tf69/bySvrUxBjf9RpkwlBVj730rD+6d/R0gXQYn+W1hUAd5YADr2WefdXJtK9F+LUi4i+NUKwD4ceSBveWWW2I+AQEBAQEB24Lv9UIkmWHcVaA0stzzlFNOcTPQhh0pBV+vFfl0tcgxtUV6VClwnwSC1PG5OvaHmlLzc0DZQTHl0DPKwPLKd955x11jQ7DYV4syBOlCOUcJQiFiCSeK287k83MgPZvNA6ZwkT4EnNkSyB2nubPn15Qw8mT/JTNsKNIc6gYpNFh6gLCkx0oGyD0DG7QTdYIUkw7KGLPjKKIorEZKonV8d4XIhI1xcqgslvwls92+cvZlljWi7U17WJuYDSnhU3yfffapUzCpCwprRkYVee/9D9wS/po16yjRGigZlarKmO/GyVdffiubN2Y6wtSjR3/p22+Qkvle0qFDZ2natJUj/9Wq1ZLU1MpKdlK0XdI0P8gKS+eVRRbQZpTLPhGJnaphEiQttZK2UzVt66qaTkNp26adKvttpEHDJtKoURNX3g1azkmTJrsl19179pa+ffprn22UbCURkEAGdl577TW3KgMCRV3ZugB5YnafmWJT2k2Bp85ROQgoP0CG6RtIMuSe/fD0qy0N5zR3Bq54RzFAx7uImVJkoEBlrUGDZtKlUzepV7+h278/ffoP8s23Y2TGj3Nk86YsSU3JkGpVa0n9Bo2kVfN20r59R+nda4D06N5benTrozLeR+N3l+7deknXLj2c3Ddq2FQqpVdWGa8kWVuzZcL4yTJ+/EThE5MSFy916tRT4tpMGtRv5N5JK1YsdmWjHsgdA04QPQZJ4Q72mU/qygAq73gIP0SXdwzxjEzaOwYYuSwPsvvHWSJV9fE+OmeW+62i7Lxvo2WzsuNnNoa+4wyYF154wX1Jhfag//jUHW4OhOW5ZssWxNj20e8tWNpWXvqJFUMMIrENg3e/zfTTn6z8YosJXJDT9zt16rRNvUsC6TLgw/uIwUgOKURGOKuAtmMwgN/57dVzbY7Iv+aLVN68Ui5o7M8lsXYF24u3s+D3nhUn1NXqQpo8c9is1KCM9ElpILx9AwICAgICfmHwI8+3zlFU2U+KUsNSS5a9c8AdM6fHH3+8I1woPoSHSAGUA9x7qoAQH8XDFA4UYcuHvdgs+2XQgTKgQBIWAzHAj9k19suiGFl5MKSBQXnGtj2VKOAoXpyczADGqaeeKr/97W+dEgapsPMKSMvqCkijPMDqY/WMgmvKnp6epkS9vZs5tb38KNzMjs+bO1+6d+8pzZu10PqOl+Gf8YWD9arkdZAjjzxa+/tElYPBqhB2VZLSSIl6de2TVM2XPqI9EiReCT4H/0mBqnPqp5JQdE/z5xNoqHoMACQlJSvx1z7V+PHxTC8zQJCi/VXT7eVnBcAxxxwvxx13ghx66OGabxdZsGCRTJ/2vZKz7o4kIRMoqQxo0d+0AcuDIfsMstGPhKH+USKFHVA+Yc+nEQzePYBZYlYccXo6hAwy9sgjj8j999/v5JhBNlaHMIA0adJUee+9D9xAETIJqT9gkL6/Bh+p77AjVJ6PkaOPOl5OOOFkt0KFlSmDDznS2QcfdJgMPvRIOeKwY5z78MOOkuOOPVFOOP5kjXukDBp0sLP79RvgngHOn/j2m9HuLADkeL/+A51ssizdBpnYJsTA7+OPP+4GUJFVZJCBSPbsI68MUjEgZuC+GXvH4LZ3WEWAldMGR23AAjBAx2/KSSedJIcccogzhx56qD7vx7n24EA7iDW/Q7Tj3oa9Mykz70bbKmQHf2IA/Ym8URd+H/ktsrg7AuH4raLfIdb8njIIz8A26e1sOvsCwhs4ICAgICCgFKBq83YVQ/yj91BCMObPYUnMPrD8++KLL3ZLEJmhGjJkiBsAuOiiixzhhwQz084MHEoZCgvECvf28t4VGFkjLWyUIhQuO9QLP8rAPlkLAzGA8EMYULpRqExRtrRIxwx1ZWkpSl50JQWfSjrhhBOcUkp9SBOY4rc9cL806l4c9Cf/bw/UjXJSJ4BdUICbmCjMeq8gW+rWry2HHc437pWsFyTK2nWZ2vdJqry21zrmymfDx8uiJZukeavucsJJ58pZ5wyRfgMPkToNmktKaobmwycXE93SZQwH/gGnFMehGGs7q5E4ZEktba6ERPys9HhqP6ofYQF9Snz0+twcAiZKUkK61K3TRDp36iOnn3qhnH3WEOnRdaDUqdNCyd5yVcRFOnbqJ23a9tRy1ZC8/GSpX7+pkq0z5FQl+82aN5O4BJWZAj57p+2g5XFlUvcOurDMgJxEZSV6jW19afB9WnQ/atszHAX3zETjlm9QXi+7DRs1kP33H4CP+1uydKk89vgT8sDf/yUP/N9/ZPHStdK6bXfp3LW/JKfUVhI5Ub4dNU02ZyZK8+ZdZcD+R8kxxyAPF8rRx54uffodKC1adZJ6DZpJ9ZoNJC2jmiSlVpL8uATJZSAKg6iofOvbRGUnTt8LGVJJw9Wp21gaNWopbdp01nfCkXLySefISSeeK4cfdpL06nmA1KvbSjZu4NC+XNm6NU06dRogRx19hitbVlacPP/8KzL0o0/8KhT969yls1x+OYcAnufO1eD9499Pvg2QUS+nEEHebX4Flb3DygNMtuydaNdR2LXJHzIKkacefIaP3xZ+Y/hdwea3BT9O7GeQhAFl3vG2wqP4M1EaiKaLzWw+s/bABhKtjtgMDjNQzHYEPgkKLA377Yumx7WBaxsAYUCSQWm+xsDv1a6A+CYLZioSyskrOCAgICAgoOLDlAAUA4O5jeBHyblds9ySJe3Mclh4bFNimLHiHt+7Z+kl+y2NdBvpiOa5J4imYwovShJEnL2fLO+P7n9koAKFjIMGWf5LWMrNfcpndSAtrm1QASU0OnABWEoK8WcggHDRmX3SiYYF1o5Rpc/89hSamiMKpBY1huL1o1iQpty8bHXkO+KrVxoHo2GU5LB0/sADDpOWLTvL9OnzZeq0+VK5Sn057oRz1Jwt3XvsLzVrN5KCuFSNkaLMPFlJPTP3nJpPGyZKIrP6+ucz9SYhgZUQSv6djWLqb6Po4hcfH1NSCc4AgQagbRMTOZWdbQCkzwBCqiqGaZKaUk3q122mBOtsOUeJf/v2vZXwF8j30xcqUaohBx98tHTv3k8V5yqSmpahfkriNH36gW+j5+Xnqo1c+oGPbVvul4PJBjbPDcbkymQIP1cP9aedMLhNtsxt6di1xTN/jMHchLN8ygOs/DZQVSk9VTp0bC+9evdyhJjZ1q++/ka+/HqUykmqNGveTmrUbCSjRk+R0WOmqTDpe6l9TzlRyfj5F14hBx50jDRp1kGqVqsvCUmVldinOFPgTLLk5idInspagcqxUjpnq4CqTCY4sg/xj1eZZxULW1HiNI7ocxAfny5VqtSRpk3bSbdu+7nDJc888yI55JBjpFXLLtqm6foeylGZrqLvoR5K+nvJps1Z+o7cqukluNn8s885Wy644Hy938Y9K9F+cINmcfS3J/twTXuG6H8jn+UFJnNWfuxofXBjKDvnoLCqiEEOyDLvhOIyyCBt165d3Uw4260wBpNtwjMIUDzu7oI07PmCgPP7YWcJ8HvCQDJhyJ8DBSk3ZbRv6FsdLQyI2pY+8QBu6oEskBe/qTsLy8PSxFQ0BMIfEBAQEBCwl2GKgikokC0MChR7/iH8EFyWK1pYFAzCY6O0oOhAqLlm/+XEiRML044S4z2FKTPYpEv6zIbY9/FZ5sueTxRJlvqyvJtZewYEWDZp5Wc/MJ8SfPXVV91WAIDizGqB/fff383gc1aBbRGgXhyqxEAGZwSw1N8GHDCka+3nqasSXciC3rNwZQ0jAlZnoKWl8dRTZNPGLTL0w4/ls89GKJnvLQMGDFKlu5msWbtB22eLXu8v55xzrvTq0UuqV60WU8ZRLn37uxRjyUWNv/FT/5IMZIZyRtuysKxqR9vOwtHOOTm5bg8ss2rnnXuBnHLyqZKeXlnmz18k1arWkEGDDpQeWu4pk6e5z63NnTtfi8USfsguaTPAQ7rady71Xx7Ujb4y5X2bfou0i6H4dRT0FYYw9pySXqGMxgwo7i4foEyeINFX/tOLCdKgfmM5/LAjJSUl3c22N2/Wyp3j0KVzd9fX33z9rUaNk359+8v5518oJ55wYiGBoi14Z9gqlEJspxm9dPw8ovKJHa+GrSn16tZz75HTTz9dTjvtDGnZqrVs2LDZfR6QrSo9e/aV/v33lwYNmkil9CpSt049v8rGVZn3K4M7Rl6tFFYiTPmnSFG5MkRlFlmEQEP42QtOH9GewOJi+O1hQBlCzTuYbRC8s4lPeoTht6o0YeliIzP8LnDgJ78F7OdnMJg9+/w+svKA1W98Q98GlCkPdXvppZeczQABIM7bb7/tDmlkoID0CEt9SBeZ4RBcBrTIf2dgbUr46LO+s/HLA8KhfQEBAQEB+wx+yUP7jq5VID0qF8js2bO3ObQPoBigaKEoWHooDuyHRmGB8EOgWdrI4XMoZsSxsBBqvjHNcks+nUQe+KEoQcpM2d5RWXeEaJ4GKzPlYoaIQ49QnlhpwOeuMJBC9uCznxtQVz59xJ7fl19+2S3XJAz1Iy2UO1YGsFKAmX4GEVDGsFFM+/fv7w5aiiqnuO36vdihfYfFL5WCZXPc9/tpB8OetoNDrC38n6YZM1Fw35Q+33bMtivZUa81a9Yq0f9CHnnof5KWVln69xukSuwmlc/l2k4t5eijT5D++w1wh/bBuxJjRIlvmrNU36qQQJ3V7Wbm1elnI8l754wPv63ROzGbMN6mnxMTmfVnkKdotgwkJsS75bAtmrd09Zw2jRnAOOnRvZtLn73bq1auklp1arlVGq6vtLDMpPql/ZpfOSFQPHeAMlp74I7KmLUJ8P1adI3b+jzqdv2usOviYWjPktL/5UD5qLPvb8hvZib79mfIyC+/kqVLV0pHJflduvaU7Kx8mT7tR8nOyVNS2ENOP+1MJdS9pVr12pKYxGn5vr7UzbeD72vq6UxM3koyhCzJ3wzyRTlNHslDYzjDvZTkJKlTt66+YzpKw4aN/dkD+k5iRQ3vo2buEMkkWTB/oRtMrFGjpnuXkQ71tv7Qf4Xp+vI7j3IDd2hfoj+0j68k2KF91k7AbOoEYeaslKeeesoNDnMPkstvEu9hYHH5TeG3BeLM7D5fE2EwF+7FO594/v3gv1pg+ewp7BmxZ5I9+vyWQfI51I5yc5Ar75TDD+dckY4uHPnze8mhthz+SjvwG0O9WJVy3333OcI/f/589zvF7wzpMQh94IEHFm4LsL4vCcUP7eN3ycuMLzPAbW24qwiH9gUEBAQEBFRA2A9/8R9/rk2xsBlBwMwDChbEmB91bGbOWc5oyjPhsZkFJyxxmaGAEKOAcTI+S+xJK6qI7A6IT5qWDm6MKTnkjXJy2WWXOfLO7DxknxP2+Z41SyUJi0JIeJRElpFSVhQySxN/Tue/+uqr3SFKKHeffvqpO5sAUD+2LqDwROtkaVMOa0PSQ/HDLn2QR7QvKUuRsfaxsmD5WW1RpXOj9s1I97m9+vUbS9++A1T5XChz5ixws+IcjNe1SzdJS6sk+Xm+jnl5zFrFDkN0y/ATHNknXYiNOrexWbqPzSDAzxvCREys/Xx5fRp+G8C25BWDIs7sGEuts7bmOkJ10okny0EHHiJLlyx3Kxf4agCHD06cOEVeefk1mTN7ntuGkKtxTZH38Gn/0rB6mrF+NBmyNiAc5cfgZ/Fc/6ix+OZnwE1Ye3a5D6L5lhs4GfB1Xr9+g3w3Zqy8+OIr8sP0mTJwwAHSo3sf2ZqZ48h+DSX3F190qRx77IlSt24DlY9kNziVzyZ8rRL1468gXy9oExU+VuAwI+/kFruYcXF2YLwsFrWv+QGel+zYzHNKcqq0b9dBjjv2BDn9tLO0bCIzZ87TcteRY485QYsU7z47+cEHQx35p84Mbvl8SMH9V65hbWKyihtQF9zYJq/8jnBQH24G65i5nz59uiO9hDWZJS0GcLkH2WafPzPgkGUG0O2zjMgzNmZPYfUgLWxWGABWuDHL37JlSzfwwCA3948++mg3qEuZ7fnCMKADgee3hzT4HWQFAOG5B9nnU4McOMnvztlnn+3CFm+/n4PW2L0DrazkX9oDH2WBOK1AOXrzbB8c4kAnIcABAQEBAQEl4cEHH3RKDkvedwX8FDKTwDfhmZHm002GHf2o3z9H5OYZIv/tIHJJwzxHXO+991559NFHHbGNKv1mo3CgMGDjZ2HICxulLarc2D1TVPAHhLN0LOzugjyi6ds16eOOGvLBkD9AAQLcA8S3tPCza+LgRjGz8qJMkQfXUVh4DDAbDJkq8sTiOLkvfqxkfvuBO3iKQYjShNWzCL4+BsiGXwrt+8XVR83q1WtUUR0pr7/+pjRu1FLate0iwz762C3jP+7Yk6RP7/0kPa2ypq9tUgB5YZ8+bankSUlHUrJPk6X98Ry2p2QJOHKv/lYmyLzvD3dZAqJKbVE9CB9bye3i0+zYOTnU14dnthebfqVueVpX3Dm5fN9blX/VzydOnKDP2UuyZetGOejAAZpDrowdN1plvoVcfMmF0rARe21zlYixDxuCB0krKscvAZNJ5I9ZUjtHApLAjCl7mAljBMTk29rcngXAPfxNbjn5m8EnlhHzqTgGrYqvOiEu8Ujf0vylUFCQJ3n5SpZVBtle8s03o+WZZ15xy+KPPuo42bI5Wz757AvJysqRiy68VNq1ay9p6ZU0JluRslUuk7QeqU4u/TYO3y5m0y4Q9djldsECkJ8D8kYaGOs/2q6w/dTivAw/MEU47T8l8itWLFWy96l89tlQadqkoRx40CAlsbNl2vTJ0q9vTzn11BOlRctmmo5/12nXRkDav2z/FEfCMJEmaSKPZA5zA60Qc2QW2LuU9sHwrNqKMeqGH7JLGNoJ+cOf5wA/k2Fs/DHWvrjNtrAWfk8QzYdyUGbLizJyTT64AdeEtTrixhCHcPhhmx82z5q1B4imyz1sTEmYs0Wk5UiRhiu+l497Fbi2tue/eBzy2llYHVlRcfnll7uVcVZ30rV6cKYPB/XCfUsDe95jAQEBAQEBv2Ko2rKNbQpJ1KBcmBKCjR82JAEbA7iPMUJQPJ5dY5vCAuwzQ3sC8iC9aFlwR69ReAAKGvmjqJgShLEyYKNcEcbqYcol9zCWnyk5xLc8ubayWBr44Qb4g+ysbEeuSBu/qNnbsLYvKhMz+xsc2X/77XekUcMm0q1bT/ngg2FKPlbJySedqmS/n5LLDK0LMZRQJ3jFm/5jlj0l2RNsSAtNve0yftqLa0/S9dJdFxmuoyZ6zxtLI2poKQhbYmK8JGv+nqT5PnKl1Dh2VkICh6xpuXNz8pUAdpDzzrtAatWsLSNHfuX2R/fvP0Bmz5nnltouX75CkpOU7Gs8vz/8lydQ9BXLlNkSw8Dcs88+Kw888IDbesKXI9gmY+TA6m8EgWvfN162om5AOGYUSYvv1P/www+FMk++JselR/b3TMYpA7PwGzZudDL7/PMvuGf2sMGHy4IFi2XYsE+kYYPGcvHFl7qvb6SmpLlv4jNYlJaWLskpHK7nV6UQj7oC2sG3ma9jcXnbVWNt7K+Ro23fsXmaL/lDcFkVw0x/fm6BZFSqLIMHHyannnaGPn+r5dNPP3fPZJ8+/dwWFJZTL1q0RNMwAkd5zZRP0BZsWeA9gxxzTVubPBmpx9/IPn7IHG0F7HR6i4NNGNoAGbVwxOU6+t42m3t7AuJjrKzR9zdu+00hL+pnZeYefc09ymthAGlxPxoGv2jdaTPaj2ur845AG7AVhDhW3uL5VgTsuKYBAQEBAQEBOwUUgSjs2hQYiB0GJQagjOA2BcKIAQZFAhNVLCweblOyicspx+Sxp7DyWp4AP4yVhXxwR2FhUKC4h43CSVjKaOEJw7XVmXrixhDG0rBrixN1R4ECh/IL6adsGGuTPcfPK3IQ4/x8rZsSkUTtxw0bN8kXX3wtL77wmiqI2dKyZSf58MORsmlTgVw65Frp1WN/d/p9XEGKViRJkhNZglogSUq0WW7K8mJO04/TskNCkpJR2qm7GvzVMB1aeK02+ipxnEkobvQegwZaDRfHmdh1LL3CJf5qk3Z8vB9ooCwMQFA/CF1WVq7beqDdpYSP7/mnKVlMkcaNWsk5Z10sdes2kaHDPtd2T5YO7bvIJx9/Lq+8/Lps3KiKcmzLQnkA8gjZZ98v22EuvPBCef31191MGwdMPvnkk25FKc8WQJ6i8mco6fkgHoMGY8aMcfKIDNvzAGHhGliaewbim9k98FWFtes3qIx+JP/+z3+1XEly6slnyty5S+Wz4aOkR89BMuSSa6Rrp/2kcqXqKrtK8hMzJEH7fcumLJUDVirEu3dYcrL/ogZ19TJpBB35MhksZgplsCTDfW9Y8ZKUDCn18UiTZ8/yYzApOTlFalSvLgmSLHnadbm5cVIpvbrUrN5QDhx0tFx11W2StTVB3nprqFTJqKWkf5CMHjNJnn/hFZk7b4Hkuf7UxCsA6ed9xx57tnnZgDHvPAzgGn/fNkUE1cgtfrx37T3MtckzbWoDUoTBzXucuLgB9/YUlgZ5UDbef/j5gU9/mK3dx1A+C0uZ7VkiDm6rI3GxKSv1s5P+DXY2TvT53RHyVM55nikbIA/aw57tigLf+wEBAQEBAQG7BVWrCm0UADNRpQBlBTeKP8oNQKkxhcGUmGgcjCkXRhIsPEARMyWsNED6locpSdHy2DUgX8prilPx+9G0CIu/KY60AfUy5czyAlZPM4QhvoUhfjQ8B1Bxmj+HcJEXxtqxdEGeZoBXGl2/aRnp3wULFrqZUjBgwAAlkF+6k+vPPuscJf/sMfX9xaf1aAOIdHJS0UwWS/pxQ56S1D8nO1eVTJURTY/mxVCtqBsDMXcGd0lGiRL3PVGyeHqtiVh8iBt1QqllxhTCn5LiiRx1TE+n72hbT+yys3Lc7DAzvXXr1ZeTTzpFGjRoKMOGDdM6pUiv3n0cof7qq68lM3Or1ss1i6tfSaa0EU3T3Ngo7t9++60jTYcccoibuYYEcMo8S2c5S4KDwrhvMmSEg2vky2TQ5Jd7PMscOMm+Yw4IA3YPY9eAePa87Dl+vu3I0/ItDuRv8uQp8tHHn0iNGrXk0EMGy5faX+PHT5TTTj1djj/uBElLTdf6F8jWrdlar01Ofil/pUrpjlBt3cpsKduKPCFEbgD18zIXkzfkrrgpvKfhihu7p8a3o9ZD/2h78sd4cC9PiR0rnHx7U13klGbHsCqFQ9rOP/8Cadq0uQz/fITwGcC+fftpf/GFiddl2bLlLm4syW2adXvt90uAdrUvZ7DfnXcq4Bml/bmPjbEBAOqFv28bXxcLA2hTk/WobNusOrC2sbbfU/klDwzpRNvX3t32G+nerzE/bPK2skbrY3XEWB0Iz0C4+WETjrR5pjE7g4xKGYVtTbrRfKNlL+/wrRYQEBAQEBBQKkAJMOUDA0xJMoMCYsTXwph/VKmK+pnSYvftGrs0EE0bY9eWB7a5zUTDR8OWZCw+xkCcaBi7tnSicSwP8wcpqSlOgbO8zZQGXCqONEDaPOFQdc974tZ+LtC8tLeVMKyU1159W2bOmCf7DzxElixaLXPnLJKjjzxJOnbsIZUzargZ8fz8RFXEia31S0x1xCMurqj9INEgQdNNSkhWwwBBvpIWVcLVVpXVGfb2+9l4PyvvTdSNYZBJyZiLq8qzcqQiG6Xe+2PiVG9N0vyTlCi5flCjhZQCrXuiuilvgZty1fZ1AwcMAKSo0pyg91OlWdO2ctjg45REZMjX33ynBKultGrZXp55+nmZNu17bSv/XKBku3ZTY0trIcvYpQXSjirl5sbmZGwO8aKOfGbSSA2HSnIoGEr9W2+95QYGAKSIeCZ/lmZU1vDjUDBWDnDKOAeOmT/5YHDjB0qzrh4mk14uo4D0kTfF9sa3PQNJk6dMkxdefFX7JF6OPPoEmTTlR5kyZYaceOIZMvjQY5To1FQ5S9X+VVKZnyopSVVVHrQumo1KjrZNJddefgsI+cbKwEoSLz7uIcJduAql0GibxsxP7xGfe6Tg282flYH8kb72p+bD/YREZv8ZmPLf7nftrc9TnCRqObW/9HkryE/SOqRpv7SXk046U8lbUxn55WjJyo6Ttm27yrejx8szz74oK5av0rDIicopz7tmjzs3t0iWygOQSd55EFraxmTMgB/3CGfvFfPDbcDPvXM0rqVj/mabsXClBUvTjOVjdYrmiTsaBz+MxcVtdSvub2mZ29rEy21RW/wciBs1xDN5sLJVBJRe7wUEBAQEBASUiJIUg91VFspCydjZPKLhdqdcxePsar7Yu5PvziCq1EXzwB8D8YUgsK3gy5FfupO/e/XsLZu3ZMoPP8yQgw46VHr26i1pqWkx4qVpQZzVwWy+T+undbZLy7dw2b1zq3/02u5v18TCY2u6mG3Sxm+ba1OSY37uLgG8ZeCe83RNxAoUkRYtWsmRRx7lSNK3345SMtVOFetUef75F90nvmgDy4c2QHHGjbK+t2B9CMif5fbMwkOY7NObpsizWoSZYMg7J5rbDCD3DJQXwm6knTowo89p5oBVAlFC4PvazyaamwGOaLnKCuTJYYys4uCsgTdef0NWrljlPq83YfxEmTRxspx40snSu3dfYVbc98+2pMlA7/vl+kX3MfqftwnjL2MmFqZE2SxmLNw24X06Ps9tjVutomUjV/Xx/0fz9BmpnCVJw4aN5IgjjpQ6tevJiBFfabwE6dihk0yZPFWGD//CrUZBTnwf0c9+9UJFBHUvyS5viJZre+6SwH0Ls7PxouF/Lty+iIopxQEBAQEBAQEBexMFMeUw9lcInGo8aeMb1nNk+GdfSmpKFalZo4GMHjVJatVqLIcfcbw0UoKRn895C36AgOXKfv9xjCh5LqKG+wV63xs3c7+NOz/mhmRiYv7xzPJHjfcvMkVhMaRDOEvPTBzXsZlVR560fkVnB+S5+1ZG/GMB9B+zqcmqTKZKpfRq0rPHftKn9yBZumSVLFy4XJq1aCNjx0+Wz4aPcAdfASPMEEqwN5RvSw+CbekzMAOZh+xyKj/LfSkH97CZ9ePzmCtWrHAn7Rt8e/gw9DluSKER+a+//toNWvD5SbaX2CylxTMbcI9ZRrve27C8WfLOIBMEF9L/4YdD5YcfZkmXLn1ly+YC+X76XOnda6AcsP+hUqNabbcCICkRqfflLJJTDHKnRuXALdt3xsuRkzG9V5KMednjHiQaN7KJzXXEJFq4nxq2AtgzoFVzBnlkxUpRGSJl1eK7QQJhtp9tB+nStElLOfzwYyQ1ubJ8N2aS1KxeX6pWqSnvvPOOTJ48jVaT5CRWBqj85JY0SMNgjx/wCQioKNDHISAgICAgICAgYNcQJ5s3b5F33n5HSeJKadmqlXz//Y/u+9+DBx+hJKK6uv1hUyyV56R73BCkRMiUkpEi40lpoYmRFTN+FjMSx7m93/aNn7kuStP7k7azXbqkpbZLk7S9vzexeNtcF9muBZwjZgrilERXkr79+kvr1m1k1OjRUqlSZXcq+osvvSQLFi6MhYew+SW3APJc2jPelk80XU5xX7NmjRt4gNxD+IGReK7ZH015WJHgZ7h9OgDCDwhvWwFmzpwpS5cudd/8Zl814aPhAH5muFeWM/zkg0lSAssgE/LHuQqswGjTpp2kpWbImDFjpV3bdnLo4MM0DPvwvcnN9YeUWRNgm/HXXJifr5/334ExmXOmuMxizN/CROIV2iaLPqy5MYVlipQFWWM1DmGTkpLdaf2HH3GE9kecjJ8wSduirZPdZ5591n2ukVUq7gC5xKIl5AEBFRlBggMCAgICAgICisGRhxKg9ML/KQkYM3qskvxZ0qRxSyVyIsuWr5EePfopAWwtKUlpyoETHGlITk0QpV6OTMJEHImJzZR6QsLsZL6faXczlWonMjhAGB/ezW4melPoFzXMem5jYrOsiZZmLM9Cmxl7DQe5UjLoSRZu8ozeJzxlyVE3M+LMmvtyO9qq93OVSEKekhJTpGH9xtK/3/5KiivJxAnTpF2bjpKfJ/Lpp58VkuEicritXRooiWjjB4Gzk7Yh7BhHBPUeNuGwKSPnC4Aoebe08MNmnz+n8jOrz+F/DBgYObTVC9F4ru8VtgJgz0E9tz9w4AaXYvWC7NO3CxcucGcUVKqUIY0aNZcx303RciXKAQceJg0bNlfZSpPMrFwVUQY7OM/B97+XGdxeLuIT+DpFrl7TFtQRO9/PtOu1ZqVuDG2bpzaz98zc+zDe4G+yWdzEZLfwOlYOjKbtz6jAIKPmpkzUOVYeZyMHtJLmmxgv2TkqiPpMpqRW0j7rIQMHHiyLF62UH3+cLV26dJWNGzbJBx8M1WfZn1DvUdSH2wLZKJuBm4CAPYU+OgEBAQEBAQEBASUB0uaIW+zPrteuWSOffPqpEscUad6ipcybO1/S0ytL//4D3SfM4pWZM7PKIWaE5zNoEGu4IATEEwlPYvzsO24NY8TGGU80iu4bKfcErJCwF96Pmu35leRvxt+PriCwvB2BcsaXl7IbB4Lgur3OBfgnuNnj/bQd+P75+vWbpH2HjvLxRx/JsmXLHGGGjGIsbmnB9ZMVSgHhBUbSgZFyC4ub+6wAYD8+/pTJ9VmxeIBr/DnRHzdkn/3/Vo9o3UjDDCC8pbfn2DHZ9GUtUALLFx+y5d1333Mz2BwsOHPGTNm8aYscffRx0qJFa5Vsf/gZS9nZ965VVIf+o7/Vpvpe3oqu3ZcecJut/7kvRrDMPyY33n9bQ1MV9/uJcWnYNc+Fv/byFzGaPrYrqxo7NND8zc3n1XKVyLOlgZUM1arVlF69+kiHDp1kyZKlrk9ZqTF06FCZPXuOu/byTKK+L3+KQPgDKgZ4RAICAgICAgICAorB6fj6n1f5PYwITp/+vcyfv0Bq167jlnUvX7HKHdrXoEEjJfqpsjWTT4Xlu5ld9k8zE8rn9iA7fj+1J0X4u1lR1cicibnhz35G1QiUJ6oYCJnF93uoY25nYuk4dyyOC6N+MUMZ3FkCLr7lwz1IMNfeuLI528/gutlcSD82hMrCqqOgABKtF5IglStXkx49ernZ7zHfjZM2rdtKYlKSO9wOYu3rULT8HdvcewIjZWaTDyAvlvHb574oAwSYcFHjlnFr47C0H0TJHm5syslSfmb4u3btKvXq1XNhWBXAcn3CYUjH8o/WjzTKAuRNnj6/Apk7d547b6BBgwaunnPnLtTy99J+6iMJcckqk2yvQC613CobblBHZQKmQDW8LNAOGoZZd+dvdkzWNJ43MVIfNbF0zN/L4Lbmp2GRTzOR++anYWwgysluYXm8ocw8vHx2koGolFRm7ePcZyVzcwqkXt0GcsABB0t6WmUZN26C1K1bT6pUqSYfffRxYZ+5eqlxaQWCH1BBoY9DQEBAQEBAQEDAduF5nwMEKjcv183w8m19SMIMJYAs3W/Xrr36JUliQqLkKzeAMED+jPi5E8OVNODvDiGDlMSIiSNUMQJdeO2IlCeQ25J5TEnX2zOkuW3Ywmu1bRYU4o6N8eX1DleeGLFyXrH7BlYvKB1Wo/8rr+XzggyEdOjQQdasXiNbNm+Rjh07yhtvvCGLFi1ycSxtgDt6XVqgrzCkXalSJTeDyyf4IOeQ/mi+kGC+v8+gQPXq1Z2fgUEbS4fD/0aMGCFvv/22/Pvf/5abbrpJrrzySrn66qvlwQcfdF8BmD59utx///3y17/+VSZMmOBm/JEB7L1Rz58DMschfMOHfy4ZGRnu04Hfa/lSUtKkb5/+klGpigZiRUOclo86emFgywr9zKVPhwu9XygDvj2Ky5nJlzMaDnubcDGivi2Jj/hbOBem6Jo88fO2v6ZsRfdjdiyMK3ckHANc+fm5bhCBMwqorwaQli1aSbduPZycLlq0RFq1biWfffaZG9ThWWXvf1GfBcIfUDHB4xAQEBAQEBCwm1CVMObyQDk0Y9fAyAemaOZt12DxDbuTxp7A8o+aqP/OwOqOgUhxDRHa2TaJ5qWt7NqX62i6pQFNyZMHJTj5BVo+NXlK9El9+fLVMmnSdKlRvY4ShQ2ybl2mdO3S0y0TZi97gTBLmqSlY0afWUU/S0iqWkzvVsJUIBDAohlTI9WO7ChZ8cujlawkaopq2D/PfuXEJH/tTi/Xa4wU5Lpv7GPcTgJNO1HtpEQNn+BNnCjh0bCcOceeZ5EcDUMapKX3E9irr7bbE01ZtHzYTPUWJGrbmkz7shoBoy6OAELQtMxaYiWUlaV1q87StEkb+fqr8dKkUWuZPm2WTNZ2y1EC6lc5EJ+4zH7TsmZ2DyU9e2bYs8+39ps1a1ZI+JEZDP3Bcn5O6Ge5e4sWLbZJx8A1M/ft2rWTAQMGOJvD+po0aeLSrV+/vhswwNStW9fN/vNFANK3tLwc7ClIy6+o8H3CM+BXTPApOT4pR7vmx+yZM2fLiJHfSMNGLWXd+q2yavVW6dixl5a9hRJaypboyuWW5rt+jxnrF5WHAtdPZOVny+OUjXtS7cP62X41yLKTZ0sn382wJyLLes2qkoRYXonalsrDnT/yKvqMefmlXgyyeBmxdF0+2O45sPS9zLhrtwqlyMTHbHuWjeTzTFLnvLx4lYsM6dy5j9Sp20wmT/lRqlSpLRmVq8knnw6XLZlb3FYAe6/4d4tvbzOl+c7ZGZBX8XellSF6z9zRd+uOTFkhml9xd0llNRT3t3vF3cXT4DraFrsDS4c0cJtfRUFpvHUCAgICAgICdgBTPqJAgYD07khx4H5xRcXSM1NWKJ4f5cLsbBkIZ3GiKH69M9CSbJNvcYK2R9CkIEwQHYg5ueFHdlOn/uA+Q1endgOZO3eRVKpUVbp37yNpaRkaIHawmyMEjhG5OI4kueIp4VFW44rt/oOUQFY0pBrvjhFVokNYlAjh72dDPbGB8OcrKSI+pMmTfFVIc3OUxEHsNVxBjt5WN+Ex6sdhaYmaRpLGd4euad3wh1iRLvlB0hyZIk8K5eqhmbs6EU59CO/KR5kohesNd1NjafppSoCbSevWnWXWrMWaf5o0b9ZGSf8Mt6e8SI40H+IVmt2H9X9UDswNUWcJfqdOndw+9nnz5sXyF7cUn5UHnOJ/wAEHOPKOYg8IEyXpHM5HmGuuuUZuvvlmN8N/4403OnP22We7b/E3b95czjnnHLnwwgulTZs2hQf1kU5UXncXpMHjwv58j+jgBO3qiYlrV/UePWasZOfkS+UqtWT23CVq19N26OVO6Xd9qzLrZ/b10vU57ebTckb9nHHgJqTfByKcczpDXB8fmUhMYjk9cZAxBqM0vJYdk6iB4ni+lFD7g/78wBMk3eSR+G6pP+kVGr2nfp7sx/K1qluZY3Lsny38PBIS+LpCvOTnaRjqLJpBQbLUrt1IOnbupc9TgqxavUG69+wrX301SlatWqPhIwkUAj8zZQeTnegAUhRRv+g7OWqb22B+Jd3bm4jmiazyOxgtcxT42z27b27zj6YRRTSOgbDby6skFG9ruy4p7fIKfUwCAgICAgIC9hT60+/tmBJgikBxG5jiX9K9ksD9qEJkCssvAZQdylA8f/PfWRAWEka8qAK1K2C5rSM2Gp82Le02ce2tSUJuoAfkkZm51X3arEmTpm6v99atWUpkm0vdOvWUrPhv7Lv2IaIDxJk01OlsUtoxXJ0I6wL7NCDfzKAzixtXAFFSPzWam3AKuRsYUCLErGRSMqzI5wsBRD4TE2nveEdwKWNysp3ETt3MJk+/IsG7NYFYeXDatYFLCwsBZVl4bp7Pr0aNmm62PC01XRYuWiz9+vWTadO/l/UbNmo8U0Gpm9Vz74EyNmrUSA499FDXr8OHD5fVq1e7tmD59qRJkxzRP+yww6Ry5cq+DzXc/Pnz5eWXX5bPP//cDRQYSA/5Nfg6+EpE5djSITz3o/f2BKRDdiSHG+P232s+lieDTJs2bZZRo0ZL2zbt3LkSG9ZtcltPaIufg6uKmm36O+bUmrr72uWaHzP22N7tjYZR42by9dqtODCiDrFX23+a0rtdGpqIl0eGKViFwucB/SqConR/zsTkFaOFi/bHjpCali5du/aQ5s1bybRp06V6tepOlqdMmaJ20YxueQB1sgEk937SslldcfM+tPIWl1ELa24LB8wd9dvboPzAym5u6mD1sPIaomGxo+WNui1+1ADytHbbWVh88i7+m1VRoI9RQEBAQEBAwO5Cf/oLbVMKTLk3oGBEFX6uLRzKG7YpFdszoPh1NM2yQvEyACvDzpSDMpsx5cv8wc6kYWGIYwptNK3SgNXHk/14JdGkXyCrVq2WqVOmKolNldWxGcDWrdtKpfRKwqFnxGEJM7BZck1NLyBkKhNqe3/Kb0QFN+G9IumIi9qYRCXyyUremdmECFFH/DQjNxPqeTMyhZu96imOKGmLqK2kyR0UGFtdQBnckntfP3eOgAYtJEmR8hDek61Y2Sh3rEze7cNQNcrCjKmG1LAqzxoxT9siOSlJGjRoKLVq1ZUpk6e5Je4L5s+TRQuXuGX9RaS/bECd99tvPzn44IPdbP57773nyPwHH3zgDvU788wztS9bFyr1tPWPP/4o9913n7z22mtuFUBxIsI1wM/kz+5h408Y7pn/noJ0KCN9RZKkbXnQFdznHifSz5gxS5YvW6Ft30Bmz5qr8lFFOnXq4s40sLSiJgp3Get3L6t6GZM57iGTNhuPHDnbGR8eidWQ2rZ+YIm2QB4J60h9SqLKqE+X8PjixmaGvrCtuV+YvpVFDWVw5aA8lF/lT01hXfgXc3uz7bWBgcPq1WtJkyYtZNXKNbJ27QY3KMJe/i1btrgylBdQbspT3ND3JgdRmB9hkIni8QyWblnB+sDL8Lb94eXYlwW3wcJY2aNpWDrR+5YG/lE/wu4KonGjJppneceu1TggICAgICCgRBTN6P4UKAeGqAKGsmDKDe7tGRQLIyGm3GBM8SgrWH5WHru2MlC+nQVhrR3sOprWz8Hy0dCFbmwGT0oPvq0BfcQyYIq2ePFi9U9QEp4iU6dOUwKTJK1atXY2M5kckMZeYYsLKBt/5vZpqw+GexHj/GOkRXNW2xMa2oUl0bhTU5UoJSmhy8vRMMzUQ5wYPPJ5MluanZ2rRAbZ0rKrcSev015qUlM5sT7Z1YuVI0X5U75YeTWpQv/Cckb8CsPG5EL/yJcyJCTQD74MGRmVXfvMnjPLxeMU9BkzZrj90ZTdte1O9HlpgPz5csC5554rxx9/vMyaNUvef/99Wb9+vZx22mkyePBgF85kkLIRniX8bAeoUqWKSyMqp9YeXPN5voEDB7pBBTvpH0Tj4N5zkJbvW0vT0ge+TP6wvq+/+kZat2JbQbKsXLlamjZp7sg/g1MllcXHLaqXl8ci4989MZJtMuyuTabx5xp58ANWkHvOv3DbReL0SsvNNe7c3BwX3upEHHeqvvrYygHN1l1bGbjy7pify5tnJhrGhfK283PObWB+DJYlJiRJixatpG7d+u6ThfXrN5Cx343VNlvl5IDUvCkJZSO/hqgsWV0B72QGrsC2suDlA5jt+9E1/DZhywq8+y3/6Oo1yuAOPo2tYrCy27sKt+9r748bm/QsDdrB4kevCWv2roB0iBONR7qYioJdq3FAQEBAQEDANtCf/ZjLw5SMqEKAwoEy4hXHIsWK+1FFZXvGlB0LG41vaZYFogqP5VtcEdoRrK6AdgH4UTfqZXXbHqL3mZmzuJamtdmew5Zv+iu3XDouQRYuXCwNGzbWe0mycdMmqVWztlSuXFXzzHczmbAX3zYor8WNJx40l1vi7Ax+XoH1S/gxdo+0/DJ5SE0exCQxwZE1qggx2rx5g/z44/fynZKTMWPGuE/fzZ8/V9asXi3ZWVkuzY0b1mu4jVoiyLW2N0SR8mmdIOfRMhaVm7b2bsrryhzxc8RObWaA9cqVlTAcxgcgmCqyeifRHWqXnJIsObl50qkTe/pnu7LRTAyOaGyNUdSvewuUEdlgdhtifvvtt8sTTzwht956q9t3bwNG9DthIU98Z5/T9s866yx3yj/x2QZgMmdxCM+WgN/85jdy7bXXusP/ALJAGNIsHbn0Ms5S8+hycyMyXHsjsnHjZpk8eao0VpK/aWOmpKdX0b5oJZUzaiiZdpvrHbzMGWnGjV/UP3ptbuock4WY2w7rc/4YlTdh+4lKCGR/7drVMmv2DC3TRJk8ZZJMmjxeFi9ZLBs2rJWtWVucTK1du17bN9PFTdYicqhkobzFyuHLE/N3JlIuzdfq5FcnkLf5xfwLZc3f5/BA5LV2rfraPs1k9px5rn1SU9NlwYIFrq99nGhcA2mb2fugb319fTms/7nGjbxhTBaAvWftGlhY6obBHb2/N2F5Y2MoKySfOthzZWEw+BMmKt92z65LSqN4GHNbejsL4lkbAeJjLN2KgJ2vbUBAQEBAQMBPoD/93o4pAcUVAbtGWcBtBMHue1JZXIncFqbMcNI4YU0BsXs7il9aIF/LL1pH/E0Z+jlYHIwpUKQXVb52VBfLE1jcqEIbvb9n8OmQHHnQb5DvSRMnSZWqVdVPSYKS/nr16kvVKlXcXn/yZpabwZmkRKvHtvXx1TOF3d/zZAY/7sfkiFlLljHHZvVZOs1nxThwD8K5fv06GTnySyWsj8vf/vaA/PnPf5Q7lMDecvMt8vBDD8n7770vw4YNk08/+1TefPNNGTd2rGzdmqlpeAWf+pGu39cfy9PK5YtV6LbyFIZTdyyAu2bQgqXZpGlkmOsEKqCqZp06dZVQt5CVsVPwJ0+e7D6BB6J9X5jxXgL9Q3ltBpHniVl7TtLHD3kkDLbJJ+G4z2F9JgcMBBi5MJkjLOlVq1bNff4OmcQQ3u5b/qUFZJDkSNuDfOjfAsnKypbFixbL9Ok/aNkruU/OVa1a3RFaVqdsr61d/+otb3wY8/Oz+NjeOLJtbneNHQvr4jMAlCtrVq/UPp8gL7zwvPz97w/IHXfcIbfffqv8/vd3yCOPPCyvvPKyDB/+mXz99dfy3PPPyeQpUyU7e6trL/2vMC2fPjbt6G0vn2aK5DFqW/md4U/taPWdDBYkaD9Xkgb1G2mZ/Uqdrl27y+eff+EGTkpGab1rdg7UA9DflBnj2kjBPZMzex/yHorOiiPTvl1sYMcPaiKjFqdIlvYeyD/6vJE/4N3B5zGtTsDqBIhn5TS33TM38UmHeNQXG0M7EAdwn+udhcWz8lrbYSoKfA0CAgICAgIC9himnJjhOgoUBAsDUEhYTsyJ4Sxz3p5h6TH7hzdt2uTiANIpnv7eBorS5s2bXXl/+OEHN/u1du1apzyZ0vZzMAUT8D1zDkv7/vvv3XfLly5d6vysbbaHqKJFeIijKXO0B3ZpKGKk4fbFwzBUXaJYWVtzZc7cBcoVErTfNkrNmrWlSeNmej9B20aVSjUcVJaUxOy2KeJFZS4iKsX9Ykaz8ra/ZtUAYUkzriBO0lNT3NaC1atXyaeffiIP/vNBGTr0Izn1lFPkv0qcXn31ZXnttVfksMMGy6LFC+WBv/9NLr/8cvnTn/8kEydOdH3kl//TB/kxxRgSEMuT/F3eVkZfDm9ifrGyFYXxRhPyBxxqW7GPWnmn+sdLsrZFWmplqV+3oTsALyUlWZYsWer2SSO+kFZgn5fzZu8gKh+0BaQD2cFwr6hPvIE88Lwh86b0Ew4/e75xE9bkz/wtn2gY8uR6T8FnBXnu3DJ5JZ30If1pS/zdYFRikixdtkz7QvPMj9f3yBxJT6si1arW1msGK3x9KJeHt7nEz9u+n91SfJNN/J2cYJDPXLWpH2FisqE2p+3zFYi161bKCy8+775oMGrUN3L44YOV+D8rzzzzlDz66KNua8X06d/LAw/8TS6++AK5554/u20zSckQOmRJ21bzdIZ0yQObr1W4fMjT91chwdey0V1Ffrhd9dSBkMbKGfPjkEme8UrpVdwsf60adWXL5iypW6+BjBk9zvX/T/uNOPjteX/uLCgD7zz63spk71Ng7QCQae4RjvcsZ1HwO2JuDO9ezOzZs2X58uXuU5UWf2+CcmN4LsyNsUEAyjl16lR9TyxxZygYLBxlxCas/V6YP4NufGKTNObOnesMdTbD7xZ1p112BrQj7wGeZ55fy7uiQR+HigMaPCAgICAgoDzClBEjD/xmmfIPooQBoDigvKHc/u1vf3N7iDlBnFPCTz/9dLngggucOf/88+XKK6+U//u//3MHh40fP94pSihzxUlGaYL0iqdJeb/55hv585//LJdddpncfffd8uKLLzrlzL5rviMQhu+dv/3223LFFVe4A9So81/+8hf59ttvHYHfXjpWHrOXKaGZM2eOU/Dw25n8dwWWJoY250T+9es3uJnAnOxcJa+pUrlyFe0HvzSeUuVrOLqawYKSuAD6NMbgr4sU9SK3tyE6/nwIT3YY9Bn+2Wdy5513ysKFC+Xq3/1OBgwcIA0bNpCaNWtIjRo15JBDDlGCdZOTHVYgbNzk24dkqQvlc9dKWjgLAH+XYyxvd+1MUblAxFkM2k6anv5z7UB78Ok9ZpvZk52akuL2tzNolV5J2y4nxx2aR1uVJYyEA98enoRHSROgjbhn+6HZAkBcnm1gchZND9gzCSx9/MijNJ/VVatWudlwCIwdKmflwIbkMgjAIE/HTh2RJNmamSWNGjV2ZwsULwNxItXYBvgX3o+FcU7nH7vmfoRYexOn5Vwpb731pnt3bdmyWW688Xo56qgjpHbtGlqWhlK/fn3Zb7/+cu2118iQIUMkRcnapo2btN39dgPkBNmy/L3tDXB2ob/zcvY24fy/2L2iuFGwpJ/+YWVEdX1+WJGyYMFCqas2zw7vpD3ts9ICZJ+BMwi6/cYgl1GZBJSXd9ZXX33l3tOnnnqqHHHEEXLMMce4MywuueQSufTSS917nE9L/utf/3KHV0KQi/Mt0irN+tMHlNOeO3uuGPT99NNP5brrrnO/eX//+9/l9ddfdwPMhIn2ncW3NKgr4DfqkUcekZNPPln2339/GTRokNu+wzkcXGPfddddbqBjZ+rE+5aBB37fCE8ZrD22J0/lEV4qKghSU1NjroCAgICAgJLRoEGDmKtswQ+/KV8oAyjipnxxD8UEGz9mMrAhEpwKzh7iq6++2inA7HdG4Xn66aflmWeekccee0x+p6QO0sBeYtzMUDDLRz4oOqRVGooH6RkZIN2oQeF566235KOPPnIkHaXq4osvdjMmlBWljLgYi0M6BksbBYpPnD355JNOcaVduMfhaffee6988sknhQq2lcPStbY1cE070J7AZmBKC7a33iuV7Jff4oh+RqUqMm/+ItmwfrOSlFQtU0QRVcKbl0cclEGUQk1HxQADtBoxcgzx5r7e0CpZfaknZxPg6Wy95pvlLO1nmfGSJYvkjTdelyWLF7vZrDZtW2t5Krl2MiUYVK6cIccff6wqvifqM1Ff4tTbkTJXDq+sJmh7sXw5X8mhzQ5H2xf49oQAa8HVWDhPtAjgw/i2InGeA67pi0TtI2bdOCQwRZYpSeEQP9rLnUNAxfk/lm/Jhvx8+UoDvqz+OTQ3bWbG2jDqNrmy59ZsYOEwxdM2mBub8NF7uwOe/9tuu13uueceR5AYNIToIDukTbvxbMycMUNq16otW7O2OqJfpXIVLXuiWzHCVxUIVwQ/UEB8iucN//kBIoyTaaJqaB/V9w8294WVBvlKzFyf5cu0adPkw6EfyJq1K5TEJ0qHju0kiUMdNR8O5HMDTiqXzZs1keOOPVoGDz5EatWqESuXH4zxW1pYOaP5a3EwReXTcsWMu3bPE2UlDn56TTHtfmw1gM36u739Wj/OxijI136RRKmUXtkdLDlX32epqWn6fBTIqpWr3fPlQX23lUUvp7GLvQzKQV+Tp733fJ382SHW/9xD1iC8EH7OoOB90aNHD/c7wm/Ls88+Kw899JCcccYZbrUWZ1r88Y9/dPJFPvbuxUaezL2t3Ow6fHv5NBhcoMzY/I7w/ue3kN+9gw46yP3evPPOO26Q2Mrg5FJhadg19/jdZaCL3yvqa4bBO8IxOMxZG7Vr1y6M93MgTfKhLXED4mH2tB3KEjyeAQEBAQEBAaUAUwSiKEmpMD+UNBQRPlfWrVs3ady4sfsGOIeDMRDQqlUr6dixoxx44IFuRoZTxCHJKEPMOqCAkEZUgdoTUC5Lz4gMfuQzbtw4eeWVV9zge69evVzZsFEoUcZQzAhnaUTrbeVDYWOAgIPlzjnnHJcehOXhhx92dWTQAOUOhdPik6alS5mi0FSdzb3SqH9xbJOmut0sj5IDiDKz1+zrrlQpQ0kL9fXh83K9krzzoBYll12b0dXNN4UfRPrhh+/lm2++lSxVkJkB9d+Szy5sG9xGBGrVqiVHHnmkdOncmeiubEmQKEd4SBSiFusrn8k2sH7bPZAe/cJATJKT65zYAA2kYd36dW4Aw5R4CKL19faMkZC9baJ5leQuy7KUZJBDlmG/9dY7cvPNt7g98UOHDi2c9eXk+8zMrfpcrpQqVau4mdMqVapKXX3PsN0CuaEOew7/TBa+gzRNZAuwZHratKnu7AgjS8zeQ+JxUwb8/WCKuNUpEM/WrVu5QQkXzslEWa0C8fLKs5OSmiIb3EGXmyVdn/GlS5f9bHsVPaNlA3tmaXMrl7nt2j/fDPxVlhYtWrizM3Cz0obfGfwgvvzO8Lty0UUXSc+ePd2nCFm1ZbP8pEs/WR/u/vugCKRhzz1knNU+rO5i0LdNmzbSvXt3V94+ffpI//79HYHnNwOZMVnjOYjWFX/uM1jMQZuPP/64+21h1QJ1wv3888+7L2jw2xX9isbPQpuRtKm/tamh+HV5RiD8AQEBAQEBpQhTvHYFKBMQ6ahSFVWsUEIbNWokAwYMcP6jRo1ye/sBBArFozSUj2i+lh7lQfGF0GPzeTLKwkAFpn379m6lAkoVh7ER3spTvB4oaZAPSOixxx7rZpvatWvnVgwwAIASylJLBjUsrpUDN4pXFPl5RW1V/F7pgLL7AQ9cEG5HlrQeKKzMXGOYR2R22/ajF8H6RO2iZoiBe5if3CiC3qLNyJP02SawYcMmJXNblLjFybp1a2Xohx+6cyAg+ps3b3KRaAqIEnv1IVAouU2aNhE+zceMPrPrADHlW+3Al/SnckTb+vJbeaPg3s+UPwbkmoPjIKqLFy2SHCUT8+bO075mPy17imc448+smBkx255lEYw3CxdqG+bkuvZctGixkpqh8vvf3+m2eUBwGIBDRrZkZjqiz+GJtWrVdOcpuC8+uOUexfsyBuvm4reZDS/sbzWx2fMETcdxfLcPHnIIQWJwLFM2bFwvmW6QLF+W6XP/3rvvysqVK51MQyjdMxvnP8VHcdq3b+v2+NfWsnJoHzP27OMvgs9bKZ/m6W19y8T8oyh+HYWFj8RTy94haelpUlXbjGueBZ6fLHeAoK/fLwnKE33Pcc2zhV/0XvQZtvcxZJ+wgLqZP+9wyC8ku0uXLk52JkyY4LZLufeee/6L0iGNaPq7A+JTVisPs+4M/nI4JoPIHHzJfbYn8e5iQGDkyJGuTICyAKu3lZOVDwyAsj2kX79+jtjz+4TNwAYDtB06dHD1JI+dqodWn3AmD2Cn4pUzxGkFflnp3UnQgYz6YAcEBAQEBJSEBx980O3pxt4V8FM4ZcoUt6f85Zdf3mZbwI5+3O+fI3Kzcu9HOhTIRfVynMJ9//33yz//+U9HaG229eeAAsysNksvUX5uvPFGR+6JS9lMwfn444/dMnoUoVtuuUXOPvvsQkXMlJ/dBflgSIM0TXmE2NKmLLOE8LN/n72QlJmw/C6z1/JDJZ5sN2B/KIqVqRdWJtKEoDAwwGoGVjUwi8cSf2Z52N/9+9//3s3ys6eUAQHSQCm0NiAtrodMFXl8kciVi96SxR8+55aoMnBQmrA8aQdsiPLECZPlqt9dJ6edeo589eUYaVi/uZxx5nmSUbmGEg++oBBTxrWcLB+mCf2SZE9o/JJj7+bQMZYzQ44YJ/BhuA9BZgm/2vGaP0vpJd/NdkL831XS9JtLh2i/ZLn2ox3Zn8tBff3793NtaUq576N4+eqrryVViQzKLucOaIlcHkCrpmlhx0mukkFs/7lD5IBZNLWV7HPwWx7XsTBaYvVDdrWtiKPdzWQs6TEwEet+h+ysjSrfo+TuP98ixx1zjDz73FNKMipJteqQEK9Mm7xoK8UM15FEAgrBAA8z/F6WaCs/qMLXAZo2bSy9e/eWzp27ypNPPqfviAtk7uyl2u9VZdCgw/Q+M+ip2peeJCHf9qy7LSYqh/CwWLJ6zZcKVGJisgq8XIskxucVrm5BVpDv1FQO78zX98Ia+d//HpV7773HkXtm7du0bisHHjhIzjvvPEfC2Obhno/YYNmWLZny9dffuhVOjRo3ltS0VC93jEkhgzE58TLmy487L59VA/69lZ9nqw3YNuJtFVknq8ill02flg+PP9c8pxpItsrILz/WtntILrzwLFm6dJ7Uq19LSeTFSkjTCtvbQDrAtrPsLSQME2mcWiC3/viY+41hRv6oo45yvxHUw96TGHtnWR0p84gRI9xvBgO2N9xwgyPA+Fv5GThm5dj1118vffv2lf/+97+OLJuM8S4hr+L1312Qng1Ws8Xrtttuc/nySUv3GU99j/G+YwCC/fwMFDGgxTkEVk8rF6D+pIfhOeB3i/KSBu9JwlEnfl/53UTGTO5LwpwtIi1HilSbO1ZeabnGDTwwIGFxrN12tT0s3hdffOEOVOXdTfnwt37DZhCdAy15TkoD269pQEBAQEBAwE5D1aLCH39+sHeG6BuIZ4qEKW9co6SgCOBnp/kDlAGUMZQZwtn+3T2FpUF5zJA+ZJyDwqpXr+6UKYA/BnKPIQwHCtohYsBsA0ocMy8sKzUww2RKG/ch7vYN82g5MKRnBhDePoFW/N6ewpNv0vJGs1dP+giToGRciY1eQxQ8CeZ8gaLT3n8WLl2DS5jG8pcGvdRau7qxhQCbpfF16tRxZIhr8mFrB3txb731Frenm5kwBlYoU0Ic8RLdjFa7tu0kLTVNCZrfj84McVZWruTxNQGtQ0koas/YfVfEksLGyk69XN2Kh9G+U9Eiz00bN2v+CTJ/wQK3VHfcuPFObn7ejCvB79drIPsJCUlu1QQyYaLDgNyUKdPk1Vdfl3/84x+yePEiNyA3acpE2bBpnaSlsxqlQDK3Zrp3R4kgrVh6RRclGf9M8s5g9tveB+6wSn1G2OrSoEEjqV+/ASFd/3PI4EsvvewG9Dikc4Ze8+4iHQgz75GePXs4GefZZiAAOGkqlC1gZcCYrEX9oijmX/zZ1DTJxrwpC4Nv2TlZbnk413amCO7i8GX/qf/eAr8rEE8jiRj6IPruNn/6w2BuK69d8+4lLu93Vl/hz6cq2eOO24zlB5HG3lOQJu8w8ud3bd26dW6gHX/qaPnaJzPtawIQesrLPas3burEKjmbuae8lBWbOPQh70ZkiwFzsDP1IG1+o6zdgLVvRUKRJAQEBAQEBATsEVAIUGJQElBYTUHYEVAeUEqYCTMFjDQw3GNJ4/Dhw+V///ufu2Y/Pwf8kRfXKCSELQ2YYkO6ZlhKCUGAqKOUc9/yw0Yhg+hzgjR1iMaNgvKSBuU1wmrxmXlBuWNpacOGDV1c7pfUHpYuAx/sU6etCWNxShfk5dNNT0tX0pzqThOHZ2zavMn1G+VixhzSUlhnyrGjokC0NThkyMeKxY1Ba+raPS+muCYnJ7klxmyJoO7WNrQ7X0p47rnn5Q9/uNORPWb0NmufEAYF3g72Y988KbtVBG42l36koL6wRe0XLXzUL+ofxbZl3wYaJU7biAMOWWJu5Yasuts/22eW7s+k/6uDfz6RDcQNuWMFCu2Igfgz6MO2j3r16qqMMiDIFxO8fLLVgxn3HYM2L8HEuotZed93Xo6QJ8pBmTjwrlfPnnLY4MGuryFflHfVqtVuv/ZLL70kt992hzvBn3M92AKAXEDYkFcOFszO0vehxnOk3JF98o7ZzpSEYv6urMQzd3Fo2mp4hmlHbOSSgTHaivcUg2Y/K6JlBNqatuH9yOBr9B1qfe/7owh2z96PvEdwYywuB/YxaMge+k6dOskJJ5zg3tPR9IqnuyegHBje+9jM3gO2HeBHGX0/JLrfG9ysBGPQG7mOgjAA+cLw+0NZ8ad9DAyMklbz5s3d74y1x45AeSgX6RVvg9Jsk72NsKQ/ICAgIGCfwS+5pP+/HUQubpArw4YNc5/ZY3kky/FM4fo5oOhyojWfC/ruu+/cjCwzEaaUoeTwuSRmYU466ST3TWsInw0qEM6Uvz0B6VBey5d2oWycqM9nmzjciWX77OEnHHmiZLF9gYPDWIYP2UQhBcQ1pc7Sxg/b8uEaJY2Dojh07Oijj3ZKJ/mTPveBKW+kNWSayJOL4+WvBaMl57uP3PJWBkCIY2bPYSfD077kGycLFyyVS39zhRx/3Kny5cjRkp+XJOeee5FbJg0pICxbmdkrD5HQKqpBqaZMelevvc09Vb7tnrsmrJIPvWaZO9cJse+bay+4cCnJKbI1c6t8/c3XKuP/55aFMuBAXh6ajmZC/3Aw10knniQHHHigtG3XzslKrmtL367s3ecQP84gYLLXnZyvFS0o8LO0LHOGbLm6i5Iftd2J/mrbLK730/uEUS+/rFrj4oeHA5+fXC9TJn8p//jXX+WC886Xhx5+UDp3YW9tC72bq+n7sD4OfYfBbcZQGv1a8bFg/gJ5/4Oh2tY8p/hAoPLdQBptykFnrVu3URL3olx11bXy1FMvSfv23eScsy+R2rUbaTz6DrnzJJ1nETj50wR51JBV7VG1S1jS79zxkpKkmWtnI++E0Z7XtP3ZEZgtm/kix3D54x/vdodNIqsQJ55pyutXrNSQPn37SN8+/eT44090cutl0n+GLT5eZS/W7345Pln694mXObaacPYJbs0/j/eWtojWzy3pV7l2p/Cr7cNwT40GcuHVIPNSwPsTd6aMGv2F/Oc/98kppx6nz9t6qVotQ997v3Xv3CIUl0Wui/uVHljS3yRN5JHMYTJp0iQ36McWHfqBdqI+0fce19zDpr05tI5l8wzMsjqMgQPCY+BWnA0BsWXLGO/xunXrunukEX0HWz7RvHYVpGHpMDjFliwGHNguxpJ9fvssX377+Dwtn3HlN+aqq65yZw5wv6j/fFr8FvF7Y+UGpMFgAQNM2AxmcFaM1QFTEmxJf4Pl0+WzvvFu1RlpAyu/5bErIB4o6yX9gfAHBAQEBOwz+CUI/72z8+XWmfFuD/8lDfLc4XYPPPCAm43nFGR+vHekGKCoMMvFJ5E4+I7vqPObx48/QFFhQIBZXJQ89jRi2ywPhBmlYXcUEANtYCoB+RrBRmHic0nMxPG9fAg/eyxNqWJJLvf+9Kc/FRJ+CCdgRs9mRkyRIQ+usU2RRNmk3dq2beu+k8wMjMHCR/uBPfxPLI6Tv+aPloKJn7k9wbYclDSxo+F3BwUFHJQHieECQlEgy5etkvPOv0QOP+xYmfHDPCUwBXLSyWdIs6bsh40NYiixgADZMmdP3im/ypJ2j7PVsIefcQFPuFD2vG17qL3RayX7fDaPdJiV5ctnGzask9FjRimRe0o++eRjtzrC5U0baybMjrLfnn26bdu2lwsuPF/2GzBAqlWr4dJBrCD8kCBmMnNyPCEywm97+JFLwu4S4ddrymGyRLgNG1bJmNEfydPPPCJXq/w89PC/5Oqrr5A+/XopufNtVdTH1m8WHxvD/d2X730JI74YIUMuvdy1MzPfDOZA9NkDfcABg6Rr1y7uObj88qvkwguHyDtvfySNm7SS0049V8lUE21v+pNnJEb4VSbAzhN+T04SNW+NrvdV5jQMZJ/0EpNI27871q5ZLR9//JEStrfcFziM8Lt0iKwkm/LXq1tfBg7cX0477XR3fglnTTBooE+Byr8LHpMxBpT8u8pfx0tuHrLv5c4Tfr3n5Jc4O0H4XVtA+PM0bKaMGTNS/vWve+TU046XzZvWSI2aVUog/MVlkTb07bg3YHv4H8362P0WHHrooW77k71f7b0HsH37+H7iHu/XP/zhD25QiC+iQKotDCu4GERgpRB71RlU5vwZlshb/KLnU2sZce8JaHsIPds7+I2B+DOQwaoty5d3GwO6nF0C4ecsGVaBWNktHcqDDfjtwm3twW8r58PwO0Hd2QbGPbtfEgoJ/4rpMrxvglsZYIMJIJr+rsDKHPbwBwQEBAQEVCCUpPiYMhK9xw+5/dgDCxP1A8yO80PPTAaGQQhINgctMcPOwMS///1vpwCRPqQMBaGkcuwqipeFa9K3E54ZWODawlEnCL+fZfaKFso7900BtXJZHPzsPmA5JwosAxx8FopllxYWm/jRNMzPQBlAadQ/CkoA3dYcNXHtOyU/lTLSHMHZunWL1KlXR5JVed60aXOsvBANygiBgHhruV1KEfhEt0MNuIGhPj4gxNt9BlDJCGcG2MxmjZo1VHE9SH772yvlsssul/79OVAqQ9sAhZESq3qnxH3GjFny3nvvyb//9S/57NNPlbxs0vQ8KWc5NnzKnz1Au2oUJUtxuCVLTabmq0TOMb/Yff5Tt4O79rafeaVf9ELLr10scUoKC6hLfJ5kbt0oq1YvlZZKStMrpWq7JSlZaSstWjR3htmzli35dBiGa4z/lJg3rZziW3T96zZ8Xq+ggNUZCa4dTz31FPd+4MCzk046WTp06KSEoYr2A+RapEmTZpKRXtmd15Cfq/2jf5zc77vR911hv/4EPAMm2/7a0wf/bCiP1kt9DzEYxIXKvQ+PPIjUVPJ27LHHyZVX/k4uvPAi6de/n8vJ56m2ikhOdo7wZY5XXnnVDRhySjyDheTB4YIuQqwM2Mi5f955l/hyQej9wX6xsFg+J73C8gG32RGg4eP0OeFJjVM3Ln3MJTebL3CkSfXqtSRO29B91cDVOWpItbjZ+6Dd7J0H7L2Hbe7ofXvP2n1WT3GwKr8pkGd+Y6655hp3zYF+DAwwWM35GhaXd7YNAFu/7QlII1ou0gcMbOOPn93P1d8b3NQJwm2/L2asXsAGP4DZANniHqQdIh29t0NEqhut+y6lUQ7gWzggICAgICBgt4CyaLYpASgGKChcY6KKAjBlxdyAcKaooVxZWtgQbva2n3/++TJw4EB3Wj/fGYZsm4JUGiAdjBF1KxuHHDHbw8FKzMhY+TGUGUMZmWV3S8djgwKkY8qagUED/LjPcs4xY8a4vKhfdNYJA4hr6YHoPWbDnR0rN4i23Z7A0wQjEPqfMoX0SmlSu05NJSNZUrlKZdmgCiorDymHn31W2wUvIvyeYOh//FNibAqku6sko8gDm3ZSo253FQtPWIi6D5/vPmuXnJQiA/bbT0nedaqwX+uWvfbu3UcyKlfRMFoWCJ2btYyTr7/+Rt544w23+sWlo1kUuH5h3yv7wH0+4u5xc6sSwmzhs4cubwYx+CNMBC4a5aNY7j79qop6vMZTwp9XkK22Ev4sCP8y6dihncrsJqlSOUOqVM1whNX6jjRYUl1kUOZNoTeCFQA43Z5P2B1//HFK9K93hplClmq7Mzb0r0qVavos8CzmaXtXU7Kvz5ES2QT9YxzGOtP3YaRjtZm58v6xNsd211yQOtRYybb+78Lqnzv1n2DaXzYAxIoQPgOITLLC5Nbbb5OrlVyecsrJcsCBB7hw8ZBpjciWGOSME9sZzFy2bKmmrHnE0mJgwMphK00onZddK5+XE7NdAL3h5Mj7uHAaQA31wCdB4gsw6lTRzctWed2yVZ+vVMnIqCLr1m/UZ726I/6eNpmxFAtT3uvgWaC+vBN5t9p7GmNuex/b74KF570MCAe4b2F477Kq7PTTT3dL+SH9LKFndh1YuubG7Clcn8YMBwRC5tmyFv19IE+usSkX27YIx338qIuFszJB7O0evwXc58A/PvfH75MNXOxKHYrXmTRLow3KEr7XAwICAgICAvYqTGlAGTGFxmBulBEUFmxTYjCEByhGEGP2YTLTb6dHR9PaXVhegLxNaWIJKJ9+Q+FiNh6SbkojNgoZ5WFlAmVDIaM8FgY35Y9eA9JhFgmlks/02R58wlmdMMz0WVuUJSimN57skj/90rZdG3dYH8R208Z1snLVCq0fS9+9Qkz5rf9AST3j62bpF9XVESWNhu3cGhZykxP7Vj5twQDD6jVr3SBIYlKi1KxV02214FOOV1x5pZx+xhnSoWNHJSm2R1fTyM+T774b69qb7/W7vBxp8u1KXp5EIZe+/6mHC6tu/DDA2e465qEgrMsntgIhH3nltqsPX5hY506Mr1mzhpZ9lbRq3VIqVeLwR+JFVVH62EzA9sAnxdjWw6w+nxjrqP29DaHT5suonC5Vq1Zxq2/wW75ihTv0LC7BywRyXYRIexd16w7hZbZIjnwqfhCAdwIEbsuWTYR0ZWjapKkcNvgwuf2OO+SG62+UI488yn1C0J9/wfvPb0v6/PMvZPr0790ZE8g4fsimf84gezwPnrAysEZ+XkZ5jkgpZjs/rqOIevgy+yeNOPq+yeV9xpck4tzA2vz586SOvndtRUR5hq+/P2iQdwXvCPOjPgDbyUgM3AP87rAVi5VWzLSzxB/b0gDWz6UBykDapMdWLn4/+EqAHcrHfX5b+J0gf861YYYeWHmAuUmH9JAJKyNtwG8kg8p2WB/hMdQlms6+juhbNiAgICAgIGAvwBSQ4goG1ygoKB+mWKGsWXiUHgzXGJR3FCBINQQZJc3CWZzSAOlFgTLGt/dRADnRGWXelD8GASASnTt3lj59+rgBAsplZQbRsnEPRW7UqFFu7z77dTkTgLpjyGPx4sWO2NIm5EMcu4/Z29BcNB9sNZBWlyd2npKrDrJs+WL1V8KtHGDx4vluT73fb+xBfSG/VtZouWNWIZhFNaMx3X24GHa+/ueHGzxpX6ftPHX6D7J4yTLJUmWWvcnaPJKaluaWeZ988sny5z//Ra6/4Xo55phj3CoEaB0ytnDhIpk5Y5asWbPe5RXnzhkocAr2pImT5e2335OhQz+SH3/8wckYp/nTbb7vzADqUlRWkJvLIBaEzcsr/mwN4GsGkKYli5fIwkULpVr1qu7wyU6dOkpamirfWn5gbVOUTzS/gOJgu8Oll16iZLln4bPm290TGd4hXLdt206fp81Sq1ZNfU6XKwFfqW0OWfbtTTz7c7PkMXh5jV38DNgW4qmENyzpd7P6StTXrt0gM2fO1v6ep2n5AST6lJVCHdp3kEMOPVQe+PvfnazuP2ig8Bk/DupjGwJxfvxhpiNr+Xk5mq6+I12ZfP1YJTJr1o8yYeIEydy62aqjoA6E84MZRXJqdiSog/rrPzeopzepTlbWVn1GVktGRiUtS5ys1jZj4KT4O7E8gv603wRkwJ4rys5vB23Huxd/+50xgx/PPcZWa9ngLSCMyVhpgHSsvGxTOeigg9wKJD7vyvuK+7n6/uf3BjdnCkDaKTdxsIGFBVYPKyfvNt43hPGHQSa7exbu14TyL70BAQEBAQEVHChappigbKCsmMJifihaEGnCYfAzcA2xZlaf73Azwwehs0/ckUZpKDCWDnmb0oThRGcOOyI/ysBp+oRhdn7cuHGu3ChsnH5MeBQ1/DiAkNkVGyDAEIeZ5ldeecVtEZg1a5b7hBxLeTnIiD3nXK9YscK1kX0GkLikTbn2NiBAzOhxAB6kxn8PHLKRJ40aNVQys0b7JEdJdm2t2yZHpFg2zJ8vJ6n4tvMDBnoVGzjwxl/7Gf1i1+p2RF/dHOqXnOxnOPHP0XZlcGXu3DmxfNQzBtwowhxoddRRR8p1110r+w/cX6q4Jf6m9PsZM/qHPcusVBin8sQXEp5//nm3jPf99z+QsWPHynrtG2ZXIXCujK5ssbJSRr3GgZ/JNi3nFGotd05ujrrjHMFYvXqVVKtajVLKxAnjpVmzpk5uo1syiBuw86DNaHLX3s4d+4Rj4Xsm3h3ayLaf6jWqS3ZulqzfuE6v9R2jcoyM+z7z/Wm2+WlXxeDzKTJexl3/x+Cj+PQsPjK2ZOlSR7g8yfTPP6See8gV77GDDjrQ7SHn/QEhS4qRuSyNA0klLnH4RB9yxGn/H3wwVB555FF54YUX9L24qjBfI+4UoVBenZxaGRVmR4Ac8lrhGebzgLRRgwb1tLz+KyM1tP3K4r1TGqCNkQHakPcBBj/7bQG0i4XDcG/hwoXuXc7ydwZgDz/8cPcuIb69f/1zWjqgPTHkz5Yxzqfh3cRXahj0JT/edV9//bUbgOBASlsFhvzwqVp+RzjvATmhTva76uUrz/lzYB/bFTgIkHvA2qE061PeUTGkNyAgICAgoAIDZcQURhQZDH4o6LZ8cuTIkTJv3jy3rBGSDPmFBPP9/Q8//FCeeeYZp+AShtOG2bPtFNpY2qWhvETTsLQB6bOk8tJLL3VKFJ8e5BwByDlKIkuKWVZuChfpoOjfcsst7mComTNnOiWMurI/lBP9X3/9dbn11lvdZ5g4mZnP8eHm8KjZs2e7GSYUM+KRHmWIlmlvw00Suvy48u3LaebNmjeSOnVrKIHaLM3VnZefJXPm/ihbsxjUYJUGs5y0mVcuHdQPf5+W2m4Gn7YuZiyc+2wahwPmqBK8tVBeIGnLly1TYv6OWwGxdSuEiD34fkVBVhbufD+L2qGd3HDjDdKvXz9V2v1y7wRV3vnkGSebb9i0Wb786iv593/+LRs2bpT777tPbr/9NiXqBWrfLsM/H+7Sgrhr9uqOldnKbWVVw6ws9c11inauW2aNvTUrUzZsWK/9P0M6duigddmkbRivhKKRJ/yOffkBJv0XsJOgL5AJ7/bkjTak3yHNuFlx0qRpI1m0aIFr24xKabJ27SrZtHmdhvez5hbf2/zv+9bLZ+za9XfMrX1lzyCG/vb5+2vkk/AJmndicqLMmDlL32EjlEBnO1lmEIJ+Z+m+Lz/nk1SVgQMHyZ133iUN6jd0YTO3ZEmiEu2UtBRJTUt35w/MmjVb3nzzbbnttjvksst+K08//bwjqdEtIZTBUxtfDzNObp1NDewaxMqtl7QHM8KrVi+XlauWS/MWzdS9Quo3qCv16tdT+bY45R/8rlAv3p+slho9erRbUcUAK22Gm0FVyPQ33/jzPfjsKmcnsJ//nHPOcYQfWYrKGUC2SgOUjcEE8uDUfM6m4RwKvpf/2WefufLx+8IABIPbDDjb/n3KwOow3lN8ohZSz8CQPQekS1i+PsBvKdsU7GR/2sYGQn5NCIQ/ICAgICBgL8MIuRFYA7PdKGB8g3jo0KHuBGEUlQ8++MB9qojvEt9zzz3u5GrIP3vdr7/+ehkyZIj7JJMtz0TRMYVsT0AZowMT0XKjqB988MGOnDNzz6f4UKYg6gwEsM8fUA5IP4ocWwFYhsksPYoWn32C6LO3l9lHBgow1IsDxzhBmtkYDlhiVoe2IH/KQhmsTGUBv1fYZgwxnj5UrVJFunTurH23we1Dz83Jdsrnpk0btfJaPi0v4Sk3dlHfWDo+LW9ibgiT6tUa1BmumZj0AyiJ7gR0ZkRR27ZkZsqkSZPl8y++cDP+gO/rJyRqX7mZSm0vTTRza5Y0a9ZcatSs5cqCwksfZWRUdsSfFSPI1JzZc1z716pVQ5X9qtK5U0dZu2aNIwH0UxLpUvNYmd2EqZXb2Z4wmdsd9KfXLOdndnn+/Lkye/as2MqItdK2bWuprwSKMO6gN+IUtlHAzoA+9rOVntTRvxhg/QBocwj/lsxN0kCfRfpzg8otssIsP/ExhX+xuER3dozIQ+gdqUc2I9eQexuI88+n70uW9ONmSf6ECRPd+RHc9+HYvuTfJ8TNzsl1pL5Ro8bueUfUmPFt1JDrZDe7v2HDRrfih+/216hR06Vl6WVnZzl5d+UzO+Z217G6eH9140GtY/e9W8ucn6tlydZ8lsvSpUukVs2ablCNrUrp6amF7VueQX0op7Ut4B392GOPOXLPO4A6Pfnkk+4TsHfffbfcdddd8sQTT7il9AwO+i89nOTev9E2Qt7o29KApWvpeVkWd2gg7//nnnvODQrzjuK3hd8YBgW8jPnfAMrHVgBWlfH7gp/1ETbps3IBWSIc4YHJjZlfCyrUd/hZjsFMQkBAQEBAQEn4z3/+437Yy/I7/PfPEbl5hsh/O4hc0jDPzX7ff//9TsmC1BLflBRgSovNMDAAADGKhin+08w9/EyxQaHjGn9LH6XJ4pcGKCfpmYKEm7y4ZqCBMlMH+zY1ZShO0G1JLlsCqCfhiRetH27CUn7c2KawkhbX3Ce+1fvSaXHuO/z3yBjJHfuxXHjhhW5woTRRVEZPaHNyOfxM66866qhRY+R/jz0p7dp2kdmzFsnyZevknLMulI4duivpTlWSwSwT7VBExpyJfefcEzb89NqRdEicZuVOp/duwiUmabsnKDGLtQuE+eVXXpQ/qjLcunVL+ec//08JSQe9He+XQsdkSmNr/HhZtHCh3HrLTW4WD0X6t5dfKV279nAEfvjnw+TOu2+XrZnZct21d8gRhx8jWVtzZPLkSXL6mYe7A67eeO1zadqkpSSnV9a6aH208syOavfSLN5P3fQP4IA+Zo+TkliuKzJv/mx577135YcfJ2kfnSyvvfqiHHXU0XL22Wfqc5pOMV07Q7hoE+r8U+BXkv+vF7QXsuWfGf+82bvAnpucvFxZv26DEqbLpWuXPiofafLVyNEqB0fIIQcfrkKWprKnBFth7w2La19HwNt/c5976qeyWOiv/+GXrH1N/9OPSckQN5URNStXrpCHHvqPPPXkEzJwv/3k1ttull69emoczvDYKqmpyfp+4PN3KY60r1mz1s3kLpi/0A1oXnDBhY7M+dlqLyesZoEMsnKIurOq6K67/qjPfmutv3/eWL3ClyhoF3eOhsonbvz8oZLbvntcu2l5tcVk5apl8v4Hb8n4iaPljDNOcs/IueedKQcddIBU0udBq/6Lge/wN0kTeXjLUPdbddRRRxV+hx9QF/qG+uTqu5I+4X2Jm3cu4J71sdXd/Hh3kxaGexa/sI1ilbf4ewrS5beBtMjbyo+fLdG3e1YODPkDykc4ysbKFu5Rdu5beQlD3XmX0Q74ITcYC2PpFUfhd/iXT5fP+/tP+hGP8Fa23QFxQVl/h7/CEH4E4NBDD3XLAQMCAgICAkoCewCZGT/llFNiPjsHfgpLg/Bf3CDXEf4HHnhAHn300ULCD1A+TMEgP65xY/DnGnBdEohjaeFGMUBRwAbbi7crMJWAfMzNMldm6z258EoX98kXt9WHazdDp8CNsTjA6mh+Ft/qQDrWRoTBbf6Wh9lDpspeJ/xWFs3SITcv2+ev7hUrVslNN94qtWs1lBrV68u476ZIjx795eijTlQCVElytUsg9J7IFpUfwu+vY+lqd2JjNCs1hPFu/AqUhCQkFg28sLf41Vdfkd///veqBCfKYYcfpuT5dNmv/wAlWylK6pKUoPnPm2VmblVZ/EiefPwxt+rg/AsuUKJ3qKSnVda0cuXZ556Q239/i7Rq2Vpuu/VPMmj/QyQnO18mTZogJ596iJY/UZ7435vSs0c/Sa9STftCldGfEH5vUKYZ4HD9qm6Jy3PtNXnyBHnjjdelQ4cW0qxZTX22npe//e1v0rNnd7c9ooi0IlO+3j8FniXe+BXDD5IUbxvkFdCeyCkz7M8887z8+P086dixq7zz9lBp2aKNnHnm+VK9Rj3Jy/czq17O/SCRv/bPOLtSOEcC73g+tegMbh8ecp+c5J9rjSFpqUo+Na5KgSP8D//nP/LYo/91hzXut19/uf6Ga6V1q9b6PoGg5SoRq6Rx82XZsuUyduw4uevOO6VRoyZulplvwrMahRl5niUtkNsW8MwzT7tl3JSPff/33/+A1K7dTGXJyxNyysoDP0DFeyYml/p6NTfGwDtGn3Ytdo5M/36SvPPuG1K5Soq0adtcPvjwLbn3vj9Lt25d3IqVXxJG+B/JHOZ+q1hpVZzwA9qFOmGbG9g7CFPcH5i/heE+adt7GLfdt7R3F5YHxspFHrwLSNfevfhZ+YDlb25gcbn276Ftv3JjYTBc25J+whiKpwm2R/ijYaLunYXlFQh/QEBAQEBAGYOfwt0l/PfNKZBbZsTJw+3z5cK62W5vO0vwIfz2Y00a9kOOMmM/7Pjj3l3FYXfi7Sp2Np/i4UqKF/XDDYrHMeDPdVRxo63AJVMKHOH/a8FoyR//qTvPAMJvYaNp7jn8wIT/eLla+gdJeeaZZ+WLEV9Lm9adZfashbJpQ46cc87F0qJZWw3vZ4KY6+TkehRFliZTrqQkFE1VQGP3XHndQADl9rarplYhLk7Jc7zG00vl37J580Z57bU35AElzRCx9PQ0qVGzhpx73gXStl1bqV+vvhucYasIJ14//fTTbub/ggvOlx49ekq1qlVUuUyShQuWyKOP/Uceevgf0r5dR7nzD3+VgQMGyfr1mTJ5ykQ546yjXT1vv+V+OfbYU6RqzTpKvFDMtUbaDNrMCmQYG8Kfo+Wx8tNeObJ46SIZOvQDGfPdaLnoorNk/LiRUr16NbnssiH6fNV3berrbCSiuDpKrUuzH/cl0FYY30b23ETlnmXuTJZ99914+f0ddytBPFa+nz7LkeaTTzxDWrfpqhGSNa4n78goNknxHHnZ9CQE4u9m+CH8+LlrhFSv9X9WqUDK4/VeYqK/v2jREnniicfl5ZdeUtnlALkE6dChvRxz1NHuPBCWWicnJ7lBWpabv/HmW9K8WTM5+eRT3EoAvoNP2TzI28vf008/Kdddd53zZSLwr3+9T+rXb6Vljg08ODnlXaLvWn18XBp6nZ3N9hdfV8LhSR1w5+VlSW7OJvn4kw9l2McfaBmOlWXLF8i6Davlzjtvlzp1akuixvMoIqBlCQh/49QCeTTrY/dbxR57tkFRB3uGjPDatdUPmGxgR+Vke/DPZMmytTdg+UVRkl9JiJZ1R+GLh0HWzS/qP3tzgbT+Kl7qL5smIwYkSzOVTZ4RC0u7WlvvCogPyprw/zJSGxAQEBAQsI8BBQCFwJYXFlckoopB9N7uYk/i7gp2Np/i4UqKF/XDvaM4FsbaChtjMAWMtrc2LQtAhnoqKWEpMp87a9Wqhbq3KqkdK3zWSwui5S0K68svSva92gX519oRzN0rMtteEzc5KckpgCjzzE41bdpMbrr5Zre0+ZlnHpdLLh4imzZtkX/+40G57De/kYsvvEhuu+12+f77H+WEE06Sq6++Rgbst59Ur8Ysfb6WL1vby84E8MSNmXtWcjhyoATJt7u4k7DdoYAxYk/5SkKi9oPGcOSPNGwv9Ny5s6Vb1y5uWe0P33Na9sFSrVpVTQel1udDmTRll05A6QDZoT8BJBtizWGfTZs2lsVLFsqESeNVlrIIqf2A4XN0WU6+mCW31RpReJmMyYCzcWgfamT6EiBTOTl5Sp55FyZK3z593T7xF194UR579FE57LDDZfmKFXLLLbfKkCG/cQN1v/3tb13eZ55xhlxxxZXSp09vfU6SNS2fv5cRzRs5sfzV4cvj37Pcd2Fifq5sEYNFOCbp+boG9eXZYkCEtFJSk92KhDlz50jjxg3doNm3334r/fr2lapVkVefxi8N/1z6vuF9YO886mFk3+4RDvB8Y3wddr4SFt/y3NsoKY+dzTda1h0hGsa/e3wb4U/7eHkqGmTmpUb7Yiw89/jtAbvSpr8kAuEPCAgICAjYA3ia48knZAdFGyXAFAIjaqZwmXJhyhn3HNEK2AbWNhjazPyM3HsP72dtakobprTgZxk1/4KYiaFtm9bSs0c3WbJkgRKGBGnUpK6MGfeVLFw8R+ITOaHePkXItgj2pfq9yFy7fcSu7D599hfn50FsuIftzZbMbNm0WQk6y+nzE6RKlZrSo2cfOero46Vz157SpFl7OWTwUXLMsSfIjTfdJn/6y71y95/+KtffcIvzG3zYEdK1azdJSEyVnNw4yc1LUDKuCmxOvuTG8iBv6ldQkCgpyemSlMh+WV/OjRsz3QFsrpx6bXujmT3FZlIek8jsrhJHzjnIzsmU5csXy8QJY2TjhlXStm0zmTplnNSqXV16dO8iaWmphf1p/ejJWqydC41/rgJ2FX4WHpKflJQoVapmyNHHHOlOnK9cpZLUrFFNpk2dJLPnzHDh6AsGYFh5Ys8QckH7+77eVk6ZQff75JlB135zMstMsvqrXOSrHBVIomRUqipdu/WSww4/XHr06Cq9lcgfd9xxcs65Z8mdd/9J7v7jn+XPf71HbrvjTjn5lBPk6GOPVnluKQlJaS4+ywRceponhlckhucE+aN8/vlS0utk08unl2mL523KT1sgV8ga2xKoL2cO5ObxJYwNMklldNr0idKqVTNZs2aFhs3Tcuuzw2AGifPAlgPQPwbc9J/NNEcN70BIKjZtlKu/Q6X5XtwXQDtZ21j70J7+mfBtxSdZ+S03f4vD/YrUnjwxAQEBAQEBAbuJfKcMeqAQMDuEbcooCgIKgyliBlMuTJkI8DAlytoH2CCK+Zk/5B837QzMjrbz3gIHSXFwVkZGukz/fqo0bdZYyxIn7777thLeJUooOMDQz34y2+nPN/DlYlk91bQ6UWxz+2u11STEJzniBjHjZHNO6+czZm6JsaaXqOSoarXq0rBhA/eFg06dukjHTp2lY8dO0rhxEzc7yQn+7vAyJWyofXFxCZLnCLa4Q/5obSPc+EWJQbyG9feihrJuW16IRU5OtnI0X99Zs2fK99OnSpcunZWg5ciMGT/ICSccJxmVM1x4QF+RV8DeASTefyIxXg444ADJ0T7iO/bdu3eTNevWuK0WmVv5NruGcc+UbTeB0Fg/F/Wxv97WEA7jV4wwaFk0YMBKJ75fn5qaJlmcpK/hOLwT2e3WrYd07tJF7a4yYEB/qVad770nORl3gwhOVhmgYmDK580WBZOdKKwsJZki8N4oWoaNTZncChp9vvgU3OTJE/V5yZAaNavL+Anj5MQTT5BmzZq4wYEE3jdl8E7ZEai/vePoM9/Wfgk4xgZD7ffGwD38uFdSG/7aYTJe0u8G/rSfua39yuI3pjThaxAQEBAQEBCwW7AffhQBFCpP9LZVxHBDbmxZoIX1SnJAFFFFytrK2pS2xFa1y99XUsMAixFHC1M60L4pIF3yokyky8yPNxDn5s2bSb/9+kp21hbt2y3Srm1LmTt3hkyY9J32LX2dp0SY5bUMELACJF/D+SXF/sRw6miyo7ablfR+HDKGeGRt1ThZ7I1O1fsJsnVLnmSqyc2hTJx4nu/C5OdpogVK2AoSleRpm+QwUEL7+cEG2pLl1hBAyFhSYrLG0Yz0WjmW5CjZYp8zJiGBb7knSa3atd2MP18dyHMzpdQdW01s5tSXnVnTeElKiJN5c2fJyC+GS2pakrTv0FqmTB0vffp0d8SO9qCPkPtof5odUHqA4PJtee0dldMmsv+g/WTWrJlSrVoVad2qhcyeNUMWLJir4QokK4svZ/htHvQnzxPdsW1fW397Qo/hGXDPhJNZHwbZRYZyOLkSeVQZLchXkp0bp8SZZzVJ/f0Kp9wcJakq09nZieqXLIkcVAHRV4EkHZUMly5iyvNC+VTUGFZw4TCUCdl2z0xhOc1QXu9v99z7Qf0YRHRbGPQZnzxlnCxZukAG7r+f+m+RdevWuJP5k1OS3KCApq5x1Lh3AeaXgz0nruxUWoFtzxGgD/mtMeKfG3s/Fh8I+LWDdqLNkEVbcWeDJrgtDG1m7UZ4jN2vKAiH9gUEBAQE/OrBT+GeHtrXvXKBXNIgT3748Qd54fkX3CFyzAKbEoYSgVLBp/WOOOIIqVK1ivNHf4wqFAEekHmUrx9//FG+/ebbQgWLA8LG9h/i3L3fuEWObVJJzjvvPGncuLFTcmlvGyDYM6iSrHmqSqhuvz3DI1YOTR4CO3/BAnn22Rdl4YJl0qF9N5k4YZosXbZSLrrgCmnbtpsq2cwo8knBeCVWnlRVrpyqCrufdXR9r1mQHm7ExYoen4hweKLB/n/fBj4O31L3ZfGzTpBuDkbjHnmQBsELlPTFxTH4oP5aJfbbc4L/M8/8T+6//25p1bqt3HTzXdK/z/6SGzul/4KLT3JpPnDv/2T/gYdIckY1vVZS7quuablsfQaQIU45V+K4aOEcefvtV2XuvB/loIMHyqrVyzS98fLPfz4gbdo0d2WzmVyeBUA+rg0ocMBOwvc7soApfDZcG3oSyFJ1pBfSTN/NmbNAbr3l91KvXgNp3KiFjBz5nbRo2V5OP/0sycio6gaAPOFn8IVVKJyPoeRYS1FsAAAmvklEQVRG3RzC55JWASAPZNQZ91j4mX0Me/+R5dxcPrfmB+rinfzyWU2/bYBBLPxVDN2gAM84pU+I42A/P2DAwFQiRNtVRf0c2c7XMCLPPfes3HzzDa4snNL/xz/+RerX47N8fO1Daxz78gCJkhckn7LTROzf5wb58N193slTpkyUV197VqpWTZYBA/vJ119/KZ06tZXLf3uJpKYxCKHtp38MlFFL/y7wrrIEh/bRCn+R72T48OHuCwypKanufcgfYIVNzZo13ecK+f2B6POcUfY8fVclaIfxfgzPmgdyNXPGTBk1epQsXrzYyQztiUxurlxXxu03RKrPHycj9kvW91cb1248awwyY2N2tT3tWQ2n9AcEBAQEBJQx+CncXcL/3wUFcvn0oED9Erh15XtyVPPq0q1bNzeQYspSqSi1BZ4cOAW/QMmP81TEkvWHf0Ec8lV5+1JJ/0tSOaO6NGncQj799AupX7e1KnPnS4sWLTUsy6ZVwYR0qzKZns5Mp0+HYkKOXHn1nx8E8P7MzvrvoEM6lMTr/ympEGaUzVy3JJ9wzPaxBSA5JVmV+zjJ5lBAVWYT3NYB9uDzbXzIVoFbMs3M/seffCAPPPAnDZMsV//uJjn4wMNFOZBMmDhOLrjoJLcK4PFHX5c2rTpJYnplTUPbVMkTDUE7u7K7VtH0tCxbtqyXDz54U0Z++Zn06dNNatepLiNGfKKkbKBcddUVbum0i0MSGo3tDqZAR/stYGfg290JDL0QU+W9zPu+QeZykNG4RL2R4Pr84Yf+Jx9//Jn07tVf1q3Lkunfz5Wjjz5W++gQjaFkEGKoJJxD7LKzWBruv2teRPhtJtlfx+k1xJmZY2bC+dQi91gtgEyz/90POPlT/0F2dp7KVoqTWb7J74hoosbVP7f9ROUT2YBoQ/whYK5+KmPqlBdeeF5uvuVGV/MDDxrkCH+9em20fp40sX9fnyJ1a0s4wq/ldDkzwMCe9lz3DNFOixYtlNdef1kWLpwp++/fR5YsnS/z5s+Re+/9i7Rv30rzZgAk9vlUlwppxwYUyhiVPhbZ4rs2oAzRLXepfNw30W1HMWLOM8Bgipf7XVs1Yc9qIPwBAQEBAQFlDH4Kd5fwb1YF9bEF+ZIZUcaIwx8zQwYIGcor4J7t/XchCb8LSsO+DPrCtRtNZ02ibtrH3eG+mlYZiXJSbTR6v3ICPxQlU8T2uD0LOMEbbJ/wWxZr166XN998Vz76aLg0b95aqletJR9+8KU0b9FZLrrwYqlevbqWjT3SSY7EJCiJ59N9wKdB2dWhJMkIvwMESzkG9fLXxGX5MvXzhAwFkbr77/5rSq59vO1m/DWqX0rvT+4mbr6Suh9nTJHH/vegTJk8TS655Co55qgTNGC8TJgwTi6/8ix3BsDTT7wlldJqSH4i3yDX8uZrwVz61hoq02q2bNkoI778VD759D1p1rShtGzZSCZOHOu+ZX7mmadI69atNe8ihZZGjFcWaX1Eerj3uM9+NaD9MbRXjBDjcu0XI/xKxCHVblBIvJzMnjVXHn74UcnMzJP27XrJhIk/uAMl+RRemzbtHclOUvLNNpG4OLZ1QPi1X5wMkqon/Fz7vDgfIleSk5X4uBUB5E0/632Lo36eNLNqgC0ohLfngOeK8vtzBNzBf3kMFEDYkXPk2u9NL2BgQcvy4ovPyc233uRqfuBB+8vdd0P422o8TctlT6bbEn4vc+pwMlgguXnZsllldtiwD2TEiOHStVt7qVE9Tb75doQcdvih+jtwmduCk5+vz7irhxF+nlnSL3u8uERk5Frq4/u6OOwZit635yl6z/VfzP/Xju21pYEVJRc3LJDuVXjfF53/QPvxbPmVKrs2AGR5BsIfEBAQEBBQxuCncHcJP3HtxxqbH2ynyMZ+Xi2+/ZAbuM89swM8ircb1xhThgD3ttd2pUb43VJloH3GzLYh4oTsWHmXLFkur7zyunzzzSjp07uvXq+TUaOnyn799nenk9euXV/TISSzizggFJq66otOLDRdrZE61BNiwmypq6d6cRuH+ouSJ2Zs3XfPNR6z9rSNIzLuRH2uff2t3difb7P8ECKU1k2b1ynheU/efutt6dixm5L+y7Sm8UqAvpB/P/SAnHD8KfKbIVcpkUvT+Ci1Whb9n7iUMYFl0blZkpW1RYnjdzJ06LtSpWqKO5H9++8na1m2yk03XS+NGjWU9PR0zd/P8hb1YSmswvhVA1kpqf2ckLnnwMmRygptna0EhdAjRnwlzz77gtSp20Tq1mksX375rVStWl1OO/Vsadq0qSQnpkhmJoNoqRreD3QV6LNA3ykvcVcFmi59R/e5flWyjzy6vtVrZBcgnxgGnHieEjk3goHPWL/75xd59INR8fHs73e33ICF+qiff/4LNI2NG9e7Gf777r+H2NK/f1+58cZbpEOHXnqdKFlbeR7jJDkpRdNUUpadpzLvBxF4NpKSNUUV5Y2b1ulzOkI+/mSY1KxZVdq2ayrfTxsv1apXkRtuuE6aNGkknH/AYIetTPDSb+aXh713wLbt6fvBfmtc2xXzt/ABJcPaNtquBmtD/KyNdwWWVlkT/oS7FDF3QEBAQEDArxYrVqyQDz/8UE455RSpXLlyzLfoR3974L6FwTYlIOoPom4QjRNQhJLaLdpWxa+Lg/YvyX/XQT9iNC2SM/MTeGJdqVK6kvqasmjRfJk8ebw7sK6WXo8ZM1oSlcfUrl3HnenArKkj6Wq7/bdOXoqUcmYU/b79fE1ZM2SwQXVEpyeqGxLmoNfwK0gR9yBSXHFdFB6j8fOZn2SmN0Fyc9i7XCDpaZWkSpXqmmeSzJ+/QJYtWyZz586VVavWSMtW7eTYY06RDH0O2HOfp4Qf0uT2WCsRUvqkBCxbMrPWy5SpY5VEDpPq1dKkZ68usnDhHNmwYY2cdNLx0rcv31TnHAt7LrR8jugH0rHn2F774e8NAz/OB7lSw0BYzZrVtY/my9RpE6VGjcruZPopkycqWc6UVi3bSpISfQZ5kBtWJSFDkG4niwyCqZWTy+oWn6bz0LBweh8GWfN+Lg3nx6ADqwx4Vork1ds+jjvcj+xihtTcfTXr162XsePGySeffCqjRo+RBQsWurrEJyTLpk1bnGFLT6UMtp5QXsrOOQakxcCBL2t+fq77bOTsuT/Kp59+KMkpCW52f+nSOZKTs1nOOut06dq1i8bxzx573knHZNbVtZzA2t/3gYe5i/uZKb13474Nay+DXWOsDaP3dwfz5s2TDz74QDp27OjSBKRpvwOcE9CuXTt9Rmu4e3sKn0NAQEBAQEBAQMAuIaqgYZo3b65E9ySpX7++TJw4QRW21tKnTw/56usR8u57b8qKlUuUALFMGBahRCTez5aThlITl4abkXUEyc+qc0K+O3HciL0aru3U8SLD/Z8avwJAldM4ZjlZks3qE//Js0aNmshxxx0vBxxwiCxatEwWL1mmZL+tXHD+xdK0WXNHqMiHcwQYhMgvyNG4zPYyS7pBvvn6Sxk69H13dkDvPj1lzZrVsmLFcjn88MEyaND+GjY2OwtrCihTFCd3Rir4VCOfnGvXrq1MnDRRMiqlSf/9+srUqZOVBH8sGzasczP5EGXOZqDv/bWfJXcHQiKuCgYEMMxKeoP7p4a42/qRnif9fCJS/xW778Ng65MlW7ZkylwlSPPnLXCHDrIF4eSTT5VePXvL5s1bZNasObJ27QYn2/5ANR83KYml19mSh9wKz1u+zJ7zo3z44bsaJke69+gsS5ctkiVLFsthhw2Wvn37ajw/w8qAgtXLP58BARUXYUl/QEBAQMCvHvwU7u6S/oBfJzyJ8UQWt6lTmZmZMmnSJPnf409KWqXqsl//QTJq1CiZOOF76dd3gBxy8JHSuFEzDZmoZImBgiQlIswcqaypsXQh1RAPSLvBi6IfGLDrQvncjpiSFoQtNzdHyZooIWKFQb5kZWWrG2LD1wP8KeqQJP9pNFF/bA6niu1d1fsMVnDw2bq1K2Xa9Mny7ruvS5Uq6TJgQD/ZtGmNzJ07S/r36y1nn3OmW5JK0aw+pBGepbIDbU57m40sse8YcD1x4iR5+JFHZWtmjgwefKSMHztF/abLUUeeKAcfeqQkxqe6OOy393v6/ZJ++jNRiTTijsT7PlWXWri9IRfklACsZonIcLx/Tux5UXrt7Jj3NiAMUd0BhNlK3Nmuk8hABvXj82kYzgZgRRaz8cgZq1GQd/XXZ4i4bDHIzNwk69atltffeFFmz/1B9hvQ221LGTd2tHTv1lEuHXKR1KlTx7UXB1aydSXIbUBpw+S+rJf0Fz2BAQEBAQEBAQEBOwVT0DDACEJGRob07t1bLr74IiUgOTJ8+EeqtDWX/Qf2U+L/pTz33BPy3dhvZaMSZGb4ExIZNPCHn3GYHvogxBtCzgFnTI6b0eS9ybMZUB/25wwzsBB8SJBPx5c7ISHJ7XHOyuIwtGRJSfHf5udk/+TkFI1btFc1OztT8vI5xDBHli1bKC+9/II8++yT0rhxAznwwEEyY+b3bkXD/gP3k+OOO1bbIF3jc26AJ5tmAsoO9BuGdqcvzW12z549ZMiQIZJROcPN7Ldo2Vxatmwm77z3hnw07D1ZvWa5psJAULYSEuTFiLxItsomsgXL1+Qc8cfGYbP+Xl5VBlXuTFajMuxlsciQXKHhOmaQUeQ3OSlZkvkMnRJ7TvdHftPTM5Scp7n4bB9gsCo7K8cZVqJk52yVpCS+DLBFZs76QZ56+n8yecoE6d+frSZx8t133+qz2kMuv+w3Uq9ePSfvbLuxtos+2wEBFRmB8AcEBAQEBAQE7CKMwObm+gPHmKUBkAPcPbp3lfPOO13Wrl2ixOJLad2mkRx17CGyeOks+XDYGzJ27JeydPl8ycreqOGZBY0RC2U5yUkJkpKc5oj4Nsv2WcafzyyQkjiC7oRhH7f/VFmSupOU4MfJ1q3kl6j5pEtBXooSJA2by1aCRIkrSHCz/ZmZ2VoeZvqJlys5uetlzHdfydChb8vMmVOlR88u0qd3d/nhh6myePF8Ofa4o+S0M06RuvXqaFlpHz/DC/GC+EOgAsoOkFXk0gztzzJ1DOBzeF26dpIjjzxcNmxcJ+PGjXJnMPRS88H7r8tHH70lq9culdy8TInT/ufrEHShEWE+8wexh/S7k/H/v70zf66ySvP4Nyu52UkCARMSSEQkzWKQRVGr7W5ttVGrZCyrpmuqnJnuHn/RcvnRf8SqqequrtJxZlzapce2G1lEQQURIwgJMWHNSvaF5Ga5YZ7vc+6TXCKCS4LBPB89nPc973mXm/c57znfs+oQEt6HccxeJYz2GqO9hmEoEzGGsbu8uRAem+7i5+CiiPv4igHsFQPZjsVoo4zD1nw5nrxA7JdxKfoXIF1E+4IFbJmfQN9AD+objuKNN19G6/lTuO+Bn4vYj2Hfh7tQVroY27b9CgWF+fIMUxVc3Cb8W9m+269zPeOT9jmO4ziO8H0n7XPmJyYKjEQxpYjZLCstxS3Vt6CtpRVvvvmmzoK+cdMmNJ9rxo73dmgLPkVGZmaWVhJQRLHbMsUYLxAmCrsccaGVCIMuo0lovuyWz/h8vnG5PltAdbk1uT7FFltw+XtGx0YlnGdNiGCisOLSbqM4daoWBw5+jD//+U/o7+/BtgcfQFlZiY6Fpqj6jyd+j3vu+QWysiKyH5YIDCIztPCHbtHexvRjoQI9bq/cpotxX95NaUkp8vPzcejTQ+jo6ER1dbX29Dj46adobz8PLutXWFCg8zSMjYWl/rKy0uUaYq9X1MChkoE6OVhq3F7j59ipX7uEBDDMziW0QQ5JCZGtci05dPOXNKMVVWJe4xyvH4uBM/qPjUfR1XUeXx4/gr+8/qquSnH/A/ciJfki9u//EFVVq/C73/0b1q5ZE9KtXJt/IzrarKVlq8DzfMCZSa71pH0u+B3HcRxHcMHvfBesxc+EAfdNTNFmOG6Yk55lZmZg1c036czm7DqdlpqCu39+l86W/smBj9DY+JUImhEV2AsLcpARyZCrmTjmtb9uf9aCymPBPhMcwxMcKw8oisI1w3kp7BJNwRavs6BI5+R+qekUghRNIxIaw9lzjairP4r//t8/4vDnB7Bx03rcd9896OvtwM733kH58hI8/vi/YOPGamSK2Od8ADpDuvzHGdG5XJs8RPwe8edzrglmn+ZPh++KIjktPRVLiheL7S3EwYMf44uaz3DHnVtRvGQRPhZh3NfbjYjY8IKMdOTm5co57CESuvSLxcuVaFO8D68a7MtsU7fZys/9uJu+LfImbE+EfVZAJfo0m1Smq6Q02edYZ7HRcQpxjtEPvVY4FEYuIi4maW4MsYtRdHS2YO/e9/D226+KaMrCtm33YnCwC3t278Add2zC4//6OJavKJdrsBVfzpZ/mJbpLC1T7I9z3gAJ83zAmUlc8DuO4zjOj4ALfue7YOL+mwRVEA1JSEtL1xbUlStXobi4GLXH61DzeQ0qb7wRm7dsUVGxf99+fPbZYQwM9Os4ZB1PnyZiRmfU5/Wte3zYNqZMM/EZLo0zcTGsf89nZevsBCcx0xUA2ILK7vacfX1URQ3FUjQ6hM7Odhw/fgx//NN/ikB6DytvKse99/4KRUUF8pyHVBj+8pd34w9/+HcpsFZpyz5bRnk9Cih7BivIcneuLWs2H+C3i/bF98Bts1kTFqwM4jaXtCstXYaKygpt1f9w3z5Ura7CrbduQod8F995912cO3sOy5aVIy0+xwPfZ7Cy8E5pi7xmsFHbDj4rlEJ4OEZf98WJ1cSPTRHmBwjH2UskNi52K5peKwjicZPlhmF9f24z9oRWsA0N9es4/Vdf/R8c+uwgtmzZKG4D6k/UYs/7O/HwQ9vw29/+s/a24YSE+neR32JLGBJNC/GWfrbuh99glWuO88Nxwe84juM4PwIu+J3vi4kBs5XgB8GTmkzhzsnAMlC2bBlWrFiO/sE+7NzxD+2qXLV6lRTsbsLQhT58evAAvvyyBj09HaJiYtrqH7reh1n7tQVTRA7XRQ+OooStm+zWzFuyS3IQ8XwECi1taWeBUsIo+BmPXfgvSnhMHDCKsfEhjI4OoKmpAUePHsLrf/kv7Nr9N5SUFuL2Ozbg9i3VaGk5i/fee1cKoLl44onf4ze/uQ8lJTfERRMrQNgNmi2x0/4e+j+3XfBfa/j3N4E/+T4mCUKbwpnhHIaxuHgRVq6sRFdXJ97fuwfZ2VnYtHkjIhnpIp4PoL7+K0SjwxKvCGlpKbyCnMvrh/dvczXwehTtl96Tx4Og4b10wQA5xrH6Fs9EvfY8ET88G+3GnBxTGw+VWLwOK6smLg5hZLQfp07VYdfOv+Gtt1+T55vAr399N5YsLcRf//o6uDrAPz26HQ+J4NdVWPS5pv4+0/9O5hLDHWemuNaC35flcxzHceY9zAp9WT5nJqFNWeGNPsU2Ww7ZRbi5tQVHjxzHnt3vo6bmKFatqsKG6k0SNxUnG8/i85oatLW346aVa7Fl810oKyvTWcQjkUwtCPIahC2t47xufIw85wCgr0uTieAaHQ0zrKeKOBsfs3kBKLbGVCiNjY+go6MdXzWcQGNjPfZ/tFfXXd+8eQNWVJQjNzcH3T2d2CVCv6KiAnfddafO7k5RSMHF38WeCNymgJRfqv7XYRqaakF15gKsDAot5GoTXLaRQjo5FU3NLfho/yd47dU3kZ9fKO98CzIysrBz54doaDiNihWV2LBhIzZuvA05uQvlHL7b0BpO26OACa30Ym/y39gYFXwYRsCKKlZCcbK9JBHscnOxX6YXIBodkfPTtHs/bYkVVaxE0IoqiUdbo/5nRRZte3x8WI4n4czZOhw8+BH2f/ghsrIW4LbbN6O0tBiNJxsk/BNUV6/BffffL/46FBUWxu013JPIpfX6jjPb8JtJrvWyfC74HcdxnHkPs0IX/M5MwtLVpUWsqQqACfGj0Siam1pw5MhR7Ny1G/UnGlBYtAgbN2xGkfgdnV04d7YdjQ1nVfwvKirS1qCKikpd+m+RxMnNzUNODsdVB/FN4UXBPzrKNfdjWjlA193do+KOE5+xJ0tPT7dcs1Vs/nM0NZ1FJDNdlw4sKy9B0aJ8EXfpaG9vwbt/fweZmZl4+OGHsW7dOqyp+pncM1cKpEwTFHEhbXBcN1tj+RsvD48FkeXMHTgpo9qNCGAKDU7aSBtKFgU+MDCoa/Xv3fsRdu3chZUrq3Drhi3yhpPw+eEa1NaeQCSyELfeuhlbt27VNewp1unYPZ6CnytBhDHxodJrQmyS9q/L7KVnqK3SLEZGuBIAe51MIDUtXW1VTpDjQJqIoTBcJAw9GRmN6vNy+Ett7TGcO3cGH3wgdpqVgU0bb9XlBU+facSBTz5GVnYEDz34IO6883aUlpaKiMqUX837h54NwY41SO/lOLMN7Zi44Hccx3GcawyzQhf8zkxDu6K4YQGO4oKFORMv9CmGBgeHcE5E95dHORP+IRw7Vou+3j5UV28QgbVVBFgG+vv70drair6+PnR1d+FEXR0iGdkijlKxICMDN69arRUCFFlyWXAtcd6Tor+/b0CEUa3cZwBjsTEMDw+hYOFCEfelKCzMQ3HxItxQUizPNI6mlrM4ceK4iqiKynKsX78Gq29ejbXr1uswlwwdu03xxt8wodfnffg7rp5OXPDPNfj+6Ng1nu9R7VJtlkNHJjAuttve1oG97+9DXd1X+KLmS6xZs05b9wcGLuD48VM4cuQYLgxd0O7HWzZvwfLlFViyZKnYZ6YI9CAx5JJKhtgqd7jkY0oKRQ6QwhUixJZ4f9E9co7cV1wwJwrzYNPsFUAbbmlpxtEvj6Cm5jDOd7SjtOQGufcNWF21StJIC3bs+Dt6eju1N8q2bQ9g/bp1KCjIV/sMNmpDBtjjYMpmOcmm48w2Jrtd8DuO4zjONYZZoQt+Z6bhOuUminWMs4WLvdGxcKetnGJi0eEoWlrbUF/fgMOHD6OxsRHn27swPDSKsmVlWLd+PfLy8sAx852dEi7xB0V0XRgaQm5Ont6DFQJREVOcG4AtrQtF2FNYDV0YlntPICc3B4sXFaFoUaHce0wn5ztz9hS+OPK5PNUEli0rwc2rb8a6tT/DUkkDnG8gV4Q+hwzExikMKdpDemDpkUMLGEbBf3U8Hc0l+P5YaTMFW9T5fin6JZwRklPUhvv6BsRWuvHO/72rlUfnmppEaC9DVVU1UlPS0dHRgd7eXrXZrq4+tTv2RKlavVZb/hcVFeuyfqykYnrIyIgE+xkbx2hsBJHMiC6xlyy2xAoy2hQrudiK39XZgba2NpxsbEBDY70cH0dx8WKUlN6A5cvLkZ2dibNna3HgwCcYkrSwZu0a/OLun2PDhvUoLS3RYQBTaTBZbTYJtFn2KBCbTAo9CdhLxXFmG5PdLvgdx3Ec5xrDrNAFvzOT0KYolmg9tCHux+ItmYQFO0KxzPHIjENhPTJCId6JpqZz+Kr+K5w53aSCq7u7G83NzViQsQBZmdkiepaIeC/WNfzDJJNJ2g2bIopdqil0srKytTDZ19evk621tbWita0Fo2NRDA8P6pJsZSLy8xfmithfJoXLCp0vYOnSYj2PwwH4nHzGUDkReimwtZ6/g7+JYZ5Grj/CGPsgMtRWJ13ovaHvNTmsP89w0tzcJuL6HD744APtcXKy4Zz2ArhlfTVWrFghtjuC8+e70NnRjehIFL29Iti7e5AdyRUbSkMkkqWVVuw1QnvlvAEpaWJLIr4pxJkOTp48iZ6eHu2JMiLXyBB7Lyws0OUsszIzUFpWgoX5+RgcHMTp0yflOZoRyUrSlTDu2LoVa9etQWVFhQ5LIXx+zgHA30mnlVQctsB0eJG2q48SnOPMMpaWXPA7juM4zjWGWaELfmdGEZsy4UQ1QRtT0UyhIVBwMSyIac6sHyY1I1Ywiw4Pa0tnV1cXTp86jdNnTqt45zAAViawcoDdpM+3n9dW/wsXhqSwmKoFRh1XL37BwgIsXrxEhRNn5WfX6LS0JClQZqJsuYj8ygoR+6UqxNjSiosUgGzhladmCy8fDGHsNSsSuK9BQmLaUAHlXDfYe+Q75DZfZQjjyw0vmC39Y2PjKp7HY7QBEcpJyWhuaUZ7ezsOH6rBiRMN2rNkcPCC2nd5WYUu8ZcETlA5oS3/XZ09ut3fPySiPwPpaek6hwXTwkSSXFd8ih6O16eQZ0VAViSCwqICFBQsRE5OttrtQH8vznec1yEnfMby8jKtDKiuXquTSt54Y5hMMgh8rjwQep7wN4WKqlBBpbaqv5OTA9Jj5YbbrzP7hPTlgt9xHMdxrjnMCl3wOzMLxVOYfEzUhEqLiRi3xZ74v4SxcMfDYfIwukuFF2cjB5fdE09CVORT7Pf09IqQ6tOKAHaBbm5uQXdXj3blD6Kca5KzAJmEvNx8LF1aoqIpLy8X+QvzpDAZUcGflc2J06YqI6jzU1LSQ5i2ALMllMKPa6jxmYOA4nHrJh2eMy6inOsH2hRfcdiUdxi27H2S2MVxFc+6BF9CZNoi3/foyBjaWs+jru6Ezj3R2HhS7CcNw0NR9PX2i1hfJBdORprYFHsAcAk+dvdnJUB0eASZYoPJackYGh7S3iS8B+efYNf8kegQent6EI1ewMjoiD5DXh57srCSDChfXo7bb9uiPVMW6RAVmy+DvVDi6/PLM/K3BLHP3xh+n4ZrSBymT3GOM9tYOnLB7ziO4zjXCMsC6dfU1ODZZ5/Fyy+/rEugMdMlVvglzIy5nxjmOJeHtkURLX5c8NPOaHJqP2pHoaWfBJsKYsvsUoMor/S8UCDkoXB8SmTrNS7ymiFcT9PtsKePINsaQlUvO2FOgVCZEO7JSfjYfT9Nrx8KnqkIdRH2DLyAxZ8ShiRx27lOiL/PuCeE9zz5LuM2FHqqBDFCl0rFrVGSdLlH2iHnlGAvk6amFnzxxRci/k9h6MKQtv5zRn6O5R8fmxDhnorW1jbtOaCt/ZEFuDA4qK3x7NK/ZOkS2eacEWPo6e5m0lHxs1TC165dg8pKTgq4WFeq4HwWfF61ZfFt/D+fn8+pTxjfnkor1lslXlkVIvEfbjnOjEIbMxLT1p49e7SB4bHHHpu0Rfpmqy74HcdxHGeGYCulZbScKO25557DSy+9pC38LIBaFmkZsbVqMtOm43E6y8Qdx3HmC/YdnA6/kxzPz+75HI/POSk4BwV9TvB35syZS0S4fUPpKisrUVJSgoKCAhQWFqrjcBMOXdF1+OP3M9++wY4z16HN2zATE/zbt2+f7N1i5Qz6Lvgdx3EcZ4bgBE6EGax16afgLy8v13AWXFmw5PHEgqVlyjyWWHB1HMeZL/B7OP37aEKc30X7NjKc2xQ7/KayJZ/bid9QEoYPpE0eI4n3IBbXzrX7Os5cJdFOLT2wS/+TTz6Jhx56CJFIROPxmKWZmRb8XkJxHMdx5i1WsGQmy4KohRErRFpGTRILmYTbjE/fnTt37uaTm/6NNMdj/C7at5E+hTy/n/QzMzO1xZ7hthoEHbvpM4zxzCVex66fiN3Pnbu56sxmaceE+ybsKfbpzzYu+B3HcZx5C0W+ZbzMmIll0HSWETOeZdI8boVXqyiw+O7cuXM3X5x9NxMdseOJYYTfS/uG0iWez/jEvsl2PrFj3LcKAGLx3Lmbq85sPnHbbDjR1mcb79LvOI7jzFtMrJNjx47hqaeewosvvojS0tLJ7qXEMmldw1n8xIoAwlYqx3Gc+QS/iybKE0mUFlYxynj0LYxxLMzEj1UAEItr8cxZmDnC8x1nLmKi3myccHv37t14+umn8cgjj2g5g7ZsaYW+j+F3HMdxnBmCmau52tpaHcP//PPP6xh+Zrp0Nt6UjvGs0JnI5cIcx3F+yvB7SOz7lyjIE+E+v5/07Vjit5TfWVamcp/b9E0ccducnWs+4zrOXMZsnvZr0Nb37duHF154Qcfwu+B3HMdxnFkkGo1qRsvxo/X19XjmmWcwMDAwWbi09XG5NjRnm+b60HbMs0/HceYziSKcJIoaYscoYCj4EydJpaBnfIbTN8Fv59A3AfRN8Di5UhzHmQvQtulo99Z4QKHPFn6rDDN7p++C33Ecx3FmCGaBzGDNtbS0TBY4CbeZSQ8PD+syOo2NjZMFVasMsJYox5mL0FavhhcFne8DhQltx+wn0Y5M4DCMgoawtxSh0OH3lsdN4DAeJ/Ljcn52nl3PbNgEPsN53vTjs8nV7mHP4jiJmLgntF8OFbT0wHTACSxpW+asQsAFv+M4juPMMMwKmdmaPx0WQt966y3U1dVNFjQt07aCq+PMRb6NbXpR0Pk+mG19k/1M/6ZaPAufjgl/IzH+dC53/mxyuWdI5Fo/j3N9MN1uaCdm/+bTsTyR2AMmJydHu/tT8F/N9r4NLvgdx3Ec5wowm2St/BtvvKGC3zJpZtDcZo281eA7juM4juN8G1iGoMCnS+wtyJZ/tvBXVlZqnB8q+l3wO47jOM4VMEH/2muv6Th/E/zmLMN2nLnItykoelHQca7M1dKRpyHn+0C7sV6CiY7zCm3fvh0VFRVavria/V0NF/yO4ziOcwWYGVP0v/LKK9rCz8yXrfuWfTIj9qzUcRzHcZzvCssQLGNwXiBrYOB8Fo8++uhkl/4fKvi9ScJxHMdxrgDFPDNh63ZHfmjm6ziO4zjO/CZRzJuf2KhA8T8TDQou+B3HcRznCjATpuBnjTuX57N9O2aZtOM4juM4znfByhEm7rmdnZ09KfRnoozhXfodx3Ec5wowm+SkfSdPnkR3d7fuW0s/ccHvOI7jOM4PxRoTOIZ/xYoVKCgouKS88X1xwe84juM4V4DZJJ0tmcNxdibyLQudiQzZcRzHcZz5A8sQbNlPLENwn+UNK2u44Hccx3GcWYbZJB0z3ulC3/BWfmeucrlinli0+ma10+3XzhCrj28FJuPHfcf56RBSRSxu9SkX5V819GDt4/F0lEKPq7DGE0ksNfgpzB/CpuN8a+z7zG+wlTOMxGNfg4e+g8G54Hccx3Ecx/mpMiHqxAqG4lOrTMRFzWTwtJIgtQ6Jxad6Milj8a29yfZN/EwFTHGFQ47zo3KpBJrQtDEmiSFZgtPVYumS1YZH4ga8YFxCYxIyIQHijWSIJwkiTY6lhCiOM7Mkmmki3+Gj+sP7CDiO4ziO4zjXDd9cTuQRyvvwHwuJXlB0fvqIooqLqmT5L7SofkMqYXCy/KO+hjjOHAf4f3DjvF/uEHukAAAAAElFTkSuQmCC;" vertex="1" parent="1">
          <mxGeometry x="270.35" y="180" width="829.27" height="500" as="geometry" />
        </mxCell>
        <mxCell id="U1zBWMsSg_qtkmrrzLIc-2" value="0.6*0.8" style="text;html=1;align=center;verticalAlign=middle;whiteSpace=wrap;rounded=0;labelBackgroundColor=default;labelBorderColor=none;fontSize=19;fontStyle=1" vertex="1" parent="1">
          <mxGeometry x="596.67" y="322.5" width="80" height="30" as="geometry" />
        </mxCell>
        <mxCell id="U1zBWMsSg_qtkmrrzLIc-3" value="0.4*0.3" style="text;html=1;align=center;verticalAlign=middle;whiteSpace=wrap;rounded=0;labelBackgroundColor=default;labelBorderColor=none;fontSize=19;fontStyle=1" vertex="1" parent="1">
          <mxGeometry x="644.99" y="362.5" width="80" height="30" as="geometry" />
        </mxCell>
        <mxCell id="U1zBWMsSg_qtkmrrzLIc-4" value="1.0*0.3" style="text;html=1;align=center;verticalAlign=middle;whiteSpace=wrap;rounded=0;labelBackgroundColor=default;labelBorderColor=none;fontSize=19;fontStyle=1" vertex="1" parent="1">
          <mxGeometry x="596.67" y="402.5" width="80" height="30" as="geometry" />
        </mxCell>
        <mxCell id="U1zBWMsSg_qtkmrrzLIc-5" value="S0-S0-S1" style="text;html=1;align=center;verticalAlign=middle;whiteSpace=wrap;rounded=0;labelBackgroundColor=default;labelBorderColor=none;fontSize=25;fontColor=#FF3333;fontStyle=1" vertex="1" parent="1">
          <mxGeometry x="309.99999999999994" y="540" width="210" height="60" as="geometry" />
        </mxCell>
        <mxCell id="U1zBWMsSg_qtkmrrzLIc-6" value="0.6*0.2" style="text;html=1;align=center;verticalAlign=middle;whiteSpace=wrap;rounded=0;labelBackgroundColor=default;labelBorderColor=none;fontSize=19;fontStyle=1" vertex="1" parent="1">
          <mxGeometry x="836.67" y="322.5" width="80" height="30" as="geometry" />
        </mxCell>
        <mxCell id="U1zBWMsSg_qtkmrrzLIc-7" value="0.4*0.7" style="text;html=1;align=center;verticalAlign=middle;whiteSpace=wrap;rounded=0;labelBackgroundColor=default;labelBorderColor=none;fontSize=19;fontStyle=1" vertex="1" parent="1">
          <mxGeometry x="886.67" y="362.5" width="80" height="30" as="geometry" />
        </mxCell>
        <mxCell id="U1zBWMsSg_qtkmrrzLIc-8" value="1.0*0.7" style="text;html=1;align=center;verticalAlign=middle;whiteSpace=wrap;rounded=0;labelBackgroundColor=default;labelBorderColor=none;fontSize=19;fontStyle=1" vertex="1" parent="1">
          <mxGeometry x="836.67" y="402.5" width="80" height="30" as="geometry" />
        </mxCell>
        <mxCell id="U1zBWMsSg_qtkmrrzLIc-9" value="0.03" style="text;html=1;align=center;verticalAlign=middle;whiteSpace=wrap;rounded=0;labelBackgroundColor=default;labelBorderColor=none;fontSize=19;fontStyle=1" vertex="1" parent="1">
          <mxGeometry x="973.3399999999999" y="317.5" width="106.67" height="40" as="geometry" />
        </mxCell>
        <mxCell id="U1zBWMsSg_qtkmrrzLIc-10" value="0.06" style="text;html=1;align=center;verticalAlign=middle;whiteSpace=wrap;rounded=0;labelBackgroundColor=default;labelBorderColor=none;fontSize=19;fontStyle=1" vertex="1" parent="1">
          <mxGeometry x="736.67" y="402.5" width="80" height="30" as="geometry" />
        </mxCell>
        <mxCell id="U1zBWMsSg_qtkmrrzLIc-11" value="0.06" style="text;html=1;align=center;verticalAlign=middle;whiteSpace=wrap;rounded=0;labelBackgroundColor=default;labelBorderColor=none;fontSize=19;fontStyle=1" vertex="1" parent="1">
          <mxGeometry x="986.67" y="405" width="80" height="27.5" as="geometry" />
        </mxCell>
        <mxCell id="U1zBWMsSg_qtkmrrzLIc-12" value="0.23" style="text;html=1;align=center;verticalAlign=middle;whiteSpace=wrap;rounded=0;labelBackgroundColor=default;labelBorderColor=none;fontSize=19;fontStyle=1" vertex="1" parent="1">
          <mxGeometry x="736.67" y="317.5" width="80" height="30" as="geometry" />
        </mxCell>
      </root>
    </mxGraphModel>
  </diagram>
</mxfile>
